<?xml version="1.0" encoding="iso-8859-1"?>
<!-- Generator: Adobe Illustrator 9.0, SVG Export Plug-In  -->
<!DOCTYPE svg PUBLIC "-//W3C//DTD SVG 20000303 Stylable//EN"   "http://www.w3.org/TR/2000/03/WD-SVG-20000303/DTD/svg-20000303-stylable.dtd" [
	<!ENTITY st0 "fill:#194C9F;stroke:none;">
	<!ENTITY st1 "fill-rule:nonzero;clip-rule:nonzero;stroke:#000000;stroke-miterlimit:4;">
]>
<svg  width="277.375pt" height="277.374pt" viewBox="0 0 277.375 277.374" xml:space="preserve">
	<g id="Layer_x0020_1" style="&st1;">
		<path style="&st0;" d="M138.687,0C62.092,0,0,62.093,0,138.687c0,76.595,62.092,138.687,138.687,138.687c76.596,0,138.688-62.092,138.688-138.687C277.375,62.093,215.283,0,138.687,0z M12.608,138.687c0-14.459,2.441-28.348,6.922-41.283h69.742V254.71
			c-45.07-19.221-76.664-63.931-76.664-116.023z M138.687,264.767c-6.37,0-12.628-0.477-18.744-1.389V97.404h12v107.046h114.329c-22.161,36.177-62.052,60.316-107.585,60.316z M162.615,179.97V97.404h0.096V72.925h-0.096h-30.671H31.102
			c22.161-36.177,62.052-60.317,107.585-60.317c69.632,0,126.079,56.448,126.079,126.079c0,14.46-2.441,28.348-6.923,41.283h-95.229z"/>
	</g>
</svg>
