  0
SECTION
  2
HEADER
  9
$ACADVER
  1
AC1012
  9
$DWGCODEPAGE
  3
dos932
  9
$INSBASE
 10
0.0
 20
0.0
 30
0.0
  9
$EXTMIN
 10
11.380184
 20
26.879324
 30
1.000000E+20
  9
$EXTMAX
 10
204.291062
 20
250.498405
 30
-1.000000E+20
  9
$LIMMIN
 10
11.380184
 20
26.879324
  9
$LIMMAX
 10
204.291062
 20
250.498405
  9
$ORTHOMODE
 70
     0
  9
$REGENMODE
 70
     1
  9
$FILLMODE
 70
     1
  9
$QTEXTMODE
 70
     0
  9
$MIRRTEXT
 70
     1
  9
$DRAGMODE
 70
     2
  9
$LTSCALE
 40
1.0
  9
$OSMODE
 70
     0
  9
$ATTMODE
 70
     1
  9
$TEXTSIZE
 40
0.2
  9
$TRACEWID
 40
0.05
  9
$TEXTSTYLE
  7
STANDARD
  9
$CLAYER
  8
0
  9
$CELTYPE
  6
CONTINUOUS
  9
$CECOLOR
 62
   256
  9
$CELTSCALE
 40
1.0
  9
$DELOBJ
 70
     1
  9
$DISPSILH
 70
     0
  9
$DIMSCALE
 40
1.0
  9
$DIMASZ
 40
0.18
  9
$DIMEXO
 40
0.0625
  9
$DIMDLI
 40
0.38
  9
$DIMRND
 40
0.0
  9
$DIMDLE
 40
0.0
  9
$DIMEXE
 40
0.18
  9
$DIMTP
 40
0.0
  9
$DIMTM
 40
0.0
  9
$DIMTXT
 40
0.18
  9
$DIMCEN
 40
0.09
  9
$DIMTSZ
 40
0.0
  9
$DIMTOL
 70
     0
  9
$DIMLIM
 70
     0
  9
$DIMTIH
 70
     1
  9
$DIMTOH
 70
     1
  9
$DIMSE1
 70
     0
  9
$DIMSE2
 70
     0
  9
$DIMTAD
 70
     0
  9
$DIMZIN
 70
     0
  9
$DIMBLK
  1

  9
$DIMASO
 70
     1
  9
$DIMSHO
 70
     1
  9
$DIMPOST
  1

  9
$DIMAPOST
  1

  9
$DIMALT
 70
     0
  9
$DIMALTD
 70
     2
  9
$DIMALTF
 40
25.4
  9
$DIMLFAC
 40
1.0
  9
$DIMTOFL
 70
     0
  9
$DIMTVP
 40
0.0
  9
$DIMTIX
 70
     0
  9
$DIMSOXD
 70
     0
  9
$DIMSAH
 70
     0
  9
$DIMBLK1
  1

  9
$DIMBLK2
  1

  9
$DIMSTYLE
  2
STANDARD
  9
$DIMCLRD
 70
     0
  9
$DIMCLRE
 70
     0
  9
$DIMCLRT
 70
     0
  9
$DIMTFAC
 40
1.0
  9
$DIMGAP
 40
0.09
  9
$DIMJUST
 70
     0
  9
$DIMSD1
 70
     0
  9
$DIMSD2
 70
     0
  9
$DIMTOLJ
 70
     1
  9
$DIMTZIN
 70
     0
  9
$DIMALTZ
 70
     0
  9
$DIMALTTZ
 70
     0
  9
$DIMFIT
 70
     3
  9
$DIMUPT
 70
     0
  9
$DIMUNIT
 70
     2
  9
$DIMDEC
 70
     4
  9
$DIMTDEC
 70
     4
  9
$DIMALTU
 70
     2
  9
$DIMALTTD
 70
     2
  9
$DIMTXSTY
  7
STANDARD
  9
$DIMAUNIT
 70
     0
  9
$LUNITS
 70
     2
  9
$LUPREC
 70
     4
  9
$SKETCHINC
 40
0.1
  9
$FILLETRAD
 40
0.0
  9
$AUNITS
 70
     0
  9
$AUPREC
 70
     0
  9
$MENU
  1
acad
  9
$ELEVATION
 40
0.0
  9
$PELEVATION
 40
0.0
  9
$THICKNESS
 40
0.0
  9
$LIMCHECK
 70
     0
  9
$BLIPMODE
 70
     1
  9
$CHAMFERA
 40
0.0
  9
$CHAMFERB
 40
0.0
  9
$CHAMFERC
 40
0.0
  9
$CHAMFERD
 40
0.0
  9
$SKPOLY
 70
     0
  9
$TDCREATE
 40
0.000000000
  9
$TDUPDATE
 40
0.000000000
  9
$TDINDWG
 40
0.0000000000
  9
$TDUSRTIMER
 40
0.0000000000
  9
$USRTIMER
 70
     1
  9
$ANGBASE
 50
0.0
  9
$ANGDIR
 70
     0
  9
$PDMODE
 70
     0
  9
$PDSIZE
 40
0.0
  9
$PLINEWID
 40
0.0
  9
$COORDS
 70
     0
  9
$SPLFRAME
 70
     0
  9
$SPLINETYPE
 70
     6
  9
$SPLINESEGS
 70
     8
  9
$ATTDIA
 70
     0
  9
$ATTREQ
 70
     1
  9
$HANDLING
 70
     1
  9
$HANDSEED
  5
2D
  9
$SURFTAB1
 70
     6
  9
$SURFTAB2
 70
     6
  9
$SURFTYPE
 70
     6
  9
$SURFU
 70
     6
  9
$SURFV
 70
     6
  9
$UCSNAME
  2

  9
$UCSORG
 10
0.0
 20
0.0
 30
0.0
  9
$UCSXDIR
 10
1.0
 20
0.0
 30
0.0
  9
$UCSYDIR
 10
0.0
 20
1.0
 30
0.0
  9
$PUCSNAME
  2

  9
$PUCSORG
 10
0.0
 20
0.0
 30
0.0
  9
$PUCSXDIR
 10
1.0
 20
0.0
 30
0.0
  9
$PUCSYDIR
 10
0.0
 20
1.0
 30
0.0
  9
$USERI1
 70
     0
  9
$USERI2
 70
     0
  9
$USERI3
 70
     0
  9
$USERI4
 70
     0
  9
$USERI5
 70
     0
  9
$USERR1
 40
0.0
  9
$USERR2
 40
0.0
  9
$USERR3
 40
0.0
  9
$USERR4
 40
0.0
  9
$USERR5
 40
0.0
  9
$WORLDVIEW
 70
     1
  9
$SHADEDGE
 70
     3
  9
$SHADEDIF
 70
    70
  9
$TILEMODE
 70
     1
  9
$MAXACTVP
 70
    16
  9
$PINSBASE
 10
0.0
 20
0.0
 30
0.0
  9
$PLIMCHECK
 70
     0
  9
$PEXTMIN
 10
1.000000E+20
 20
1.000000E+20
 30
1.000000E+20
  9
$PEXTMAX
 10
-1.000000E+20
 20
-1.000000E+20
 30
-1.000000E+20
  9
$PLIMMIN
 10
0.0
 20
0.0
  9
$PLIMMAX
 10
12.0
 20
9.0
  9
$UNITMODE
 70
     0
  9
$VISRETAIN
 70
     0
  9
$PLINEGEN
 70
     1
  9
$PSLTSCALE
 70
     0
  9
$TREEDEPTH
 70
  3020
  9
$PICKSTYLE
 70
     1
  9
$CMLSTYLE
  2
STANDARD
  9
$CMLJUST
 70
     0
  9
$CMLSCALE
 40
1.0
  9
$SAVEIMAGES
 70
     0
  0
ENDSEC
  0
SECTION
  2
CLASSES
  0
CLASS
  1
LWPOLYLINE
  2
AcDbPolyline
  3
"AutoCAD"
 90
        0
280
     0
281
     1
  0
CLASS
  1
IMAGE
  2
AcDbRasterImage
  3
ISM
 90
      127
280
     0
281
     1
  0
CLASS
  1
OLE2FRAME
  2
AcDbOle2Frame
  3
""
 90
        0
280
     0
281
     1
  0
CLASS
  1
HATCH
  2
AcDbHatch
  3
"ACAD_SEDONA"
 90
        0
280
     0
281
     1
  0
CLASS
  1
DICTIONARYVAR
  2
AcDbDictionaryVar
  3
"AutoCAD"
 90
        0
280
     0
281
     0
  0
CLASS
  1
RASTERVARIABLES
  2
AcDbRasterVariables
  3
ISM
 90
        0
280
     0
281
     0
  0
CLASS
  1
IMAGEDEF
  2
AcDbRasterImageDef
  3
ISM
 90
        0
280
     0
281
     0
  0
CLASS
  1
IMAGEDEF_REACTOR
  2
AcDbRasterImageDefReactor
  3
ISM
 90
        1
280
     0
281
     0
  0
CLASS
  1
IDBUFFER
  2
AcDbIdBuffer
  3
"Acad"
 90
        0
280
     0
281
     0
  0
CLASS
  1
SPATIAL_FILTER
  2
AcDbSpatialFilter
  3
"Acad"
 90
        0
280
     0
281
     0
  0
CLASS
  1
XRECORD
  2
AcDbXrecord
  3
"<Built In>"
 90
        0
280
     0
281
     0
  0
CLASS
  1
SORTENTSTABLE
  2
AcDbSortentsTable
  3
"AutoCAD"
 90
        0
280
     0
281
     0
  0
CLASS
  1
LAYER_INDEX
  2
AcDbLayerIndex
  3
"Acad"
 90
        0
280
     0
281
     0
  0
CLASS
  1
SPATIAL_INDEX
  2
AcDbSpatialIndex
  3
"Acad"
 90
        0
280
     0
281
     0
  0
CLASS
  1
OBJECT_PTR
  2
CAseDLPNTableRecord
  3
"ASE-LPNTableRecord"
 90
        1
280
     0
281
     0
  0
CLASS
  1
LAYOUT
  2
AcDbLayout
  3
"AutoCAD 2000"
 90
        1
280
     0
281
     0
  0
CLASS
  1
PLOTSETTINGS
  2
AcDbPlotSettings
  3
"AutoCAD 2000"
 90
        1
280
     0
281
     0
  0
CLASS
  1
ACDBDICTIONARYWDFLT
  2
AcDbDictionaryWithDefault
  3
"AutoCAD 2000"
 90
        1
280
     0
281
     0
  0
CLASS
  1
ACDBPLACEHOLDER
  2
AcDbPlaceHolder
  3
"AutoCAD 2000"
 90
        1
280
     0
281
     0
  0
CLASS
  1
VBA_PROJECT
  2
AcDbVbaProject
  3
"acadvba"
 90
        1
280
     0
281
     0
  0
CLASS
  1
WIPEOUT
  2
AcDbWipeout
  3
WipeOut|AutoCAD Express Tool|expresstools@autodesk.com
 90
      127
280
     0
281
     1
  0
CLASS
  1
WIPEOUTVARIABLES
  2
AcDbWipeoutVariables
  3
WipeOut|AutoCAD Express Tool|expresstools@autodesk.com
 90
        0
280
     0
281
     0
  0
CLASS
  1
RTEXT
  2
RText
  3
RText|AutoCAD Express Tool|expresstools@autodesk.com
 90
        0
280
     0
281
     1
  0
CLASS
  1
ARCALIGNEDTEXT
  2
AcDbArcAlignedText
  3
ATEXT|AutoCAD Express Tool|expresstools@autodesk.com
 90
        0
280
     0
281
     1
  0
ENDSEC
  0
SECTION
  2
TABLES
  0
TABLE
  2
VPORT
  5
7
100
AcDbSymbolTable
 70
     1
  0
VPORT
  5
15
100
AcDbSymbolTableRecord
100
AcDbViewportTableRecord
  2
*ACTIVE
 70
     0
 10
0.0
 20
0.0
 11
1.0
 21
1.0
 12
6.591288
 22
4.579184
 13
0.0
 23
0.0
 14
1.0
 24
1.0
 15
0.0
 25
0.0
 16
0.0
 26
0.0
 36
1.0
 17
0.0
 27
0.0
 37
0.0
 40
9.158369
 41
0.688564
 42
50.0
 43
0.0
 44
0.0
 50
0.0
 51
0.0
 71
     0
 72
   100
 73
     1
 74
     1
 75
     0
 76
     0
 77
     0
 78
     0
  0
ENDTAB
  0
TABLE
  2
LTYPE
  5
4
100
AcDbSymbolTable
 70
     3
  0
LTYPE
  5
11
100
AcDbSymbolTableRecord
100
AcDbLinetypeTableRecord
  2
BYBLOCK
 70
    64
  3

 72
    65
 73
     0
 40
0.0
  0
LTYPE
  5
12
100
AcDbSymbolTableRecord
100
AcDbLinetypeTableRecord
  2
BYLAYER
 70
    64
  3

 72
    65
 73
     0
 40
0.0
  0
LTYPE
  5
13
100
AcDbSymbolTableRecord
100
AcDbLinetypeTableRecord
  2
CONTINUOUS
 70
    64
  3
Solid line
 72
    65
 73
     0
 40
0.0
  0
ENDTAB
  0
TABLE
  2
LAYER
  5
2
100
AcDbSymbolTable
 70
     2
  0
LAYER
  5
14
100
AcDbSymbolTableRecord
100
AcDbLayerTableRecord
  2
0
 70
     0
 62
     7
  6
CONTINUOUS
  0
LAYER
  5
21
100
AcDbSymbolTableRecord
100
AcDbLayerTableRecord
  2
LAYER_1
 70
     0
 62
   160
  6
CONTINUOUS
  0
ENDTAB
  0
TABLE
  2
STYLE
  5
3
100
AcDbSymbolTable
 70
     5
  0
STYLE
  5
17
100
AcDbSymbolTableRecord
100
AcDbTextStyleTableRecord
  2
STANDARD
 70
     0
 40
0.0
 41
1.0
 50
0.0
 71
     0
 42
0.0
  3
txt
  4

  0
STYLE
  5
1D
100
AcDbSymbolTableRecord
100
AcDbTextStyleTableRecord
  2
STD
 70
     0
 40
0.0
 41
1.0
 50
0.0
 71
     0
 42
0.0
  3
txt
  4

  0
STYLE
  5
1E
100
AcDbSymbolTableRecord
100
AcDbTextStyleTableRecord
  2
TATESTD
 70
     4
 40
0.0
 41
1.0
 50
0.0
 71
     0
 42
0.0
  3
txt
  4

  0
STYLE
  5
1F
100
AcDbSymbolTableRecord
100
AcDbTextStyleTableRecord
  2
KANJISTD
 70
     0
 40
0.0
 41
1.0
 50
0.0
 71
     0
 42
0.0
  3
txt
  4
extfont
  0
STYLE
  5
20
100
AcDbSymbolTableRecord
100
AcDbTextStyleTableRecord
  2
KANJITATE
 70
     4
 40
0.0
 41
1.0
 50
0.0
 71
     0
 42
0.0
  3
txt
  4
extfont
  0
ENDTAB
  0
TABLE
  2
VIEW
  5
5
100
AcDbSymbolTable
 70
     0
  0
ENDTAB
  0
TABLE
  2
UCS
  5
6
100
AcDbSymbolTable
 70
     0
  0
ENDTAB
  0
TABLE
  2
APPID
  5
8
100
AcDbSymbolTable
 70
     1
  0
APPID
  5
16
100
AcDbSymbolTableRecord
100
AcDbRegAppTableRecord
  2
ACAD
 70
     0
  0
ENDTAB
  0
TABLE
  2
DIMSTYLE
  5
9
100
AcDbSymbolTable
 70
     1
  0
DIMSTYLE
105
18
100
AcDbSymbolTableRecord
100
AcDbDimStyleTableRecord
  2
STANDARD
 70
     0
  3

  4

  5

  6

  7

 40
1.0
 41
0.18
 42
0.0625
 43
0.38
 44
0.18
 45
0.0
 46
0.0
 47
0.0
 48
0.0
 71
     0
 72
     0
 73
     1
 74
     1
 75
     0
 76
     0
 77
     0
 78
     0
140
0.18
141
0.09
142
0.0
143
25.4
144
1.0
145
0.0
146
1.0
147
0.09
170
     0
171
     2
172
     0
173
     0
174
     0
175
     0
176
     0
177
     0
178
     0
270
     2
271
     4
272
     4
273
     2
274
     2
275
     0
280
     0
281
     0
282
     0
283
     1
284
     0
285
     0
286
     0
287
     0
288
     0
340
17
  0
ENDTAB
  0
TABLE
  2
BLOCK_RECORD
  5
1
100
AcDbSymbolTable
 70
     1
  0
BLOCK_RECORD
  5
A
100
AcDbSymbolTableRecord
100
AcDbBlockTableRecord
  2
*MODEL_SPACE
  0
BLOCK_RECORD
  5
B
100
AcDbSymbolTableRecord
100
AcDbBlockTableRecord
  2
*PAPER_SPACE
  0
BLOCK_RECORD
  5
22
100
AcDbSymbolTableRecord
100
AcDbBlockTableRecord
  2
AI9-BLK1
  0
ENDTAB
  0
ENDSEC
  0
SECTION
  2
BLOCKS
  0
BLOCK
  5
D
100
AcDbEntity
  8
0
100
AcDbBlockBegin
  2
*MODEL_SPACE
 70
     0
 10
0.0
 20
0.0
 30
0.0
  3
*MODEL_SPACE
  1

  0
ENDBLK
  5
E
100
AcDbEntity
  8
0
100
AcDbBlockEnd
  0
BLOCK
  5
F
100
AcDbEntity
 67
     1
  8
0
100
AcDbBlockBegin
  2
*PAPER_SPACE
 70
     0
 10
0.0
 20
0.0
 30
0.0
  3
*PAPER_SPACE
  1

  0
ENDBLK
  5
10
100
AcDbEntity
 67
     1
  8
0
100
AcDbBlockEnd
  0
BLOCK
  5
24
100
AcDbEntity
  8
LAYER_1
 62
     7
100
AcDbBlockBegin
  2
AI9-BLK1
 70
     0
 10
0.0
 20
0.0
 30
0.0
  3
AI9-BLK1
  1

  0
CIRCLE
  5
29
100
AcDbEntity
  8
LAYER_1
 62
     7
100
AcDbCircle
 10
10.206268
 20
-5.13836
 30
0.0
 40
69.993833
  0
SPLINE
  5
28
100
AcDbEntity
  8
LAYER_1
 62
     7
100
AcDbSpline
210
0.0
220
0.0
230
1.0
 70
     8
 71
     3
 72
    68
 73
    64
 74
     0
 42
0.00000001
 43
0.00000001
 40
0.0
 40
0.0
 40
0.0
 40
0.0
 40
1.0
 40
1.0
 40
1.0
 40
2.0
 40
2.0
 40
2.0
 40
3.0
 40
3.0
 40
3.0
 40
4.0
 40
4.0
 40
4.0
 40
5.0
 40
5.0
 40
5.0
 40
6.0
 40
6.0
 40
6.0
 40
7.0
 40
7.0
 40
7.0
 40
8.0
 40
8.0
 40
8.0
 40
9.0
 40
9.0
 40
9.0
 40
10.0
 40
10.0
 40
10.0
 40
11.0
 40
11.0
 40
11.0
 40
12.0
 40
12.0
 40
12.0
 40
13.0
 40
13.0
 40
13.0
 40
14.0
 40
14.0
 40
14.0
 40
15.0
 40
15.0
 40
15.0
 40
16.0
 40
16.0
 40
16.0
 40
17.0
 40
17.0
 40
17.0
 40
18.0
 40
18.0
 40
18.0
 40
19.0
 40
19.0
 40
19.0
 40
20.0
 40
20.0
 40
20.0
 40
21.0
 40
21.0
 40
21.0
 40
21.0
 10
80.157036675347214
 20
111.41921115451387
 30
0.0
 10
83.353051757812494
 20
108.6045681423611
 30
0.0
 10
95.613457573784714
 20
91.860026041666657
 30
0.0
 10
96.138145616319434
 20
88.401494683159711
 30
0.0
 10
98.33267144097222
 20
73.803591579861106
 30
0.0
 10
74.360663519965271
 20
46.897740342881939
 30
0.0
 10
63.555466037326383
 20
37.929123263888883
 30
0.0
 10
49.434708658854163
 20
26.265407986111107
 30
0.0
 10
30.424327256944441
 20
22.949848090277776
 30
0.0
 10
13.178868272569444
 20
17.034274631076386
 30
0.0
 10
9.6007921006944432
 20
15.341010199652777
 30
0.0
 10
6.0230604383680548
 20
13.647401258680555
 30
0.0
 10
2.4212131076388888
 20
11.9775634765625
 30
0.0
 10
-3.2797309027777777
 20
9.6400661892361104
 30
0.0
 10
-8.9565592447916664
 20
7.302568901909722
 30
0.0
 10
-14.657158745659721
 20
4.9650716145833327
 30
0.0
 10
-26.130360243055552
 20
0.3851616753472222
 30
0.0
 10
-42.51730143229166
 20
-5.0053792317708332
 30
0.0
 10
-55.087421332465276
 20
-7.0565890842013879
 30
0.0
 10
-58.856011284722214
 20
-7.5340793185763886
 30
0.0
 10
-62.624945746527771
 20
-8.0108805338541664
 30
0.0
 10
-66.393535698784717
 20
-8.4642550998263886
 30
0.0
 10
-75.50512424045138
 20
-10.062090386284721
 30
0.0
 10
-85.738091362847214
 20
-12.233189561631944
 30
0.0
 10
-95.398139105902771
 20
-12.233189561631944
 30
0.0
 10
-95.398139105902771
 20
-11.732272677951388
 30
0.0
 10
-95.398139105902771
 20
-11.231355794270833
 30
0.0
 10
-95.398139105902771
 20
-10.7063232421875
 30
0.0
 10
-95.135622829861106
 20
-10.7063232421875
 30
0.0
 10
-94.873451063368051
 20
-10.7063232421875
 30
0.0
 10
-94.634705946180546
 20
-10.7063232421875
 30
0.0
 10
-93.299386935763877
 20
-6.9373887803819434
 30
0.0
 10
-82.685047743055549
 20
13.098597547743054
 30
0.0
 10
-79.226171874999991
 20
13.790372721354165
 30
0.0
 10
-71.140188259548609
 20
13.504085286458333
 30
0.0
 10
-63.03008897569444
 20
13.218142361111109
 30
0.0
 10
-54.944449869791661
 20
12.955626085069444
 30
0.0
 10
-52.797466362847217
 20
14.052888997395833
 30
0.0
 10
-48.217900933159719
 20
13.051055230034722
 30
0.0
 10
-45.784629991319441
 20
13.003168402777776
 30
0.0
 10
-37.388932291666663
 20
12.979397243923611
 30
0.0
 10
-28.992545572916665
 20
12.955626085069444
 30
0.0
 10
-20.596503363715275
 20
12.955626085069444
 30
0.0
 10
-18.020605468749999
 20
14.124546983506944
 30
0.0
 10
-13.058978949652776
 20
13.719059244791666
 30
0.0
 10
-9.9105061848958318
 20
13.719059244791666
 30
0.0
 10
-7.8830674913194434
 20
13.981231011284722
 30
0.0
 10
-5.8318576388888888
 20
14.21997612847222
 30
0.0
 10
-3.8040744357638885
 20
14.482147894965276
 30
0.0
 10
-2.2778971354166666
 20
14.744664171006944
 30
0.0
 10
-0.7510308159722221
 20
14.983064778645831
 30
0.0
 10
0.7754909939236111
 20
15.245581054687499
 30
0.0
 10
6.046831597222222
 20
18.131537543402775
 30
0.0
 10
12.272463650173609
 20
18.704112413194444
 30
0.0
 10
17.496261935763886
 20
21.470868598090277
 30
0.0
 10
28.277688259548608
 20
27.219354926215274
 30
0.0
 10
36.816701931423609
 20
35.615741644965276
 30
0.0
 10
46.04783528645833
 20
43.987668185763887
 30
0.0
 10
49.76853841145833
 20
47.398657226562499
 30
0.0
 10
55.135652669270826
 20
51.668508572048609
 30
0.0
 10
58.498754882812491
 20
55.222469075520827
 30
0.0
 10
72.428653971354166
 20
70.05877278645832
 30
0.0
 10
80.157036675347214
 20
89.379212782118046
 30
0.0
 10
80.157036675347214
 20
111.41921115451387
 30
0.0
  0
SPLINE
  5
27
100
AcDbEntity
  8
LAYER_1
 62
     7
100
AcDbSpline
210
0.0
220
0.0
230
1.0
 70
     8
 71
     3
 72
    41
 73
    37
 74
     0
 42
0.00000001
 43
0.00000001
 40
0.0
 40
0.0
 40
0.0
 40
0.0
 40
1.0
 40
1.0
 40
1.0
 40
2.0
 40
2.0
 40
2.0
 40
3.0
 40
3.0
 40
3.0
 40
4.0
 40
4.0
 40
4.0
 40
5.0
 40
5.0
 40
5.0
 40
6.0
 40
6.0
 40
6.0
 40
7.0
 40
7.0
 40
7.0
 40
8.0
 40
8.0
 40
8.0
 40
9.0
 40
9.0
 40
9.0
 40
10.0
 40
10.0
 40
10.0
 40
11.0
 40
11.0
 40
11.0
 40
12.0
 40
12.0
 40
12.0
 40
12.0
 10
6.8819227430555552
 20
-1.5471923828124998
 30
0.0
 10
9.1239908854166654
 20
-4.9337212456597221
 30
0.0
 10
5.2358561197916664
 20
-18.601793077256943
 30
0.0
 10
4.4011094835069438
 20
-22.084095594618052
 30
0.0
 10
0.7276041666666666
 20
-37.015828450520829
 30
0.0
 10
-4.9729953342013884
 20
-52.114303927951383
 30
0.0
 10
-13.369037543402776
 20
-64.565568033854163
 30
0.0
 10
-16.326996527777776
 20
-68.906388346354163
 30
0.0
 10
-20.119357638888886
 20
-71.649373372395829
 30
0.0
 10
-23.81663411458333
 20
-75.370765516493051
 30
0.0
 10
-37.436474609374997
 20
-88.96649034288194
 30
0.0
 10
-52.916666666666664
 20
-98.578995768229163
 30
0.0
 10
-71.784076605902769
 20
-102.06198730468749
 30
0.0
 10
-74.598719618055554
 20
-102.56290418836805
 30
0.0
 10
-79.178629557291657
 20
-103.34976399739583
 30
0.0
 10
-81.993272569444443
 20
-102.20461425781249
 30
0.0
 10
-84.617057291666654
 20
-101.10769585503472
 30
0.0
 10
-95.636539713541652
 20
-90.588441297743046
 30
0.0
 10
-96.257001410590263
 20
-87.65459798177082
 30
0.0
 10
-94.134133572048597
 20
-86.366821289062486
 30
0.0
 10
-90.77068684895832
 20
-86.271047634548609
 30
0.0
 10
-87.765185546874989
 20
-86.271047634548609
 30
0.0
 10
-85.475575086805549
 20
-86.009220377604166
 30
0.0
 10
-83.185964626736109
 20
-85.770130750868049
 30
0.0
 10
-80.895665147569431
 20
-85.508303493923606
 30
0.0
 10
-79.106971571180551
 20
-85.24578721788194
 30
0.0
 10
-77.317933485243046
 20
-85.007386610243046
 30
0.0
 10
-75.553011067708326
 20
-84.74487033420138
 30
0.0
 10
-71.760305447048609
 20
-83.69549424913194
 30
0.0
 10
-67.943828667534717
 20
-82.645429144965277
 30
0.0
 10
-64.151123046875
 20
-81.572626410590274
 30
0.0
 10
-57.806635199652774
 20
-79.688159179687489
 30
0.0
 10
-51.795632595486104
 20
-77.374433051215277
 30
0.0
 10
-45.975488281249994
 20
-74.488132052951386
 30
0.0
 10
-20.858675130208333
 20
-61.917667643229159
 30
0.0
 10
2.2782416449652776
 20
-29.120358615451387
 30
0.0
 10
6.8819227430555552
 20
-1.5471923828124998
 30
0.0
  0
SPLINE
  5
26
100
AcDbEntity
  8
LAYER_1
 62
     7
100
AcDbSpline
210
0.0
220
0.0
230
1.0
 70
     8
 71
     3
 72
    35
 73
    31
 74
     0
 42
0.00000001
 43
0.00000001
 40
0.0
 40
0.0
 40
0.0
 40
0.0
 40
1.0
 40
1.0
 40
1.0
 40
2.0
 40
2.0
 40
2.0
 40
3.0
 40
3.0
 40
3.0
 40
4.0
 40
4.0
 40
4.0
 40
5.0
 40
5.0
 40
5.0
 40
6.0
 40
6.0
 40
6.0
 40
7.0
 40
7.0
 40
7.0
 40
8.0
 40
8.0
 40
8.0
 40
9.0
 40
9.0
 40
9.0
 40
10.0
 40
10.0
 40
10.0
 40
10.0
 10
16.041053602430555
 20
-6.8898464626736109
 30
0.0
 10
18.736496310763886
 20
-9.7520317925347211
 30
0.0
 10
21.145651584201389
 20
-27.927666558159721
 30
0.0
 10
22.218798828124999
 20
-32.817635091145831
 30
0.0
 10
24.795041232638887
 20
-44.743866644965273
 30
0.0
 10
29.517922634548608
 20
-55.477406141493049
 30
0.0
 10
34.813034396701383
 20
-65.805802408854163
 30
0.0
 10
36.697501627604161
 20
-69.8131374782986
 30
0.0
 10
38.605740017361107
 20
-73.820472547743051
 30
0.0
 10
40.490207248263886
 20
-77.803691948784717
 30
0.0
 10
46.739265950520831
 20
-88.393915473090274
 30
0.0
 10
58.188696289062491
 20
-97.720477973090269
 30
0.0
 10
69.49481065538194
 20
-101.37021213107639
 30
0.0
 10
72.595741102430551
 20
-102.34793023003472
 30
0.0
 10
76.602731662326377
 20
-103.8265652126736
 30
0.0
 10
80.157036675347214
 20
-103.8265652126736
 30
0.0
 10
80.157036675347214
 20
-104.08908148871527
 30
0.0
 10
80.157036675347214
 20
-104.35159776475693
 30
0.0
 10
80.157036675347214
 20
-104.58999837239583
 30
0.0
 10
79.894520399305549
 20
-104.58999837239583
 30
0.0
 10
79.656119791666654
 20
-104.58999837239583
 30
0.0
 10
79.393603515624989
 20
-104.58999837239583
 30
0.0
 10
75.457926432291657
 20
-106.83206651475693
 30
0.0
 10
62.887462022569437
 20
-112.07963595920138
 30
0.0
 10
58.069495985243051
 20
-111.60283474392359
 30
0.0
 10
50.865801323784716
 20
-110.86351725260415
 30
0.0
 10
44.067938910590271
 20
-104.73331434461805
 30
0.0
 10
39.845974392361107
 20
-99.104028320312494
 30
0.0
 10
21.073993598090276
 20
-74.082988823784717
 30
0.0
 10
17.09077419704861
 20
-40.974932183159716
 30
0.0
 10
16.041053602430555
 20
-6.8898464626736109
 30
0.0
  0
CIRCLE
  5
25
100
AcDbEntity
  8
LAYER_1
 62
     7
100
AcDbCircle
 10
4.521343
 20
65.692459
 30
0.0
 40
27.408146
  0
ENDBLK
  5
2A
100
AcDbEntity
  8
LAYER_1
100
AcDbBlockEnd
  0
ENDSEC
  0
SECTION
  2
ENTITIES
  0
INSERT
  5
23
100
AcDbEntity
  8
LAYER_1
 62
     7
100
AcDbBlockReference
  2
AI9-BLK1
 10
107.835623
 20
138.688864
 30
0.0
  0
ENDSEC
  0
SECTION
  2
OBJECTS
  0
DICTIONARY
  5
19
100
AcDbDictionary
  3
ACAD_GROUP
350
1A
  3
ACAD_MLINESTYLE
350
1B
  0
DICTIONARY
  5
1A
102
{ACAD_REACTORS
330
19
102
}
100
AcDbDictionary
  0
DICTIONARY
  5
1B
102
{ACAD_REACTORS
330
19
102
}
100
AcDbDictionary
  3
STANDARD
350
1C
  0
MLINESTYLE
  5
1C
102
{ACAD_REACTORS
330
1B
102
}
100
AcDbMlineStyle
  2
STANDARD
 70
     0
  3

 62
     0
 51
90.0
 52
90.0
 71
     2
 49
0.5
 62
   256
  6
BYLAYER
 49
-0.5
 62
   256
  6
BYLAYER
  0
ENDSEC
  0
EOF
