  0
SECTION
  2
HEADER
  9
$ACADVER
  1
AC1014
  9
$ACADMAINTVER
 70
           0
  9
$DWGCODEPAGE
  3
ANSI_1252
  9
$INSBASE
 10
0.0
 20
0.0
 30
0.0
  9
$EXTMIN
 10
-97.168658214537
 20
-111.602835243924
 30
0.0
  9
$EXTMAX
 10
309.183600161774
 20
116.276236063407
 30
0.0
  9
$LIMMIN
 10
-97.168658214537
 20
-111.602835243924
  9
$LIMMAX
 10
309.183600161774
 20
116.276236063407
  9
$ORTHOMODE
 70
           0
  9
$REGENMODE
 70
           1
  9
$FILLMODE
 70
           1
  9
$QTEXTMODE
 70
           0
  9
$MIRRTEXT
 70
           1
  9
$DRAGMODE
 70
           2
  9
$LTSCALE
 40
1.0
  9
$OSMODE
 70
           0
  9
$ATTMODE
 70
           1
  9
$TEXTSIZE
 40
0.2
  9
$TRACEWID
 40
0.05
  9
$TEXTSTYLE
  7
STANDARD
  9
$CLAYER
  8
0
  9
$CELTYPE
  6
CONTINUOUS
  9
$CECOLOR
 62
         256
  9
$CELTSCALE
 40
1.0
  9
$DELOBJ
 70
           1
  9
$DISPSILH
 70
           0
  9
$DIMSCALE
 40
1.0
  9
$DIMASZ
 40
0.18
  9
$DIMEXO
 40
0.0625
  9
$DIMDLI
 40
0.38
  9
$DIMRND
 40
0.0
  9
$DIMDLE
 40
0.0
  9
$DIMEXE
 40
0.18
  9
$DIMTP
 40
0.0
  9
$DIMTM
 40
0.0
  9
$DIMTXT
 40
0.18
  9
$DIMCEN
 40
0.09
  9
$DIMTSZ
 40
0.0
  9
$DIMTOL
 70
           0
  9
$DIMLIM
 70
           0
  9
$DIMTIH
 70
           1
  9
$DIMTOH
 70
           1
  9
$DIMSE1
 70
           0
  9
$DIMSE2
 70
           0
  9
$DIMTAD
 70
           0
  9
$DIMZIN
 70
           0
  9
$DIMBLK
  1

  9
$DIMASO
 70
           1
  9
$DIMSHO
 70
           1
  9
$DIMPOST
  1

  9
$DIMAPOST
  1

  9
$DIMALT
 70
           0
  9
$DIMALTD
 70
           2
  9
$DIMALTF
 40
25.4
  9
$DIMLFAC
 40
1.0
  9
$DIMTOFL
 70
           0
  9
$DIMTVP
 40
0.0
  9
$DIMTIX
 70
           0
  9
$DIMSOXD
 70
           0
  9
$DIMSAH
 70
           0
  9
$DIMBLK1
  1

  9
$DIMBLK2
  1

  9
$DIMSTYLE
  2
STANDARD
  9
$DIMCLRD
 70
           0
  9
$DIMCLRE
 70
           0
  9
$DIMCLRT
 70
           0
  9
$DIMTFAC
 40
1.0
  9
$DIMGAP
 40
0.09
  9
$DIMJUST
 70
           0
  9
$DIMSD1
 70
           0
  9
$DIMSD2
 70
           0
  9
$DIMTOLJ
 70
           1
  9
$DIMTZIN
 70
           0
  9
$DIMALTZ
 70
           0
  9
$DIMALTTZ
 70
           0
  9
$DIMFIT
 70
           3
  9
$DIMUPT
 70
           0
  9
$DIMUNIT
 70
           3
  9
$DIMDEC
 70
           4
  9
$DIMTDEC
 70
           4
  9
$DIMALTU
 70
           2
  9
$DIMALTTD
 70
           2
  9
$DIMTXSTY
  7
STANDARD
  9
$DIMAUNIT
 70
           0
  9
$LUNITS
 70
           3
  9
$LUPREC
 70
           5
  9
$SKETCHINC
 40
0.1
  9
$FILLETRAD
 40
0.0
  9
$AUNITS
 70
           0
  9
$AUPREC
 70
           0
  9
$MENU
  1
acad
  9
$ELEVATION
 40
0.0
  9
$PELEVATION
 40
0.0
  9
$THICKNESS
 40
0.0
  9
$LIMCHECK
 70
           0
  9
$BLIPMODE
 70
           1
  9
$CHAMFERA
 40
0.0
  9
$CHAMFERB
 40
0.0
  9
$CHAMFERC
 40
0.0
  9
$CHAMFERD
 40
0.0
  9
$SKPOLY
 70
           0
  9
$TDCREATE
 40
0.000000000
  9
$TDUPDATE
 40
0.000000000
  9
$TDINDWG
 40
0.0000000000
  9
$TDUSRTIMER
 40
0.0000000000
  9
$USRTIMER
 70
           1
  9
$ANGBASE
 50
0.0
  9
$ANGDIR
 70
           0
  9
$PDMODE
 70
           0
  9
$PDSIZE
 40
0.0
  9
$PLINEWID
 40
0.0
  9
$COORDS
 70
           0
  9
$SPLFRAME
 70
           0
  9
$SPLINETYPE
 70
           6
  9
$SPLINESEGS
 70
           8
  9
$ATTDIA
 70
           0
  9
$ATTREQ
 70
           1
  9
$HANDLING
 70
           1
  9
$HANDSEED
  5
66
  9
$SURFTAB1
 70
           6
  9
$SURFTAB2
 70
           6
  9
$SURFTYPE
 70
           6
  9
$SURFU
 70
           6
  9
$SURFV
 70
           6
  9
$UCSNAME
  2

  9
$UCSORG
 10
0.0
 20
0.0
 30
0.0
  9
$UCSXDIR
 10
1.0
 20
0.0
 30
0.0
  9
$UCSYDIR
 10
0.0
 20
1.0
 30
0.0
  9
$PUCSNAME
  2

  9
$PUCSORG
 10
0.0
 20
0.0
 30
0.0
  9
$PUCSXDIR
 10
1.0
 20
0.0
 30
0.0
  9
$PUCSYDIR
 10
0.0
 20
1.0
 30
0.0
  9
$USERI1
 70
           0
  9
$USERI2
 70
           0
  9
$USERI3
 70
           0
  9
$USERI4
 70
           0
  9
$USERI5
 70
           0
  9
$USERR1
 40
0.0
  9
$USERR2
 40
0.0
  9
$USERR3
 40
0.0
  9
$USERR4
 40
0.0
  9
$USERR5
 40
0.0
  9
$WORLDVIEW
 70
           1
  9
$SHADEDGE
 70
           3
  9
$SHADEDIF
 70
          70
  9
$TILEMODE
 70
           1
  9
$MAXACTVP
 70
          16
  9
$PINSBASE
 10
0.0
 20
0.0
 30
0.0
  9
$PLIMCHECK
 70
           0
  9
$PEXTMIN
 10
1.000000000000E+20
 20
1.000000000000E+20
 30
1.000000000000E+20
  9
$PEXTMAX
 10
-1.000000000000E+20
 20
-1.000000000000E+20
 30
-1.000000000000E+20
  9
$PLIMMIN
 10
0.0
 20
0.0
  9
$PLIMMAX
 10
12.0
 20
9.0
  9
$UNITMODE
 70
           0
  9
$VISRETAIN
 70
           1
  9
$PLINEGEN
 70
           1
  9
$PSLTSCALE
 70
           0
  9
$TREEDEPTH
 70
        3020
  9
$PICKSTYLE
 70
           1
  9
$CMLSTYLE
  2
STANDARD
  9
$CMLJUST
 70
           0
  9
$CMLSCALE
 40
1.0
  9
$PROXYGRAPHICS
 70
           0
  9
$MEASUREMENT
 70
           0
  0
ENDSEC
  0
SECTION
  2
CLASSES
  0
CLASS
  1
LWPOLYLINE
  2
AcDbPolyline
  3
"AutoCAD"
 90
        0
280
           0
281
           1
  0
CLASS
  1
IMAGE
  2
AcDbRasterImage
  3
ISM
 90
      127
280
           0
281
           1
  0
CLASS
  1
OLE2FRAME
  2
AcDbOle2Frame
  3
""
 90
        0
280
           0
281
           1
  0
CLASS
  1
HATCH
  2
AcDbHatch
  3
"ACAD_SEDONA"
 90
        0
280
           0
281
           1
  0
CLASS
  1
DICTIONARYVAR
  2
AcDbDictionaryVar
  3
"AutoCAD"
 90
        0
280
           0
281
           0
  0
CLASS
  1
RASTERVARIABLES
  2
AcDbRasterVariables
  3
ISM
 90
        0
280
           0
281
           0
  0
CLASS
  1
IMAGEDEF
  2
AcDbRasterImageDef
  3
ISM
 90
        0
280
           0
281
           0
  0
CLASS
  1
IMAGEDEF_REACTOR
  2
AcDbRasterImageDefReactor
  3
ISM
 90
        1
280
           0
281
           0
  0
CLASS
  1
IDBUFFER
  2
AcDbIdBuffer
  3
"Acad"
 90
        0
280
           0
281
           0
  0
CLASS
  1
SPATIAL_FILTER
  2
AcDbSpatialFilter
  3
"Acad"
 90
        0
280
           0
281
           0
  0
CLASS
  1
XRECORD
  2
AcDbXrecord
  3
"<Built In>"
 90
        0
280
           0
281
           0
  0
CLASS
  1
SORTENTSTABLE
  2
AcDbSortentsTable
  3
"AutoCAD"
 90
        0
280
           0
281
           0
  0
CLASS
  1
LAYER_INDEX
  2
AcDbLayerIndex
  3
"Acad"
 90
        0
280
           0
281
           0
  0
CLASS
  1
SPATIAL_INDEX
  2
AcDbSpatialIndex
  3
"Acad"
 90
        0
280
           0
281
           0
  0
CLASS
  1
OBJECT_PTR
  2
CAseDLPNTableRecord
  3
"ASE-LPNTableRecord"
 90
        1
280
           0
281
           0
  0
CLASS
  1
LAYOUT
  2
AcDbLayout
  3
"AutoCAD 2000"
 90
        0
280
           0
281
           0
  0
CLASS
  1
PLOTSETTINGS
  2
AcDbPlotSettings
  3
"AutoCAD 2000"
 90
        0
280
           0
281
           0
  0
CLASS
  1
ACDBDICTIONARYWDFLT
  2
AcDbDictionaryWithDefault
  3
"AutoCAD 2000"
 90
        0
280
           0
281
           0
  0
CLASS
  1
ACDBPLACEHOLDER
  2
AcDbPlaceHolder
  3
"AutoCAD 2000"
 90
        0
280
           0
281
           0
  0
ENDSEC
  0
SECTION
  2
TABLES
  0
TABLE
  2
VPORT
  5
7
100
AcDbSymbolTable
 70
           1
  0
VPORT
  5
15
100
AcDbSymbolTableRecord
100
AcDbViewportTableRecord
  2
*ACTIVE
 70
           0
 10
0.0
 20
0.0
 11
1.0
 21
1.0
 12
6.591288
 22
4.579184
 13
0.0
 23
0.0
 14
1.0
 24
1.0
 15
0.0
 25
0.0
 16
0.0
 26
0.0
 36
1.0
 17
0.0
 27
0.0
 37
0.0
 40
9.158369
 41
0.688564
 42
50.0
 43
0.0
 44
0.0
 50
0.0
 51
0.0
 71
           0
 72
         100
 73
           1
 74
           1
 75
           0
 76
           0
 77
           0
 78
           0
  0
ENDTAB
  0
TABLE
  2
LTYPE
  5
4
100
AcDbSymbolTable
 70
           3
  0
LTYPE
  5
11
100
AcDbSymbolTableRecord
100
AcDbLinetypeTableRecord
  2
BYBLOCK
 70
          64
  3

 72
          65
 73
           0
 40
0.0
  0
LTYPE
  5
12
100
AcDbSymbolTableRecord
100
AcDbLinetypeTableRecord
  2
BYLAYER
 70
          64
  3

 72
          65
 73
           0
 40
0.0
  0
LTYPE
  5
13
100
AcDbSymbolTableRecord
100
AcDbLinetypeTableRecord
  2
CONTINUOUS
 70
          64
  3
Solid line
 72
          65
 73
           0
 40
0.0
  0
ENDTAB
  0
TABLE
  2
LAYER
  5
2
100
AcDbSymbolTable
 70
           3
  0
LAYER
  5
14
100
AcDbSymbolTableRecord
100
AcDbLayerTableRecord
  2
0
 70
           0
 62
           7
  6
CONTINUOUS
  0
LAYER
  5
1D
100
AcDbSymbolTableRecord
100
AcDbLayerTableRecord
  2
CUT
 70
           0
 62
           7
  6
CONTINUOUS
  0
LAYER
  5
1E
100
AcDbSymbolTableRecord
100
AcDbLayerTableRecord
  2
LAYER_1
 70
           0
 62
           5
  6
CONTINUOUS
  0
ENDTAB
  0
TABLE
  2
STYLE
  5
3
100
AcDbSymbolTable
 70
           1
  0
STYLE
  5
17
100
AcDbSymbolTableRecord
100
AcDbTextStyleTableRecord
  2
STANDARD
 70
           0
 40
0.0
 41
1.0
 50
0.0
 71
           0
 42
0.0
  3
txt
  4

  0
ENDTAB
  0
TABLE
  2
VIEW
  5
5
100
AcDbSymbolTable
 70
           0
  0
ENDTAB
  0
TABLE
  2
UCS
  5
6
100
AcDbSymbolTable
 70
           0
  0
ENDTAB
  0
TABLE
  2
APPID
  5
8
100
AcDbSymbolTable
 70
           1
  0
APPID
  5
16
100
AcDbSymbolTableRecord
100
AcDbRegAppTableRecord
  2
ACAD
 70
           0
  0
ENDTAB
  0
TABLE
  2
DIMSTYLE
  5
9
100
AcDbSymbolTable
 70
           1
  0
DIMSTYLE
105
18
100
AcDbSymbolTableRecord
100
AcDbDimStyleTableRecord
  2
STANDARD
 70
           0
  3

  4

  5

  6

  7

 40
1.0
 41
0.18
 42
0.0625
 43
0.38
 44
0.18
 45
0.0
 46
0.0
 47
0.0
 48
0.0
 71
           0
 72
           0
 73
           1
 74
           1
 75
           0
 76
           0
 77
           0
 78
           0
140
0.18
141
0.09
142
0.0
143
25.4
144
1.0
145
0.0
146
1.0
147
0.09
170
           0
171
           2
172
           0
173
           0
174
           0
175
           0
176
           0
177
           0
178
           0
270
           2
271
           4
272
           4
273
           2
274
           2
275
           0
280
           0
281
           0
282
           0
283
           1
284
           0
285
           0
286
           0
287
           3
288
           0
340
17
  0
ENDTAB
  0
TABLE
  2
BLOCK_RECORD
  5
1
100
AcDbSymbolTable
 70
           1
  0
BLOCK_RECORD
  5
A
100
AcDbSymbolTableRecord
100
AcDbBlockTableRecord
  2
*MODEL_SPACE
  0
BLOCK_RECORD
  5
B
100
AcDbSymbolTableRecord
100
AcDbBlockTableRecord
  2
*PAPER_SPACE
  0
BLOCK_RECORD
  5
1F
100
AcDbSymbolTableRecord
100
AcDbBlockTableRecord
  2
AI9-BLK1
1001
ACAD
1000
DATACAD SYMBOL: AI9-BLK1
  0
ENDTAB
  0
ENDSEC
  0
SECTION
  2
BLOCKS
  0
BLOCK
  5
D
100
AcDbEntity
  8
0
100
AcDbBlockBegin
  2
*MODEL_SPACE
 70
           0
 10
0.0
 20
0.0
 30
0.0
  3
*MODEL_SPACE
  1

  0
ENDBLK
  5
E
100
AcDbEntity
  8
0
100
AcDbBlockEnd
  0
BLOCK
  5
F
100
AcDbEntity
 67
           1
  8
0
100
AcDbBlockBegin
  2
*PAPER_SPACE
 70
           0
 10
0.0
 20
0.0
 30
0.0
  3
*PAPER_SPACE
  1

  0
ENDBLK
  5
10
100
AcDbEntity
 67
           1
  8
0
100
AcDbBlockEnd
  0
BLOCK
  5
20
100
AcDbEntity
  8
0
100
AcDbBlockBegin
  2
AI9-BLK1
 70
           0
 10
0.0
 20
0.0
 30
0.0
  3
AI9-BLK1
  1

  0
CIRCLE
  5
21
100
AcDbEntity
  8
LAYER_1
  6
CONTINUOUS
 62
           7
100
AcDbCircle
 10
10.206268
 20
-5.13836
 30
0.0
 40
69.993833
  0
LWPOLYLINE
  5
22
100
AcDbEntity
  8
LAYER_1
  6
CONTINUOUS
 62
           7
100
AcDbPolyline
 90
      211
 70
           0
 10
80.157036675347
 20
111.419211154514
 10
81.366972813585
 20
110.184137188043
 10
82.995971744792
 20
108.276564735243
 10
84.919232817925
 20
105.8597892551
 10
87.011955381944
 20
103.097106206597
 10
89.149338785807
 20
100.15181104872
 10
91.206582378472
 20
97.187199240451
 10
93.058885508898
 20
94.366566240777
 10
94.581447526042
 20
91.853207508681
 10
95.649467778863
 20
89.810418503147
 10
96.138145616319
 20
88.40149468316
 10
96.05084069553
 20
83.683130490451
 10
94.629543815104
 20
78.407760503472
 10
92.110255040148
 20
72.756855815972
 10
88.728974435764
 20
66.911887521701
 10
84.721702067057
 20
61.05432671441
 10
80.324437999132
 20
55.365644487847
 10
75.773182297092
 20
50.027311935764
 10
71.303935026042
 20
45.22080015191
 10
67.152696251085
 20
41.127580230035
 10
63.555466037326
 20
37.929123263889
 10
59.179204649523
 20
34.669505173069
 10
54.549493098958
 20
31.845087391493
 10
49.706258664279
 20
29.39018090549
 10
44.689428624132
 20
27.239096701389
 10
39.538930257161
 20
25.326145765516
 10
34.294690842014
 20
23.585639084201
 10
28.996637657335
 20
21.951887643772
 10
23.684697981771
 20
20.359202430556
 10
18.398799093967
 20
18.741894430881
 10
13.178868272569
 20
17.034274631076
 10
12.105431296115
 20
16.526309082031
 10
11.031868229167
 20
16.018467556424
 10
9.958032310655
 20
15.510894748264
 10
8.883776779514
 20
15.003735351562
 10
7.808954874674
 20
14.49713406033
 10
6.733419835069
 20
13.991235568576
 10
5.657024899631
 20
13.486184570312
 10
4.579623307292
 20
12.982125759549
 10
3.501068296983
 20
12.479203830295
 10
2.421213107639
 20
11.977563476562
 10
0.711605487739
 20
11.276314290365
 10
-0.996842513021
 20
10.575065104167
 10
-2.704418215603
 20
9.873815917969
 10
-4.411408940972
 20
9.172566731771
 10
-6.118102010091
 20
8.471317545573
 10
-7.824784743924
 20
7.770068359375
 10
-9.531744463433
 20
7.068819173177
 10
-11.239268489583
 20
6.367569986979
 10
-12.947644143338
 20
5.666320800781
 10
-14.65715874566
 20
4.965071614583
 10
-18.237800824653
 20
3.570929665799
 10
-22.060883919271
 20
2.153049631076
 10
-26.074024663628
 20
0.736331282552
 10
-30.22483969184
 20
-0.654325607639
 10
-34.460945638021
 20
-1.994021267361
 10
-38.729959136285
 20
-3.257855924479
 10
-42.979496820746
 20
-4.420929806858
 10
-47.157175325521
 20
-5.458343142361
 10
-51.210611284722
 20
-6.345196158854
 10
-55.087421332465
 20
-7.056589084201
 10
-56.21800796441
 20
-7.199792746311
 10
-57.348611132812
 20
-7.342818641493
 10
-58.479226703559
 20
-7.485530343967
 10
-59.609850542535
 20
-7.627791427951
 10
-60.740478515625
 20
-7.769465467665
 10
-61.871106488715
 20
-7.910416037326
 10
-63.001730327691
 20
-8.050506711155
 10
-64.132345898437
 20
-8.189601063368
 10
-65.26294906684
 20
-8.327562668186
 10
-66.393535698785
 20
-8.464255099826
 10
-69.158959320747
 20
-8.958059239366
 10
-71.981499869792
 20
-9.469793033854
 10
-74.85099155816
 20
-9.982990304905
 10
-77.75726859809
 20
-10.481184874132
 10
-80.690165201823
 20
-10.947910563151
 10
-83.639515581597
 20
-11.366701193576
 10
-86.595153949653
 20
-11.721090587023
 10
-89.546914518229
 20
-11.994612565104
 10
-92.484631499566
 20
-12.170800949436
 10
-95.398139105903
 20
-12.233189561632
 10
-95.398139105903
 20
-12.082890380859
 10
-95.398139105903
 20
-11.932446506076
 10
-95.398139105903
 20
-11.781713243273
 10
-95.398139105903
 20
-11.630545898438
 10
-95.398139105903
 20
-11.478799777561
 10
-95.398139105903
 20
-11.326330186632
 10
-95.398139105903
 20
-11.172992431641
 10
-95.398139105903
 20
-11.018641818576
 10
-95.398139105903
 20
-10.863133653429
 10
-95.398139105903
 20
-10.706323242188
 10
-95.319417640516
 20
-10.706323242188
 10
-95.240855338542
 20
-10.706323242188
 10
-95.162590692817
 20
-10.706323242188
 10
-95.084762196181
 20
-10.706323242188
 10
-95.007508341471
 20
-10.706323242188
 10
-94.930967621528
 20
-10.706323242188
 10
-94.855278529188
 20
-10.706323242188
 10
-94.780579557292
 20
-10.706323242188
 10
-94.707009198676
 20
-10.706323242188
 10
-94.634705946181
 20
-10.706323242188
 10
-93.972174121094
 20
-9.123242610677
 10
-92.851507986111
 20
-6.777806445313
 10
-91.371314442274
 20
-3.883682324219
 10
-89.630200390625
 20
-0.654537825521
 10
-87.726772732205
 20
2.695959472656
 10
-85.759638368056
 20
5.954141992187
 10
-83.827404199219
 20
8.906342154948
 10
-82.028677126736
 20
11.338892382812
 10
-80.462064051649
 20
13.038125097656
 10
-79.226171875
 20
13.790372721354
 10
-76.799701896159
 20
13.704519908312
 10
-74.372076432292
 20
13.618826258681
 10
-71.943586938477
 20
13.533430265299
 10
-69.514524869792
 20
13.448470421007
 10
-67.085181681315
 20
13.364085218641
 10
-64.655848828125
 20
13.280413151042
 10
-62.2268177653
 20
13.197592711046
 10
-59.798379947917
 20
13.115762391493
 10
-57.370826831055
 20
13.035060685221
 10
-54.944449869792
 20
12.955626085069
 10
-54.231956236437
 20
13.224885101997
 10
-53.400980946181
 20
13.386516579861
 10
-52.478997257487
 20
13.458838780382
 10
-51.493478428819
 20
13.460169965278
 10
-50.471897718642
 20
13.408828396267
 10
-49.441728385417
 20
13.323132335069
 10
-48.430443687609
 20
13.221400043403
 10
-47.465516883681
 20
13.121949782986
 10
-46.574421232096
 20
13.043099815538
 10
-45.784629991319
 20
13.003168402778
 10
-43.265901044379
 20
12.99606082628
 10
-40.747136957465
 20
12.989095876736
 10
-38.228343931749
 20
12.982416181098
 10
-35.709528168403
 20
12.976164366319
 10
-33.190695868598
 20
12.970483059353
 10
-30.671853233507
 20
12.965514887153
 10
-28.153006464301
 20
12.961402476671
 10
-25.634161762153
 20
12.958288454861
 10
-23.115325328234
 20
12.956315448676
 10
-20.596503363715
 20
12.955626085069
 10
-19.75636101888
 20
13.261049991862
 10
-18.798268250868
 20
13.483888758681
 10
-17.74741835395
 20
13.63602176378
 10
-16.629004622396
 20
13.729328385417
 10
-15.468220350477
 20
13.775688001845
 10
-14.290258832465
 20
13.786979991319
 10
-13.12031336263
 20
13.775083732096
 10
-11.983577235243
 20
13.751878602431
 10
-10.905243744575
 20
13.729243980577
 10
-9.910506184896
 20
13.719059244792
 10
-9.301608639865
 20
13.797054828559
 10
-8.691568012153
 20
13.87392593316
 10
-8.080667488607
 20
13.949953678385
 10
-7.469190256076
 20
14.025419184028
 10
-6.857419501411
 20
14.100603569878
 10
-6.245638411458
 20
14.175787955729
 10
-5.634130173069
 20
14.251253461372
 10
-5.02317797309
 20
14.327281206597
 10
-4.413064998372
 20
14.404152311198
 10
-3.804074435764
 20
14.482147894965
 10
-3.346201608615
 20
14.560227539063
 10
-2.888293641493
 20
14.637149631076
 10
-2.430356735569
 20
14.713203559028
 10
-1.972397092014
 20
14.788678710938
 10
-1.514420912001
 20
14.863864474826
 10
-1.056434396701
 20
14.939050238715
 10
-0.598443747287
 20
15.014525390625
 10
-0.140455164931
 20
15.090579318576
 10
0.317525149197
 20
15.16750141059
 10
0.775490993924
 20
15.245581054688
 10
2.383565793186
 20
16.046474115668
 10
4.037161328125
 20
16.735609657118
 10
5.724540847439
 20
17.340033056641
 10
7.433967599826
 20
17.88678969184
 10
9.153704833984
 20
18.402924940321
 10
10.872015798611
 20
18.915484179688
 10
12.577163742405
 20
19.451512787543
 10
14.257411914063
 20
20.038056141493
 10
15.901023562283
 20
20.702159619141
 10
17.496261935764
 20
21.47086859809
 10
20.666351985677
 20
23.272179147678
 10
23.719504470486
 20
25.216329557292
 10
26.673326584202
 20
27.28728566352
 10
29.545425520833
 20
29.469013302952
 10
32.353408474393
 20
31.745478312175
 10
35.114882638889
 20
34.100646527778
 10
37.847455208334
 20
36.51848378635
 10
40.568733376736
 20
38.982955924479
 10
43.296324338108
 20
41.478028778755
 10
46.047835286459
 20
43.987668185764
 10
47.209788134766
 20
45.035156013997
 10
48.448623111979
 20
46.124727061632
 10
49.742437679037
 20
47.246932809787
 10
51.069329296875
 20
48.392324739583
 10
52.407395426432
 20
49.55145433214
 10
53.734733528646
 20
50.714873068576
 10
55.029441064453
 20
51.873132430013
 10
56.269615494792
 20
53.01678389757
 10
57.433354280599
 20
54.136378952366
 10
58.498754882813
 20
55.222469075521
 10
62.490152251519
 20
59.806119699436
 10
66.100297439236
 20
64.648231032986
 10
69.320029248047
 20
69.738215608724
 10
72.140186480035
 20
75.065485959202
 10
74.551607937283
 20
80.619454616971
 10
76.545132421875
 20
86.389534114584
 10
78.111598735894
 20
92.365136984593
 10
79.241845681424
 20
98.535675759549
 10
79.926712060547
 20
104.890562972006
 10
80.157036675347
 20
111.419211154515
  0
LWPOLYLINE
  5
23
100
AcDbEntity
  8
LAYER_1
  6
CONTINUOUS
 62
           7
100
AcDbPolyline
 90
      121
 70
           0
 10
6.881922743056
 20
-1.547192382812
 10
7.379820689562
 20
-2.851130018446
 10
7.565008007812
 20
-4.649156358507
 10
7.492586244032
 20
-6.818467529297
 10
7.217656944444
 20
-9.236259657118
 10
6.795321655273
 20
-11.779728868273
 10
6.280681922743
 20
-14.326071289062
 10
5.728839293077
 20
-16.75248304579
 10
5.1948953125
 20
-18.936160264757
 10
4.733951527235
 20
-20.754299072266
 10
4.401109483507
 20
-22.084095594618
 10
3.23757671441
 20
-26.565803776042
 10
1.948408203125
 20
-31.040632790799
 10
0.529593858507
 20
-35.491698914931
 10
-1.02287641059
 20
-39.902118424479
 10
-2.713012695313
 20
-44.255007595486
 10
-4.544825086806
 20
-48.533482703993
 10
-6.522323676215
 20
-52.720660026042
 10
-8.649518554688
 20
-56.799655837674
 10
-10.930419813368
 20
-60.753586414931
 10
-13.369037543403
 20
-64.565568033854
 10
-14.280527815755
 20
-65.822455311415
 10
-15.236505295139
 20
-66.998929926215
 10
-16.231393060981
 20
-68.110449332682
 10
-17.259614192708
 20
-69.172470985243
 10
-18.315591769748
 20
-70.200452338325
 10
-19.393748871528
 20
-71.209850846354
 10
-20.488508577474
 20
-72.216123963759
 10
-21.594293967014
 20
-73.234729144965
 10
-22.705528119575
 20
-74.281123844401
 10
-23.816634114583
 20
-75.370765516493
 10
-27.959923676215
 20
-79.327840087891
 10
-32.223995529514
 20
-83.033043728299
 10
-36.618010872396
 20
-86.47349867079
 10
-41.151130902778
 20
-89.636327148438
 10
-45.832516818576
 20
-92.508651394314
 10
-50.671329817708
 20
-95.077593641493
 10
-55.67673109809
 20
-97.330276123047
 10
-60.857881857639
 20
-99.253821072049
 10
-66.223943294271
 20
-100.835350721571
 10
-71.784076605903
 20
-102.061987304687
 10
-72.677896983507
 20
-102.218622705078
 10
-73.656450173611
 20
-102.379106966146
 10
-74.69855297309
 20
-102.530132373047
 10
-75.783022178819
 20
-102.658391210937
 10
-76.888674587674
 20
-102.750575764974
 10
-77.994326996528
 20
-102.793378320313
 10
-79.078796202257
 20
-102.773491162109
 10
-80.120899001736
 20
-102.677606575521
 10
-81.09945219184
 20
-102.492416845703
 10
-81.993272569444
 20
-102.204614257812
 10
-83.013484198676
 20
-101.60987639974
 10
-84.42466937934
 20
-100.551844856771
 10
-86.11405980089
 20
-99.132566113281
 10
-87.968887152778
 20
-97.454086653646
 10
-89.876383124457
 20
-95.61845296224
 10
-91.723779405382
 20
-93.727711523438
 10
-93.398307685004
 20
-91.883908821615
 10
-94.787199652778
 20
-90.189091341146
 10
-95.777686998155
 20
-88.745305566406
 10
-96.25700141059
 20
-87.654597981771
 10
-95.584522216797
 20
-87.30292883572
 10
-94.847199435764
 20
-87.01620249566
 10
-94.054624213325
 20
-86.787841585286
 10
-93.216387695313
 20
-86.611268728299
 10
-92.342081027561
 20
-86.479906548394
 10
-91.441295355903
 20
-86.387177669271
 10
-90.523621826172
 20
-86.326504714627
 10
-89.598651584201
 20
-86.29131030816
 10
-88.675975775825
 20
-86.275017073568
 10
-87.765185546875
 20
-86.271047634549
 10
-87.078301719835
 20
-86.193136111111
 10
-86.391413758681
 20
-86.116315993924
 10
-85.704517529297
 20
-86.040314431424
 10
-85.017608897569
 20
-85.964858572049
 10
-84.330683729384
 20
-85.889675564236
 10
-83.643737890625
 20
-85.814492556424
 10
-82.956767247179
 20
-85.739036697049
 10
-82.269767664931
 20
-85.663035134549
 10
-81.582735009766
 20
-85.586215017361
 10
-80.895665147569
 20
-85.508303493924
 10
-80.359071199544
 20
-85.430223849826
 10
-79.822603342014
 20
-85.353301757812
 10
-79.286408336046
 20
-85.277247829861
 10
-78.750632942708
 20
-85.201772677951
 10
-78.215423923069
 20
-85.126586914063
 10
-77.680928038194
 20
-85.051401150174
 10
-77.147292049154
 20
-84.975925998264
 10
-76.614662717014
 20
-84.899872070312
 10
-76.083186802843
 20
-84.822949978299
 10
-75.553011067708
 20
-84.744870334201
 10
-74.414533789062
 20
-84.430014789497
 10
-73.274915494792
 20
-84.114985611979
 10
-72.134441438802
 20
-83.799650509983
 10
-70.993396875
 20
-83.48387719184
 10
-69.852067057292
 20
-83.167533365885
 10
-68.710737239583
 20
-82.850486740451
 10
-67.569692675781
 20
-82.532605023872
 10
-66.429218619792
 20
-82.213755924479
 10
-65.289600325521
 20
-81.893807150608
 10
-64.151123046875
 20
-81.57262641059
 10
-62.257638623047
 20
-80.99426515842
 10
-60.383307552083
 20
-80.389288476562
 10
-58.527274072266
 20
-79.756836469184
 10
-56.688682421875
 20
-79.096049240451
 10
-54.866676839193
 20
-78.406066894531
 10
-53.0604015625
 20
-77.68602953559
 10
-51.269000830078
 20
-76.935077267795
 10
-49.491618880208
 20
-76.152350195313
 10
-47.727399951172
 20
-75.336988422309
 10
-45.97548828125
 20
-74.488132052951
 10
-38.516394566515
 20
-70.135638378906
 10
-31.275414670139
 20
-64.722239952257
 10
-24.35186862793
 20
-58.400642697483
 10
-17.845076475695
 20
-51.323552539063
 10
-11.854358249241
 20
-43.643675401476
 10
-6.479033984375
 20
-35.513717209202
 10
-1.818423716905
 20
-27.086383886719
 10
2.028152517361
 20
-18.514381358507
 10
4.961374682617
 20
-9.950415549045
 10
6.881922743056
 20
-1.547192382813
  0
LWPOLYLINE
  5
24
100
AcDbEntity
  8
LAYER_1
  6
CONTINUOUS
 62
           7
100
AcDbPolyline
 90
      101
 70
           0
 10
16.041053602431
 20
-6.889846462674
 10
16.840048071289
 20
-8.179306429036
 10
17.615566970486
 20
-10.215978667535
 10
18.361311976454
 20
-12.828268484158
 10
19.070984765625
 20
-15.844581184896
 10
19.738287014431
 20
-19.093322075738
 10
20.356920399306
 20
-22.402896462674
 10
20.92058659668
 20
-25.601709651693
 10
21.422987282986
 20
-28.518166948785
 10
21.857824134657
 20
-30.980673659939
 10
22.218798828125
 20
-32.817635091146
 10
23.054496310764
 20
-36.360511344401
 10
24.009545681424
 20
-39.836551367188
 10
25.074500488281
 20
-43.250480452474
 10
26.239914279514
 20
-46.607023893229
 10
27.496340603299
 20
-49.910906982422
 10
28.834333007813
 20
-53.166855013021
 10
30.244445041233
 20
-56.379593277995
 10
31.717230251736
 20
-59.553847070313
 10
33.2432421875
 20
-62.694341682943
 10
34.813034396701
 20
-65.805802408854
 10
35.37904015842
 20
-67.007978814019
 10
35.946186935764
 20
-68.210010525174
 10
36.514189474826
 20
-69.411752848307
 10
37.082762521701
 20
-70.61306108941
 10
37.651620822483
 20
-71.81379055447
 10
38.220479123264
 20
-73.013796549479
 10
38.789052170139
 20
-74.212934380425
 10
39.357054709201
 20
-75.411059353299
 10
39.924201486545
 20
-76.608026774089
 10
40.490207248264
 20
-77.803691948785
 10
42.515592320421
 20
-80.93843600803
 10
44.820937565104
 20
-83.97088140191
 10
47.374180856662
 20
-86.874549126519
 10
50.143260069444
 20
-89.622960177951
 10
53.096113077799
 20
-92.1896355523
 10
56.200677756076
 20
-94.54809624566
 10
59.424891978624
 20
-96.671863254123
 10
62.736693619792
 20
-98.534457573785
 10
66.104020553928
 20
-100.109400200738
 10
69.494810655382
 20
-101.370212131076
 10
70.450912847222
 20
-101.676575515408
 10
71.453226171875
 20
-102.001116601562
 10
72.493598155382
 20
-102.331958078342
 10
73.563876323785
 20
-102.657222634549
 10
74.655908203125
 20
-102.965032958984
 10
75.761541319444
 20
-103.243511740451
 10
76.872623198785
 20
-103.480781667752
 10
77.981001367187
 20
-103.664965429687
 10
79.078523350694
 20
-103.784185715061
 10
80.157036675347
 20
-103.826565212674
 10
80.157036675347
 20
-103.905295979818
 10
80.157036675347
 20
-103.983882052951
 10
80.157036675347
 20
-104.062178738064
 10
80.157036675347
 20
-104.140041341146
 10
80.157036675347
 20
-104.217325168186
 10
80.157036675347
 20
-104.293885525174
 10
80.157036675347
 20
-104.369577718099
 10
80.157036675347
 20
-104.444257052951
 10
80.157036675347
 20
-104.51777883572
 10
80.157036675347
 20
-104.589998372396
 10
80.07895703125
 20
-104.589998372396
 10
80.002034939236
 20
-104.589998372396
 10
79.925981011285
 20
-104.589998372396
 10
79.850505859375
 20
-104.589998372396
 10
79.775320095486
 20
-104.589998372396
 10
79.700134331597
 20
-104.589998372396
 10
79.624659179687
 20
-104.589998372396
 10
79.548605251736
 20
-104.589998372396
 10
79.471683159722
 20
-104.589998372396
 10
79.393603515625
 20
-104.589998372396
 10
77.970244056532
 20
-105.344053982205
 10
76.127121072049
 20
-106.226060438368
 10
73.962558276367
 20
-107.183638509115
 10
71.574879383681
 20
-108.164408962674
 10
69.062408108181
 20
-109.115992567274
 10
66.523468164063
 20
-109.986010091146
 10
64.056383265517
 20
-110.722082302517
 10
61.759477126736
 20
-111.271829969618
 10
59.731073461914
 20
-111.582873860677
 10
58.069495985243
 20
-111.602834743924
 10
55.9227326199
 20
-111.225204736328
 10
53.813339583333
 20
-110.559472417535
 10
51.754337269423
 20
-109.640988601345
 10
49.758746072049
 20
-108.505104101563
 10
47.839586385091
 20
-107.187169731988
 10
46.009878602431
 20
-105.722536306424
 10
44.282643117947
 20
-104.146554638672
 10
42.670900325521
 20
-102.494575542535
 10
41.187670619032
 20
-100.801949831814
 10
39.845974392361
 20
-99.104028320313
 10
34.64618773329
 20
-91.362215945096
 10
30.262595182292
 20
-83.177842469618
 10
26.624065163846
 20
-74.593567822266
 10
23.659466102431
 20
-65.652051931424
 10
21.297666422526
 20
-56.395954725478
 10
19.467534548611
 20
-46.867936132813
 10
18.097938905165
 20
-37.110656081814
 10
17.117747916667
 20
-27.166774500868
 10
16.455830007596
 20
-17.07895131836
 10
16.041053602431
 20
-6.889846462674
  0
CIRCLE
  5
25
100
AcDbEntity
  8
LAYER_1
  6
CONTINUOUS
 62
           7
100
AcDbCircle
 10
4.521343
 20
65.692459
 30
0.0
 40
27.408146
  0
ENDBLK
  5
26
100
AcDbEntity
  8
0
100
AcDbBlockEnd
  0
ENDSEC
  0
SECTION
  2
ENTITIES
  0
CIRCLE
  5
27
100
AcDbEntity
  8
0
  6
CONTINUOUS
 62
           1
 48
12.0
100
AcDbCircle
 10
4.521343
 20
65.6924585
 30
0.0
 40
27.408146
  0
CIRCLE
  5
28
100
AcDbEntity
  8
0
  6
CONTINUOUS
 62
           1
 48
12.0
100
AcDbCircle
 10
10.206268
 20
-5.1383605
 30
0.0
 40
69.993833
  0
LWPOLYLINE
  5
29
100
AcDbEntity
  8
0
  6
CONTINUOUS
 62
           1
100
AcDbPolyline
 90
      121
 70
           0
 10
6.881922743056
 20
-1.547192882812
 10
7.379820689562
 20
-2.851130518446
 10
7.565008007813
 20
-4.649156858507
 10
7.492586244032
 20
-6.818468029297
 10
7.217656944444
 20
-9.236260157118
 10
6.795321655273
 20
-11.779729368273
 10
6.280681922743
 20
-14.326071789062
 10
5.728839293077
 20
-16.75248354579
 10
5.1948953125
 20
-18.936160764757
 10
4.733951527235
 20
-20.754299572266
 10
4.401109483507
 20
-22.084096094618
 10
3.23757671441
 20
-26.565804276042
 10
1.948408203125
 20
-31.040633290799
 10
0.529593858507
 20
-35.491699414931
 10
-1.02287641059
 20
-39.902118924479
 10
-2.713012695313
 20
-44.255008095486
 10
-4.544825086806
 20
-48.533483203993
 10
-6.522323676215
 20
-52.720660526042
 10
-8.649518554688
 20
-56.799656337674
 10
-10.930419813368
 20
-60.753586914931
 10
-13.369037543403
 20
-64.565568533854
 10
-14.280527815755
 20
-65.822455811415
 10
-15.236505295139
 20
-66.998930426215
 10
-16.231393060981
 20
-68.110449832682
 10
-17.259614192708
 20
-69.172471485243
 10
-18.315591769748
 20
-70.200452838325
 10
-19.393748871528
 20
-71.209851346354
 10
-20.488508577474
 20
-72.216124463759
 10
-21.594293967014
 20
-73.234729644965
 10
-22.705528119575
 20
-74.281124344401
 10
-23.816634114583
 20
-75.370766016493
 10
-27.959923676215
 20
-79.327840587891
 10
-32.223995529514
 20
-83.033044228299
 10
-36.618010872396
 20
-86.47349917079
 10
-41.151130902778
 20
-89.636327648438
 10
-45.832516818576
 20
-92.508651894314
 10
-50.671329817708
 20
-95.077594141493
 10
-55.67673109809
 20
-97.330276623047
 10
-60.857881857639
 20
-99.253821572049
 10
-66.223943294271
 20
-100.835351221571
 10
-71.784076605903
 20
-102.061987804687
 10
-72.677896983507
 20
-102.218623205078
 10
-73.656450173611
 20
-102.379107466146
 10
-74.69855297309
 20
-102.530132873047
 10
-75.783022178819
 20
-102.658391710937
 10
-76.888674587674
 20
-102.750576264974
 10
-77.994326996528
 20
-102.793378820313
 10
-79.078796202257
 20
-102.773491662109
 10
-80.120899001736
 20
-102.677607075521
 10
-81.09945219184
 20
-102.492417345703
 10
-81.993272569444
 20
-102.204614757812
 10
-83.013484198676
 20
-101.60987689974
 10
-84.42466937934
 20
-100.551845356771
 10
-86.11405980089
 20
-99.132566613281
 10
-87.968887152778
 20
-97.454087153646
 10
-89.876383124457
 20
-95.61845346224
 10
-91.723779405382
 20
-93.727712023438
 10
-93.398307685004
 20
-91.883909321615
 10
-94.787199652778
 20
-90.189091841146
 10
-95.777686998155
 20
-88.745306066406
 10
-96.25700141059
 20
-87.654598481771
 10
-95.584522216797
 20
-87.30292933572
 10
-94.847199435764
 20
-87.01620299566
 10
-94.054624213325
 20
-86.787842085286
 10
-93.216387695313
 20
-86.611269228299
 10
-92.342081027561
 20
-86.479907048394
 10
-91.441295355903
 20
-86.387178169271
 10
-90.523621826172
 20
-86.326505214627
 10
-89.598651584201
 20
-86.29131080816
 10
-88.675975775825
 20
-86.275017573568
 10
-87.765185546875
 20
-86.271048134549
 10
-87.078301719835
 20
-86.193136611111
 10
-86.391413758681
 20
-86.116316493924
 10
-85.704517529297
 20
-86.040314931424
 10
-85.017608897569
 20
-85.964859072049
 10
-84.330683729384
 20
-85.889676064236
 10
-83.643737890625
 20
-85.814493056424
 10
-82.956767247179
 20
-85.739037197049
 10
-82.269767664931
 20
-85.663035634549
 10
-81.582735009766
 20
-85.586215517361
 10
-80.895665147569
 20
-85.508303993924
 10
-80.359071199544
 20
-85.430224349826
 10
-79.822603342014
 20
-85.353302257812
 10
-79.286408336046
 20
-85.277248329861
 10
-78.750632942708
 20
-85.201773177951
 10
-78.215423923069
 20
-85.126587414062
 10
-77.680928038194
 20
-85.051401650174
 10
-77.147292049154
 20
-84.975926498264
 10
-76.614662717014
 20
-84.899872570312
 10
-76.083186802843
 20
-84.822950478299
 10
-75.553011067708
 20
-84.744870834201
 10
-74.414533789062
 20
-84.430015289497
 10
-73.274915494792
 20
-84.114986111979
 10
-72.134441438802
 20
-83.799651009983
 10
-70.993396875
 20
-83.48387769184
 10
-69.852067057292
 20
-83.167533865885
 10
-68.710737239583
 20
-82.850487240451
 10
-67.569692675781
 20
-82.532605523872
 10
-66.429218619792
 20
-82.213756424479
 10
-65.289600325521
 20
-81.893807650608
 10
-64.151123046875
 20
-81.57262691059
 10
-62.257638623047
 20
-80.99426565842
 10
-60.383307552083
 20
-80.389288976562
 10
-58.527274072266
 20
-79.756836969184
 10
-56.688682421875
 20
-79.096049740451
 10
-54.866676839193
 20
-78.406067394531
 10
-53.0604015625
 20
-77.68603003559
 10
-51.269000830078
 20
-76.935077767795
 10
-49.491618880208
 20
-76.152350695313
 10
-47.727399951172
 20
-75.336988922309
 10
-45.97548828125
 20
-74.488132552951
 10
-38.516394566515
 20
-70.135638878906
 10
-31.275414670139
 20
-64.722240452257
 10
-24.35186862793
 20
-58.400643197483
 10
-17.845076475695
 20
-51.323553039063
 10
-11.854358249241
 20
-43.643675901476
 10
-6.479033984375
 20
-35.513717709202
 10
-1.818423716905
 20
-27.086384386719
 10
2.028152517361
 20
-18.514381858507
 10
4.961374682617
 20
-9.950416049045
 10
6.881922743055
 20
-1.547192882813
  0
LWPOLYLINE
  5
2A
100
AcDbEntity
  8
0
  6
CONTINUOUS
 62
           1
100
AcDbPolyline
 90
      101
 70
           0
 10
16.041053602431
 20
-6.889846962674
 10
16.840048071289
 20
-8.179306929036
 10
17.615566970486
 20
-10.215979167535
 10
18.361311976454
 20
-12.828268984158
 10
19.070984765625
 20
-15.844581684896
 10
19.738287014431
 20
-19.093322575738
 10
20.356920399306
 20
-22.402896962674
 10
20.92058659668
 20
-25.601710151693
 10
21.422987282986
 20
-28.518167448785
 10
21.857824134657
 20
-30.980674159939
 10
22.218798828125
 20
-32.817635591146
 10
23.054496310764
 20
-36.360511844401
 10
24.009545681424
 20
-39.836551867188
 10
25.074500488281
 20
-43.250480952474
 10
26.239914279514
 20
-46.607024393229
 10
27.496340603299
 20
-49.910907482422
 10
28.834333007813
 20
-53.166855513021
 10
30.244445041233
 20
-56.379593777995
 10
31.717230251736
 20
-59.553847570313
 10
33.2432421875
 20
-62.694342182943
 10
34.813034396701
 20
-65.805802908854
 10
35.37904015842
 20
-67.007979314019
 10
35.946186935764
 20
-68.210011025174
 10
36.514189474826
 20
-69.411753348307
 10
37.082762521701
 20
-70.61306158941
 10
37.651620822483
 20
-71.81379105447
 10
38.220479123264
 20
-73.013797049479
 10
38.789052170139
 20
-74.212934880425
 10
39.357054709201
 20
-75.411059853299
 10
39.924201486545
 20
-76.608027274089
 10
40.490207248264
 20
-77.803692448785
 10
42.515592320421
 20
-80.93843650803
 10
44.820937565104
 20
-83.97088190191
 10
47.374180856662
 20
-86.874549626519
 10
50.143260069444
 20
-89.622960677951
 10
53.096113077799
 20
-92.1896360523
 10
56.200677756076
 20
-94.54809674566
 10
59.424891978624
 20
-96.671863754123
 10
62.736693619792
 20
-98.534458073785
 10
66.104020553928
 20
-100.109400700738
 10
69.494810655382
 20
-101.370212631076
 10
70.450912847222
 20
-101.676576015408
 10
71.453226171875
 20
-102.001117101562
 10
72.493598155382
 20
-102.331958578342
 10
73.563876323785
 20
-102.657223134549
 10
74.655908203125
 20
-102.965033458984
 10
75.761541319444
 20
-103.243512240451
 10
76.872623198785
 20
-103.480782167752
 10
77.981001367187
 20
-103.664965929687
 10
79.078523350694
 20
-103.784186215061
 10
80.157036675347
 20
-103.826565712674
 10
80.157036675347
 20
-103.905296479818
 10
80.157036675347
 20
-103.983882552951
 10
80.157036675347
 20
-104.062179238064
 10
80.157036675347
 20
-104.140041841146
 10
80.157036675347
 20
-104.217325668186
 10
80.157036675347
 20
-104.293886025174
 10
80.157036675347
 20
-104.369578218099
 10
80.157036675347
 20
-104.444257552951
 10
80.157036675347
 20
-104.51777933572
 10
80.157036675347
 20
-104.589998872396
 10
80.07895703125
 20
-104.589998872396
 10
80.002034939236
 20
-104.589998872396
 10
79.925981011285
 20
-104.589998872396
 10
79.850505859375
 20
-104.589998872396
 10
79.775320095486
 20
-104.589998872396
 10
79.700134331597
 20
-104.589998872396
 10
79.624659179688
 20
-104.589998872396
 10
79.548605251736
 20
-104.589998872396
 10
79.471683159722
 20
-104.589998872396
 10
79.393603515625
 20
-104.589998872396
 10
77.970244056532
 20
-105.344054482205
 10
76.127121072049
 20
-106.226060938368
 10
73.962558276367
 20
-107.183639009115
 10
71.574879383681
 20
-108.164409462674
 10
69.062408108181
 20
-109.115993067274
 10
66.523468164063
 20
-109.986010591146
 10
64.056383265517
 20
-110.722082802517
 10
61.759477126736
 20
-111.271830469618
 10
59.731073461914
 20
-111.582874360677
 10
58.069495985243
 20
-111.602835243924
 10
55.9227326199
 20
-111.225205236328
 10
53.813339583333
 20
-110.559472917535
 10
51.754337269423
 20
-109.640989101345
 10
49.758746072049
 20
-108.505104601563
 10
47.839586385091
 20
-107.187170231988
 10
46.009878602431
 20
-105.722536806424
 10
44.282643117947
 20
-104.146555138672
 10
42.670900325521
 20
-102.494576042535
 10
41.187670619032
 20
-100.801950331814
 10
39.845974392361
 20
-99.104028820313
 10
34.64618773329
 20
-91.362216445096
 10
30.262595182292
 20
-83.177842969618
 10
26.624065163846
 20
-74.593568322266
 10
23.659466102431
 20
-65.652052431424
 10
21.297666422526
 20
-56.395955225478
 10
19.467534548611
 20
-46.867936632813
 10
18.097938905165
 20
-37.110656581814
 10
17.117747916667
 20
-27.166775000868
 10
16.455830007595
 20
-17.07895181836
 10
16.041053602431
 20
-6.889846962674
  0
LINE
  5
2B
100
AcDbEntity
  8
0
  6
CONTINUOUS
 62
           1
 48
12.0
100
AcDbLine
 10
-56.994525784304
 20
12.635440998033
 30
0.0
 11
-37.984685610095
 21
11.94041802692
 31
0.0
  0
LINE
  5
2C
100
AcDbEntity
  8
0
  6
CONTINUOUS
 62
           1
 48
12.0
100
AcDbLine
 10
-80.000845612723
 20
14.788334533083
 30
0.0
 11
-56.994525784304
 21
12.635440998033
 31
0.0
  0
ARC
  5
2D
100
AcDbEntity
  8
0
  6
CONTINUOUS
 62
           1
 48
12.0
100
AcDbCircle
 10
-29.552682423823
 20
-34.414391190117
 30
0.0
 40
70.469322316355
100
AcDbArc
 50
135.716045748973
 51
162.577718401
  0
LINE
  5
2E
100
AcDbEntity
  8
0
  6
CONTINUOUS
 62
           1
 48
12.0
100
AcDbLine
 10
-82.038492894703
 20
-11.08094740789
 30
0.0
 11
-69.25624121815
 21
-9.063557059921
 31
0.0
  0
LINE
  5
2F
100
AcDbEntity
  8
0
  6
CONTINUOUS
 62
           1
 48
12.0
100
AcDbLine
 10
-57.864875501286
 20
-7.0327554051
 30
0.0
 11
-47.393437133954
 21
-4.833052292095
 31
0.0
  0
LINE
  5
30
100
AcDbEntity
  8
0
  6
CONTINUOUS
 62
           1
 48
12.0
100
AcDbLine
 10
-96.789151516806
 20
-13.315040213497
 30
0.0
 11
-82.038492894703
 21
-11.08094740789
 31
0.0
  0
LINE
  5
31
100
AcDbEntity
  8
0
  6
CONTINUOUS
 62
           1
 48
12.0
100
AcDbLine
 10
-69.25624121815
 20
-9.063557059921
 30
0.0
 11
-57.864875501286
 21
-7.0327554051
 31
0.0
  0
LINE
  5
32
100
AcDbEntity
  8
0
  6
CONTINUOUS
 62
           1
 48
12.0
100
AcDbLine
 10
-47.393437133954
 20
-4.833052292095
 30
0.0
 11
-37.479585254676
 21
-2.374310765934
 31
0.0
  0
LINE
  5
33
100
AcDbEntity
  8
0
  6
CONTINUOUS
 62
           1
 48
12.0
100
AcDbLine
 10
-37.479585254676
 20
-2.374310765934
 30
0.0
 11
-27.865864264949
 21
0.378579159755
 31
0.0
  0
LINE
  5
34
100
AcDbEntity
  8
0
  6
CONTINUOUS
 62
           1
 48
12.0
100
AcDbLine
 10
-27.865864264949
 20
0.378579159755
 30
0.0
 11
-18.391197680985
 21
3.416820765133
 31
0.0
  0
LINE
  5
35
100
AcDbEntity
  8
0
  6
CONTINUOUS
 62
           1
 48
12.0
100
AcDbLine
 10
-37.984685610095
 20
11.94041802692
 30
0.0
 11
-22.302194465938
 21
12.433342142234
 31
0.0
  0
LINE
  5
36
100
AcDbEntity
  8
0
  6
CONTINUOUS
 62
           1
 48
12.0
100
AcDbLine
 10
-18.391197680985
 20
3.416820765133
 30
0.0
 11
-8.978622518961
 21
6.699363144803
 31
0.0
  0
LINE
  5
37
100
AcDbEntity
  8
0
  6
CONTINUOUS
 62
           1
 48
12.0
100
AcDbLine
 10
-8.978622518961
 20
6.699363144803
 30
0.0
 11
0.379721590097
 21
10.16482421038
 31
0.0
  0
LINE
  5
38
100
AcDbEntity
  8
0
  6
CONTINUOUS
 62
           1
 48
12.0
100
AcDbLine
 10
0.379721590097
 20
10.16482421038
 30
0.0
 11
9.639334359714
 21
13.743422398651
 31
0.0
  0
LINE
  5
39
100
AcDbEntity
  8
0
  6
CONTINUOUS
 62
           1
 48
12.0
100
AcDbLine
 10
9.639334359714
 20
13.743422398651
 30
0.0
 11
18.720813685543
 21
17.368655308943
 31
0.0
  0
LINE
  5
3A
100
AcDbEntity
  8
0
  6
CONTINUOUS
 62
           1
 48
12.0
100
AcDbLine
 10
18.720813685543
 20
17.368655308943
 30
0.0
 11
27.527017165034
 21
20.98846349339
 31
0.0
  0
LINE
  5
3B
100
AcDbEntity
  8
0
  6
CONTINUOUS
 62
           1
 48
12.0
100
AcDbLine
 10
27.527017165034
 20
20.98846349339
 30
0.0
 11
35.958912103089
 21
24.575617623717
 31
0.0
  0
LINE
  5
3C
100
AcDbEntity
  8
0
  6
CONTINUOUS
 62
           1
 48
12.0
100
AcDbLine
 10
35.958912103089
 20
24.575617623717
 30
0.0
 11
43.929099807602
 21
28.137067258216
 31
0.0
  0
LINE
  5
3D
100
AcDbEntity
  8
0
  6
CONTINUOUS
 62
           1
 48
12.0
100
AcDbLine
 10
-22.302194465938
 20
12.433342142234
 30
0.0
 11
-9.295488543526
 21
13.920586107034
 31
0.0
  0
LINE
  5
3E
100
AcDbEntity
  8
0
  6
CONTINUOUS
 62
           1
 48
12.0
100
AcDbLine
 10
-9.295488543526
 20
13.920586107034
 30
0.0
 11
1.644231220375
 21
16.269671052877
 31
0.0
  0
LINE
  5
3F
100
AcDbEntity
  8
0
  6
CONTINUOUS
 62
           1
 48
12.0
100
AcDbLine
 10
1.644231220375
 20
16.269671052877
 30
0.0
 11
11.061186006467
 21
19.393203865508
 31
0.0
  0
LINE
  5
40
100
AcDbEntity
  8
0
  6
CONTINUOUS
 62
           1
 48
12.0
100
AcDbLine
 10
11.061186006467
 20
19.393203865508
 30
0.0
 11
19.417121742365
 21
23.232838763482
 31
0.0
  0
LINE
  5
41
100
AcDbEntity
  8
0
  6
CONTINUOUS
 62
           1
 48
12.0
100
AcDbLine
 10
19.417121742365
 20
23.232838763482
 30
0.0
 11
27.077858474042
 21
27.744202004882
 31
0.0
  0
LINE
  5
42
100
AcDbEntity
  8
0
  6
CONTINUOUS
 62
           1
 48
12.0
100
AcDbLine
 10
27.077858474042
 20
27.744202004882
 30
0.0
 11
34.304817454419
 21
32.883718657325
 31
0.0
  0
LINE
  5
43
100
AcDbEntity
  8
0
  6
CONTINUOUS
 62
           1
 48
12.0
100
AcDbLine
 10
43.929099807602
 20
28.137067258216
 30
0.0
 11
51.371999978797
 21
31.721989432556
 31
0.0
  0
LINE
  5
44
100
AcDbEntity
  8
0
  6
CONTINUOUS
 62
           1
 48
12.0
100
AcDbLine
 10
51.371999978797
 20
31.721989432556
 30
0.0
 11
58.249680996264
 21
35.42827529808
 31
0.0
  0
LINE
  5
45
100
AcDbEntity
  8
0
  6
CONTINUOUS
 62
           1
 48
12.0
100
AcDbLine
 10
58.249680996264
 20
35.42827529808
 30
0.0
 11
64.552321907586
 21
39.407193031251
 31
0.0
  0
LINE
  5
46
100
AcDbEntity
  8
0
  6
CONTINUOUS
 62
           1
 48
12.0
100
AcDbLine
 10
64.552321907586
 20
39.407193031251
 30
0.0
 11
70.292291922479
 21
43.865965237879
 31
0.0
  0
LINE
  5
47
100
AcDbEntity
  8
0
  6
CONTINUOUS
 62
           1
 48
12.0
100
AcDbLine
 10
70.292291922479
 20
43.865965237879
 30
0.0
 11
75.490833216324
 21
49.067999075803
 31
0.0
  0
LINE
  5
48
100
AcDbEntity
  8
0
  6
CONTINUOUS
 62
           1
 48
12.0
100
AcDbLine
 10
34.304817454419
 20
32.883718657325
 30
0.0
 11
41.252056924189
 21
38.598280366417
 31
0.0
  0
LINE
  5
49
100
AcDbEntity
  8
0
  6
CONTINUOUS
 62
           1
 48
12.0
100
AcDbLine
 10
41.252056924189
 20
38.598280366417
 30
0.0
 11
47.969347560029
 21
44.818693057843
 31
0.0
  0
LINE
  5
4A
100
AcDbEntity
  8
0
  6
CONTINUOUS
 62
           1
 48
12.0
100
AcDbLine
 10
47.969347560029
 20
44.818693057843
 30
0.0
 11
54.411818565278
 21
51.457843508258
 31
0.0
  0
LINE
  5
4B
100
AcDbEntity
  8
0
  6
CONTINUOUS
 62
           1
 48
12.0
100
AcDbLine
 10
84.771811121799
 20
60.222772929111
 30
0.0
 11
86.153466168839
 21
61.9811206451
 31
0.0
  0
LINE
  5
4C
100
AcDbEntity
  8
0
  6
CONTINUOUS
 62
           1
 48
12.0
100
AcDbLine
 10
86.153466168839
 20
61.9811206451
 30
0.0
 11
87.457969380912
 21
63.782589703051
 31
0.0
  0
LINE
  5
4D
100
AcDbEntity
  8
0
  6
CONTINUOUS
 62
           1
 48
12.0
100
AcDbLine
 10
87.457969380912
 20
63.782589703051
 30
0.0
 11
88.686080970405
 21
65.61477515429
 31
0.0
  0
LINE
  5
4E
100
AcDbEntity
  8
0
  6
CONTINUOUS
 62
           1
 48
12.0
100
AcDbLine
 10
88.686080970405
 20
65.61477515429
 30
0.0
 11
89.838561149703
 21
67.465272050139
 31
0.0
  0
LINE
  5
4F
100
AcDbEntity
  8
0
  6
CONTINUOUS
 62
           1
 48
12.0
100
AcDbLine
 10
89.838561149703
 20
67.465272050139
 30
0.0
 11
90.916170131193
 21
69.321675441925
 31
0.0
  0
LINE
  5
50
100
AcDbEntity
  8
0
  6
CONTINUOUS
 62
           1
 48
12.0
100
AcDbLine
 10
90.916170131193
 20
69.321675441925
 30
0.0
 11
91.919668127261
 21
71.171580380972
 31
0.0
  0
LINE
  5
51
100
AcDbEntity
  8
0
  6
CONTINUOUS
 62
           1
 48
12.0
100
AcDbLine
 10
91.919668127261
 20
71.171580380972
 30
0.0
 11
92.849815350295
 21
73.002581918603
 31
0.0
  0
LINE
  5
52
100
AcDbEntity
  8
0
  6
CONTINUOUS
 62
           1
 48
12.0
100
AcDbLine
 10
92.849815350295
 20
73.002581918603
 30
0.0
 11
93.70737201268
 21
74.802275106146
 31
0.0
  0
LINE
  5
53
100
AcDbEntity
  8
0
  6
CONTINUOUS
 62
           1
 48
12.0
100
AcDbLine
 10
93.70737201268
 20
74.802275106146
 30
0.0
 11
94.493098326802
 21
76.558254994922
 31
0.0
  0
LINE
  5
54
100
AcDbEntity
  8
0
  6
CONTINUOUS
 62
           1
 48
12.0
100
AcDbLine
 10
94.493098326802
 20
76.558254994922
 30
0.0
 11
95.207754505049
 21
78.258116636258
 31
0.0
  0
LINE
  5
55
100
AcDbEntity
  8
0
  6
CONTINUOUS
 62
           1
 48
12.0
100
AcDbLine
 10
95.207754505049
 20
78.258116636258
 30
0.0
 11
95.852100759806
 21
79.889455081478
 31
0.0
  0
LINE
  5
56
100
AcDbEntity
  8
0
  6
CONTINUOUS
 62
           1
 48
12.0
100
AcDbLine
 10
95.852100759806
 20
79.889455081478
 30
0.0
 11
96.42689730346
 21
81.439865381907
 31
0.0
  0
LINE
  5
57
100
AcDbEntity
  8
0
  6
CONTINUOUS
 62
           1
 48
12.0
100
AcDbLine
 10
96.42689730346
 20
81.439865381907
 30
0.0
 11
96.932904348397
 21
82.896942588869
 31
0.0
  0
LINE
  5
58
100
AcDbEntity
  8
0
  6
CONTINUOUS
 62
           1
 48
12.0
100
AcDbLine
 10
96.932904348397
 20
82.896942588869
 30
0.0
 11
97.370882107004
 21
84.248281753688
 31
0.0
  0
LINE
  5
59
100
AcDbEntity
  8
0
  6
CONTINUOUS
 62
           1
 48
12.0
100
AcDbLine
 10
97.370882107004
 20
84.248281753688
 30
0.0
 11
97.741590791667
 21
85.481477927691
 31
0.0
  0
LINE
  5
5A
100
AcDbEntity
  8
0
  6
CONTINUOUS
 62
           1
 48
12.0
100
AcDbLine
 10
97.741590791667
 20
85.481477927691
 30
0.0
 11
98.045790614773
 21
86.5841261622
 31
0.0
  0
LINE
  5
5B
100
AcDbEntity
  8
0
  6
CONTINUOUS
 62
           1
 48
12.0
100
AcDbLine
 10
98.045790614773
 20
86.5841261622
 30
0.0
 11
98.284241788707
 21
87.543821508541
 31
0.0
  0
LINE
  5
5C
100
AcDbEntity
  8
0
  6
CONTINUOUS
 62
           1
 48
12.0
100
AcDbLine
 10
60.456705378243
 20
58.414523720158
 30
0.0
 11
65.927729973218
 21
65.58385203591
 31
0.0
  0
LINE
  5
5D
100
AcDbEntity
  8
0
  6
CONTINUOUS
 62
           1
 48
12.0
100
AcDbLine
 10
65.927729973218
 20
65.58385203591
 30
0.0
 11
70.627644729352
 21
72.875229926109
 31
0.0
  0
LINE
  5
5E
100
AcDbEntity
  8
0
  6
CONTINUOUS
 62
           1
 48
12.0
100
AcDbLine
 10
70.627644729352
 20
72.875229926109
 30
0.0
 11
74.379470842481
 21
80.238773387438
 31
0.0
  0
LINE
  5
5F
100
AcDbEntity
  8
0
  6
CONTINUOUS
 62
           1
 48
12.0
100
AcDbLine
 10
74.379470842481
 20
80.238773387438
 30
0.0
 11
77.076962255043
 21
87.701157885215
 31
0.0
  0
LINE
  5
60
100
AcDbEntity
  8
0
  6
CONTINUOUS
 62
           1
 48
12.0
100
AcDbLine
 10
77.076962255043
 20
87.701157885215
 30
0.0
 11
78.744826079196
 21
95.41181577579
 31
0.0
  0
LINE
  5
61
100
AcDbEntity
  8
0
  6
CONTINUOUS
 62
           1
 48
12.0
100
AcDbLine
 10
78.744826079196
 20
95.41181577579
 30
0.0
 11
79.609230488253
 21
103.700425143969
 31
0.0
  0
LINE
  5
62
100
AcDbEntity
  8
0
  6
CONTINUOUS
 62
           1
 48
12.0
100
AcDbLine
 10
79.609230488253
 20
103.700425143969
 30
0.0
 11
80.179131051565
 21
113.146628990658
 31
0.0
  0
LINE
  5
63
100
AcDbEntity
  8
0
  6
CONTINUOUS
 62
           1
 48
12.0
100
AcDbLine
 10
75.490833216324
 20
49.067999075803
 30
0.0
 11
84.771811121799
 21
60.222772929111
 31
0.0
  0
ARC
  5
64
100
AcDbEntity
  8
0
  6
CONTINUOUS
 62
           1
 48
12.0
100
AcDbCircle
 10
32.622434831317
 20
60.3138041065
 30
0.0
 40
71.084082188814
100
AcDbArc
 50
22.523834325773
 51
48.008501532799
  0
LINE
  5
65
100
AcDbEntity
  8
0
  6
CONTINUOUS
 62
           1
 48
12.0
100
AcDbLine
 10
54.411818565278
 20
51.457843508258
 30
0.0
 11
60.456705378243
 21
58.414523720158
 31
0.0
  0
ENDSEC
  0
SECTION
  2
OBJECTS
  0
DICTIONARY
  5
19
100
AcDbDictionary
  3
ACAD_GROUP
350
1A
  3
ACAD_MLINESTYLE
350
1B
  0
DICTIONARY
  5
1A
102
{ACAD_REACTORS
330
19
102
}
100
AcDbDictionary
  0
DICTIONARY
  5
1B
102
{ACAD_REACTORS
330
19
102
}
100
AcDbDictionary
  3
STANDARD
350
1C
  0
MLINESTYLE
  5
1C
102
{ACAD_REACTORS
330
1B
102
}
100
AcDbMlineStyle
  2
STANDARD
 70
           0
  3

 62
           0
 51
90.0
 52
90.0
 71
           2
 49
0.5
 62
         256
  6
BYLAYER
 49
-0.5
 62
         256
  6
BYLAYER
  0
ENDSEC
  0
EOF
