<?xml version="1.0" encoding="iso-8859-1"?>
<!-- Generator: Adobe Illustrator 9.0, SVG Export Plug-In  -->
<!DOCTYPE svg PUBLIC "-//W3C//DTD SVG 20000303 Stylable//EN"   "http://www.w3.org/TR/2000/03/WD-SVG-20000303/DTD/svg-20000303-stylable.dtd" [
	<!ENTITY st0 "fill:#1F3793;stroke:none;">
	<!ENTITY st1 "fill-rule:nonzero;clip-rule:nonzero;stroke:#000000;stroke-miterlimit:4;">
]>
<svg  width="48.011pt" height="48.01pt" viewBox="0 0 48.011 48.01" xml:space="preserve">
	<g id="Layer_x0020_1" style="&st1;">
		<path style="&st0;" d="M24.006,0C10.748,0,0,10.747,0,24.006c0,1.12,0.083,2.22,0.231,3.299c0.051,0.371,0.111,0.737,0.178,1.104C2.479,39.561,12.252,48.01,24.006,48.01c11.668,0,21.389-8.327,23.552-19.362c0.072-0.366,0.137-0.735,0.192-1.107
			c0.17-1.154,0.261-2.333,0.261-3.535C48.011,10.747,37.263,0,24.006,0z M24.006,45.611c-10.423,0-19.122-7.382-21.155-17.202h3.301l0.838-0.182l0.628-0.471l0.554-0.713l0.614-0.904l0.305-0.443l0.361-0.482l0.384-0.396l0.377-0.178l0.338,0.081l0.295,0.257
			l0.26,0.362l0.235,0.4l0.35,0.631l0.356,0.627l0.379,0.584l0.421,0.505L13.55,28.5l0.837,0.128l0.864-0.019l0.782-0.022l0.322,0.043l0.249,0.104l0.192,0.165l0.151,0.222l0.124,0.278l0.115,0.332l0.12,0.383l0.141,0.436l0.35,1.078l0.422,1.721l0.468,1.956
			l0.424,2.739l0.614-9.1l0.932-9.278l0.65-7.839l0.689,7.661l1.148,13.56l0.721,8.517l0.305-2.451l0.117-0.874l0.181-0.879l0.181-1.37l0.721-4.548l0.116-0.652l0.149-0.804l0.188-0.744l0.236-0.474l0.188-0.121l0.223-0.052l0.229-0.011l0.208,0.002h2.636
			l0.661-0.123l0.508-0.326l0.473-0.483l0.554-0.597l1.87-1.801l1.974-1.479l0.407-0.23l0.459-0.21l0.463-0.13l0.428,0.013l0.588,0.293l0.539,0.51l0.499,0.667l0.468,0.763l0.446,0.8l0.435,0.771l0.431,0.687l0.438,0.539l0.472,0.27l0.588,0.092l0.606-0.005
			l2.267,0.02c-2.116,9.712-10.759,16.985-21.104,16.985z M45.334,27.444l-2.396-0.094l-0.528,0.002l-0.513-0.058l-0.392-0.165L41.054,26.6l-0.451-0.754l-0.423-0.818l-0.369-0.715l-0.473-0.721l-0.623-0.74l-0.668-0.619l-0.604-0.356l-0.406-0.034l-0.473,0.092
			l-0.474,0.16l-0.405,0.174l-1.068,0.604l-0.984,0.759l-0.945,0.885l-0.954,0.982l-0.641,0.721l-0.538,0.584l-0.581,0.391l-0.765,0.144h-2.745l-0.25-0.003l-0.28,0.018L25.67,27.44l-0.205,0.209l-0.13,0.426l-0.126,0.689l-0.11,0.721l-0.077,0.529l-0.864,5.531
			l-0.453-4.817l-0.77-9.099l-0.939-10.194l-0.181-2.544l-0.181-2.348l-0.331-0.097l-0.723,5.548l-1.188,12.132l-0.725,7.673l-0.848-3.033l-0.08-0.314l-0.099-0.361l-0.117-0.336l-0.135-0.238l-0.283-0.158l-0.304-0.021l-0.892,0.021l-1.042,0.008l-1.009-0.14
			l-0.79-0.423l-0.752-1.059l-0.64-1.26l-0.63-1.074l-0.723-0.503l-0.626,0.213l-0.555,0.635L8.651,24.58l-0.433,0.78l-0.576,0.859L7.09,26.774l-0.615,0.297l-0.763,0.088h-3.08c-0.151-1.029-0.231-2.082-0.231-3.153C2.401,12.073,12.074,2.4,24.006,2.4
			S45.61,12.073,45.61,24.006c0,1.17-0.096,2.319-0.275,3.438z"/>
	</g>
</svg>
