<?xml version="1.0" encoding="iso-8859-1"?>
<!-- Generator: Adobe Illustrator 9.0, SVG Export Plug-In  -->
<!DOCTYPE svg PUBLIC "-//W3C//DTD SVG 20000303 Stylable//EN"   "http://www.w3.org/TR/2000/03/WD-SVG-20000303/DTD/svg-20000303-stylable.dtd" [
	<!ENTITY st0 "fill-rule:nonzero;clip-rule:nonzero;stroke:#000000;stroke-miterlimit:4;">
	<!ENTITY st1 "stroke:none;">
]>
<svg  width="342.249pt" height="69.756pt" viewBox="0 0 342.249 69.756" xml:space="preserve">
	<g id="Layer_x0020_1" style="&st0;">
		<g style="&st1;">
			<path d="M284.5,41.52l-1.707,0.006l-1.654-0.115l-1.262-0.328l-0.45-0.324l-1.007-0.729l-1.455-1.496l-1.365-1.623l-1.193-1.424l-1.523-1.432l-1.682-1.227l-0.332-0.242l-2.154-1.23l-1.949-0.707l-1.309-0.068l-0.111,0.014v2.703l1.066,0.02l1.898,0.582
				l1.74,1.014l1.15,0.948l0.461,0.379l1.51,1.516l1.441,1.586l0.693,0.76l0.709,0.775l1.389,1.363l1.412,1.068l1.525,0.535l1.895,0.184l1.957-0.01l58.055,0.35v-2.48L284.5,41.52z"/>
			<path d="M183.928,35.504l-2.388-2.465l-2.308-0.525l-2.021,0.607l-0.186,0.131l-1.606,1.131l-1.584,1.635l-0.022,0.025l-1.374,1.523l-1.859,1.709l-1.783,1.1l-1.984,0.59l-2.464,0.178h-12.758l-6.025,0.354h-9.213l-6.025,0.355h-9.214l-6.025,0.355h-9.213
				l-5.669,0.354h-5.671l-5.67,0.369h-4.251L8.549,42.942H0l0.971,0.971l6.204,0.131l2.447-0.031l1.947-0.035h112.026l5.315-0.354h36.858l2.706-0.361l2.029-0.936l1.786-1.414l1.982-1.797l0.983-0.881l0.178-0.145l0.987-0.813l1.242-0.787l1.115-0.914l0.43-0.354
				l1.203,0.075l1.199,0.822l0.463,0.836c0.451,0.066,0.924,0.104,1.424,0.104c0.422,0,0.864-0.041,1.32-0.109l-0.889-1.445z"/>
			<path d="M261.096,31.426l-3.453,1.199l-2.231,1.061l-0.944,0.449l-3.049,1.758l-0.354,0.225l-2.727,1.727l-2.068,1.434l-1.738,1.158l-1.875,0.773l-2.469,0.287h-8.859l-0.807-0.008l-0.902,0.035l-0.854,0.178l-0.662,0.414l-0.418,0.846l-0.41,1.367l-0.354,1.436
				l-0.248,1.049l-2.789,10.986l-1.463-9.568l-2.482-18.075L216.907,9.91l-0.584-5.053l-0.582-4.662L214.672,0l-2.332,11.02l-3.838,24.098l-2.336,15.241l-2.736-6.023l-0.26-0.627l-0.318-0.717l-0.377-0.666l-0.437-0.475l-0.913-0.313l-0.982-0.041l-2.88,0.039
				l-3.364,0.016l-3.258-0.277l-2.547-0.84l-0.457-0.396c-1.006,0.301-2.002,0.508-2.986,0.619l0.15,0.162l1.225,1.16l1.358,1.002l2.265,0.822l2.701,0.256l2.789-0.035l2.521-0.047l1.038,0.086l0.804,0.209l0.619,0.326l0.485,0.439l0.4,0.553l0.37,0.66l0.387,0.762
				l0.455,0.863l1.129,2.141l1.36,3.418l1.511,3.887l1.365,5.439l1.98-18.074l3.01-18.428l2.098-15.57l2.223,15.217l3.707,26.932l2.328,16.92l0.984-4.871l0.375-1.736l0.584-1.748l0.582-2.721l2.328-9.031l0.375-1.297l0.48-1.596l0.605-1.479l0.762-0.939
				l0.609-0.242l0.717-0.102l0.74-0.021l0.672,0.004h8.506l2.137-0.244l1.641-0.648l1.525-0.961l1.785-1.186l3.634-2.152l2.403-1.424l1.142-0.525l5.228-2.411l0.693-0.242v-2.848l-0.342,0.09z"/>
		</g>
	</g>
</svg>
