<?xml version="1.0" encoding="iso-8859-1"?>
<!-- Generator: Adobe Illustrator 9.0, SVG Export Plug-In  -->
<!DOCTYPE svg PUBLIC "-//W3C//DTD SVG 20000303 Stylable//EN"   "http://www.w3.org/TR/2000/03/WD-SVG-20000303/DTD/svg-20000303-stylable.dtd" [
	<!ENTITY st0 "fill-rule:nonzero;clip-rule:nonzero;fill:#169133;stroke:#000000;stroke-miterlimit:4;">
	<!ENTITY st1 "fill:none;">
	<!ENTITY st2 "stroke:none;">
]>
<svg  width="342.248pt" height="41.522pt" viewBox="0 0 342.248 41.522" xml:space="preserve">
	<g id="Layer_x0020_1" style="&st0;">
		<g style="&st2;">
			<g>
				<path d="M274.58,26.243l1.193,1.424l1.365,1.623l1.455,1.496l1.007,0.729c0.054,0,0.111,0.008,0.165,0.008c2.914,0,5.313-0.971,7.195-2.916s2.824-4.43,2.824-7.459c0-3.199-1.002-5.693-3.002-7.477c-2.002-1.785-4.801-2.678-8.393-2.678h-7.016v12.592
					l1.682,1.227l1.523,1.432z M275.48,14.701h2.836c1.873,0,3.299,0.23,4.273,0.693c0.975,0.461,1.742,1.197,2.309,2.205c0.564,1.012,0.846,2.176,0.846,3.494c0,2.051-0.596,3.727-1.789,5.032c-1.197,1.303-2.73,1.953-4.605,1.953c-1.35,0-2.639-0.318-3.869-0.953
					V14.701z"/>
				<path d="M273.346,28.51l-1.51-1.516l-0.461-0.379v14.906h4.105V30.856l-0.693-0.76l-1.441-1.586z"/>
			</g>
			<path style="&st1;" d="M62.918,27.397c0.691,0.234,1.932,0.352,3.724,0.352h3.106V14.92c-1.248-0.631-2.511-0.947-3.789-0.947c-1.997,0-3.587,0.652-4.77,1.959c-1.181,1.307-1.772,3.066-1.772,5.282c0,2.084,0.513,3.689,1.542,4.818
				c0.617,0.676,1.269,1.131,1.958,1.365z"/>
			<path style="&st1;" d="M46.491,15.281c-0.851-0.871-1.997-1.309-3.436-1.309c-1.441,0-2.619,0.438-3.537,1.309c-0.918,0.871-1.516,2.113-1.794,3.725h10.198c-0.103-1.611-0.58-2.854-1.432-3.725z"/>
			<path d="M4.37,7.273l9.549,11.863h0.813l9.44-11.863v23.918h4.437V0.463H24.45L14.338,13.066L4.196,0.463H0v30.729h4.37V7.273z"/>
			<path d="M38.239,30.135c1.377,0.926,3.18,1.387,5.408,1.387c1.628,0,3.047-0.174,4.257-0.523c1.209-0.35,2.43-0.932,3.662-1.748v-3.887c-2.234,1.635-4.673,2.451-7.317,2.451c-1.896,0-3.443-0.58-4.64-1.74c-1.198-1.16-1.848-2.721-1.951-4.684h14.237v-0.506
				c0-3.152-0.798-5.664-2.395-7.541c-1.596-1.877-3.733-2.814-6.414-2.814c-2.783,0-5.047,0.967-6.79,2.9c-1.742,1.932-2.614,4.443-2.614,7.529c0,2.059,0.414,3.872,1.244,5.438c0.827,1.564,1.932,2.811,3.311,3.738z M39.519,15.281
				c0.917-0.871,2.096-1.309,3.537-1.309c1.438,0,2.584,0.438,3.436,1.309c0.852,0.871,1.329,2.113,1.432,3.725H37.725c0.278-1.611,0.876-2.854,1.794-3.725z"/>
			<path d="M65.221,31.192h8.567V0.463h-4.04v10.895c-1.585-0.551-3.052-0.828-4.401-0.828c-2.906,0-5.292,0.961-7.164,2.879c-1.871,1.922-2.806,4.367-2.806,7.342c0,3.18,0.892,5.715,2.676,7.606c1.785,1.891,4.173,2.836,7.167,2.836z M61.189,15.932
				c1.182-1.307,2.772-1.959,4.77-1.959c1.278,0,2.542,0.316,3.789,0.947v12.829h-3.106c-1.792,0-3.032-0.117-3.724-0.352c-0.689-0.234-1.342-0.689-1.958-1.365c-1.03-1.129-1.542-2.734-1.542-4.818c0-2.215,0.592-3.975,1.772-5.282z"/>
			<g>
				<path style="&st1;" d="M164.049,15.281c-0.852-0.871-1.998-1.309-3.436-1.309c-1.439,0-2.619,0.438-3.536,1.309c-0.919,0.871-1.517,2.113-1.796,3.725h10.199c-0.104-1.611-0.58-2.854-1.432-3.725z"/>
				<path style="&st1;" d="M107.371,26.833c1.22-0.301,2.237-0.684,3.052-1.146c0.816-0.465,1.562-1.033,2.238-1.709c2.175-2.205,3.264-4.993,3.264-8.36c0-3.307-1.117-6.004-3.352-8.094c-0.823-0.777-1.767-1.418-2.833-1.918c-1.066-0.498-2.077-0.83-3.032-0.992
					c-0.956-0.16-2.491-0.242-4.608-0.242h-5.513v22.913h5.646c2.203,0,3.916-0.148,5.138-0.451z"/>
				<path d="M107.5,30.959c0.968-0.152,2.033-0.459,3.195-0.914c1.981-0.748,3.721-1.857,5.219-3.324c1.468-1.426,2.598-3.076,3.391-4.957c0.793-1.879,1.189-3.848,1.189-5.903c0-2.879-0.72-5.537-2.158-7.975c-1.439-2.439-3.377-4.283-5.815-5.541
					c-2.437-1.254-5.747-1.883-9.931-1.883H92.218v30.729h9.733c2.73,0,4.582-0.076,5.549-0.232z M96.588,4.371h5.513c2.117,0,3.652,0.082,4.608,0.242c0.956,0.162,1.966,0.494,3.032,0.992c1.066,0.5,2.01,1.141,2.833,1.918c2.234,2.09,3.352,4.787,3.352,8.094
					c0,3.367-1.088,6.155-3.264,8.36c-0.676,0.676-1.422,1.244-2.238,1.709c-0.815,0.463-1.833,0.846-3.052,1.146c-1.222,0.303-2.935,0.451-5.138,0.451h-5.646V4.371z"/>
				<path d="M125.512,31.192h3.972v-20.2h-3.972v20.2z"/>
				<path d="M127.499,7.15c0.656,0,1.216-0.23,1.683-0.699c0.466-0.465,0.701-1.021,0.701-1.662c0-0.656-0.234-1.209-0.701-1.662c-0.467-0.451-1.027-0.676-1.683-0.676c-0.612,0-1.152,0.236-1.619,0.709c-0.467,0.475-0.7,1.018-0.7,1.629
					c0,0.627,0.233,1.178,0.7,1.652c0.466,0.473,1.006,0.709,1.619,0.709z"/>
				<path d="M139.617,20.602c0-1.688,0.471-3.148,1.416-4.381c0.943-1.234,2.059-1.85,3.346-1.85c1.184,0,2.471,0.662,3.861,1.986l2.105-3.531c-1.639-1.531-3.211-2.297-4.717-2.297c-1.932,0-3.861,1.566-5.793,4.697l-0.219,0.354v-4.588h-4.039v20.2h4.039v-10.59z"
					/>
				<path d="M155.795,30.135c1.379,0.926,3.182,1.387,5.41,1.387c1.628,0,3.046-0.174,4.256-0.523c1.211-0.35,2.432-0.932,3.662-1.748v-3.887c-2.234,1.635-4.674,2.451-7.316,2.451c-1.896,0-3.442-0.58-4.641-1.74s-1.849-2.721-1.949-4.684h14.236v-0.506
					c0-3.152-0.799-5.664-2.393-7.541c-1.598-1.877-3.735-2.814-6.415-2.814c-2.784,0-5.046,0.967-6.789,2.9c-1.743,1.932-2.614,4.443-2.614,7.529c0,2.059,0.414,3.872,1.242,5.438c0.828,1.564,1.934,2.811,3.311,3.738z M157.077,15.281
					c0.917-0.871,2.097-1.309,3.536-1.309c1.438,0,2.584,0.438,3.436,1.309s1.328,2.113,1.432,3.725h-10.199c0.279-1.611,0.877-2.854,1.796-3.725z"/>
			</g>
			<g>
				<path d="M176.643,21.025c0-1.975,0.59-3.6,1.764-4.875c1.176-1.273,2.68-1.912,4.51-1.912c1.756,0,3.66,0.662,5.715,1.986v-4.281c-1.23-0.547-2.266-0.918-3.102-1.117c-0.838-0.197-1.783-0.297-2.834-0.297c-3.023,0-5.461,0.975-7.313,2.928
					c-1.854,1.951-2.779,4.518-2.779,7.701c0,2.19,0.469,4.067,1.384,5.641l0.022-0.025l1.584-1.635l1.606-1.131c-0.368-0.871-0.558-1.861-0.558-2.983z"/>
				<path d="M184.99,27.706c-0.456,0.068-0.898,0.109-1.32,0.109c-0.5,0-0.973-0.037-1.424-0.104c-1.295-0.189-2.393-0.648-3.295-1.379l-1.115,0.914l-1.242,0.787l-0.987,0.813c1.882,1.779,4.373,2.676,7.481,2.676c0.574,0,1.154-0.043,1.736-0.109
					c0.984-0.111,1.98-0.318,2.986-0.619c0.404-0.119,0.809-0.244,1.217-0.396v-3.975c-1.469,0.678-2.813,1.1-4.037,1.283z"/>
			</g>
			<path d="M194.172,23.53c0,1.83,0.084,3.07,0.252,3.723s0.377,1.178,0.625,1.582c0.248,0.402,0.563,0.764,0.941,1.086c1.213,1.068,2.73,1.602,4.557,1.602c1.811,0,3.482-0.432,5.016-1.297v-3.736c-1.596,0.973-3.109,1.459-4.543,1.459
				c-1.916,0-2.873-1.158-2.873-3.471v-9.909h6.355v-3.576h-6.355V6.754l-7.484,7.418v0.396h3.51v8.961z"/>
			<path d="M228.107,29.452c2.393,1.381,5.305,2.07,8.736,2.07c4.225,0,7.951-0.883,11.178-2.648V24.04c-3.547,2.297-7.184,3.443-10.906,3.443c-3.563,0-6.488-1.088-8.775-3.264c-2.285-2.176-3.428-4.956-3.428-8.336c0-3.352,1.16-6.143,3.484-8.369
				s5.244-3.342,8.764-3.342c3.428,0,6.939,1.016,10.531,3.045V2.516C243.744,0.84,240.16,0,236.932,0c-4.678,0-8.615,1.527-11.805,4.582c-3.191,3.053-4.785,6.822-4.785,11.301c0,2.82,0.695,5.442,2.09,7.866c1.393,2.422,3.285,4.324,5.676,5.703z"/>
			<path d="M266.225,28.674c-0.471,0-0.705-0.344-0.705-1.035v-3.586V21.35v-2.333c0-1.705-0.049-2.861-0.145-3.473c-0.094-0.609-0.316-1.219-0.666-1.83c-0.352-0.609-0.746-1.098-1.182-1.465c-1.314-1.146-3.061-1.721-5.236-1.721c-2.906,0-5.131,0.912-6.68,2.734
				v4.352c2.063-2.252,4.18-3.377,6.361-3.377c2.426,0,3.639,1.227,3.639,3.682v1.086l-5.121,1.766c-1.686,0.59-2.986,1.389-3.902,2.397s-1.373,2.152-1.373,3.432c0,0.096,0.02,0.18,0.023,0.273l0.354-0.225l3.049-1.758l0.944-0.449
				c0.124-0.207,0.267-0.404,0.45-0.582c0.564-0.551,1.529-1.094,2.893-1.637l2.684-1.031v0.9v2.848v2.24c-1.084,1.041-2.266,1.561-3.541,1.561c-0.852,0-1.545-0.264-2.08-0.789c-0.114-0.111-0.21-0.234-0.3-0.359l-1.142,0.525l-2.403,1.424
				c0.147,0.199,0.298,0.398,0.481,0.58c0.941,0.934,2.119,1.4,3.533,1.4c1.928,0,3.744-0.67,5.451-2.012c0.305,1.342,1.309,2.012,3.008,2.012c0.594,0,1.166-0.105,1.711-0.314c0.545-0.213,1.268-0.609,2.17-1.189v-2.402c-1.031,0.707-1.789,1.059-2.275,1.059z"/>
			<g>
				<path d="M296.197,7.15c0.656,0,1.217-0.23,1.684-0.699c0.465-0.465,0.701-1.021,0.701-1.662c0-0.656-0.236-1.209-0.701-1.662c-0.467-0.451-1.027-0.676-1.684-0.676c-0.611,0-1.152,0.236-1.619,0.709c-0.467,0.475-0.699,1.018-0.699,1.629
					c0,0.627,0.232,1.178,0.699,1.652c0.467,0.473,1.008,0.709,1.619,0.709z"/>
				<path d="M294.211,31.192h3.973v-20.2h-3.973v20.2z"/>
				<path d="M304.676,23.53c0,1.83,0.082,3.07,0.25,3.723s0.377,1.178,0.627,1.582c0.246,0.402,0.561,0.764,0.941,1.086c1.211,1.068,2.73,1.602,4.555,1.602c1.811,0,3.482-0.432,5.016-1.297v-3.736c-1.596,0.973-3.109,1.459-4.541,1.459
					c-1.918,0-2.875-1.158-2.875-3.471v-9.909h6.355v-3.576h-6.355V6.754l-7.484,7.418v0.396h3.512v8.961z"/>
				<path d="M322.621,20.771c-1.688,0.59-2.988,1.389-3.902,2.397c-0.916,1.008-1.373,2.152-1.373,3.432c0,1.414,0.471,2.588,1.412,3.521s2.119,1.4,3.531,1.4c1.928,0,3.746-0.67,5.453-2.012c0.305,1.342,1.307,2.012,3.008,2.012c0.596,0,1.166-0.105,1.711-0.314
					c0.545-0.213,1.268-0.609,2.168-1.189v-2.402c-1.029,0.707-1.787,1.059-2.273,1.059c-0.471,0-0.705-0.344-0.705-1.035v-8.622c0-1.705-0.049-2.861-0.143-3.473c-0.096-0.609-0.318-1.219-0.668-1.83c-0.352-0.609-0.746-1.098-1.184-1.465
					c-1.314-1.146-3.061-1.721-5.234-1.721c-2.904,0-5.133,0.912-6.68,2.734v4.352c2.063-2.252,4.182-3.377,6.359-3.377c2.426,0,3.641,1.227,3.641,3.682v1.086l-5.121,1.766z M327.742,27.18c-1.086,1.041-2.268,1.561-3.541,1.561c-0.852,0-1.543-0.264-2.08-0.789
					c-0.535-0.525-0.801-1.207-0.801-2.041c0-0.82,0.279-1.504,0.844-2.051c0.566-0.551,1.529-1.094,2.893-1.637l2.686-1.031v5.988z"/>
				<path d="M342.248,0.463h-3.973v30.729h3.973V0.463z"/>
			</g>
		</g>
	</g>
</svg>
