<?xml version="1.0" encoding="UTF-8" standalone="no"?>
<!DOCTYPE svg PUBLIC "-//W3C//DTD SVG 20010904//EN"
              "http://www.w3.org/TR/2001/REC-SVG-20010904/DTD/svg10.dtd">

<svg xmlns="http://www.w3.org/2000/svg"
     width="8.54942in" height="2.77856in"
     viewBox="0 0 600 195">
  <path id="Selection"
        fill="none" stroke="black" stroke-width="1"
        d="M 401.00,0.00
           C 401.00,0.00 405.72,37.00 405.72,37.00
             405.72,37.00 413.87,96.00 413.87,96.00
             413.87,96.00 420.87,147.00 420.87,147.00
             420.87,147.00 425.00,174.00 425.00,174.00
             425.00,174.00 432.87,143.00 432.87,143.00
             433.54,140.35 435.38,131.38 436.90,129.74
             438.86,127.62 443.32,128.00 446.00,128.00
             446.00,128.00 471.00,128.00 471.00,128.00
             481.99,127.98 485.03,123.47 494.00,117.69
             505.85,110.06 516.28,103.45 530.00,99.58
             534.23,98.39 541.75,96.52 546.00,97.39
             552.51,98.72 563.18,106.08 567.56,111.04
             571.61,115.62 577.61,124.13 583.00,126.83
             586.55,128.60 595.72,128.00 600.00,128.00
             600.00,128.00 600.00,135.00 600.00,135.00
             594.42,135.00 584.65,135.99 580.00,133.11
             569.25,126.46 559.96,107.37 545.00,104.92
             540.23,104.14 533.47,106.41 529.00,108.05
             516.58,112.61 505.19,119.46 494.00,126.42
             486.31,131.21 483.45,134.94 474.00,135.00
             474.00,135.00 450.00,135.00 450.00,135.00
             447.72,135.00 444.24,134.79 442.27,136.02
             439.09,138.02 437.25,147.22 436.00,151.00
             436.00,151.00 426.33,181.00 426.33,181.00
             424.77,185.70 423.89,190.94 421.00,195.00
             421.00,195.00 415.73,160.00 415.73,160.00
             415.73,160.00 405.27,84.00 405.27,84.00
             405.27,84.00 399.00,46.00 399.00,46.00
             399.00,46.00 393.08,85.00 393.08,85.00
             393.08,85.00 384.59,137.00 384.59,137.00
             384.59,137.00 379.00,171.00 379.00,171.00
             373.91,166.52 367.50,152.56 363.86,146.00
             360.05,139.14 359.83,135.17 351.00,135.00
             342.45,134.85 329.26,136.70 322.00,132.19
             316.57,128.81 312.57,123.68 308.28,119.04
             305.56,116.09 302.41,112.65 298.00,112.87
             293.61,113.09 288.23,118.44 285.00,121.28
             276.63,128.64 273.01,133.85 261.00,134.00
             261.00,134.00 157.00,134.00 157.00,134.00
             157.00,134.00 142.00,135.00 142.00,135.00
             142.00,135.00 77.00,135.00 77.00,135.00
             77.00,135.00 24.00,135.00 24.00,135.00
             18.34,135.00 4.60,135.82 0.00,134.00
             0.00,134.00 20.00,133.00 20.00,133.00
             20.00,133.00 32.00,132.04 32.00,132.04
             32.00,132.04 44.00,132.04 44.00,132.04
             44.00,132.04 60.00,131.00 60.00,131.00
             60.00,131.00 76.00,131.00 76.00,131.00
             76.00,131.00 92.00,130.00 92.00,130.00
             92.00,130.00 118.00,130.00 118.00,130.00
             118.00,130.00 135.00,129.00 135.00,129.00
             135.00,129.00 161.00,129.00 161.00,129.00
             161.00,129.00 178.00,128.00 178.00,128.00
             178.00,128.00 204.00,128.00 204.00,128.00
             204.00,128.00 221.00,127.00 221.00,127.00
             221.00,127.00 257.00,127.00 257.00,127.00
             267.52,126.98 272.35,124.61 279.83,116.91
             284.76,111.84 290.94,102.61 299.00,103.17
             308.76,103.86 313.78,118.79 324.00,125.00
             331.51,129.56 348.84,127.85 358.00,128.00
             359.73,128.03 361.88,127.94 363.35,128.99
             365.11,130.25 366.41,134.00 367.28,136.00
             367.28,136.00 375.00,153.00 375.00,153.00
             375.00,153.00 381.59,110.00 381.59,110.00
             381.59,110.00 392.42,42.00 392.42,42.00
             392.42,42.00 399.00,0.00 399.00,0.00
             399.00,0.00 401.00,0.00 401.00,0.00 Z" />
</svg>
