  0
SECTION
  2
HEADER
  9
$ACADVER
  1
AC1009
  9
$EXTMIN
 10
0.0
 20
0.0
 30
0.0
  9
$EXTMAX
 10
1000.0
 20
1000.0
 30
0.0
  9
$FILLMODE
 70
 0
  9
$SPLFRAME
 70
 1
  0
ENDSEC
  0
SECTION
  2
TABLES
  0
TABLE
  2
LAYER
 70
1
  0
LAYER
  2
0
 70
     0
 62
     7
  6
CONTINUOUS
  0
ENDTAB
  0
ENDSEC
  0
SECTION
  2
ENTITIES
  0
POLYLINE
  8
0
 62
     0
 66
     1
 10
0
 20
0
 30
0.0
 70
     1
 40
1.02593
 41
1.02593
  0
VERTEX
  8
0
 10
5.71658
 20
2.7971
 30
0.0
 40
0.014249
 41
0.014249
  0
VERTEX
  8
0
 10
5.78386
 20
2.26986
 30
0.0
 40
0.014249
 41
0.014249
  0
VERTEX
  8
0
 10
5.89996
 20
1.42919
 30
0.0
 40
0.014249
 41
0.014249
  0
VERTEX
  8
0
 10
5.99972
 20
0.702474
 30
0.0
 40
0.014249
 41
0.014249
  0
VERTEX
  8
0
 10
6.05854
 20
0.317763
 30
0.0
 40
0.014249
 41
0.014249
  0
VERTEX
  8
0
 10
6.17068
 20
0.759494
 30
0.0
 40
0.014249
 41
0.014249
  0
VERTEX
  8
0
 10
6.18061
 20
0.801704
 30
0.0
 40
0.014249
 41
0.014249
  0
VERTEX
  8
0
 10
6.19482
 20
0.859375
 30
0.0
 40
0.014249
 41
0.014249
  0
VERTEX
  8
0
 10
6.21132
 20
0.914387
 30
0.0
 40
0.014249
 41
0.014249
  0
VERTEX
  8
0
 10
6.22814
 20
0.948406
 30
0.0
 40
0.014249
 41
0.014249
  0
VERTEX
  8
0
 10
6.25478
 20
0.965061
 30
0.0
 40
0.014249
 41
0.014249
  0
VERTEX
  8
0
 10
6.28911
 20
0.972168
 30
0.0
 40
0.014249
 41
0.014249
  0
VERTEX
  8
0
 10
6.32531
 20
0.973579
 30
0.0
 40
0.014249
 41
0.014249
  0
VERTEX
  8
0
 10
6.35781
 20
0.973199
 30
0.0
 40
0.014249
 41
0.014249
  0
VERTEX
  8
0
 10
6.71403
 20
0.973199
 30
0.0
 40
0.014249
 41
0.014249
  0
VERTEX
  8
0
 10
6.81332
 20
0.984754
 30
0.0
 40
0.014249
 41
0.014249
  0
VERTEX
  8
0
 10
6.88867
 20
1.0159
 30
0.0
 40
0.014249
 41
0.014249
  0
VERTEX
  8
0
 10
6.95861
 20
1.0625
 30
0.0
 40
0.014249
 41
0.014249
  0
VERTEX
  8
0
 10
7.04172
 20
1.12012
 30
0.0
 40
0.014249
 41
0.014249
  0
VERTEX
  8
0
 10
7.16558
 20
1.19857
 30
0.0
 40
0.014249
 41
0.014249
  0
VERTEX
  8
0
 10
7.28819
 20
1.26926
 30
0.0
 40
0.014249
 41
0.014249
  0
VERTEX
  8
0
 10
7.41581
 20
1.32992
 30
0.0
 40
0.014249
 41
0.014249
  0
VERTEX
  8
0
 10
7.55469
 20
1.37815
 30
0.0
 40
0.014249
 41
0.014249
  0
VERTEX
  8
0
 10
7.60721
 20
1.39199
 30
0.0
 40
0.014249
 41
0.014249
  0
VERTEX
  8
0
 10
7.66857
 20
1.40479
 30
0.0
 40
0.014249
 41
0.014249
  0
VERTEX
  8
0
 10
7.72999
 20
1.41217
 30
0.0
 40
0.014249
 41
0.014249
  0
VERTEX
  8
0
 10
7.78271
 20
1.4094
 30
0.0
 40
0.014249
 41
0.014249
  0
VERTEX
  8
0
 10
7.861
 20
1.38097
 30
0.0
 40
0.014249
 41
0.014249
  0
VERTEX
  8
0
 10
7.94764
 20
1.33154
 30
0.0
 40
0.014249
 41
0.014249
  0
VERTEX
  8
0
 10
8.0286
 20
1.27246
 30
0.0
 40
0.014249
 41
0.014249
  0
VERTEX
  8
0
 10
8.0899
 20
1.2149
 30
0.0
 40
0.014249
 41
0.014249
  0
VERTEX
  8
0
 10
8.13781
 20
1.15766
 30
0.0
 40
0.014249
 41
0.014249
  0
VERTEX
  8
0
 10
8.19271
 20
1.09239
 30
0.0
 40
0.014249
 41
0.014249
  0
VERTEX
  8
0
 10
8.25125
 20
1.03217
 30
0.0
 40
0.014249
 41
0.014249
  0
VERTEX
  8
0
 10
8.30989
 20
0.989908
 30
0.0
 40
0.014249
 41
0.014249
  0
VERTEX
  8
0
 10
8.36051
 20
0.976725
 30
0.0
 40
0.014249
 41
0.014249
  0
VERTEX
  8
0
 10
8.42708
 20
0.972114
 30
0.0
 40
0.014249
 41
0.014249
  0
VERTEX
  8
0
 10
8.49567
 20
0.972276
 30
0.0
 40
0.014249
 41
0.014249
  0
VERTEX
  8
0
 10
8.55214
 20
0.973199
 30
0.0
 40
0.014249
 41
0.014249
  0
VERTEX
  8
0
 10
8.55214
 20
0.873481
 30
0.0
 40
0.014249
 41
0.014249
  0
VERTEX
  8
0
 10
8.48335
 20
0.871961
 30
0.0
 40
0.014249
 41
0.014249
  0
VERTEX
  8
0
 10
8.40468
 20
0.871582
 30
0.0
 40
0.014249
 41
0.014249
  0
VERTEX
  8
0
 10
8.32844
 20
0.878906
 30
0.0
 40
0.014249
 41
0.014249
  0
VERTEX
  8
0
 10
8.26714
 20
0.90039
 30
0.0
 40
0.014249
 41
0.014249
  0
VERTEX
  8
0
 10
8.21044
 20
0.943468
 30
0.0
 40
0.014249
 41
0.014249
  0
VERTEX
  8
0
 10
8.15457
 20
0.998264
 30
0.0
 40
0.014249
 41
0.014249
  0
VERTEX
  8
0
 10
8.09819
 20
1.05995
 30
0.0
 40
0.014249
 41
0.014249
  0
VERTEX
  8
0
 10
8.04025
 20
1.12375
 30
0.0
 40
0.014249
 41
0.014249
  0
VERTEX
  8
0
 10
7.97949
 20
1.18468
 30
0.0
 40
0.014249
 41
0.014249
  0
VERTEX
  8
0
 10
7.91471
 20
1.23796
 30
0.0
 40
0.014249
 41
0.014249
  0
VERTEX
  8
0
 10
7.84478
 20
1.27875
 30
0.0
 40
0.014249
 41
0.014249
  0
VERTEX
  8
0
 10
7.76844
 20
1.30214
 30
0.0
 40
0.014249
 41
0.014249
  0
VERTEX
  8
0
 10
7.71306
 20
1.30317
 30
0.0
 40
0.014249
 41
0.014249
  0
VERTEX
  8
0
 10
7.65283
 20
1.29275
 30
0.0
 40
0.014249
 41
0.014249
  0
VERTEX
  8
0
 10
7.59338
 20
1.27593
 30
0.0
 40
0.014249
 41
0.014249
  0
VERTEX
  8
0
 10
7.54047
 20
1.25754
 30
0.0
 40
0.014249
 41
0.014249
  0
VERTEX
  8
0
 10
7.2845
 20
1.13949
 30
0.0
 40
0.014249
 41
0.014249
  0
VERTEX
  8
0
 10
7.04172
 20
0.995714
 30
0.0
 40
0.014249
 41
0.014249
  0
VERTEX
  8
0
 10
6.96989
 20
0.947971
 30
0.0
 40
0.014249
 41
0.014249
  0
VERTEX
  8
0
 10
6.90864
 20
0.909343
 30
0.0
 40
0.014249
 41
0.014249
  0
VERTEX
  8
0
 10
6.84267
 20
0.883356
 30
0.0
 40
0.014249
 41
0.014249
  0
VERTEX
  8
0
 10
6.75678
 20
0.873481
 30
0.0
 40
0.014249
 41
0.014249
  0
VERTEX
  8
0
 10
6.41476
 20
0.873481
 30
0.0
 40
0.014249
 41
0.014249
  0
VERTEX
  8
0
 10
6.38775
 20
0.873697
 30
0.0
 40
0.014249
 41
0.014249
  0
VERTEX
  8
0
 10
6.35801
 20
0.872831
 30
0.0
 40
0.014249
 41
0.014249
  0
VERTEX
  8
0
 10
6.3291
 20
0.868653
 30
0.0
 40
0.014249
 41
0.014249
  0
VERTEX
  8
0
 10
6.30464
 20
0.858942
 30
0.0
 40
0.014249
 41
0.014249
  0
VERTEX
  8
0
 10
6.27403
 20
0.821181
 30
0.0
 40
0.014249
 41
0.014249
  0
VERTEX
  8
0
 10
6.24962
 20
0.761774
 30
0.0
 40
0.014249
 41
0.014249
  0
VERTEX
  8
0
 10
6.23036
 20
0.697592
 30
0.0
 40
0.014249
 41
0.014249
  0
VERTEX
  8
0
 10
6.21528
 20
0.645508
 30
0.0
 40
0.014249
 41
0.014249
  0
VERTEX
  8
0
 10
6.07753
 20
0.21799
 30
0.0
 40
0.014249
 41
0.014249
  0
VERTEX
  8
0
 10
6.06207
 20
0.166775
 30
0.0
 40
0.014249
 41
0.014249
  0
VERTEX
  8
0
 10
6.0466
 20
0.114909
 30
0.0
 40
0.014249
 41
0.014249
  0
VERTEX
  8
0
 10
6.02767
 20
0.0647786
 30
0.0
 40
0.014249
 41
0.014249
  0
VERTEX
  8
0
 10
6.00157
 20
0.0186089
 30
0.0
 40
0.014249
 41
0.014249
  0
VERTEX
  8
0
 10
5.92649
 20
0.517253
 30
0.0
 40
0.014249
 41
0.014249
  0
VERTEX
  8
0
 10
5.77746
 20
1.60015
 30
0.0
 40
0.014249
 41
0.014249
  0
VERTEX
  8
0
 10
5.6881
 20
2.14165
 30
0.0
 40
0.014249
 41
0.014249
  0
VERTEX
  8
0
 10
5.60374
 20
1.58594
 30
0.0
 40
0.014249
 41
0.014249
  0
VERTEX
  8
0
 10
5.48275
 20
0.844997
 30
0.0
 40
0.014249
 41
0.014249
  0
VERTEX
  8
0
 10
5.4031
 20
0.360568
 30
0.0
 40
0.014249
 41
0.014249
  0
VERTEX
  8
0
 10
5.34608
 20
0.430012
 30
0.0
 40
0.014249
 41
0.014249
  0
VERTEX
  8
0
 10
5.28749
 20
0.527561
 30
0.0
 40
0.014249
 41
0.014249
  0
VERTEX
  8
0
 10
5.23275
 20
0.630642
 30
0.0
 40
0.014249
 41
0.014249
  0
VERTEX
  8
0
 10
5.18739
 20
0.716743
 30
0.0
 40
0.014249
 41
0.014249
  0
VERTEX
  8
0
 10
5.16906
 20
0.751465
 30
0.0
 40
0.014249
 41
0.014249
  0
VERTEX
  8
0
 10
5.15354
 20
0.782118
 30
0.0
 40
0.014249
 41
0.014249
  0
VERTEX
  8
0
 10
5.13867
 20
0.808649
 30
0.0
 40
0.014249
 41
0.014249
  0
VERTEX
  8
0
 10
5.12256
 20
0.830838
 30
0.0
 40
0.014249
 41
0.014249
  0
VERTEX
  8
0
 10
5.10303
 20
0.848579
 30
0.0
 40
0.014249
 41
0.014249
  0
VERTEX
  8
0
 10
5.07818
 20
0.861708
 30
0.0
 40
0.014249
 41
0.014249
  0
VERTEX
  8
0
 10
5.04585
 20
0.870063
 30
0.0
 40
0.014249
 41
0.014249
  0
VERTEX
  8
0
 10
5.00412
 20
0.873481
 30
0.0
 40
0.014249
 41
0.014249
  0
VERTEX
  8
0
 10
4.90267
 20
0.871636
 30
0.0
 40
0.014249
 41
0.014249
  0
VERTEX
  8
0
 10
4.79058
 20
0.870225
 30
0.0
 40
0.014249
 41
0.014249
  0
VERTEX
  8
0
 10
4.68197
 20
0.880479
 30
0.0
 40
0.014249
 41
0.014249
  0
VERTEX
  8
0
 10
4.59093
 20
0.913519
 30
0.0
 40
0.014249
 41
0.014249
  0
VERTEX
  8
0
 10
4.53629
 20
0.953831
 30
0.0
 40
0.014249
 41
0.014249
  0
VERTEX
  8
0
 10
4.48703
 20
1.00049
 30
0.0
 40
0.014249
 41
0.014249
  0
VERTEX
  8
0
 10
4.44086
 20
1.05051
 30
0.0
 40
0.014249
 41
0.014249
  0
VERTEX
  8
0
 10
4.3954
 20
1.10091
 30
0.0
 40
0.014249
 41
0.014249
  0
VERTEX
  8
0
 10
4.36496
 20
1.13287
 30
0.0
 40
0.014249
 41
0.014249
  0
VERTEX
  8
0
 10
4.33117
 20
1.16184
 30
0.0
 40
0.014249
 41
0.014249
  0
VERTEX
  8
0
 10
4.29286
 20
1.18235
 30
0.0
 40
0.014249
 41
0.014249
  0
VERTEX
  8
0
 10
4.24892
 20
1.1888
 30
0.0
 40
0.014249
 41
0.014249
  0
VERTEX
  8
0
 10
4.20003
 20
1.17448
 30
0.0
 40
0.014249
 41
0.014249
  0
VERTEX
  8
0
 10
4.15007
 20
1.1429
 30
0.0
 40
0.014249
 41
0.014249
  0
VERTEX
  8
0
 10
4.10325
 20
1.10433
 30
0.0
 40
0.014249
 41
0.014249
  0
VERTEX
  8
0
 10
4.06369
 20
1.06896
 30
0.0
 40
0.014249
 41
0.014249
  0
VERTEX
  8
0
 10
3.984
 20
0.996744
 30
0.0
 40
0.014249
 41
0.014249
  0
VERTEX
  8
0
 10
3.91217
 20
0.939887
 30
0.0
 40
0.014249
 41
0.014249
  0
VERTEX
  8
0
 10
3.83057
 20
0.902235
 30
0.0
 40
0.014249
 41
0.014249
  0
VERTEX
  8
0
 10
3.72174
 20
0.88775
 30
0.0
 40
0.014249
 41
0.014249
  0
VERTEX
  8
0
 10
2.23981
 20
0.88775
 30
0.0
 40
0.014249
 41
0.014249
  0
VERTEX
  8
0
 10
2.0261
 20
0.873481
 30
0.0
 40
0.014249
 41
0.014249
  0
VERTEX
  8
0
 10
0.344726
 20
0.873481
 30
0.0
 40
0.014249
 41
0.014249
  0
VERTEX
  8
0
 10
0.266439
 20
0.872071
 30
0.0
 40
0.014249
 41
0.014249
  0
VERTEX
  8
0
 10
0.168024
 20
0.870876
 30
0.0
 40
0.014249
 41
0.014249
  0
VERTEX
  8
0
 10
0.0724283
 20
0.874567
 30
0.0
 40
0.014249
 41
0.014249
  0
VERTEX
  8
0
 10
0.00271267
 20
0.88775
 30
0.0
 40
0.014249
 41
0.014249
  0
VERTEX
  8
0
 10
0.287706
 20
0.901964
 30
0.0
 40
0.014249
 41
0.014249
  0
VERTEX
  8
0
 10
0.458713
 20
0.915636
 30
0.0
 40
0.014249
 41
0.014249
  0
VERTEX
  8
0
 10
0.629665
 20
0.915636
 30
0.0
 40
0.014249
 41
0.014249
  0
VERTEX
  8
0
 10
0.857639
 20
0.930447
 30
0.0
 40
0.014249
 41
0.014249
  0
VERTEX
  8
0
 10
1.08567
 20
0.930447
 30
0.0
 40
0.014249
 41
0.014249
  0
VERTEX
  8
0
 10
1.31364
 20
0.944715
 30
0.0
 40
0.014249
 41
0.014249
  0
VERTEX
  8
0
 10
1.68408
 20
0.944715
 30
0.0
 40
0.014249
 41
0.014249
  0
VERTEX
  8
0
 10
1.92632
 20
0.958985
 30
0.0
 40
0.014249
 41
0.014249
  0
VERTEX
  8
0
 10
2.29682
 20
0.958985
 30
0.0
 40
0.014249
 41
0.014249
  0
VERTEX
  8
0
 10
2.53906
 20
0.973199
 30
0.0
 40
0.014249
 41
0.014249
  0
VERTEX
  8
0
 10
2.9095
 20
0.973199
 30
0.0
 40
0.014249
 41
0.014249
  0
VERTEX
  8
0
 10
3.15175
 20
0.987468
 30
0.0
 40
0.014249
 41
0.014249
  0
VERTEX
  8
0
 10
3.66471
 20
0.987468
 30
0.0
 40
0.014249
 41
0.014249
  0
VERTEX
  8
0
 10
3.76378
 20
0.994629
 30
0.0
 40
0.014249
 41
0.014249
  0
VERTEX
  8
0
 10
3.84358
 20
1.01834
 30
0.0
 40
0.014249
 41
0.014249
  0
VERTEX
  8
0
 10
3.91531
 20
1.06255
 30
0.0
 40
0.014249
 41
0.014249
  0
VERTEX
  8
0
 10
3.99001
 20
1.13124
 30
0.0
 40
0.014249
 41
0.014249
  0
VERTEX
  8
0
 10
4.04617
 20
1.19347
 30
0.0
 40
0.014249
 41
0.014249
  0
VERTEX
  8
0
 10
4.10986
 20
1.25928
 30
0.0
 40
0.014249
 41
0.014249
  0
VERTEX
  8
0
 10
4.18192
 20
1.31
 30
0.0
 40
0.014249
 41
0.014249
  0
VERTEX
  8
0
 10
4.26318
 20
1.32704
 30
0.0
 40
0.014249
 41
0.014249
  0
VERTEX
  8
0
 10
4.35699
 20
1.28678
 30
0.0
 40
0.014249
 41
0.014249
  0
VERTEX
  8
0
 10
4.43881
 20
1.20101
 30
0.0
 40
0.014249
 41
0.014249
  0
VERTEX
  8
0
 10
4.52186
 20
1.10053
 30
0.0
 40
0.014249
 41
0.014249
  0
VERTEX
  8
0
 10
4.61942
 20
1.01595
 30
0.0
 40
0.014249
 41
0.014249
  0
VERTEX
  8
0
 10
4.72185
 20
0.982206
 30
0.0
 40
0.014249
 41
0.014249
  0
VERTEX
  8
0
 10
4.85281
 20
0.971083
 30
0.0
 40
0.014249
 41
0.014249
  0
VERTEX
  8
0
 10
4.98812
 20
0.971679
 30
0.0
 40
0.014249
 41
0.014249
  0
VERTEX
  8
0
 10
5.10389
 20
0.973199
 30
0.0
 40
0.014249
 41
0.014249
  0
VERTEX
  8
0
 10
5.14339
 20
0.971625
 30
0.0
 40
0.014249
 41
0.014249
  0
VERTEX
  8
0
 10
5.18012
 20
0.959093
 30
0.0
 40
0.014249
 41
0.014249
  0
VERTEX
  8
0
 10
5.19764
 20
0.939942
 30
0.0
 40
0.014249
 41
0.014249
  0
VERTEX
  8
0
 10
5.21283
 20
0.91314
 30
0.0
 40
0.014249
 41
0.014249
  0
VERTEX
  8
0
 10
5.22564
 20
0.884386
 30
0.0
 40
0.014249
 41
0.014249
  0
VERTEX
  8
0
 10
5.23611
 20
0.859213
 30
0.0
 40
0.014249
 41
0.014249
  0
VERTEX
  8
0
 10
5.34608
 20
0.616971
 30
0.0
 40
0.014249
 41
0.014249
  0
VERTEX
  8
0
 10
5.44
 20
1.22976
 30
0.0
 40
0.014249
 41
0.014249
  0
VERTEX
  8
0
 10
5.59435
 20
2.19862
 30
0.0
 40
0.014249
 41
0.014249
  0
VERTEX
  8
0
 10
5.6881
 20
2.7971
 30
0.0
 40
0.014249
 41
0.014249
  0
VERTEX
  8
0
 10
5.71658
 20
2.7971
 30
0.0
 40
0.014249
 41
0.014249
  0
SEQEND
 8
0
  0
ENDSEC
  0
EOF
