  0
SECTION
  2
HEADER
  9
$ACADVER
  1
AC1009
  9
$EXTMIN
 10
0.0
 20
0.0
 30
0.0
  9
$EXTMAX
 10
1000.0
 20
1000.0
 30
0.0
  9
$FILLMODE
 70
 0
  9
$SPLFRAME
 70
 1
  0
ENDSEC
  0
SECTION
  2
TABLES
  0
TABLE
  2
LAYER
 70
1
  0
LAYER
  2
0
 70
     0
 62
     7
  6
CONTINUOUS
  0
ENDTAB
  0
ENDSEC
  0
SECTION
  2
ENTITIES
  0
POLYLINE
  8
0
 62
     0
 66
     1
 10
0
 20
0
 30
0.0
 70
     1
 40
0.749906
 41
0.749906
  0
VERTEX
  8
0
 10
0.442654
 20
2.81733
 30
0.0
 40
0.0104154
 41
0.0104154
  0
VERTEX
  8
0
 10
0.442654
 20
2.37989
 30
0.0
 40
0.0104154
 41
0.0104154
  0
VERTEX
  8
0
 10
0.00520833
 20
2.37989
 30
0.0
 40
0.0104154
 41
0.0104154
  0
VERTEX
  8
0
 10
0.00520833
 20
2.81733
 30
0.0
 40
0.0104154
 41
0.0104154
  0
VERTEX
  8
0
 10
0.442654
 20
2.81733
 30
0.0
 40
0.0104154
 41
0.0104154
  0
SEQEND
 8
0
  0
POLYLINE
  8
0
 62
     0
 66
     1
 10
0
 20
0
 30
0.0
 70
     1
 40
0.749906
 41
0.749906
  0
VERTEX
  8
0
 10
0.567654
 20
2.81733
 30
0.0
 40
0.0104154
 41
0.0104154
  0
VERTEX
  8
0
 10
0.567654
 20
2.75483
 30
0.0
 40
0.0104154
 41
0.0104154
  0
VERTEX
  8
0
 10
0.505154
 20
2.75483
 30
0.0
 40
0.0104154
 41
0.0104154
  0
VERTEX
  8
0
 10
0.505154
 20
2.81733
 30
0.0
 40
0.0104154
 41
0.0104154
  0
VERTEX
  8
0
 10
0.567654
 20
2.81733
 30
0.0
 40
0.0104154
 41
0.0104154
  0
SEQEND
 8
0
  0
POLYLINE
  8
0
 62
     0
 66
     1
 10
0
 20
0
 30
0.0
 70
     1
 40
0.749906
 41
0.749906
  0
VERTEX
  8
0
 10
0.7551
 20
2.81733
 30
0.0
 40
0.0104154
 41
0.0104154
  0
VERTEX
  8
0
 10
0.7551
 20
2.75483
 30
0.0
 40
0.0104154
 41
0.0104154
  0
VERTEX
  8
0
 10
0.6926
 20
2.75483
 30
0.0
 40
0.0104154
 41
0.0104154
  0
VERTEX
  8
0
 10
0.6926
 20
2.69233
 30
0.0
 40
0.0104154
 41
0.0104154
  0
VERTEX
  8
0
 10
0.8176
 20
2.69233
 30
0.0
 40
0.0104154
 41
0.0104154
  0
VERTEX
  8
0
 10
0.8176
 20
2.81733
 30
0.0
 40
0.0104154
 41
0.0104154
  0
VERTEX
  8
0
 10
1.38005
 20
2.81733
 30
0.0
 40
0.0104154
 41
0.0104154
  0
VERTEX
  8
0
 10
1.38005
 20
2.75483
 30
0.0
 40
0.0104154
 41
0.0104154
  0
VERTEX
  8
0
 10
1.44254
 20
2.75483
 30
0.0
 40
0.0104154
 41
0.0104154
  0
VERTEX
  8
0
 10
1.44254
 20
2.69233
 30
0.0
 40
0.0104154
 41
0.0104154
  0
VERTEX
  8
0
 10
1.50504
 20
2.69233
 30
0.0
 40
0.0104154
 41
0.0104154
  0
VERTEX
  8
0
 10
1.50504
 20
2.75483
 30
0.0
 40
0.0104154
 41
0.0104154
  0
VERTEX
  8
0
 10
1.56749
 20
2.75483
 30
0.0
 40
0.0104154
 41
0.0104154
  0
VERTEX
  8
0
 10
1.56749
 20
2.81733
 30
0.0
 40
0.0104154
 41
0.0104154
  0
VERTEX
  8
0
 10
1.81749
 20
2.81733
 30
0.0
 40
0.0104154
 41
0.0104154
  0
VERTEX
  8
0
 10
1.81749
 20
2.75483
 30
0.0
 40
0.0104154
 41
0.0104154
  0
VERTEX
  8
0
 10
1.87999
 20
2.75483
 30
0.0
 40
0.0104154
 41
0.0104154
  0
VERTEX
  8
0
 10
1.87999
 20
2.81733
 30
0.0
 40
0.0104154
 41
0.0104154
  0
VERTEX
  8
0
 10
2.00493
 20
2.81733
 30
0.0
 40
0.0104154
 41
0.0104154
  0
VERTEX
  8
0
 10
2.00493
 20
2.75483
 30
0.0
 40
0.0104154
 41
0.0104154
  0
VERTEX
  8
0
 10
2.06743
 20
2.75483
 30
0.0
 40
0.0104154
 41
0.0104154
  0
VERTEX
  8
0
 10
2.06743
 20
2.69233
 30
0.0
 40
0.0104154
 41
0.0104154
  0
VERTEX
  8
0
 10
2.00493
 20
2.69233
 30
0.0
 40
0.0104154
 41
0.0104154
  0
VERTEX
  8
0
 10
2.00493
 20
2.56739
 30
0.0
 40
0.0104154
 41
0.0104154
  0
VERTEX
  8
0
 10
2.06743
 20
2.56739
 30
0.0
 40
0.0104154
 41
0.0104154
  0
VERTEX
  8
0
 10
2.06743
 20
2.62983
 30
0.0
 40
0.0104154
 41
0.0104154
  0
VERTEX
  8
0
 10
2.12993
 20
2.62983
 30
0.0
 40
0.0104154
 41
0.0104154
  0
VERTEX
  8
0
 10
2.12993
 20
2.56739
 30
0.0
 40
0.0104154
 41
0.0104154
  0
VERTEX
  8
0
 10
2.19243
 20
2.56739
 30
0.0
 40
0.0104154
 41
0.0104154
  0
VERTEX
  8
0
 10
2.19243
 20
2.75483
 30
0.0
 40
0.0104154
 41
0.0104154
  0
VERTEX
  8
0
 10
2.25493
 20
2.75483
 30
0.0
 40
0.0104154
 41
0.0104154
  0
VERTEX
  8
0
 10
2.25493
 20
2.81733
 30
0.0
 40
0.0104154
 41
0.0104154
  0
VERTEX
  8
0
 10
2.31743
 20
2.81733
 30
0.0
 40
0.0104154
 41
0.0104154
  0
VERTEX
  8
0
 10
2.31743
 20
2.75483
 30
0.0
 40
0.0104154
 41
0.0104154
  0
VERTEX
  8
0
 10
2.25493
 20
2.75483
 30
0.0
 40
0.0104154
 41
0.0104154
  0
VERTEX
  8
0
 10
2.25493
 20
2.62983
 30
0.0
 40
0.0104154
 41
0.0104154
  0
VERTEX
  8
0
 10
2.31743
 20
2.62983
 30
0.0
 40
0.0104154
 41
0.0104154
  0
VERTEX
  8
0
 10
2.31743
 20
2.50489
 30
0.0
 40
0.0104154
 41
0.0104154
  0
VERTEX
  8
0
 10
2.12993
 20
2.50489
 30
0.0
 40
0.0104154
 41
0.0104154
  0
VERTEX
  8
0
 10
2.12993
 20
2.56739
 30
0.0
 40
0.0104154
 41
0.0104154
  0
VERTEX
  8
0
 10
2.06743
 20
2.56739
 30
0.0
 40
0.0104154
 41
0.0104154
  0
VERTEX
  8
0
 10
2.06743
 20
2.50489
 30
0.0
 40
0.0104154
 41
0.0104154
  0
VERTEX
  8
0
 10
2.00493
 20
2.50489
 30
0.0
 40
0.0104154
 41
0.0104154
  0
VERTEX
  8
0
 10
2.00493
 20
2.56739
 30
0.0
 40
0.0104154
 41
0.0104154
  0
VERTEX
  8
0
 10
1.94249
 20
2.56739
 30
0.0
 40
0.0104154
 41
0.0104154
  0
VERTEX
  8
0
 10
1.94249
 20
2.31739
 30
0.0
 40
0.0104154
 41
0.0104154
  0
VERTEX
  8
0
 10
1.87999
 20
2.31739
 30
0.0
 40
0.0104154
 41
0.0104154
  0
VERTEX
  8
0
 10
1.87999
 20
2.25489
 30
0.0
 40
0.0104154
 41
0.0104154
  0
VERTEX
  8
0
 10
1.75499
 20
2.25489
 30
0.0
 40
0.0104154
 41
0.0104154
  0
VERTEX
  8
0
 10
1.75499
 20
2.19239
 30
0.0
 40
0.0104154
 41
0.0104154
  0
VERTEX
  8
0
 10
1.69249
 20
2.19239
 30
0.0
 40
0.0104154
 41
0.0104154
  0
VERTEX
  8
0
 10
1.69249
 20
2.12999
 30
0.0
 40
0.0104154
 41
0.0104154
  0
VERTEX
  8
0
 10
1.94249
 20
2.12999
 30
0.0
 40
0.0104154
 41
0.0104154
  0
VERTEX
  8
0
 10
1.94249
 20
2.06749
 30
0.0
 40
0.0104154
 41
0.0104154
  0
VERTEX
  8
0
 10
2.00493
 20
2.06749
 30
0.0
 40
0.0104154
 41
0.0104154
  0
VERTEX
  8
0
 10
2.00493
 20
2.19239
 30
0.0
 40
0.0104154
 41
0.0104154
  0
VERTEX
  8
0
 10
2.06743
 20
2.19239
 30
0.0
 40
0.0104154
 41
0.0104154
  0
VERTEX
  8
0
 10
2.06743
 20
2.06749
 30
0.0
 40
0.0104154
 41
0.0104154
  0
VERTEX
  8
0
 10
2.19243
 20
2.06749
 30
0.0
 40
0.0104154
 41
0.0104154
  0
VERTEX
  8
0
 10
2.19243
 20
2.12999
 30
0.0
 40
0.0104154
 41
0.0104154
  0
VERTEX
  8
0
 10
2.12993
 20
2.12999
 30
0.0
 40
0.0104154
 41
0.0104154
  0
VERTEX
  8
0
 10
2.12993
 20
2.25489
 30
0.0
 40
0.0104154
 41
0.0104154
  0
VERTEX
  8
0
 10
2.06743
 20
2.25489
 30
0.0
 40
0.0104154
 41
0.0104154
  0
VERTEX
  8
0
 10
2.06743
 20
2.31739
 30
0.0
 40
0.0104154
 41
0.0104154
  0
VERTEX
  8
0
 10
2.00493
 20
2.31739
 30
0.0
 40
0.0104154
 41
0.0104154
  0
VERTEX
  8
0
 10
2.00493
 20
2.44239
 30
0.0
 40
0.0104154
 41
0.0104154
  0
VERTEX
  8
0
 10
2.06743
 20
2.44239
 30
0.0
 40
0.0104154
 41
0.0104154
  0
VERTEX
  8
0
 10
2.06743
 20
2.37989
 30
0.0
 40
0.0104154
 41
0.0104154
  0
VERTEX
  8
0
 10
2.12993
 20
2.37989
 30
0.0
 40
0.0104154
 41
0.0104154
  0
VERTEX
  8
0
 10
2.12993
 20
2.44239
 30
0.0
 40
0.0104154
 41
0.0104154
  0
VERTEX
  8
0
 10
2.19243
 20
2.44239
 30
0.0
 40
0.0104154
 41
0.0104154
  0
VERTEX
  8
0
 10
2.19243
 20
2.37989
 30
0.0
 40
0.0104154
 41
0.0104154
  0
VERTEX
  8
0
 10
2.25493
 20
2.37989
 30
0.0
 40
0.0104154
 41
0.0104154
  0
VERTEX
  8
0
 10
2.25493
 20
2.44239
 30
0.0
 40
0.0104154
 41
0.0104154
  0
VERTEX
  8
0
 10
2.31743
 20
2.44239
 30
0.0
 40
0.0104154
 41
0.0104154
  0
VERTEX
  8
0
 10
2.31743
 20
2.19239
 30
0.0
 40
0.0104154
 41
0.0104154
  0
VERTEX
  8
0
 10
2.25493
 20
2.19239
 30
0.0
 40
0.0104154
 41
0.0104154
  0
VERTEX
  8
0
 10
2.25493
 20
2.12999
 30
0.0
 40
0.0104154
 41
0.0104154
  0
VERTEX
  8
0
 10
2.31743
 20
2.12999
 30
0.0
 40
0.0104154
 41
0.0104154
  0
VERTEX
  8
0
 10
2.31743
 20
2.06749
 30
0.0
 40
0.0104154
 41
0.0104154
  0
VERTEX
  8
0
 10
2.44239
 20
2.06749
 30
0.0
 40
0.0104154
 41
0.0104154
  0
VERTEX
  8
0
 10
2.44239
 20
2.00499
 30
0.0
 40
0.0104154
 41
0.0104154
  0
VERTEX
  8
0
 10
2.31743
 20
2.00499
 30
0.0
 40
0.0104154
 41
0.0104154
  0
VERTEX
  8
0
 10
2.31743
 20
2.06749
 30
0.0
 40
0.0104154
 41
0.0104154
  0
VERTEX
  8
0
 10
2.25493
 20
2.06749
 30
0.0
 40
0.0104154
 41
0.0104154
  0
VERTEX
  8
0
 10
2.25493
 20
1.94249
 30
0.0
 40
0.0104154
 41
0.0104154
  0
VERTEX
  8
0
 10
2.12993
 20
1.94249
 30
0.0
 40
0.0104154
 41
0.0104154
  0
VERTEX
  8
0
 10
2.12993
 20
1.87999
 30
0.0
 40
0.0104154
 41
0.0104154
  0
VERTEX
  8
0
 10
2.19243
 20
1.87999
 30
0.0
 40
0.0104154
 41
0.0104154
  0
VERTEX
  8
0
 10
2.19243
 20
1.81749
 30
0.0
 40
0.0104154
 41
0.0104154
  0
VERTEX
  8
0
 10
2.25493
 20
1.81749
 30
0.0
 40
0.0104154
 41
0.0104154
  0
VERTEX
  8
0
 10
2.25493
 20
1.87999
 30
0.0
 40
0.0104154
 41
0.0104154
  0
VERTEX
  8
0
 10
2.31743
 20
1.87999
 30
0.0
 40
0.0104154
 41
0.0104154
  0
VERTEX
  8
0
 10
2.31743
 20
1.94249
 30
0.0
 40
0.0104154
 41
0.0104154
  0
VERTEX
  8
0
 10
2.37989
 20
1.94249
 30
0.0
 40
0.0104154
 41
0.0104154
  0
VERTEX
  8
0
 10
2.37989
 20
1.87999
 30
0.0
 40
0.0104154
 41
0.0104154
  0
VERTEX
  8
0
 10
2.44239
 20
1.87999
 30
0.0
 40
0.0104154
 41
0.0104154
  0
VERTEX
  8
0
 10
2.44239
 20
1.75499
 30
0.0
 40
0.0104154
 41
0.0104154
  0
VERTEX
  8
0
 10
2.37989
 20
1.75499
 30
0.0
 40
0.0104154
 41
0.0104154
  0
VERTEX
  8
0
 10
2.37989
 20
1.69254
 30
0.0
 40
0.0104154
 41
0.0104154
  0
VERTEX
  8
0
 10
2.44239
 20
1.69254
 30
0.0
 40
0.0104154
 41
0.0104154
  0
VERTEX
  8
0
 10
2.44239
 20
1.63004
 30
0.0
 40
0.0104154
 41
0.0104154
  0
VERTEX
  8
0
 10
2.37989
 20
1.63004
 30
0.0
 40
0.0104154
 41
0.0104154
  0
VERTEX
  8
0
 10
2.37989
 20
1.56754
 30
0.0
 40
0.0104154
 41
0.0104154
  0
VERTEX
  8
0
 10
2.50489
 20
1.56754
 30
0.0
 40
0.0104154
 41
0.0104154
  0
VERTEX
  8
0
 10
2.50489
 20
1.69254
 30
0.0
 40
0.0104154
 41
0.0104154
  0
VERTEX
  8
0
 10
2.69239
 20
1.69254
 30
0.0
 40
0.0104154
 41
0.0104154
  0
VERTEX
  8
0
 10
2.69239
 20
1.63004
 30
0.0
 40
0.0104154
 41
0.0104154
  0
VERTEX
  8
0
 10
2.75489
 20
1.63004
 30
0.0
 40
0.0104154
 41
0.0104154
  0
VERTEX
  8
0
 10
2.75489
 20
1.69254
 30
0.0
 40
0.0104154
 41
0.0104154
  0
VERTEX
  8
0
 10
2.81733
 20
1.69254
 30
0.0
 40
0.0104154
 41
0.0104154
  0
VERTEX
  8
0
 10
2.81733
 20
1.56754
 30
0.0
 40
0.0104154
 41
0.0104154
  0
VERTEX
  8
0
 10
2.69239
 20
1.56754
 30
0.0
 40
0.0104154
 41
0.0104154
  0
VERTEX
  8
0
 10
2.69239
 20
1.50504
 30
0.0
 40
0.0104154
 41
0.0104154
  0
VERTEX
  8
0
 10
2.62989
 20
1.50504
 30
0.0
 40
0.0104154
 41
0.0104154
  0
VERTEX
  8
0
 10
2.62989
 20
1.31755
 30
0.0
 40
0.0104154
 41
0.0104154
  0
VERTEX
  8
0
 10
2.75489
 20
1.31755
 30
0.0
 40
0.0104154
 41
0.0104154
  0
VERTEX
  8
0
 10
2.75489
 20
1.2551
 30
0.0
 40
0.0104154
 41
0.0104154
  0
VERTEX
  8
0
 10
2.81733
 20
1.2551
 30
0.0
 40
0.0104154
 41
0.0104154
  0
VERTEX
  8
0
 10
2.81733
 20
1.1301
 30
0.0
 40
0.0104154
 41
0.0104154
  0
VERTEX
  8
0
 10
2.75489
 20
1.1301
 30
0.0
 40
0.0104154
 41
0.0104154
  0
VERTEX
  8
0
 10
2.75489
 20
1.1926
 30
0.0
 40
0.0104154
 41
0.0104154
  0
VERTEX
  8
0
 10
2.69239
 20
1.1926
 30
0.0
 40
0.0104154
 41
0.0104154
  0
VERTEX
  8
0
 10
2.69239
 20
1.1301
 30
0.0
 40
0.0104154
 41
0.0104154
  0
VERTEX
  8
0
 10
2.62989
 20
1.1301
 30
0.0
 40
0.0104154
 41
0.0104154
  0
VERTEX
  8
0
 10
2.62989
 20
1.0676
 30
0.0
 40
0.0104154
 41
0.0104154
  0
VERTEX
  8
0
 10
2.75489
 20
1.0676
 30
0.0
 40
0.0104154
 41
0.0104154
  0
VERTEX
  8
0
 10
2.75489
 20
1.0051
 30
0.0
 40
0.0104154
 41
0.0104154
  0
VERTEX
  8
0
 10
2.81733
 20
1.0051
 30
0.0
 40
0.0104154
 41
0.0104154
  0
VERTEX
  8
0
 10
2.81733
 20
0.755154
 30
0.0
 40
0.0104154
 41
0.0104154
  0
VERTEX
  8
0
 10
2.75489
 20
0.755154
 30
0.0
 40
0.0104154
 41
0.0104154
  0
VERTEX
  8
0
 10
2.75489
 20
0.692654
 30
0.0
 40
0.0104154
 41
0.0104154
  0
VERTEX
  8
0
 10
2.81733
 20
0.692654
 30
0.0
 40
0.0104154
 41
0.0104154
  0
VERTEX
  8
0
 10
2.81733
 20
0.630154
 30
0.0
 40
0.0104154
 41
0.0104154
  0
VERTEX
  8
0
 10
2.75489
 20
0.630154
 30
0.0
 40
0.0104154
 41
0.0104154
  0
VERTEX
  8
0
 10
2.75489
 20
0.567654
 30
0.0
 40
0.0104154
 41
0.0104154
  0
VERTEX
  8
0
 10
2.81733
 20
0.567654
 30
0.0
 40
0.0104154
 41
0.0104154
  0
VERTEX
  8
0
 10
2.81733
 20
0.505154
 30
0.0
 40
0.0104154
 41
0.0104154
  0
VERTEX
  8
0
 10
2.75489
 20
0.505154
 30
0.0
 40
0.0104154
 41
0.0104154
  0
VERTEX
  8
0
 10
2.75489
 20
0.567654
 30
0.0
 40
0.0104154
 41
0.0104154
  0
VERTEX
  8
0
 10
2.69239
 20
0.567654
 30
0.0
 40
0.0104154
 41
0.0104154
  0
VERTEX
  8
0
 10
2.69239
 20
0.442654
 30
0.0
 40
0.0104154
 41
0.0104154
  0
VERTEX
  8
0
 10
2.62989
 20
0.442654
 30
0.0
 40
0.0104154
 41
0.0104154
  0
VERTEX
  8
0
 10
2.62989
 20
0.567654
 30
0.0
 40
0.0104154
 41
0.0104154
  0
VERTEX
  8
0
 10
2.69239
 20
0.567654
 30
0.0
 40
0.0104154
 41
0.0104154
  0
VERTEX
  8
0
 10
2.69239
 20
0.630154
 30
0.0
 40
0.0104154
 41
0.0104154
  0
VERTEX
  8
0
 10
2.75489
 20
0.630154
 30
0.0
 40
0.0104154
 41
0.0104154
  0
VERTEX
  8
0
 10
2.75489
 20
0.692654
 30
0.0
 40
0.0104154
 41
0.0104154
  0
VERTEX
  8
0
 10
2.62989
 20
0.692654
 30
0.0
 40
0.0104154
 41
0.0104154
  0
VERTEX
  8
0
 10
2.62989
 20
0.630154
 30
0.0
 40
0.0104154
 41
0.0104154
  0
VERTEX
  8
0
 10
2.50489
 20
0.630154
 30
0.0
 40
0.0104154
 41
0.0104154
  0
VERTEX
  8
0
 10
2.50489
 20
0.567654
 30
0.0
 40
0.0104154
 41
0.0104154
  0
VERTEX
  8
0
 10
2.56739
 20
0.567654
 30
0.0
 40
0.0104154
 41
0.0104154
  0
VERTEX
  8
0
 10
2.56739
 20
0.380154
 30
0.0
 40
0.0104154
 41
0.0104154
  0
VERTEX
  8
0
 10
2.75489
 20
0.380154
 30
0.0
 40
0.0104154
 41
0.0104154
  0
VERTEX
  8
0
 10
2.75489
 20
0.442654
 30
0.0
 40
0.0104154
 41
0.0104154
  0
VERTEX
  8
0
 10
2.81733
 20
0.442654
 30
0.0
 40
0.0104154
 41
0.0104154
  0
VERTEX
  8
0
 10
2.81733
 20
0.380154
 30
0.0
 40
0.0104154
 41
0.0104154
  0
VERTEX
  8
0
 10
2.75489
 20
0.380154
 30
0.0
 40
0.0104154
 41
0.0104154
  0
VERTEX
  8
0
 10
2.75489
 20
0.317654
 30
0.0
 40
0.0104154
 41
0.0104154
  0
VERTEX
  8
0
 10
2.81733
 20
0.317654
 30
0.0
 40
0.0104154
 41
0.0104154
  0
VERTEX
  8
0
 10
2.81733
 20
0.255154
 30
0.0
 40
0.0104154
 41
0.0104154
  0
VERTEX
  8
0
 10
2.37989
 20
0.255154
 30
0.0
 40
0.0104154
 41
0.0104154
  0
VERTEX
  8
0
 10
2.37989
 20
0.192654
 30
0.0
 40
0.0104154
 41
0.0104154
  0
VERTEX
  8
0
 10
2.19243
 20
0.192654
 30
0.0
 40
0.0104154
 41
0.0104154
  0
VERTEX
  8
0
 10
2.19243
 20
0.130154
 30
0.0
 40
0.0104154
 41
0.0104154
  0
VERTEX
  8
0
 10
2.00493
 20
0.130154
 30
0.0
 40
0.0104154
 41
0.0104154
  0
VERTEX
  8
0
 10
2.00493
 20
0.317654
 30
0.0
 40
0.0104154
 41
0.0104154
  0
VERTEX
  8
0
 10
1.87999
 20
0.317654
 30
0.0
 40
0.0104154
 41
0.0104154
  0
VERTEX
  8
0
 10
1.87999
 20
0.130154
 30
0.0
 40
0.0104154
 41
0.0104154
  0
VERTEX
  8
0
 10
1.81749
 20
0.130154
 30
0.0
 40
0.0104154
 41
0.0104154
  0
VERTEX
  8
0
 10
1.81749
 20
0.192654
 30
0.0
 40
0.0104154
 41
0.0104154
  0
VERTEX
  8
0
 10
1.75499
 20
0.192654
 30
0.0
 40
0.0104154
 41
0.0104154
  0
VERTEX
  8
0
 10
1.75499
 20
0.130154
 30
0.0
 40
0.0104154
 41
0.0104154
  0
VERTEX
  8
0
 10
1.69249
 20
0.130154
 30
0.0
 40
0.0104154
 41
0.0104154
  0
VERTEX
  8
0
 10
1.69249
 20
0.192654
 30
0.0
 40
0.0104154
 41
0.0104154
  0
VERTEX
  8
0
 10
1.62999
 20
0.192654
 30
0.0
 40
0.0104154
 41
0.0104154
  0
VERTEX
  8
0
 10
1.62999
 20
0.067654
 30
0.0
 40
0.0104154
 41
0.0104154
  0
VERTEX
  8
0
 10
1.81749
 20
0.067654
 30
0.0
 40
0.0104154
 41
0.0104154
  0
VERTEX
  8
0
 10
1.81749
 20
0.00520833
 30
0.0
 40
0.0104154
 41
0.0104154
  0
VERTEX
  8
0
 10
1.62999
 20
0.00520833
 30
0.0
 40
0.0104154
 41
0.0104154
  0
VERTEX
  8
0
 10
1.62999
 20
0.067654
 30
0.0
 40
0.0104154
 41
0.0104154
  0
VERTEX
  8
0
 10
1.56749
 20
0.067654
 30
0.0
 40
0.0104154
 41
0.0104154
  0
VERTEX
  8
0
 10
1.56749
 20
0.130154
 30
0.0
 40
0.0104154
 41
0.0104154
  0
VERTEX
  8
0
 10
1.50504
 20
0.130154
 30
0.0
 40
0.0104154
 41
0.0104154
  0
VERTEX
  8
0
 10
1.50504
 20
0.067654
 30
0.0
 40
0.0104154
 41
0.0104154
  0
VERTEX
  8
0
 10
1.38005
 20
0.067654
 30
0.0
 40
0.0104154
 41
0.0104154
  0
VERTEX
  8
0
 10
1.38005
 20
0.192654
 30
0.0
 40
0.0104154
 41
0.0104154
  0
VERTEX
  8
0
 10
1.44254
 20
0.192654
 30
0.0
 40
0.0104154
 41
0.0104154
  0
VERTEX
  8
0
 10
1.44254
 20
0.255154
 30
0.0
 40
0.0104154
 41
0.0104154
  0
VERTEX
  8
0
 10
1.31755
 20
0.255154
 30
0.0
 40
0.0104154
 41
0.0104154
  0
VERTEX
  8
0
 10
1.31755
 20
0.130154
 30
0.0
 40
0.0104154
 41
0.0104154
  0
VERTEX
  8
0
 10
1.25505
 20
0.130154
 30
0.0
 40
0.0104154
 41
0.0104154
  0
VERTEX
  8
0
 10
1.25505
 20
0.00520833
 30
0.0
 40
0.0104154
 41
0.0104154
  0
VERTEX
  8
0
 10
1.19255
 20
0.00520833
 30
0.0
 40
0.0104154
 41
0.0104154
  0
VERTEX
  8
0
 10
1.19255
 20
0.255154
 30
0.0
 40
0.0104154
 41
0.0104154
  0
VERTEX
  8
0
 10
1.13005
 20
0.255154
 30
0.0
 40
0.0104154
 41
0.0104154
  0
VERTEX
  8
0
 10
1.13005
 20
0.067654
 30
0.0
 40
0.0104154
 41
0.0104154
  0
VERTEX
  8
0
 10
1.0676
 20
0.067654
 30
0.0
 40
0.0104154
 41
0.0104154
  0
VERTEX
  8
0
 10
1.0676
 20
0.00520833
 30
0.0
 40
0.0104154
 41
0.0104154
  0
VERTEX
  8
0
 10
0.8176
 20
0.00520833
 30
0.0
 40
0.0104154
 41
0.0104154
  0
VERTEX
  8
0
 10
0.8176
 20
0.067654
 30
0.0
 40
0.0104154
 41
0.0104154
  0
VERTEX
  8
0
 10
0.7551
 20
0.067654
 30
0.0
 40
0.0104154
 41
0.0104154
  0
VERTEX
  8
0
 10
0.7551
 20
0.192654
 30
0.0
 40
0.0104154
 41
0.0104154
  0
VERTEX
  8
0
 10
0.6926
 20
0.192654
 30
0.0
 40
0.0104154
 41
0.0104154
  0
VERTEX
  8
0
 10
0.6926
 20
0.255154
 30
0.0
 40
0.0104154
 41
0.0104154
  0
VERTEX
  8
0
 10
0.7551
 20
0.255154
 30
0.0
 40
0.0104154
 41
0.0104154
  0
VERTEX
  8
0
 10
0.7551
 20
0.380154
 30
0.0
 40
0.0104154
 41
0.0104154
  0
VERTEX
  8
0
 10
0.6926
 20
0.380154
 30
0.0
 40
0.0104154
 41
0.0104154
  0
VERTEX
  8
0
 10
0.6926
 20
0.442654
 30
0.0
 40
0.0104154
 41
0.0104154
  0
VERTEX
  8
0
 10
0.630154
 20
0.442654
 30
0.0
 40
0.0104154
 41
0.0104154
  0
VERTEX
  8
0
 10
0.630154
 20
0.255154
 30
0.0
 40
0.0104154
 41
0.0104154
  0
VERTEX
  8
0
 10
0.567654
 20
0.255154
 30
0.0
 40
0.0104154
 41
0.0104154
  0
VERTEX
  8
0
 10
0.567654
 20
0.192654
 30
0.0
 40
0.0104154
 41
0.0104154
  0
VERTEX
  8
0
 10
0.505154
 20
0.192654
 30
0.0
 40
0.0104154
 41
0.0104154
  0
VERTEX
  8
0
 10
0.505154
 20
0.317654
 30
0.0
 40
0.0104154
 41
0.0104154
  0
VERTEX
  8
0
 10
0.567654
 20
0.317654
 30
0.0
 40
0.0104154
 41
0.0104154
  0
VERTEX
  8
0
 10
0.567654
 20
0.442654
 30
0.0
 40
0.0104154
 41
0.0104154
  0
VERTEX
  8
0
 10
0.505154
 20
0.442654
 30
0.0
 40
0.0104154
 41
0.0104154
  0
VERTEX
  8
0
 10
0.505154
 20
0.567654
 30
0.0
 40
0.0104154
 41
0.0104154
  0
VERTEX
  8
0
 10
0.442654
 20
0.567654
 30
0.0
 40
0.0104154
 41
0.0104154
  0
VERTEX
  8
0
 10
0.442654
 20
0.505154
 30
0.0
 40
0.0104154
 41
0.0104154
  0
VERTEX
  8
0
 10
0.380154
 20
0.505154
 30
0.0
 40
0.0104154
 41
0.0104154
  0
VERTEX
  8
0
 10
0.380154
 20
0.567654
 30
0.0
 40
0.0104154
 41
0.0104154
  0
VERTEX
  8
0
 10
0.442654
 20
0.567654
 30
0.0
 40
0.0104154
 41
0.0104154
  0
VERTEX
  8
0
 10
0.442654
 20
0.630154
 30
0.0
 40
0.0104154
 41
0.0104154
  0
VERTEX
  8
0
 10
0.380154
 20
0.630154
 30
0.0
 40
0.0104154
 41
0.0104154
  0
VERTEX
  8
0
 10
0.380154
 20
0.692654
 30
0.0
 40
0.0104154
 41
0.0104154
  0
VERTEX
  8
0
 10
0.442654
 20
0.692654
 30
0.0
 40
0.0104154
 41
0.0104154
  0
VERTEX
  8
0
 10
0.442654
 20
0.755154
 30
0.0
 40
0.0104154
 41
0.0104154
  0
VERTEX
  8
0
 10
0.380154
 20
0.755154
 30
0.0
 40
0.0104154
 41
0.0104154
  0
VERTEX
  8
0
 10
0.380154
 20
0.817654
 30
0.0
 40
0.0104154
 41
0.0104154
  0
VERTEX
  8
0
 10
0.442654
 20
0.817654
 30
0.0
 40
0.0104154
 41
0.0104154
  0
VERTEX
  8
0
 10
0.442654
 20
0.8801
 30
0.0
 40
0.0104154
 41
0.0104154
  0
VERTEX
  8
0
 10
0.380154
 20
0.8801
 30
0.0
 40
0.0104154
 41
0.0104154
  0
VERTEX
  8
0
 10
0.380154
 20
0.9426
 30
0.0
 40
0.0104154
 41
0.0104154
  0
VERTEX
  8
0
 10
0.442654
 20
0.9426
 30
0.0
 40
0.0104154
 41
0.0104154
  0
VERTEX
  8
0
 10
0.442654
 20
1.0051
 30
0.0
 40
0.0104154
 41
0.0104154
  0
VERTEX
  8
0
 10
0.317654
 20
1.0051
 30
0.0
 40
0.0104154
 41
0.0104154
  0
VERTEX
  8
0
 10
0.317654
 20
0.9426
 30
0.0
 40
0.0104154
 41
0.0104154
  0
VERTEX
  8
0
 10
0.255154
 20
0.9426
 30
0.0
 40
0.0104154
 41
0.0104154
  0
VERTEX
  8
0
 10
0.255154
 20
0.8801
 30
0.0
 40
0.0104154
 41
0.0104154
  0
VERTEX
  8
0
 10
0.317654
 20
0.8801
 30
0.0
 40
0.0104154
 41
0.0104154
  0
VERTEX
  8
0
 10
0.317654
 20
0.755154
 30
0.0
 40
0.0104154
 41
0.0104154
  0
VERTEX
  8
0
 10
0.255154
 20
0.755154
 30
0.0
 40
0.0104154
 41
0.0104154
  0
VERTEX
  8
0
 10
0.255154
 20
0.817654
 30
0.0
 40
0.0104154
 41
0.0104154
  0
VERTEX
  8
0
 10
0.192708
 20
0.817654
 30
0.0
 40
0.0104154
 41
0.0104154
  0
VERTEX
  8
0
 10
0.192708
 20
0.692654
 30
0.0
 40
0.0104154
 41
0.0104154
  0
VERTEX
  8
0
 10
0.130208
 20
0.692654
 30
0.0
 40
0.0104154
 41
0.0104154
  0
VERTEX
  8
0
 10
0.130208
 20
0.755154
 30
0.0
 40
0.0104154
 41
0.0104154
  0
VERTEX
  8
0
 10
0.0677083
 20
0.755154
 30
0.0
 40
0.0104154
 41
0.0104154
  0
VERTEX
  8
0
 10
0.0677083
 20
0.692654
 30
0.0
 40
0.0104154
 41
0.0104154
  0
VERTEX
  8
0
 10
0.00520833
 20
0.692654
 30
0.0
 40
0.0104154
 41
0.0104154
  0
VERTEX
  8
0
 10
0.00520833
 20
0.817654
 30
0.0
 40
0.0104154
 41
0.0104154
  0
VERTEX
  8
0
 10
0.130208
 20
0.817654
 30
0.0
 40
0.0104154
 41
0.0104154
  0
VERTEX
  8
0
 10
0.130208
 20
0.8801
 30
0.0
 40
0.0104154
 41
0.0104154
  0
VERTEX
  8
0
 10
0.00520833
 20
0.8801
 30
0.0
 40
0.0104154
 41
0.0104154
  0
VERTEX
  8
0
 10
0.00520833
 20
0.9426
 30
0.0
 40
0.0104154
 41
0.0104154
  0
VERTEX
  8
0
 10
0.0677083
 20
0.9426
 30
0.0
 40
0.0104154
 41
0.0104154
  0
VERTEX
  8
0
 10
0.0677083
 20
1.0676
 30
0.0
 40
0.0104154
 41
0.0104154
  0
VERTEX
  8
0
 10
0.130208
 20
1.0676
 30
0.0
 40
0.0104154
 41
0.0104154
  0
VERTEX
  8
0
 10
0.130208
 20
0.9426
 30
0.0
 40
0.0104154
 41
0.0104154
  0
VERTEX
  8
0
 10
0.192708
 20
0.9426
 30
0.0
 40
0.0104154
 41
0.0104154
  0
VERTEX
  8
0
 10
0.192708
 20
1.0051
 30
0.0
 40
0.0104154
 41
0.0104154
  0
VERTEX
  8
0
 10
0.317654
 20
1.0051
 30
0.0
 40
0.0104154
 41
0.0104154
  0
VERTEX
  8
0
 10
0.317654
 20
1.0676
 30
0.0
 40
0.0104154
 41
0.0104154
  0
VERTEX
  8
0
 10
0.192708
 20
1.0676
 30
0.0
 40
0.0104154
 41
0.0104154
  0
VERTEX
  8
0
 10
0.192708
 20
1.1926
 30
0.0
 40
0.0104154
 41
0.0104154
  0
VERTEX
  8
0
 10
0.130208
 20
1.1926
 30
0.0
 40
0.0104154
 41
0.0104154
  0
VERTEX
  8
0
 10
0.130208
 20
1.1301
 30
0.0
 40
0.0104154
 41
0.0104154
  0
VERTEX
  8
0
 10
0.0677083
 20
1.1301
 30
0.0
 40
0.0104154
 41
0.0104154
  0
VERTEX
  8
0
 10
0.0677083
 20
1.1926
 30
0.0
 40
0.0104154
 41
0.0104154
  0
VERTEX
  8
0
 10
0.00520833
 20
1.1926
 30
0.0
 40
0.0104154
 41
0.0104154
  0
VERTEX
  8
0
 10
0.00520833
 20
1.2551
 30
0.0
 40
0.0104154
 41
0.0104154
  0
VERTEX
  8
0
 10
0.130208
 20
1.2551
 30
0.0
 40
0.0104154
 41
0.0104154
  0
VERTEX
  8
0
 10
0.130208
 20
1.31755
 30
0.0
 40
0.0104154
 41
0.0104154
  0
VERTEX
  8
0
 10
0.192708
 20
1.31755
 30
0.0
 40
0.0104154
 41
0.0104154
  0
VERTEX
  8
0
 10
0.192708
 20
1.38005
 30
0.0
 40
0.0104154
 41
0.0104154
  0
VERTEX
  8
0
 10
0.130208
 20
1.38005
 30
0.0
 40
0.0104154
 41
0.0104154
  0
VERTEX
  8
0
 10
0.130208
 20
1.44254
 30
0.0
 40
0.0104154
 41
0.0104154
  0
VERTEX
  8
0
 10
0.00520833
 20
1.44254
 30
0.0
 40
0.0104154
 41
0.0104154
  0
VERTEX
  8
0
 10
0.00520833
 20
1.50504
 30
0.0
 40
0.0104154
 41
0.0104154
  0
VERTEX
  8
0
 10
0.0677083
 20
1.50504
 30
0.0
 40
0.0104154
 41
0.0104154
  0
VERTEX
  8
0
 10
0.0677083
 20
1.56754
 30
0.0
 40
0.0104154
 41
0.0104154
  0
VERTEX
  8
0
 10
0.00520833
 20
1.56754
 30
0.0
 40
0.0104154
 41
0.0104154
  0
VERTEX
  8
0
 10
0.00520833
 20
1.63004
 30
0.0
 40
0.0104154
 41
0.0104154
  0
VERTEX
  8
0
 10
0.0677083
 20
1.63004
 30
0.0
 40
0.0104154
 41
0.0104154
  0
VERTEX
  8
0
 10
0.0677083
 20
1.69254
 30
0.0
 40
0.0104154
 41
0.0104154
  0
VERTEX
  8
0
 10
0.130208
 20
1.69254
 30
0.0
 40
0.0104154
 41
0.0104154
  0
VERTEX
  8
0
 10
0.130208
 20
1.75499
 30
0.0
 40
0.0104154
 41
0.0104154
  0
VERTEX
  8
0
 10
0.0677083
 20
1.75499
 30
0.0
 40
0.0104154
 41
0.0104154
  0
VERTEX
  8
0
 10
0.0677083
 20
1.81749
 30
0.0
 40
0.0104154
 41
0.0104154
  0
VERTEX
  8
0
 10
0.00520833
 20
1.81749
 30
0.0
 40
0.0104154
 41
0.0104154
  0
VERTEX
  8
0
 10
0.00520833
 20
1.87999
 30
0.0
 40
0.0104154
 41
0.0104154
  0
VERTEX
  8
0
 10
0.0677083
 20
1.87999
 30
0.0
 40
0.0104154
 41
0.0104154
  0
VERTEX
  8
0
 10
0.0677083
 20
2.00499
 30
0.0
 40
0.0104154
 41
0.0104154
  0
VERTEX
  8
0
 10
0.00520833
 20
2.00499
 30
0.0
 40
0.0104154
 41
0.0104154
  0
VERTEX
  8
0
 10
0.00520833
 20
2.06749
 30
0.0
 40
0.0104154
 41
0.0104154
  0
VERTEX
  8
0
 10
0.0677083
 20
2.06749
 30
0.0
 40
0.0104154
 41
0.0104154
  0
VERTEX
  8
0
 10
0.0677083
 20
2.00499
 30
0.0
 40
0.0104154
 41
0.0104154
  0
VERTEX
  8
0
 10
0.130208
 20
2.00499
 30
0.0
 40
0.0104154
 41
0.0104154
  0
VERTEX
  8
0
 10
0.130208
 20
1.94249
 30
0.0
 40
0.0104154
 41
0.0104154
  0
VERTEX
  8
0
 10
0.192708
 20
1.94249
 30
0.0
 40
0.0104154
 41
0.0104154
  0
VERTEX
  8
0
 10
0.192708
 20
1.87999
 30
0.0
 40
0.0104154
 41
0.0104154
  0
VERTEX
  8
0
 10
0.255154
 20
1.87999
 30
0.0
 40
0.0104154
 41
0.0104154
  0
VERTEX
  8
0
 10
0.255154
 20
1.81749
 30
0.0
 40
0.0104154
 41
0.0104154
  0
VERTEX
  8
0
 10
0.317654
 20
1.81749
 30
0.0
 40
0.0104154
 41
0.0104154
  0
VERTEX
  8
0
 10
0.317654
 20
1.69254
 30
0.0
 40
0.0104154
 41
0.0104154
  0
VERTEX
  8
0
 10
0.255154
 20
1.69254
 30
0.0
 40
0.0104154
 41
0.0104154
  0
VERTEX
  8
0
 10
0.255154
 20
1.56754
 30
0.0
 40
0.0104154
 41
0.0104154
  0
VERTEX
  8
0
 10
0.317654
 20
1.56754
 30
0.0
 40
0.0104154
 41
0.0104154
  0
VERTEX
  8
0
 10
0.317654
 20
1.63004
 30
0.0
 40
0.0104154
 41
0.0104154
  0
VERTEX
  8
0
 10
0.380154
 20
1.63004
 30
0.0
 40
0.0104154
 41
0.0104154
  0
VERTEX
  8
0
 10
0.380154
 20
1.69254
 30
0.0
 40
0.0104154
 41
0.0104154
  0
VERTEX
  8
0
 10
0.442654
 20
1.69254
 30
0.0
 40
0.0104154
 41
0.0104154
  0
VERTEX
  8
0
 10
0.442654
 20
1.75499
 30
0.0
 40
0.0104154
 41
0.0104154
  0
VERTEX
  8
0
 10
0.380154
 20
1.75499
 30
0.0
 40
0.0104154
 41
0.0104154
  0
VERTEX
  8
0
 10
0.380154
 20
1.81749
 30
0.0
 40
0.0104154
 41
0.0104154
  0
VERTEX
  8
0
 10
0.442654
 20
1.81749
 30
0.0
 40
0.0104154
 41
0.0104154
  0
VERTEX
  8
0
 10
0.442654
 20
1.87999
 30
0.0
 40
0.0104154
 41
0.0104154
  0
VERTEX
  8
0
 10
0.317654
 20
1.87999
 30
0.0
 40
0.0104154
 41
0.0104154
  0
VERTEX
  8
0
 10
0.317654
 20
2.00499
 30
0.0
 40
0.0104154
 41
0.0104154
  0
VERTEX
  8
0
 10
0.192708
 20
2.00499
 30
0.0
 40
0.0104154
 41
0.0104154
  0
VERTEX
  8
0
 10
0.192708
 20
2.06749
 30
0.0
 40
0.0104154
 41
0.0104154
  0
VERTEX
  8
0
 10
0.317654
 20
2.06749
 30
0.0
 40
0.0104154
 41
0.0104154
  0
VERTEX
  8
0
 10
0.317654
 20
2.00499
 30
0.0
 40
0.0104154
 41
0.0104154
  0
VERTEX
  8
0
 10
0.380154
 20
2.00499
 30
0.0
 40
0.0104154
 41
0.0104154
  0
VERTEX
  8
0
 10
0.380154
 20
2.06749
 30
0.0
 40
0.0104154
 41
0.0104154
  0
VERTEX
  8
0
 10
0.442654
 20
2.06749
 30
0.0
 40
0.0104154
 41
0.0104154
  0
VERTEX
  8
0
 10
0.442654
 20
2.12999
 30
0.0
 40
0.0104154
 41
0.0104154
  0
VERTEX
  8
0
 10
0.380154
 20
2.12999
 30
0.0
 40
0.0104154
 41
0.0104154
  0
VERTEX
  8
0
 10
0.380154
 20
2.19239
 30
0.0
 40
0.0104154
 41
0.0104154
  0
VERTEX
  8
0
 10
0.505154
 20
2.19239
 30
0.0
 40
0.0104154
 41
0.0104154
  0
VERTEX
  8
0
 10
0.505154
 20
2.25489
 30
0.0
 40
0.0104154
 41
0.0104154
  0
VERTEX
  8
0
 10
0.630154
 20
2.25489
 30
0.0
 40
0.0104154
 41
0.0104154
  0
VERTEX
  8
0
 10
0.630154
 20
2.19239
 30
0.0
 40
0.0104154
 41
0.0104154
  0
VERTEX
  8
0
 10
0.6926
 20
2.19239
 30
0.0
 40
0.0104154
 41
0.0104154
  0
VERTEX
  8
0
 10
0.6926
 20
2.31739
 30
0.0
 40
0.0104154
 41
0.0104154
  0
VERTEX
  8
0
 10
0.505154
 20
2.31739
 30
0.0
 40
0.0104154
 41
0.0104154
  0
VERTEX
  8
0
 10
0.505154
 20
2.44239
 30
0.0
 40
0.0104154
 41
0.0104154
  0
VERTEX
  8
0
 10
0.567654
 20
2.44239
 30
0.0
 40
0.0104154
 41
0.0104154
  0
VERTEX
  8
0
 10
0.567654
 20
2.37989
 30
0.0
 40
0.0104154
 41
0.0104154
  0
VERTEX
  8
0
 10
0.630154
 20
2.37989
 30
0.0
 40
0.0104154
 41
0.0104154
  0
VERTEX
  8
0
 10
0.630154
 20
2.44239
 30
0.0
 40
0.0104154
 41
0.0104154
  0
VERTEX
  8
0
 10
0.6926
 20
2.44239
 30
0.0
 40
0.0104154
 41
0.0104154
  0
VERTEX
  8
0
 10
0.6926
 20
2.50489
 30
0.0
 40
0.0104154
 41
0.0104154
  0
VERTEX
  8
0
 10
0.8176
 20
2.50489
 30
0.0
 40
0.0104154
 41
0.0104154
  0
VERTEX
  8
0
 10
0.8176
 20
2.56739
 30
0.0
 40
0.0104154
 41
0.0104154
  0
VERTEX
  8
0
 10
0.630154
 20
2.56739
 30
0.0
 40
0.0104154
 41
0.0104154
  0
VERTEX
  8
0
 10
0.630154
 20
2.81733
 30
0.0
 40
0.0104154
 41
0.0104154
  0
VERTEX
  8
0
 10
0.7551
 20
2.81733
 30
0.0
 40
0.0104154
 41
0.0104154
  0
SEQEND
 8
0
  0
POLYLINE
  8
0
 62
     0
 66
     1
 10
0
 20
0
 30
0.0
 70
     1
 40
0.749906
 41
0.749906
  0
VERTEX
  8
0
 10
2.81733
 20
2.81733
 30
0.0
 40
0.0104154
 41
0.0104154
  0
VERTEX
  8
0
 10
2.81733
 20
2.37989
 30
0.0
 40
0.0104154
 41
0.0104154
  0
VERTEX
  8
0
 10
2.37989
 20
2.37989
 30
0.0
 40
0.0104154
 41
0.0104154
  0
VERTEX
  8
0
 10
2.37989
 20
2.81733
 30
0.0
 40
0.0104154
 41
0.0104154
  0
VERTEX
  8
0
 10
2.81733
 20
2.81733
 30
0.0
 40
0.0104154
 41
0.0104154
  0
SEQEND
 8
0
  0
POLYLINE
  8
0
 62
     0
 66
     1
 10
0
 20
0
 30
0.0
 70
     1
 40
0.749906
 41
0.749906
  0
VERTEX
  8
0
 10
0.0677083
 20
2.75483
 30
0.0
 40
0.0104154
 41
0.0104154
  0
VERTEX
  8
0
 10
0.0677083
 20
2.44239
 30
0.0
 40
0.0104154
 41
0.0104154
  0
VERTEX
  8
0
 10
0.380154
 20
2.44239
 30
0.0
 40
0.0104154
 41
0.0104154
  0
VERTEX
  8
0
 10
0.380154
 20
2.75483
 30
0.0
 40
0.0104154
 41
0.0104154
  0
VERTEX
  8
0
 10
0.0677083
 20
2.75483
 30
0.0
 40
0.0104154
 41
0.0104154
  0
SEQEND
 8
0
  0
POLYLINE
  8
0
 62
     0
 66
     1
 10
0
 20
0
 30
0.0
 70
     1
 40
0.749906
 41
0.749906
  0
VERTEX
  8
0
 10
0.9426
 20
2.75483
 30
0.0
 40
0.0104154
 41
0.0104154
  0
VERTEX
  8
0
 10
0.9426
 20
2.69233
 30
0.0
 40
0.0104154
 41
0.0104154
  0
VERTEX
  8
0
 10
1.0051
 20
2.69233
 30
0.0
 40
0.0104154
 41
0.0104154
  0
VERTEX
  8
0
 10
1.0051
 20
2.56739
 30
0.0
 40
0.0104154
 41
0.0104154
  0
VERTEX
  8
0
 10
0.9426
 20
2.56739
 30
0.0
 40
0.0104154
 41
0.0104154
  0
VERTEX
  8
0
 10
0.9426
 20
2.50489
 30
0.0
 40
0.0104154
 41
0.0104154
  0
VERTEX
  8
0
 10
1.0676
 20
2.50489
 30
0.0
 40
0.0104154
 41
0.0104154
  0
VERTEX
  8
0
 10
1.0676
 20
2.56739
 30
0.0
 40
0.0104154
 41
0.0104154
  0
VERTEX
  8
0
 10
1.13005
 20
2.56739
 30
0.0
 40
0.0104154
 41
0.0104154
  0
VERTEX
  8
0
 10
1.13005
 20
2.62983
 30
0.0
 40
0.0104154
 41
0.0104154
  0
VERTEX
  8
0
 10
1.0676
 20
2.62983
 30
0.0
 40
0.0104154
 41
0.0104154
  0
VERTEX
  8
0
 10
1.0676
 20
2.69233
 30
0.0
 40
0.0104154
 41
0.0104154
  0
VERTEX
  8
0
 10
1.13005
 20
2.69233
 30
0.0
 40
0.0104154
 41
0.0104154
  0
VERTEX
  8
0
 10
1.13005
 20
2.75483
 30
0.0
 40
0.0104154
 41
0.0104154
  0
VERTEX
  8
0
 10
0.9426
 20
2.75483
 30
0.0
 40
0.0104154
 41
0.0104154
  0
SEQEND
 8
0
  0
POLYLINE
  8
0
 62
     0
 66
     1
 10
0
 20
0
 30
0.0
 70
     1
 40
0.749906
 41
0.749906
  0
VERTEX
  8
0
 10
1.19255
 20
2.75483
 30
0.0
 40
0.0104154
 41
0.0104154
  0
VERTEX
  8
0
 10
1.19255
 20
2.69233
 30
0.0
 40
0.0104154
 41
0.0104154
  0
VERTEX
  8
0
 10
1.31755
 20
2.69233
 30
0.0
 40
0.0104154
 41
0.0104154
  0
VERTEX
  8
0
 10
1.31755
 20
2.75483
 30
0.0
 40
0.0104154
 41
0.0104154
  0
VERTEX
  8
0
 10
1.19255
 20
2.75483
 30
0.0
 40
0.0104154
 41
0.0104154
  0
SEQEND
 8
0
  0
POLYLINE
  8
0
 62
     0
 66
     1
 10
0
 20
0
 30
0.0
 70
     1
 40
0.749906
 41
0.749906
  0
VERTEX
  8
0
 10
1.75499
 20
2.75483
 30
0.0
 40
0.0104154
 41
0.0104154
  0
VERTEX
  8
0
 10
1.75499
 20
2.62983
 30
0.0
 40
0.0104154
 41
0.0104154
  0
VERTEX
  8
0
 10
1.56749
 20
2.62983
 30
0.0
 40
0.0104154
 41
0.0104154
  0
VERTEX
  8
0
 10
1.56749
 20
2.50489
 30
0.0
 40
0.0104154
 41
0.0104154
  0
VERTEX
  8
0
 10
1.62999
 20
2.50489
 30
0.0
 40
0.0104154
 41
0.0104154
  0
VERTEX
  8
0
 10
1.62999
 20
2.44239
 30
0.0
 40
0.0104154
 41
0.0104154
  0
VERTEX
  8
0
 10
1.69249
 20
2.44239
 30
0.0
 40
0.0104154
 41
0.0104154
  0
VERTEX
  8
0
 10
1.69249
 20
2.25489
 30
0.0
 40
0.0104154
 41
0.0104154
  0
VERTEX
  8
0
 10
1.75499
 20
2.25489
 30
0.0
 40
0.0104154
 41
0.0104154
  0
VERTEX
  8
0
 10
1.75499
 20
2.44239
 30
0.0
 40
0.0104154
 41
0.0104154
  0
VERTEX
  8
0
 10
1.81749
 20
2.44239
 30
0.0
 40
0.0104154
 41
0.0104154
  0
VERTEX
  8
0
 10
1.81749
 20
2.50489
 30
0.0
 40
0.0104154
 41
0.0104154
  0
VERTEX
  8
0
 10
1.69249
 20
2.50489
 30
0.0
 40
0.0104154
 41
0.0104154
  0
VERTEX
  8
0
 10
1.69249
 20
2.56739
 30
0.0
 40
0.0104154
 41
0.0104154
  0
VERTEX
  8
0
 10
1.87999
 20
2.56739
 30
0.0
 40
0.0104154
 41
0.0104154
  0
VERTEX
  8
0
 10
1.87999
 20
2.62983
 30
0.0
 40
0.0104154
 41
0.0104154
  0
VERTEX
  8
0
 10
1.94249
 20
2.62983
 30
0.0
 40
0.0104154
 41
0.0104154
  0
VERTEX
  8
0
 10
1.94249
 20
2.75483
 30
0.0
 40
0.0104154
 41
0.0104154
  0
VERTEX
  8
0
 10
1.87999
 20
2.75483
 30
0.0
 40
0.0104154
 41
0.0104154
  0
VERTEX
  8
0
 10
1.87999
 20
2.69233
 30
0.0
 40
0.0104154
 41
0.0104154
  0
VERTEX
  8
0
 10
1.81749
 20
2.69233
 30
0.0
 40
0.0104154
 41
0.0104154
  0
VERTEX
  8
0
 10
1.81749
 20
2.75483
 30
0.0
 40
0.0104154
 41
0.0104154
  0
VERTEX
  8
0
 10
1.75499
 20
2.75483
 30
0.0
 40
0.0104154
 41
0.0104154
  0
SEQEND
 8
0
  0
POLYLINE
  8
0
 62
     0
 66
     1
 10
0
 20
0
 30
0.0
 70
     1
 40
0.749906
 41
0.749906
  0
VERTEX
  8
0
 10
2.44239
 20
2.75483
 30
0.0
 40
0.0104154
 41
0.0104154
  0
VERTEX
  8
0
 10
2.44239
 20
2.44239
 30
0.0
 40
0.0104154
 41
0.0104154
  0
VERTEX
  8
0
 10
2.75489
 20
2.44239
 30
0.0
 40
0.0104154
 41
0.0104154
  0
VERTEX
  8
0
 10
2.75489
 20
2.75483
 30
0.0
 40
0.0104154
 41
0.0104154
  0
VERTEX
  8
0
 10
2.44239
 20
2.75483
 30
0.0
 40
0.0104154
 41
0.0104154
  0
SEQEND
 8
0
  0
POLYLINE
  8
0
 62
     0
 66
     1
 10
0
 20
0
 30
0.0
 70
     1
 40
0.749906
 41
0.749906
  0
VERTEX
  8
0
 10
0.8176
 20
2.69233
 30
0.0
 40
0.0104154
 41
0.0104154
  0
VERTEX
  8
0
 10
0.8176
 20
2.56739
 30
0.0
 40
0.0104154
 41
0.0104154
  0
VERTEX
  8
0
 10
0.8801
 20
2.56739
 30
0.0
 40
0.0104154
 41
0.0104154
  0
VERTEX
  8
0
 10
0.8801
 20
2.69233
 30
0.0
 40
0.0104154
 41
0.0104154
  0
VERTEX
  8
0
 10
0.8176
 20
2.69233
 30
0.0
 40
0.0104154
 41
0.0104154
  0
SEQEND
 8
0
  0
POLYLINE
  8
0
 62
     0
 66
     1
 10
0
 20
0
 30
0.0
 70
     1
 40
0.749906
 41
0.749906
  0
VERTEX
  8
0
 10
1.13005
 20
2.69233
 30
0.0
 40
0.0104154
 41
0.0104154
  0
VERTEX
  8
0
 10
1.13005
 20
2.62983
 30
0.0
 40
0.0104154
 41
0.0104154
  0
VERTEX
  8
0
 10
1.19255
 20
2.62983
 30
0.0
 40
0.0104154
 41
0.0104154
  0
VERTEX
  8
0
 10
1.19255
 20
2.69233
 30
0.0
 40
0.0104154
 41
0.0104154
  0
VERTEX
  8
0
 10
1.13005
 20
2.69233
 30
0.0
 40
0.0104154
 41
0.0104154
  0
SEQEND
 8
0
  0
POLYLINE
  8
0
 62
     0
 66
     1
 10
0
 20
0
 30
0.0
 70
     1
 40
0.749906
 41
0.749906
  0
VERTEX
  8
0
 10
1.50504
 20
2.69233
 30
0.0
 40
0.0104154
 41
0.0104154
  0
VERTEX
  8
0
 10
1.50504
 20
2.62983
 30
0.0
 40
0.0104154
 41
0.0104154
  0
VERTEX
  8
0
 10
1.56749
 20
2.62983
 30
0.0
 40
0.0104154
 41
0.0104154
  0
VERTEX
  8
0
 10
1.56749
 20
2.69233
 30
0.0
 40
0.0104154
 41
0.0104154
  0
VERTEX
  8
0
 10
1.50504
 20
2.69233
 30
0.0
 40
0.0104154
 41
0.0104154
  0
SEQEND
 8
0
  0
POLYLINE
  8
0
 62
     0
 66
     1
 10
0
 20
0
 30
0.0
 70
     1
 40
0.749906
 41
0.749906
  0
VERTEX
  8
0
 10
0.317654
 20
2.69233
 30
0.0
 40
0.0104154
 41
0.0104154
  0
VERTEX
  8
0
 10
0.317654
 20
2.50489
 30
0.0
 40
0.0104154
 41
0.0104154
  0
VERTEX
  8
0
 10
0.130208
 20
2.50489
 30
0.0
 40
0.0104154
 41
0.0104154
  0
VERTEX
  8
0
 10
0.130208
 20
2.69233
 30
0.0
 40
0.0104154
 41
0.0104154
  0
VERTEX
  8
0
 10
0.317654
 20
2.69233
 30
0.0
 40
0.0104154
 41
0.0104154
  0
SEQEND
 8
0
  0
POLYLINE
  8
0
 62
     0
 66
     1
 10
0
 20
0
 30
0.0
 70
     1
 40
0.749906
 41
0.749906
  0
VERTEX
  8
0
 10
2.69239
 20
2.69233
 30
0.0
 40
0.0104154
 41
0.0104154
  0
VERTEX
  8
0
 10
2.69239
 20
2.50489
 30
0.0
 40
0.0104154
 41
0.0104154
  0
VERTEX
  8
0
 10
2.50489
 20
2.50489
 30
0.0
 40
0.0104154
 41
0.0104154
  0
VERTEX
  8
0
 10
2.50489
 20
2.69233
 30
0.0
 40
0.0104154
 41
0.0104154
  0
VERTEX
  8
0
 10
2.69239
 20
2.69233
 30
0.0
 40
0.0104154
 41
0.0104154
  0
SEQEND
 8
0
  0
POLYLINE
  8
0
 62
     0
 66
     1
 10
0
 20
0
 30
0.0
 70
     1
 40
0.749906
 41
0.749906
  0
VERTEX
  8
0
 10
1.31755
 20
2.62983
 30
0.0
 40
0.0104154
 41
0.0104154
  0
VERTEX
  8
0
 10
1.31755
 20
2.56739
 30
0.0
 40
0.0104154
 41
0.0104154
  0
VERTEX
  8
0
 10
1.50504
 20
2.56739
 30
0.0
 40
0.0104154
 41
0.0104154
  0
VERTEX
  8
0
 10
1.50504
 20
2.62983
 30
0.0
 40
0.0104154
 41
0.0104154
  0
VERTEX
  8
0
 10
1.31755
 20
2.62983
 30
0.0
 40
0.0104154
 41
0.0104154
  0
SEQEND
 8
0
  0
POLYLINE
  8
0
 62
     0
 66
     1
 10
0
 20
0
 30
0.0
 70
     1
 40
0.749906
 41
0.749906
  0
VERTEX
  8
0
 10
1.13005
 20
2.56739
 30
0.0
 40
0.0104154
 41
0.0104154
  0
VERTEX
  8
0
 10
1.13005
 20
2.44239
 30
0.0
 40
0.0104154
 41
0.0104154
  0
VERTEX
  8
0
 10
1.19255
 20
2.44239
 30
0.0
 40
0.0104154
 41
0.0104154
  0
VERTEX
  8
0
 10
1.19255
 20
2.50489
 30
0.0
 40
0.0104154
 41
0.0104154
  0
VERTEX
  8
0
 10
1.25505
 20
2.50489
 30
0.0
 40
0.0104154
 41
0.0104154
  0
VERTEX
  8
0
 10
1.25505
 20
2.56739
 30
0.0
 40
0.0104154
 41
0.0104154
  0
VERTEX
  8
0
 10
1.13005
 20
2.56739
 30
0.0
 40
0.0104154
 41
0.0104154
  0
SEQEND
 8
0
  0
POLYLINE
  8
0
 62
     0
 66
     1
 10
0
 20
0
 30
0.0
 70
     1
 40
0.749906
 41
0.749906
  0
VERTEX
  8
0
 10
1.31755
 20
2.50489
 30
0.0
 40
0.0104154
 41
0.0104154
  0
VERTEX
  8
0
 10
1.31755
 20
2.31739
 30
0.0
 40
0.0104154
 41
0.0104154
  0
VERTEX
  8
0
 10
1.50504
 20
2.31739
 30
0.0
 40
0.0104154
 41
0.0104154
  0
VERTEX
  8
0
 10
1.50504
 20
2.50489
 30
0.0
 40
0.0104154
 41
0.0104154
  0
VERTEX
  8
0
 10
1.31755
 20
2.50489
 30
0.0
 40
0.0104154
 41
0.0104154
  0
SEQEND
 8
0
  0
POLYLINE
  8
0
 62
     0
 66
     1
 10
0
 20
0
 30
0.0
 70
     1
 40
0.749906
 41
0.749906
  0
VERTEX
  8
0
 10
0.6926
 20
2.44239
 30
0.0
 40
0.0104154
 41
0.0104154
  0
VERTEX
  8
0
 10
0.6926
 20
2.31739
 30
0.0
 40
0.0104154
 41
0.0104154
  0
VERTEX
  8
0
 10
0.7551
 20
2.31739
 30
0.0
 40
0.0104154
 41
0.0104154
  0
VERTEX
  8
0
 10
0.7551
 20
2.25489
 30
0.0
 40
0.0104154
 41
0.0104154
  0
VERTEX
  8
0
 10
0.8176
 20
2.25489
 30
0.0
 40
0.0104154
 41
0.0104154
  0
VERTEX
  8
0
 10
0.8176
 20
2.19239
 30
0.0
 40
0.0104154
 41
0.0104154
  0
VERTEX
  8
0
 10
0.7551
 20
2.19239
 30
0.0
 40
0.0104154
 41
0.0104154
  0
VERTEX
  8
0
 10
0.7551
 20
1.94249
 30
0.0
 40
0.0104154
 41
0.0104154
  0
VERTEX
  8
0
 10
0.8801
 20
1.94249
 30
0.0
 40
0.0104154
 41
0.0104154
  0
VERTEX
  8
0
 10
0.8801
 20
1.87999
 30
0.0
 40
0.0104154
 41
0.0104154
  0
VERTEX
  8
0
 10
0.9426
 20
1.87999
 30
0.0
 40
0.0104154
 41
0.0104154
  0
VERTEX
  8
0
 10
0.9426
 20
1.81749
 30
0.0
 40
0.0104154
 41
0.0104154
  0
VERTEX
  8
0
 10
1.0676
 20
1.81749
 30
0.0
 40
0.0104154
 41
0.0104154
  0
VERTEX
  8
0
 10
1.0676
 20
1.87999
 30
0.0
 40
0.0104154
 41
0.0104154
  0
VERTEX
  8
0
 10
1.13005
 20
1.87999
 30
0.0
 40
0.0104154
 41
0.0104154
  0
VERTEX
  8
0
 10
1.13005
 20
1.94249
 30
0.0
 40
0.0104154
 41
0.0104154
  0
VERTEX
  8
0
 10
1.0676
 20
1.94249
 30
0.0
 40
0.0104154
 41
0.0104154
  0
VERTEX
  8
0
 10
1.0676
 20
2.06749
 30
0.0
 40
0.0104154
 41
0.0104154
  0
VERTEX
  8
0
 10
1.19255
 20
2.06749
 30
0.0
 40
0.0104154
 41
0.0104154
  0
VERTEX
  8
0
 10
1.19255
 20
2.00499
 30
0.0
 40
0.0104154
 41
0.0104154
  0
VERTEX
  8
0
 10
1.31755
 20
2.00499
 30
0.0
 40
0.0104154
 41
0.0104154
  0
VERTEX
  8
0
 10
1.31755
 20
1.94249
 30
0.0
 40
0.0104154
 41
0.0104154
  0
VERTEX
  8
0
 10
1.25505
 20
1.94249
 30
0.0
 40
0.0104154
 41
0.0104154
  0
VERTEX
  8
0
 10
1.25505
 20
1.87999
 30
0.0
 40
0.0104154
 41
0.0104154
  0
VERTEX
  8
0
 10
1.31755
 20
1.87999
 30
0.0
 40
0.0104154
 41
0.0104154
  0
VERTEX
  8
0
 10
1.31755
 20
1.81749
 30
0.0
 40
0.0104154
 41
0.0104154
  0
VERTEX
  8
0
 10
1.38005
 20
1.81749
 30
0.0
 40
0.0104154
 41
0.0104154
  0
VERTEX
  8
0
 10
1.38005
 20
1.87999
 30
0.0
 40
0.0104154
 41
0.0104154
  0
VERTEX
  8
0
 10
1.44254
 20
1.87999
 30
0.0
 40
0.0104154
 41
0.0104154
  0
VERTEX
  8
0
 10
1.44254
 20
2.06749
 30
0.0
 40
0.0104154
 41
0.0104154
  0
VERTEX
  8
0
 10
1.31755
 20
2.06749
 30
0.0
 40
0.0104154
 41
0.0104154
  0
VERTEX
  8
0
 10
1.31755
 20
2.12999
 30
0.0
 40
0.0104154
 41
0.0104154
  0
VERTEX
  8
0
 10
1.19255
 20
2.12999
 30
0.0
 40
0.0104154
 41
0.0104154
  0
VERTEX
  8
0
 10
1.19255
 20
2.19239
 30
0.0
 40
0.0104154
 41
0.0104154
  0
VERTEX
  8
0
 10
1.13005
 20
2.19239
 30
0.0
 40
0.0104154
 41
0.0104154
  0
VERTEX
  8
0
 10
1.13005
 20
2.12999
 30
0.0
 40
0.0104154
 41
0.0104154
  0
VERTEX
  8
0
 10
1.0676
 20
2.12999
 30
0.0
 40
0.0104154
 41
0.0104154
  0
VERTEX
  8
0
 10
1.0676
 20
2.19239
 30
0.0
 40
0.0104154
 41
0.0104154
  0
VERTEX
  8
0
 10
1.13005
 20
2.19239
 30
0.0
 40
0.0104154
 41
0.0104154
  0
VERTEX
  8
0
 10
1.13005
 20
2.25489
 30
0.0
 40
0.0104154
 41
0.0104154
  0
VERTEX
  8
0
 10
1.19255
 20
2.25489
 30
0.0
 40
0.0104154
 41
0.0104154
  0
VERTEX
  8
0
 10
1.19255
 20
2.19239
 30
0.0
 40
0.0104154
 41
0.0104154
  0
VERTEX
  8
0
 10
1.31755
 20
2.19239
 30
0.0
 40
0.0104154
 41
0.0104154
  0
VERTEX
  8
0
 10
1.31755
 20
2.12999
 30
0.0
 40
0.0104154
 41
0.0104154
  0
VERTEX
  8
0
 10
1.38005
 20
2.12999
 30
0.0
 40
0.0104154
 41
0.0104154
  0
VERTEX
  8
0
 10
1.38005
 20
2.25489
 30
0.0
 40
0.0104154
 41
0.0104154
  0
VERTEX
  8
0
 10
1.25505
 20
2.25489
 30
0.0
 40
0.0104154
 41
0.0104154
  0
VERTEX
  8
0
 10
1.25505
 20
2.44239
 30
0.0
 40
0.0104154
 41
0.0104154
  0
VERTEX
  8
0
 10
1.19255
 20
2.44239
 30
0.0
 40
0.0104154
 41
0.0104154
  0
VERTEX
  8
0
 10
1.19255
 20
2.37989
 30
0.0
 40
0.0104154
 41
0.0104154
  0
VERTEX
  8
0
 10
1.13005
 20
2.37989
 30
0.0
 40
0.0104154
 41
0.0104154
  0
VERTEX
  8
0
 10
1.13005
 20
2.31739
 30
0.0
 40
0.0104154
 41
0.0104154
  0
VERTEX
  8
0
 10
1.0676
 20
2.31739
 30
0.0
 40
0.0104154
 41
0.0104154
  0
VERTEX
  8
0
 10
1.0676
 20
2.25489
 30
0.0
 40
0.0104154
 41
0.0104154
  0
VERTEX
  8
0
 10
1.0051
 20
2.25489
 30
0.0
 40
0.0104154
 41
0.0104154
  0
VERTEX
  8
0
 10
1.0051
 20
2.19239
 30
0.0
 40
0.0104154
 41
0.0104154
  0
VERTEX
  8
0
 10
0.8801
 20
2.19239
 30
0.0
 40
0.0104154
 41
0.0104154
  0
VERTEX
  8
0
 10
0.8801
 20
2.31739
 30
0.0
 40
0.0104154
 41
0.0104154
  0
VERTEX
  8
0
 10
0.8176
 20
2.31739
 30
0.0
 40
0.0104154
 41
0.0104154
  0
VERTEX
  8
0
 10
0.8176
 20
2.37989
 30
0.0
 40
0.0104154
 41
0.0104154
  0
VERTEX
  8
0
 10
0.7551
 20
2.37989
 30
0.0
 40
0.0104154
 41
0.0104154
  0
VERTEX
  8
0
 10
0.7551
 20
2.44239
 30
0.0
 40
0.0104154
 41
0.0104154
  0
VERTEX
  8
0
 10
0.6926
 20
2.44239
 30
0.0
 40
0.0104154
 41
0.0104154
  0
SEQEND
 8
0
  0
POLYLINE
  8
0
 62
     0
 66
     1
 10
0
 20
0
 30
0.0
 70
     1
 40
0.749906
 41
0.749906
  0
VERTEX
  8
0
 10
0.8176
 20
2.44239
 30
0.0
 40
0.0104154
 41
0.0104154
  0
VERTEX
  8
0
 10
0.8176
 20
2.37989
 30
0.0
 40
0.0104154
 41
0.0104154
  0
VERTEX
  8
0
 10
0.8801
 20
2.37989
 30
0.0
 40
0.0104154
 41
0.0104154
  0
VERTEX
  8
0
 10
0.8801
 20
2.44239
 30
0.0
 40
0.0104154
 41
0.0104154
  0
VERTEX
  8
0
 10
0.8176
 20
2.44239
 30
0.0
 40
0.0104154
 41
0.0104154
  0
SEQEND
 8
0
  0
POLYLINE
  8
0
 62
     0
 66
     1
 10
0
 20
0
 30
0.0
 70
     1
 40
0.749906
 41
0.749906
  0
VERTEX
  8
0
 10
0.9426
 20
2.44239
 30
0.0
 40
0.0104154
 41
0.0104154
  0
VERTEX
  8
0
 10
0.9426
 20
2.37989
 30
0.0
 40
0.0104154
 41
0.0104154
  0
VERTEX
  8
0
 10
0.8801
 20
2.37989
 30
0.0
 40
0.0104154
 41
0.0104154
  0
VERTEX
  8
0
 10
0.8801
 20
2.31739
 30
0.0
 40
0.0104154
 41
0.0104154
  0
VERTEX
  8
0
 10
0.9426
 20
2.31739
 30
0.0
 40
0.0104154
 41
0.0104154
  0
VERTEX
  8
0
 10
0.9426
 20
2.25489
 30
0.0
 40
0.0104154
 41
0.0104154
  0
VERTEX
  8
0
 10
1.0051
 20
2.25489
 30
0.0
 40
0.0104154
 41
0.0104154
  0
VERTEX
  8
0
 10
1.0051
 20
2.31739
 30
0.0
 40
0.0104154
 41
0.0104154
  0
VERTEX
  8
0
 10
1.0676
 20
2.31739
 30
0.0
 40
0.0104154
 41
0.0104154
  0
VERTEX
  8
0
 10
1.0676
 20
2.37989
 30
0.0
 40
0.0104154
 41
0.0104154
  0
VERTEX
  8
0
 10
1.0051
 20
2.37989
 30
0.0
 40
0.0104154
 41
0.0104154
  0
VERTEX
  8
0
 10
1.0051
 20
2.44239
 30
0.0
 40
0.0104154
 41
0.0104154
  0
VERTEX
  8
0
 10
0.9426
 20
2.44239
 30
0.0
 40
0.0104154
 41
0.0104154
  0
SEQEND
 8
0
  0
POLYLINE
  8
0
 62
     0
 66
     1
 10
0
 20
0
 30
0.0
 70
     1
 40
0.749906
 41
0.749906
  0
VERTEX
  8
0
 10
1.0676
 20
2.44239
 30
0.0
 40
0.0104154
 41
0.0104154
  0
VERTEX
  8
0
 10
1.0676
 20
2.37989
 30
0.0
 40
0.0104154
 41
0.0104154
  0
VERTEX
  8
0
 10
1.13005
 20
2.37989
 30
0.0
 40
0.0104154
 41
0.0104154
  0
VERTEX
  8
0
 10
1.13005
 20
2.44239
 30
0.0
 40
0.0104154
 41
0.0104154
  0
VERTEX
  8
0
 10
1.0676
 20
2.44239
 30
0.0
 40
0.0104154
 41
0.0104154
  0
SEQEND
 8
0
  0
POLYLINE
  8
0
 62
     0
 66
     1
 10
0
 20
0
 30
0.0
 70
     1
 40
0.749906
 41
0.749906
  0
VERTEX
  8
0
 10
1.56749
 20
2.44239
 30
0.0
 40
0.0104154
 41
0.0104154
  0
VERTEX
  8
0
 10
1.56749
 20
2.31739
 30
0.0
 40
0.0104154
 41
0.0104154
  0
VERTEX
  8
0
 10
1.62999
 20
2.31739
 30
0.0
 40
0.0104154
 41
0.0104154
  0
VERTEX
  8
0
 10
1.62999
 20
2.44239
 30
0.0
 40
0.0104154
 41
0.0104154
  0
VERTEX
  8
0
 10
1.56749
 20
2.44239
 30
0.0
 40
0.0104154
 41
0.0104154
  0
SEQEND
 8
0
  0
POLYLINE
  8
0
 62
     0
 66
     1
 10
0
 20
0
 30
0.0
 70
     1
 40
0.749906
 41
0.749906
  0
VERTEX
  8
0
 10
1.81749
 20
2.44239
 30
0.0
 40
0.0104154
 41
0.0104154
  0
VERTEX
  8
0
 10
1.81749
 20
2.37989
 30
0.0
 40
0.0104154
 41
0.0104154
  0
VERTEX
  8
0
 10
1.87999
 20
2.37989
 30
0.0
 40
0.0104154
 41
0.0104154
  0
VERTEX
  8
0
 10
1.87999
 20
2.44239
 30
0.0
 40
0.0104154
 41
0.0104154
  0
VERTEX
  8
0
 10
1.81749
 20
2.44239
 30
0.0
 40
0.0104154
 41
0.0104154
  0
SEQEND
 8
0
  0
POLYLINE
  8
0
 62
     0
 66
     1
 10
0
 20
0
 30
0.0
 70
     1
 40
0.749906
 41
0.749906
  0
VERTEX
  8
0
 10
1.44254
 20
2.44239
 30
0.0
 40
0.0104154
 41
0.0104154
  0
VERTEX
  8
0
 10
1.44254
 20
2.37989
 30
0.0
 40
0.0104154
 41
0.0104154
  0
VERTEX
  8
0
 10
1.38005
 20
2.37989
 30
0.0
 40
0.0104154
 41
0.0104154
  0
VERTEX
  8
0
 10
1.38005
 20
2.44239
 30
0.0
 40
0.0104154
 41
0.0104154
  0
VERTEX
  8
0
 10
1.44254
 20
2.44239
 30
0.0
 40
0.0104154
 41
0.0104154
  0
SEQEND
 8
0
  0
POLYLINE
  8
0
 62
     0
 66
     1
 10
0
 20
0
 30
0.0
 70
     1
 40
0.749906
 41
0.749906
  0
VERTEX
  8
0
 10
2.12993
 20
2.37989
 30
0.0
 40
0.0104154
 41
0.0104154
  0
VERTEX
  8
0
 10
2.12993
 20
2.31739
 30
0.0
 40
0.0104154
 41
0.0104154
  0
VERTEX
  8
0
 10
2.19243
 20
2.31739
 30
0.0
 40
0.0104154
 41
0.0104154
  0
VERTEX
  8
0
 10
2.19243
 20
2.37989
 30
0.0
 40
0.0104154
 41
0.0104154
  0
VERTEX
  8
0
 10
2.12993
 20
2.37989
 30
0.0
 40
0.0104154
 41
0.0104154
  0
SEQEND
 8
0
  0
POLYLINE
  8
0
 62
     0
 66
     1
 10
0
 20
0
 30
0.0
 70
     1
 40
0.749906
 41
0.749906
  0
VERTEX
  8
0
 10
2.19243
 20
2.31739
 30
0.0
 40
0.0104154
 41
0.0104154
  0
VERTEX
  8
0
 10
2.19243
 20
2.19239
 30
0.0
 40
0.0104154
 41
0.0104154
  0
VERTEX
  8
0
 10
2.25493
 20
2.19239
 30
0.0
 40
0.0104154
 41
0.0104154
  0
VERTEX
  8
0
 10
2.25493
 20
2.31739
 30
0.0
 40
0.0104154
 41
0.0104154
  0
VERTEX
  8
0
 10
2.19243
 20
2.31739
 30
0.0
 40
0.0104154
 41
0.0104154
  0
SEQEND
 8
0
  0
POLYLINE
  8
0
 62
     0
 66
     1
 10
0
 20
0
 30
0.0
 70
     1
 40
0.749906
 41
0.749906
  0
VERTEX
  8
0
 10
0.130208
 20
2.31739
 30
0.0
 40
0.0104154
 41
0.0104154
  0
VERTEX
  8
0
 10
0.130208
 20
2.25489
 30
0.0
 40
0.0104154
 41
0.0104154
  0
VERTEX
  8
0
 10
0.192708
 20
2.25489
 30
0.0
 40
0.0104154
 41
0.0104154
  0
VERTEX
  8
0
 10
0.192708
 20
2.31739
 30
0.0
 40
0.0104154
 41
0.0104154
  0
VERTEX
  8
0
 10
0.317654
 20
2.31739
 30
0.0
 40
0.0104154
 41
0.0104154
  0
VERTEX
  8
0
 10
0.317654
 20
2.19239
 30
0.0
 40
0.0104154
 41
0.0104154
  0
VERTEX
  8
0
 10
0.255154
 20
2.19239
 30
0.0
 40
0.0104154
 41
0.0104154
  0
VERTEX
  8
0
 10
0.255154
 20
2.12999
 30
0.0
 40
0.0104154
 41
0.0104154
  0
VERTEX
  8
0
 10
0.192708
 20
2.12999
 30
0.0
 40
0.0104154
 41
0.0104154
  0
VERTEX
  8
0
 10
0.192708
 20
2.19239
 30
0.0
 40
0.0104154
 41
0.0104154
  0
VERTEX
  8
0
 10
0.0677083
 20
2.19239
 30
0.0
 40
0.0104154
 41
0.0104154
  0
VERTEX
  8
0
 10
0.0677083
 20
2.25489
 30
0.0
 40
0.0104154
 41
0.0104154
  0
VERTEX
  8
0
 10
0.00520833
 20
2.25489
 30
0.0
 40
0.0104154
 41
0.0104154
  0
VERTEX
  8
0
 10
0.00520833
 20
2.31739
 30
0.0
 40
0.0104154
 41
0.0104154
  0
VERTEX
  8
0
 10
0.130208
 20
2.31739
 30
0.0
 40
0.0104154
 41
0.0104154
  0
SEQEND
 8
0
  0
POLYLINE
  8
0
 62
     0
 66
     1
 10
0
 20
0
 30
0.0
 70
     1
 40
0.749906
 41
0.749906
  0
VERTEX
  8
0
 10
0.442654
 20
2.31739
 30
0.0
 40
0.0104154
 41
0.0104154
  0
VERTEX
  8
0
 10
0.442654
 20
2.25489
 30
0.0
 40
0.0104154
 41
0.0104154
  0
VERTEX
  8
0
 10
0.380154
 20
2.25489
 30
0.0
 40
0.0104154
 41
0.0104154
  0
VERTEX
  8
0
 10
0.380154
 20
2.31739
 30
0.0
 40
0.0104154
 41
0.0104154
  0
VERTEX
  8
0
 10
0.442654
 20
2.31739
 30
0.0
 40
0.0104154
 41
0.0104154
  0
SEQEND
 8
0
  0
POLYLINE
  8
0
 62
     0
 66
     1
 10
0
 20
0
 30
0.0
 70
     1
 40
0.749906
 41
0.749906
  0
VERTEX
  8
0
 10
2.44239
 20
2.31739
 30
0.0
 40
0.0104154
 41
0.0104154
  0
VERTEX
  8
0
 10
2.44239
 20
2.19239
 30
0.0
 40
0.0104154
 41
0.0104154
  0
VERTEX
  8
0
 10
2.50489
 20
2.19239
 30
0.0
 40
0.0104154
 41
0.0104154
  0
VERTEX
  8
0
 10
2.50489
 20
2.12999
 30
0.0
 40
0.0104154
 41
0.0104154
  0
VERTEX
  8
0
 10
2.37989
 20
2.12999
 30
0.0
 40
0.0104154
 41
0.0104154
  0
VERTEX
  8
0
 10
2.37989
 20
2.31739
 30
0.0
 40
0.0104154
 41
0.0104154
  0
VERTEX
  8
0
 10
2.44239
 20
2.31739
 30
0.0
 40
0.0104154
 41
0.0104154
  0
SEQEND
 8
0
  0
POLYLINE
  8
0
 62
     0
 66
     1
 10
0
 20
0
 30
0.0
 70
     1
 40
0.749906
 41
0.749906
  0
VERTEX
  8
0
 10
2.81733
 20
2.31739
 30
0.0
 40
0.0104154
 41
0.0104154
  0
VERTEX
  8
0
 10
2.81733
 20
2.25489
 30
0.0
 40
0.0104154
 41
0.0104154
  0
VERTEX
  8
0
 10
2.75489
 20
2.25489
 30
0.0
 40
0.0104154
 41
0.0104154
  0
VERTEX
  8
0
 10
2.75489
 20
2.19239
 30
0.0
 40
0.0104154
 41
0.0104154
  0
VERTEX
  8
0
 10
2.81733
 20
2.19239
 30
0.0
 40
0.0104154
 41
0.0104154
  0
VERTEX
  8
0
 10
2.81733
 20
2.12999
 30
0.0
 40
0.0104154
 41
0.0104154
  0
VERTEX
  8
0
 10
2.75489
 20
2.12999
 30
0.0
 40
0.0104154
 41
0.0104154
  0
VERTEX
  8
0
 10
2.75489
 20
2.06749
 30
0.0
 40
0.0104154
 41
0.0104154
  0
VERTEX
  8
0
 10
2.69239
 20
2.06749
 30
0.0
 40
0.0104154
 41
0.0104154
  0
VERTEX
  8
0
 10
2.69239
 20
2.00499
 30
0.0
 40
0.0104154
 41
0.0104154
  0
VERTEX
  8
0
 10
2.75489
 20
2.00499
 30
0.0
 40
0.0104154
 41
0.0104154
  0
VERTEX
  8
0
 10
2.75489
 20
1.94249
 30
0.0
 40
0.0104154
 41
0.0104154
  0
VERTEX
  8
0
 10
2.81733
 20
1.94249
 30
0.0
 40
0.0104154
 41
0.0104154
  0
VERTEX
  8
0
 10
2.81733
 20
1.87999
 30
0.0
 40
0.0104154
 41
0.0104154
  0
VERTEX
  8
0
 10
2.75489
 20
1.87999
 30
0.0
 40
0.0104154
 41
0.0104154
  0
VERTEX
  8
0
 10
2.75489
 20
1.94249
 30
0.0
 40
0.0104154
 41
0.0104154
  0
VERTEX
  8
0
 10
2.62989
 20
1.94249
 30
0.0
 40
0.0104154
 41
0.0104154
  0
VERTEX
  8
0
 10
2.62989
 20
1.87999
 30
0.0
 40
0.0104154
 41
0.0104154
  0
VERTEX
  8
0
 10
2.69239
 20
1.87999
 30
0.0
 40
0.0104154
 41
0.0104154
  0
VERTEX
  8
0
 10
2.69239
 20
1.81749
 30
0.0
 40
0.0104154
 41
0.0104154
  0
VERTEX
  8
0
 10
2.81733
 20
1.81749
 30
0.0
 40
0.0104154
 41
0.0104154
  0
VERTEX
  8
0
 10
2.81733
 20
1.75499
 30
0.0
 40
0.0104154
 41
0.0104154
  0
VERTEX
  8
0
 10
2.69239
 20
1.75499
 30
0.0
 40
0.0104154
 41
0.0104154
  0
VERTEX
  8
0
 10
2.69239
 20
1.81749
 30
0.0
 40
0.0104154
 41
0.0104154
  0
VERTEX
  8
0
 10
2.62989
 20
1.81749
 30
0.0
 40
0.0104154
 41
0.0104154
  0
VERTEX
  8
0
 10
2.62989
 20
1.87999
 30
0.0
 40
0.0104154
 41
0.0104154
  0
VERTEX
  8
0
 10
2.56739
 20
1.87999
 30
0.0
 40
0.0104154
 41
0.0104154
  0
VERTEX
  8
0
 10
2.56739
 20
1.81749
 30
0.0
 40
0.0104154
 41
0.0104154
  0
VERTEX
  8
0
 10
2.50489
 20
1.81749
 30
0.0
 40
0.0104154
 41
0.0104154
  0
VERTEX
  8
0
 10
2.50489
 20
2.00499
 30
0.0
 40
0.0104154
 41
0.0104154
  0
VERTEX
  8
0
 10
2.56739
 20
2.00499
 30
0.0
 40
0.0104154
 41
0.0104154
  0
VERTEX
  8
0
 10
2.56739
 20
1.94249
 30
0.0
 40
0.0104154
 41
0.0104154
  0
VERTEX
  8
0
 10
2.62989
 20
1.94249
 30
0.0
 40
0.0104154
 41
0.0104154
  0
VERTEX
  8
0
 10
2.62989
 20
2.06749
 30
0.0
 40
0.0104154
 41
0.0104154
  0
VERTEX
  8
0
 10
2.69239
 20
2.06749
 30
0.0
 40
0.0104154
 41
0.0104154
  0
VERTEX
  8
0
 10
2.69239
 20
2.12999
 30
0.0
 40
0.0104154
 41
0.0104154
  0
VERTEX
  8
0
 10
2.75489
 20
2.12999
 30
0.0
 40
0.0104154
 41
0.0104154
  0
VERTEX
  8
0
 10
2.75489
 20
2.19239
 30
0.0
 40
0.0104154
 41
0.0104154
  0
VERTEX
  8
0
 10
2.69239
 20
2.19239
 30
0.0
 40
0.0104154
 41
0.0104154
  0
VERTEX
  8
0
 10
2.69239
 20
2.25489
 30
0.0
 40
0.0104154
 41
0.0104154
  0
VERTEX
  8
0
 10
2.75489
 20
2.25489
 30
0.0
 40
0.0104154
 41
0.0104154
  0
VERTEX
  8
0
 10
2.75489
 20
2.31739
 30
0.0
 40
0.0104154
 41
0.0104154
  0
VERTEX
  8
0
 10
2.81733
 20
2.31739
 30
0.0
 40
0.0104154
 41
0.0104154
  0
SEQEND
 8
0
  0
POLYLINE
  8
0
 62
     0
 66
     1
 10
0
 20
0
 30
0.0
 70
     1
 40
0.749906
 41
0.749906
  0
VERTEX
  8
0
 10
1.44254
 20
2.25489
 30
0.0
 40
0.0104154
 41
0.0104154
  0
VERTEX
  8
0
 10
1.44254
 20
2.19239
 30
0.0
 40
0.0104154
 41
0.0104154
  0
VERTEX
  8
0
 10
1.56749
 20
2.19239
 30
0.0
 40
0.0104154
 41
0.0104154
  0
VERTEX
  8
0
 10
1.56749
 20
2.25489
 30
0.0
 40
0.0104154
 41
0.0104154
  0
VERTEX
  8
0
 10
1.44254
 20
2.25489
 30
0.0
 40
0.0104154
 41
0.0104154
  0
SEQEND
 8
0
  0
POLYLINE
  8
0
 62
     0
 66
     1
 10
0
 20
0
 30
0.0
 70
     1
 40
0.749906
 41
0.749906
  0
VERTEX
  8
0
 10
0.567654
 20
2.19239
 30
0.0
 40
0.0104154
 41
0.0104154
  0
VERTEX
  8
0
 10
0.567654
 20
2.12999
 30
0.0
 40
0.0104154
 41
0.0104154
  0
VERTEX
  8
0
 10
0.630154
 20
2.12999
 30
0.0
 40
0.0104154
 41
0.0104154
  0
VERTEX
  8
0
 10
0.630154
 20
2.19239
 30
0.0
 40
0.0104154
 41
0.0104154
  0
VERTEX
  8
0
 10
0.567654
 20
2.19239
 30
0.0
 40
0.0104154
 41
0.0104154
  0
SEQEND
 8
0
  0
POLYLINE
  8
0
 62
     0
 66
     1
 10
0
 20
0
 30
0.0
 70
     1
 40
0.749906
 41
0.749906
  0
VERTEX
  8
0
 10
2.62989
 20
2.19239
 30
0.0
 40
0.0104154
 41
0.0104154
  0
VERTEX
  8
0
 10
2.62989
 20
2.12999
 30
0.0
 40
0.0104154
 41
0.0104154
  0
VERTEX
  8
0
 10
2.56739
 20
2.12999
 30
0.0
 40
0.0104154
 41
0.0104154
  0
VERTEX
  8
0
 10
2.56739
 20
2.19239
 30
0.0
 40
0.0104154
 41
0.0104154
  0
VERTEX
  8
0
 10
2.62989
 20
2.19239
 30
0.0
 40
0.0104154
 41
0.0104154
  0
SEQEND
 8
0
  0
POLYLINE
  8
0
 62
     0
 66
     1
 10
0
 20
0
 30
0.0
 70
     1
 40
0.749906
 41
0.749906
  0
VERTEX
  8
0
 10
0.505154
 20
2.12999
 30
0.0
 40
0.0104154
 41
0.0104154
  0
VERTEX
  8
0
 10
0.505154
 20
2.00499
 30
0.0
 40
0.0104154
 41
0.0104154
  0
VERTEX
  8
0
 10
0.630154
 20
2.00499
 30
0.0
 40
0.0104154
 41
0.0104154
  0
VERTEX
  8
0
 10
0.630154
 20
2.06749
 30
0.0
 40
0.0104154
 41
0.0104154
  0
VERTEX
  8
0
 10
0.567654
 20
2.06749
 30
0.0
 40
0.0104154
 41
0.0104154
  0
VERTEX
  8
0
 10
0.567654
 20
2.12999
 30
0.0
 40
0.0104154
 41
0.0104154
  0
VERTEX
  8
0
 10
0.505154
 20
2.12999
 30
0.0
 40
0.0104154
 41
0.0104154
  0
SEQEND
 8
0
  0
POLYLINE
  8
0
 62
     0
 66
     1
 10
0
 20
0
 30
0.0
 70
     1
 40
0.749906
 41
0.749906
  0
VERTEX
  8
0
 10
1.44254
 20
2.12999
 30
0.0
 40
0.0104154
 41
0.0104154
  0
VERTEX
  8
0
 10
1.44254
 20
2.06749
 30
0.0
 40
0.0104154
 41
0.0104154
  0
VERTEX
  8
0
 10
1.50504
 20
2.06749
 30
0.0
 40
0.0104154
 41
0.0104154
  0
VERTEX
  8
0
 10
1.50504
 20
1.94249
 30
0.0
 40
0.0104154
 41
0.0104154
  0
VERTEX
  8
0
 10
1.62999
 20
1.94249
 30
0.0
 40
0.0104154
 41
0.0104154
  0
VERTEX
  8
0
 10
1.62999
 20
2.00499
 30
0.0
 40
0.0104154
 41
0.0104154
  0
VERTEX
  8
0
 10
1.56749
 20
2.00499
 30
0.0
 40
0.0104154
 41
0.0104154
  0
VERTEX
  8
0
 10
1.56749
 20
2.06749
 30
0.0
 40
0.0104154
 41
0.0104154
  0
VERTEX
  8
0
 10
1.62999
 20
2.06749
 30
0.0
 40
0.0104154
 41
0.0104154
  0
VERTEX
  8
0
 10
1.62999
 20
2.00499
 30
0.0
 40
0.0104154
 41
0.0104154
  0
VERTEX
  8
0
 10
1.75499
 20
2.00499
 30
0.0
 40
0.0104154
 41
0.0104154
  0
VERTEX
  8
0
 10
1.75499
 20
1.94249
 30
0.0
 40
0.0104154
 41
0.0104154
  0
VERTEX
  8
0
 10
1.81749
 20
1.94249
 30
0.0
 40
0.0104154
 41
0.0104154
  0
VERTEX
  8
0
 10
1.81749
 20
2.06749
 30
0.0
 40
0.0104154
 41
0.0104154
  0
VERTEX
  8
0
 10
1.69249
 20
2.06749
 30
0.0
 40
0.0104154
 41
0.0104154
  0
VERTEX
  8
0
 10
1.69249
 20
2.12999
 30
0.0
 40
0.0104154
 41
0.0104154
  0
VERTEX
  8
0
 10
1.44254
 20
2.12999
 30
0.0
 40
0.0104154
 41
0.0104154
  0
SEQEND
 8
0
  0
POLYLINE
  8
0
 62
     0
 66
     1
 10
0
 20
0
 30
0.0
 70
     1
 40
0.749906
 41
0.749906
  0
VERTEX
  8
0
 10
0.9426
 20
2.12999
 30
0.0
 40
0.0104154
 41
0.0104154
  0
VERTEX
  8
0
 10
0.9426
 20
2.06749
 30
0.0
 40
0.0104154
 41
0.0104154
  0
VERTEX
  8
0
 10
1.0051
 20
2.06749
 30
0.0
 40
0.0104154
 41
0.0104154
  0
VERTEX
  8
0
 10
1.0051
 20
1.94249
 30
0.0
 40
0.0104154
 41
0.0104154
  0
VERTEX
  8
0
 10
0.9426
 20
1.94249
 30
0.0
 40
0.0104154
 41
0.0104154
  0
VERTEX
  8
0
 10
0.9426
 20
2.00499
 30
0.0
 40
0.0104154
 41
0.0104154
  0
VERTEX
  8
0
 10
0.8801
 20
2.00499
 30
0.0
 40
0.0104154
 41
0.0104154
  0
VERTEX
  8
0
 10
0.8801
 20
2.06749
 30
0.0
 40
0.0104154
 41
0.0104154
  0
VERTEX
  8
0
 10
0.8176
 20
2.06749
 30
0.0
 40
0.0104154
 41
0.0104154
  0
VERTEX
  8
0
 10
0.8176
 20
2.12999
 30
0.0
 40
0.0104154
 41
0.0104154
  0
VERTEX
  8
0
 10
0.9426
 20
2.12999
 30
0.0
 40
0.0104154
 41
0.0104154
  0
SEQEND
 8
0
  0
POLYLINE
  8
0
 62
     0
 66
     1
 10
0
 20
0
 30
0.0
 70
     1
 40
0.749906
 41
0.749906
  0
VERTEX
  8
0
 10
0.380154
 20
2.00499
 30
0.0
 40
0.0104154
 41
0.0104154
  0
VERTEX
  8
0
 10
0.380154
 20
1.94249
 30
0.0
 40
0.0104154
 41
0.0104154
  0
VERTEX
  8
0
 10
0.442654
 20
1.94249
 30
0.0
 40
0.0104154
 41
0.0104154
  0
VERTEX
  8
0
 10
0.442654
 20
1.87999
 30
0.0
 40
0.0104154
 41
0.0104154
  0
VERTEX
  8
0
 10
0.505154
 20
1.87999
 30
0.0
 40
0.0104154
 41
0.0104154
  0
VERTEX
  8
0
 10
0.505154
 20
2.00499
 30
0.0
 40
0.0104154
 41
0.0104154
  0
VERTEX
  8
0
 10
0.380154
 20
2.00499
 30
0.0
 40
0.0104154
 41
0.0104154
  0
SEQEND
 8
0
  0
POLYLINE
  8
0
 62
     0
 66
     1
 10
0
 20
0
 30
0.0
 70
     1
 40
0.749906
 41
0.749906
  0
VERTEX
  8
0
 10
0.630154
 20
2.00499
 30
0.0
 40
0.0104154
 41
0.0104154
  0
VERTEX
  8
0
 10
0.630154
 20
1.94249
 30
0.0
 40
0.0104154
 41
0.0104154
  0
VERTEX
  8
0
 10
0.6926
 20
1.94249
 30
0.0
 40
0.0104154
 41
0.0104154
  0
VERTEX
  8
0
 10
0.6926
 20
2.00499
 30
0.0
 40
0.0104154
 41
0.0104154
  0
VERTEX
  8
0
 10
0.630154
 20
2.00499
 30
0.0
 40
0.0104154
 41
0.0104154
  0
SEQEND
 8
0
  0
POLYLINE
  8
0
 62
     0
 66
     1
 10
0
 20
0
 30
0.0
 70
     1
 40
0.749906
 41
0.749906
  0
VERTEX
  8
0
 10
0.6926
 20
1.94249
 30
0.0
 40
0.0104154
 41
0.0104154
  0
VERTEX
  8
0
 10
0.6926
 20
1.87999
 30
0.0
 40
0.0104154
 41
0.0104154
  0
VERTEX
  8
0
 10
0.7551
 20
1.87999
 30
0.0
 40
0.0104154
 41
0.0104154
  0
VERTEX
  8
0
 10
0.7551
 20
1.94249
 30
0.0
 40
0.0104154
 41
0.0104154
  0
VERTEX
  8
0
 10
0.6926
 20
1.94249
 30
0.0
 40
0.0104154
 41
0.0104154
  0
SEQEND
 8
0
  0
POLYLINE
  8
0
 62
     0
 66
     1
 10
0
 20
0
 30
0.0
 70
     1
 40
0.749906
 41
0.749906
  0
VERTEX
  8
0
 10
1.81749
 20
1.94249
 30
0.0
 40
0.0104154
 41
0.0104154
  0
VERTEX
  8
0
 10
1.81749
 20
1.87999
 30
0.0
 40
0.0104154
 41
0.0104154
  0
VERTEX
  8
0
 10
1.69249
 20
1.87999
 30
0.0
 40
0.0104154
 41
0.0104154
  0
VERTEX
  8
0
 10
1.69249
 20
1.81749
 30
0.0
 40
0.0104154
 41
0.0104154
  0
VERTEX
  8
0
 10
1.75499
 20
1.81749
 30
0.0
 40
0.0104154
 41
0.0104154
  0
VERTEX
  8
0
 10
1.75499
 20
1.75499
 30
0.0
 40
0.0104154
 41
0.0104154
  0
VERTEX
  8
0
 10
1.81749
 20
1.75499
 30
0.0
 40
0.0104154
 41
0.0104154
  0
VERTEX
  8
0
 10
1.81749
 20
1.81749
 30
0.0
 40
0.0104154
 41
0.0104154
  0
VERTEX
  8
0
 10
1.87999
 20
1.81749
 30
0.0
 40
0.0104154
 41
0.0104154
  0
VERTEX
  8
0
 10
1.87999
 20
1.75499
 30
0.0
 40
0.0104154
 41
0.0104154
  0
VERTEX
  8
0
 10
1.94249
 20
1.75499
 30
0.0
 40
0.0104154
 41
0.0104154
  0
VERTEX
  8
0
 10
1.94249
 20
1.69254
 30
0.0
 40
0.0104154
 41
0.0104154
  0
VERTEX
  8
0
 10
2.00493
 20
1.69254
 30
0.0
 40
0.0104154
 41
0.0104154
  0
VERTEX
  8
0
 10
2.00493
 20
1.87999
 30
0.0
 40
0.0104154
 41
0.0104154
  0
VERTEX
  8
0
 10
1.87999
 20
1.87999
 30
0.0
 40
0.0104154
 41
0.0104154
  0
VERTEX
  8
0
 10
1.87999
 20
1.94249
 30
0.0
 40
0.0104154
 41
0.0104154
  0
VERTEX
  8
0
 10
1.81749
 20
1.94249
 30
0.0
 40
0.0104154
 41
0.0104154
  0
SEQEND
 8
0
  0
POLYLINE
  8
0
 62
     0
 66
     1
 10
0
 20
0
 30
0.0
 70
     1
 40
0.749906
 41
0.749906
  0
VERTEX
  8
0
 10
2.00493
 20
1.94249
 30
0.0
 40
0.0104154
 41
0.0104154
  0
VERTEX
  8
0
 10
2.00493
 20
1.87999
 30
0.0
 40
0.0104154
 41
0.0104154
  0
VERTEX
  8
0
 10
2.06743
 20
1.87999
 30
0.0
 40
0.0104154
 41
0.0104154
  0
VERTEX
  8
0
 10
2.06743
 20
1.94249
 30
0.0
 40
0.0104154
 41
0.0104154
  0
VERTEX
  8
0
 10
2.00493
 20
1.94249
 30
0.0
 40
0.0104154
 41
0.0104154
  0
SEQEND
 8
0
  0
POLYLINE
  8
0
 62
     0
 66
     1
 10
0
 20
0
 30
0.0
 70
     1
 40
0.749906
 41
0.749906
  0
VERTEX
  8
0
 10
0.130208
 20
1.87999
 30
0.0
 40
0.0104154
 41
0.0104154
  0
VERTEX
  8
0
 10
0.130208
 20
1.75499
 30
0.0
 40
0.0104154
 41
0.0104154
  0
VERTEX
  8
0
 10
0.192708
 20
1.75499
 30
0.0
 40
0.0104154
 41
0.0104154
  0
VERTEX
  8
0
 10
0.192708
 20
1.87999
 30
0.0
 40
0.0104154
 41
0.0104154
  0
VERTEX
  8
0
 10
0.130208
 20
1.87999
 30
0.0
 40
0.0104154
 41
0.0104154
  0
SEQEND
 8
0
  0
POLYLINE
  8
0
 62
     0
 66
     1
 10
0
 20
0
 30
0.0
 70
     1
 40
0.749906
 41
0.749906
  0
VERTEX
  8
0
 10
0.567654
 20
1.87999
 30
0.0
 40
0.0104154
 41
0.0104154
  0
VERTEX
  8
0
 10
0.567654
 20
1.81749
 30
0.0
 40
0.0104154
 41
0.0104154
  0
VERTEX
  8
0
 10
0.630154
 20
1.81749
 30
0.0
 40
0.0104154
 41
0.0104154
  0
VERTEX
  8
0
 10
0.630154
 20
1.87999
 30
0.0
 40
0.0104154
 41
0.0104154
  0
VERTEX
  8
0
 10
0.567654
 20
1.87999
 30
0.0
 40
0.0104154
 41
0.0104154
  0
SEQEND
 8
0
  0
POLYLINE
  8
0
 62
     0
 66
     1
 10
0
 20
0
 30
0.0
 70
     1
 40
0.749906
 41
0.749906
  0
VERTEX
  8
0
 10
0.7551
 20
1.87999
 30
0.0
 40
0.0104154
 41
0.0104154
  0
VERTEX
  8
0
 10
0.7551
 20
1.81749
 30
0.0
 40
0.0104154
 41
0.0104154
  0
VERTEX
  8
0
 10
0.6926
 20
1.81749
 30
0.0
 40
0.0104154
 41
0.0104154
  0
VERTEX
  8
0
 10
0.6926
 20
1.56754
 30
0.0
 40
0.0104154
 41
0.0104154
  0
VERTEX
  8
0
 10
0.7551
 20
1.56754
 30
0.0
 40
0.0104154
 41
0.0104154
  0
VERTEX
  8
0
 10
0.7551
 20
1.75499
 30
0.0
 40
0.0104154
 41
0.0104154
  0
VERTEX
  8
0
 10
0.8801
 20
1.75499
 30
0.0
 40
0.0104154
 41
0.0104154
  0
VERTEX
  8
0
 10
0.8801
 20
1.81749
 30
0.0
 40
0.0104154
 41
0.0104154
  0
VERTEX
  8
0
 10
0.8176
 20
1.81749
 30
0.0
 40
0.0104154
 41
0.0104154
  0
VERTEX
  8
0
 10
0.8176
 20
1.87999
 30
0.0
 40
0.0104154
 41
0.0104154
  0
VERTEX
  8
0
 10
0.7551
 20
1.87999
 30
0.0
 40
0.0104154
 41
0.0104154
  0
SEQEND
 8
0
  0
POLYLINE
  8
0
 62
     0
 66
     1
 10
0
 20
0
 30
0.0
 70
     1
 40
0.749906
 41
0.749906
  0
VERTEX
  8
0
 10
1.13005
 20
1.87999
 30
0.0
 40
0.0104154
 41
0.0104154
  0
VERTEX
  8
0
 10
1.13005
 20
1.81749
 30
0.0
 40
0.0104154
 41
0.0104154
  0
VERTEX
  8
0
 10
1.19255
 20
1.81749
 30
0.0
 40
0.0104154
 41
0.0104154
  0
VERTEX
  8
0
 10
1.19255
 20
1.87999
 30
0.0
 40
0.0104154
 41
0.0104154
  0
VERTEX
  8
0
 10
1.13005
 20
1.87999
 30
0.0
 40
0.0104154
 41
0.0104154
  0
SEQEND
 8
0
  0
POLYLINE
  8
0
 62
     0
 66
     1
 10
0
 20
0
 30
0.0
 70
     1
 40
0.749906
 41
0.749906
  0
VERTEX
  8
0
 10
1.50504
 20
1.87999
 30
0.0
 40
0.0104154
 41
0.0104154
  0
VERTEX
  8
0
 10
1.50504
 20
1.69254
 30
0.0
 40
0.0104154
 41
0.0104154
  0
VERTEX
  8
0
 10
1.62999
 20
1.69254
 30
0.0
 40
0.0104154
 41
0.0104154
  0
VERTEX
  8
0
 10
1.62999
 20
1.75499
 30
0.0
 40
0.0104154
 41
0.0104154
  0
VERTEX
  8
0
 10
1.56749
 20
1.75499
 30
0.0
 40
0.0104154
 41
0.0104154
  0
VERTEX
  8
0
 10
1.56749
 20
1.81749
 30
0.0
 40
0.0104154
 41
0.0104154
  0
VERTEX
  8
0
 10
1.62999
 20
1.81749
 30
0.0
 40
0.0104154
 41
0.0104154
  0
VERTEX
  8
0
 10
1.62999
 20
1.87999
 30
0.0
 40
0.0104154
 41
0.0104154
  0
VERTEX
  8
0
 10
1.50504
 20
1.87999
 30
0.0
 40
0.0104154
 41
0.0104154
  0
SEQEND
 8
0
  0
POLYLINE
  8
0
 62
     0
 66
     1
 10
0
 20
0
 30
0.0
 70
     1
 40
0.749906
 41
0.749906
  0
VERTEX
  8
0
 10
0.505154
 20
1.81749
 30
0.0
 40
0.0104154
 41
0.0104154
  0
VERTEX
  8
0
 10
0.505154
 20
1.75499
 30
0.0
 40
0.0104154
 41
0.0104154
  0
VERTEX
  8
0
 10
0.567654
 20
1.75499
 30
0.0
 40
0.0104154
 41
0.0104154
  0
VERTEX
  8
0
 10
0.567654
 20
1.81749
 30
0.0
 40
0.0104154
 41
0.0104154
  0
VERTEX
  8
0
 10
0.505154
 20
1.81749
 30
0.0
 40
0.0104154
 41
0.0104154
  0
SEQEND
 8
0
  0
POLYLINE
  8
0
 62
     0
 66
     1
 10
0
 20
0
 30
0.0
 70
     1
 40
0.749906
 41
0.749906
  0
VERTEX
  8
0
 10
1.0676
 20
1.81749
 30
0.0
 40
0.0104154
 41
0.0104154
  0
VERTEX
  8
0
 10
1.0676
 20
1.75499
 30
0.0
 40
0.0104154
 41
0.0104154
  0
VERTEX
  8
0
 10
1.13005
 20
1.75499
 30
0.0
 40
0.0104154
 41
0.0104154
  0
VERTEX
  8
0
 10
1.13005
 20
1.81749
 30
0.0
 40
0.0104154
 41
0.0104154
  0
VERTEX
  8
0
 10
1.0676
 20
1.81749
 30
0.0
 40
0.0104154
 41
0.0104154
  0
SEQEND
 8
0
  0
POLYLINE
  8
0
 62
     0
 66
     1
 10
0
 20
0
 30
0.0
 70
     1
 40
0.749906
 41
0.749906
  0
VERTEX
  8
0
 10
1.25505
 20
1.81749
 30
0.0
 40
0.0104154
 41
0.0104154
  0
VERTEX
  8
0
 10
1.25505
 20
1.75499
 30
0.0
 40
0.0104154
 41
0.0104154
  0
VERTEX
  8
0
 10
1.19255
 20
1.75499
 30
0.0
 40
0.0104154
 41
0.0104154
  0
VERTEX
  8
0
 10
1.19255
 20
1.69254
 30
0.0
 40
0.0104154
 41
0.0104154
  0
VERTEX
  8
0
 10
1.25505
 20
1.69254
 30
0.0
 40
0.0104154
 41
0.0104154
  0
VERTEX
  8
0
 10
1.25505
 20
1.56754
 30
0.0
 40
0.0104154
 41
0.0104154
  0
VERTEX
  8
0
 10
1.44254
 20
1.56754
 30
0.0
 40
0.0104154
 41
0.0104154
  0
VERTEX
  8
0
 10
1.44254
 20
1.63004
 30
0.0
 40
0.0104154
 41
0.0104154
  0
VERTEX
  8
0
 10
1.50504
 20
1.63004
 30
0.0
 40
0.0104154
 41
0.0104154
  0
VERTEX
  8
0
 10
1.50504
 20
1.69254
 30
0.0
 40
0.0104154
 41
0.0104154
  0
VERTEX
  8
0
 10
1.44254
 20
1.69254
 30
0.0
 40
0.0104154
 41
0.0104154
  0
VERTEX
  8
0
 10
1.44254
 20
1.75499
 30
0.0
 40
0.0104154
 41
0.0104154
  0
VERTEX
  8
0
 10
1.31755
 20
1.75499
 30
0.0
 40
0.0104154
 41
0.0104154
  0
VERTEX
  8
0
 10
1.31755
 20
1.81749
 30
0.0
 40
0.0104154
 41
0.0104154
  0
VERTEX
  8
0
 10
1.25505
 20
1.81749
 30
0.0
 40
0.0104154
 41
0.0104154
  0
SEQEND
 8
0
  0
POLYLINE
  8
0
 62
     0
 66
     1
 10
0
 20
0
 30
0.0
 70
     1
 40
0.749906
 41
0.749906
  0
VERTEX
  8
0
 10
2.31743
 20
1.81749
 30
0.0
 40
0.0104154
 41
0.0104154
  0
VERTEX
  8
0
 10
2.31743
 20
1.75499
 30
0.0
 40
0.0104154
 41
0.0104154
  0
VERTEX
  8
0
 10
2.37989
 20
1.75499
 30
0.0
 40
0.0104154
 41
0.0104154
  0
VERTEX
  8
0
 10
2.37989
 20
1.81749
 30
0.0
 40
0.0104154
 41
0.0104154
  0
VERTEX
  8
0
 10
2.31743
 20
1.81749
 30
0.0
 40
0.0104154
 41
0.0104154
  0
SEQEND
 8
0
  0
POLYLINE
  8
0
 62
     0
 66
     1
 10
0
 20
0
 30
0.0
 70
     1
 40
0.749906
 41
0.749906
  0
VERTEX
  8
0
 10
0.192708
 20
1.75499
 30
0.0
 40
0.0104154
 41
0.0104154
  0
VERTEX
  8
0
 10
0.192708
 20
1.69254
 30
0.0
 40
0.0104154
 41
0.0104154
  0
VERTEX
  8
0
 10
0.255154
 20
1.69254
 30
0.0
 40
0.0104154
 41
0.0104154
  0
VERTEX
  8
0
 10
0.255154
 20
1.75499
 30
0.0
 40
0.0104154
 41
0.0104154
  0
VERTEX
  8
0
 10
0.192708
 20
1.75499
 30
0.0
 40
0.0104154
 41
0.0104154
  0
SEQEND
 8
0
  0
POLYLINE
  8
0
 62
     0
 66
     1
 10
0
 20
0
 30
0.0
 70
     1
 40
0.749906
 41
0.749906
  0
VERTEX
  8
0
 10
0.567654
 20
1.75499
 30
0.0
 40
0.0104154
 41
0.0104154
  0
VERTEX
  8
0
 10
0.567654
 20
1.69254
 30
0.0
 40
0.0104154
 41
0.0104154
  0
VERTEX
  8
0
 10
0.630154
 20
1.69254
 30
0.0
 40
0.0104154
 41
0.0104154
  0
VERTEX
  8
0
 10
0.630154
 20
1.75499
 30
0.0
 40
0.0104154
 41
0.0104154
  0
VERTEX
  8
0
 10
0.567654
 20
1.75499
 30
0.0
 40
0.0104154
 41
0.0104154
  0
SEQEND
 8
0
  0
POLYLINE
  8
0
 62
     0
 66
     1
 10
0
 20
0
 30
0.0
 70
     1
 40
0.749906
 41
0.749906
  0
VERTEX
  8
0
 10
0.8801
 20
1.75499
 30
0.0
 40
0.0104154
 41
0.0104154
  0
VERTEX
  8
0
 10
0.8801
 20
1.63004
 30
0.0
 40
0.0104154
 41
0.0104154
  0
VERTEX
  8
0
 10
0.8176
 20
1.63004
 30
0.0
 40
0.0104154
 41
0.0104154
  0
VERTEX
  8
0
 10
0.8176
 20
1.56754
 30
0.0
 40
0.0104154
 41
0.0104154
  0
VERTEX
  8
0
 10
0.7551
 20
1.56754
 30
0.0
 40
0.0104154
 41
0.0104154
  0
VERTEX
  8
0
 10
0.7551
 20
1.50504
 30
0.0
 40
0.0104154
 41
0.0104154
  0
VERTEX
  8
0
 10
0.6926
 20
1.50504
 30
0.0
 40
0.0104154
 41
0.0104154
  0
VERTEX
  8
0
 10
0.6926
 20
1.56754
 30
0.0
 40
0.0104154
 41
0.0104154
  0
VERTEX
  8
0
 10
0.630154
 20
1.56754
 30
0.0
 40
0.0104154
 41
0.0104154
  0
VERTEX
  8
0
 10
0.630154
 20
1.63004
 30
0.0
 40
0.0104154
 41
0.0104154
  0
VERTEX
  8
0
 10
0.567654
 20
1.63004
 30
0.0
 40
0.0104154
 41
0.0104154
  0
VERTEX
  8
0
 10
0.567654
 20
1.50504
 30
0.0
 40
0.0104154
 41
0.0104154
  0
VERTEX
  8
0
 10
0.630154
 20
1.50504
 30
0.0
 40
0.0104154
 41
0.0104154
  0
VERTEX
  8
0
 10
0.630154
 20
1.38005
 30
0.0
 40
0.0104154
 41
0.0104154
  0
VERTEX
  8
0
 10
0.6926
 20
1.38005
 30
0.0
 40
0.0104154
 41
0.0104154
  0
VERTEX
  8
0
 10
0.6926
 20
1.44254
 30
0.0
 40
0.0104154
 41
0.0104154
  0
VERTEX
  8
0
 10
0.8801
 20
1.44254
 30
0.0
 40
0.0104154
 41
0.0104154
  0
VERTEX
  8
0
 10
0.8801
 20
1.38005
 30
0.0
 40
0.0104154
 41
0.0104154
  0
VERTEX
  8
0
 10
0.9426
 20
1.38005
 30
0.0
 40
0.0104154
 41
0.0104154
  0
VERTEX
  8
0
 10
0.9426
 20
1.31755
 30
0.0
 40
0.0104154
 41
0.0104154
  0
VERTEX
  8
0
 10
0.8801
 20
1.31755
 30
0.0
 40
0.0104154
 41
0.0104154
  0
VERTEX
  8
0
 10
0.8801
 20
1.38005
 30
0.0
 40
0.0104154
 41
0.0104154
  0
VERTEX
  8
0
 10
0.8176
 20
1.38005
 30
0.0
 40
0.0104154
 41
0.0104154
  0
VERTEX
  8
0
 10
0.8176
 20
1.2551
 30
0.0
 40
0.0104154
 41
0.0104154
  0
VERTEX
  8
0
 10
1.0051
 20
1.2551
 30
0.0
 40
0.0104154
 41
0.0104154
  0
VERTEX
  8
0
 10
1.0051
 20
1.1926
 30
0.0
 40
0.0104154
 41
0.0104154
  0
VERTEX
  8
0
 10
0.9426
 20
1.1926
 30
0.0
 40
0.0104154
 41
0.0104154
  0
VERTEX
  8
0
 10
0.9426
 20
1.0676
 30
0.0
 40
0.0104154
 41
0.0104154
  0
VERTEX
  8
0
 10
1.0676
 20
1.0676
 30
0.0
 40
0.0104154
 41
0.0104154
  0
VERTEX
  8
0
 10
1.0676
 20
1.1301
 30
0.0
 40
0.0104154
 41
0.0104154
  0
VERTEX
  8
0
 10
1.13005
 20
1.1301
 30
0.0
 40
0.0104154
 41
0.0104154
  0
VERTEX
  8
0
 10
1.13005
 20
1.1926
 30
0.0
 40
0.0104154
 41
0.0104154
  0
VERTEX
  8
0
 10
1.25505
 20
1.1926
 30
0.0
 40
0.0104154
 41
0.0104154
  0
VERTEX
  8
0
 10
1.25505
 20
1.2551
 30
0.0
 40
0.0104154
 41
0.0104154
  0
VERTEX
  8
0
 10
1.19255
 20
1.2551
 30
0.0
 40
0.0104154
 41
0.0104154
  0
VERTEX
  8
0
 10
1.19255
 20
1.38005
 30
0.0
 40
0.0104154
 41
0.0104154
  0
VERTEX
  8
0
 10
1.25505
 20
1.38005
 30
0.0
 40
0.0104154
 41
0.0104154
  0
VERTEX
  8
0
 10
1.25505
 20
1.44254
 30
0.0
 40
0.0104154
 41
0.0104154
  0
VERTEX
  8
0
 10
1.19255
 20
1.44254
 30
0.0
 40
0.0104154
 41
0.0104154
  0
VERTEX
  8
0
 10
1.19255
 20
1.50504
 30
0.0
 40
0.0104154
 41
0.0104154
  0
VERTEX
  8
0
 10
1.25505
 20
1.50504
 30
0.0
 40
0.0104154
 41
0.0104154
  0
VERTEX
  8
0
 10
1.25505
 20
1.56754
 30
0.0
 40
0.0104154
 41
0.0104154
  0
VERTEX
  8
0
 10
1.19255
 20
1.56754
 30
0.0
 40
0.0104154
 41
0.0104154
  0
VERTEX
  8
0
 10
1.19255
 20
1.69254
 30
0.0
 40
0.0104154
 41
0.0104154
  0
VERTEX
  8
0
 10
1.13005
 20
1.69254
 30
0.0
 40
0.0104154
 41
0.0104154
  0
VERTEX
  8
0
 10
1.13005
 20
1.56754
 30
0.0
 40
0.0104154
 41
0.0104154
  0
VERTEX
  8
0
 10
1.0676
 20
1.56754
 30
0.0
 40
0.0104154
 41
0.0104154
  0
VERTEX
  8
0
 10
1.0676
 20
1.44254
 30
0.0
 40
0.0104154
 41
0.0104154
  0
VERTEX
  8
0
 10
1.13005
 20
1.44254
 30
0.0
 40
0.0104154
 41
0.0104154
  0
VERTEX
  8
0
 10
1.13005
 20
1.38005
 30
0.0
 40
0.0104154
 41
0.0104154
  0
VERTEX
  8
0
 10
1.0676
 20
1.38005
 30
0.0
 40
0.0104154
 41
0.0104154
  0
VERTEX
  8
0
 10
1.0676
 20
1.31755
 30
0.0
 40
0.0104154
 41
0.0104154
  0
VERTEX
  8
0
 10
1.13005
 20
1.31755
 30
0.0
 40
0.0104154
 41
0.0104154
  0
VERTEX
  8
0
 10
1.13005
 20
1.2551
 30
0.0
 40
0.0104154
 41
0.0104154
  0
VERTEX
  8
0
 10
1.0676
 20
1.2551
 30
0.0
 40
0.0104154
 41
0.0104154
  0
VERTEX
  8
0
 10
1.0676
 20
1.31755
 30
0.0
 40
0.0104154
 41
0.0104154
  0
VERTEX
  8
0
 10
1.0051
 20
1.31755
 30
0.0
 40
0.0104154
 41
0.0104154
  0
VERTEX
  8
0
 10
1.0051
 20
1.50504
 30
0.0
 40
0.0104154
 41
0.0104154
  0
VERTEX
  8
0
 10
0.9426
 20
1.50504
 30
0.0
 40
0.0104154
 41
0.0104154
  0
VERTEX
  8
0
 10
0.9426
 20
1.56754
 30
0.0
 40
0.0104154
 41
0.0104154
  0
VERTEX
  8
0
 10
1.0051
 20
1.56754
 30
0.0
 40
0.0104154
 41
0.0104154
  0
VERTEX
  8
0
 10
1.0051
 20
1.63004
 30
0.0
 40
0.0104154
 41
0.0104154
  0
VERTEX
  8
0
 10
1.0676
 20
1.63004
 30
0.0
 40
0.0104154
 41
0.0104154
  0
VERTEX
  8
0
 10
1.0676
 20
1.69254
 30
0.0
 40
0.0104154
 41
0.0104154
  0
VERTEX
  8
0
 10
0.9426
 20
1.69254
 30
0.0
 40
0.0104154
 41
0.0104154
  0
VERTEX
  8
0
 10
0.9426
 20
1.75499
 30
0.0
 40
0.0104154
 41
0.0104154
  0
VERTEX
  8
0
 10
0.8801
 20
1.75499
 30
0.0
 40
0.0104154
 41
0.0104154
  0
SEQEND
 8
0
  0
POLYLINE
  8
0
 62
     0
 66
     1
 10
0
 20
0
 30
0.0
 70
     1
 40
0.749906
 41
0.749906
  0
VERTEX
  8
0
 10
1.69249
 20
1.75499
 30
0.0
 40
0.0104154
 41
0.0104154
  0
VERTEX
  8
0
 10
1.69249
 20
1.69254
 30
0.0
 40
0.0104154
 41
0.0104154
  0
VERTEX
  8
0
 10
1.75499
 20
1.69254
 30
0.0
 40
0.0104154
 41
0.0104154
  0
VERTEX
  8
0
 10
1.75499
 20
1.75499
 30
0.0
 40
0.0104154
 41
0.0104154
  0
VERTEX
  8
0
 10
1.69249
 20
1.75499
 30
0.0
 40
0.0104154
 41
0.0104154
  0
SEQEND
 8
0
  0
POLYLINE
  8
0
 62
     0
 66
     1
 10
0
 20
0
 30
0.0
 70
     1
 40
0.749906
 41
0.749906
  0
VERTEX
  8
0
 10
2.06743
 20
1.75499
 30
0.0
 40
0.0104154
 41
0.0104154
  0
VERTEX
  8
0
 10
2.06743
 20
1.63004
 30
0.0
 40
0.0104154
 41
0.0104154
  0
VERTEX
  8
0
 10
2.12993
 20
1.63004
 30
0.0
 40
0.0104154
 41
0.0104154
  0
VERTEX
  8
0
 10
2.12993
 20
1.75499
 30
0.0
 40
0.0104154
 41
0.0104154
  0
VERTEX
  8
0
 10
2.06743
 20
1.75499
 30
0.0
 40
0.0104154
 41
0.0104154
  0
SEQEND
 8
0
  0
POLYLINE
  8
0
 62
     0
 66
     1
 10
0
 20
0
 30
0.0
 70
     1
 40
0.749906
 41
0.749906
  0
VERTEX
  8
0
 10
2.19243
 20
1.75499
 30
0.0
 40
0.0104154
 41
0.0104154
  0
VERTEX
  8
0
 10
2.19243
 20
1.63004
 30
0.0
 40
0.0104154
 41
0.0104154
  0
VERTEX
  8
0
 10
2.31743
 20
1.63004
 30
0.0
 40
0.0104154
 41
0.0104154
  0
VERTEX
  8
0
 10
2.31743
 20
1.69254
 30
0.0
 40
0.0104154
 41
0.0104154
  0
VERTEX
  8
0
 10
2.25493
 20
1.69254
 30
0.0
 40
0.0104154
 41
0.0104154
  0
VERTEX
  8
0
 10
2.25493
 20
1.75499
 30
0.0
 40
0.0104154
 41
0.0104154
  0
VERTEX
  8
0
 10
2.19243
 20
1.75499
 30
0.0
 40
0.0104154
 41
0.0104154
  0
SEQEND
 8
0
  0
POLYLINE
  8
0
 62
     0
 66
     1
 10
0
 20
0
 30
0.0
 70
     1
 40
0.749906
 41
0.749906
  0
VERTEX
  8
0
 10
0.442654
 20
1.69254
 30
0.0
 40
0.0104154
 41
0.0104154
  0
VERTEX
  8
0
 10
0.442654
 20
1.63004
 30
0.0
 40
0.0104154
 41
0.0104154
  0
VERTEX
  8
0
 10
0.567654
 20
1.63004
 30
0.0
 40
0.0104154
 41
0.0104154
  0
VERTEX
  8
0
 10
0.567654
 20
1.69254
 30
0.0
 40
0.0104154
 41
0.0104154
  0
VERTEX
  8
0
 10
0.442654
 20
1.69254
 30
0.0
 40
0.0104154
 41
0.0104154
  0
SEQEND
 8
0
  0
POLYLINE
  8
0
 62
     0
 66
     1
 10
0
 20
0
 30
0.0
 70
     1
 40
0.749906
 41
0.749906
  0
VERTEX
  8
0
 10
1.87999
 20
1.69254
 30
0.0
 40
0.0104154
 41
0.0104154
  0
VERTEX
  8
0
 10
1.87999
 20
1.63004
 30
0.0
 40
0.0104154
 41
0.0104154
  0
VERTEX
  8
0
 10
1.94249
 20
1.63004
 30
0.0
 40
0.0104154
 41
0.0104154
  0
VERTEX
  8
0
 10
1.94249
 20
1.69254
 30
0.0
 40
0.0104154
 41
0.0104154
  0
VERTEX
  8
0
 10
1.87999
 20
1.69254
 30
0.0
 40
0.0104154
 41
0.0104154
  0
SEQEND
 8
0
  0
POLYLINE
  8
0
 62
     0
 66
     1
 10
0
 20
0
 30
0.0
 70
     1
 40
0.749906
 41
0.749906
  0
VERTEX
  8
0
 10
1.38005
 20
1.69254
 30
0.0
 40
0.0104154
 41
0.0104154
  0
VERTEX
  8
0
 10
1.38005
 20
1.63004
 30
0.0
 40
0.0104154
 41
0.0104154
  0
VERTEX
  8
0
 10
1.31755
 20
1.63004
 30
0.0
 40
0.0104154
 41
0.0104154
  0
VERTEX
  8
0
 10
1.31755
 20
1.69254
 30
0.0
 40
0.0104154
 41
0.0104154
  0
VERTEX
  8
0
 10
1.38005
 20
1.69254
 30
0.0
 40
0.0104154
 41
0.0104154
  0
SEQEND
 8
0
  0
POLYLINE
  8
0
 62
     0
 66
     1
 10
0
 20
0
 30
0.0
 70
     1
 40
0.749906
 41
0.749906
  0
VERTEX
  8
0
 10
0.0677083
 20
1.63004
 30
0.0
 40
0.0104154
 41
0.0104154
  0
VERTEX
  8
0
 10
0.0677083
 20
1.56754
 30
0.0
 40
0.0104154
 41
0.0104154
  0
VERTEX
  8
0
 10
0.130208
 20
1.56754
 30
0.0
 40
0.0104154
 41
0.0104154
  0
VERTEX
  8
0
 10
0.130208
 20
1.44254
 30
0.0
 40
0.0104154
 41
0.0104154
  0
VERTEX
  8
0
 10
0.255154
 20
1.44254
 30
0.0
 40
0.0104154
 41
0.0104154
  0
VERTEX
  8
0
 10
0.255154
 20
1.56754
 30
0.0
 40
0.0104154
 41
0.0104154
  0
VERTEX
  8
0
 10
0.192708
 20
1.56754
 30
0.0
 40
0.0104154
 41
0.0104154
  0
VERTEX
  8
0
 10
0.192708
 20
1.63004
 30
0.0
 40
0.0104154
 41
0.0104154
  0
VERTEX
  8
0
 10
0.0677083
 20
1.63004
 30
0.0
 40
0.0104154
 41
0.0104154
  0
SEQEND
 8
0
  0
POLYLINE
  8
0
 62
     0
 66
     1
 10
0
 20
0
 30
0.0
 70
     1
 40
0.749906
 41
0.749906
  0
VERTEX
  8
0
 10
0.380154
 20
1.63004
 30
0.0
 40
0.0104154
 41
0.0104154
  0
VERTEX
  8
0
 10
0.380154
 20
1.56754
 30
0.0
 40
0.0104154
 41
0.0104154
  0
VERTEX
  8
0
 10
0.442654
 20
1.56754
 30
0.0
 40
0.0104154
 41
0.0104154
  0
VERTEX
  8
0
 10
0.442654
 20
1.63004
 30
0.0
 40
0.0104154
 41
0.0104154
  0
VERTEX
  8
0
 10
0.380154
 20
1.63004
 30
0.0
 40
0.0104154
 41
0.0104154
  0
SEQEND
 8
0
  0
POLYLINE
  8
0
 62
     0
 66
     1
 10
0
 20
0
 30
0.0
 70
     1
 40
0.749906
 41
0.749906
  0
VERTEX
  8
0
 10
1.50504
 20
1.63004
 30
0.0
 40
0.0104154
 41
0.0104154
  0
VERTEX
  8
0
 10
1.50504
 20
1.56754
 30
0.0
 40
0.0104154
 41
0.0104154
  0
VERTEX
  8
0
 10
1.56749
 20
1.56754
 30
0.0
 40
0.0104154
 41
0.0104154
  0
VERTEX
  8
0
 10
1.56749
 20
1.63004
 30
0.0
 40
0.0104154
 41
0.0104154
  0
VERTEX
  8
0
 10
1.50504
 20
1.63004
 30
0.0
 40
0.0104154
 41
0.0104154
  0
SEQEND
 8
0
  0
POLYLINE
  8
0
 62
     0
 66
     1
 10
0
 20
0
 30
0.0
 70
     1
 40
0.749906
 41
0.749906
  0
VERTEX
  8
0
 10
1.75499
 20
1.63004
 30
0.0
 40
0.0104154
 41
0.0104154
  0
VERTEX
  8
0
 10
1.75499
 20
1.56754
 30
0.0
 40
0.0104154
 41
0.0104154
  0
VERTEX
  8
0
 10
1.56749
 20
1.56754
 30
0.0
 40
0.0104154
 41
0.0104154
  0
VERTEX
  8
0
 10
1.56749
 20
1.50504
 30
0.0
 40
0.0104154
 41
0.0104154
  0
VERTEX
  8
0
 10
1.62999
 20
1.50504
 30
0.0
 40
0.0104154
 41
0.0104154
  0
VERTEX
  8
0
 10
1.62999
 20
1.44254
 30
0.0
 40
0.0104154
 41
0.0104154
  0
VERTEX
  8
0
 10
1.69249
 20
1.44254
 30
0.0
 40
0.0104154
 41
0.0104154
  0
VERTEX
  8
0
 10
1.69249
 20
1.50504
 30
0.0
 40
0.0104154
 41
0.0104154
  0
VERTEX
  8
0
 10
1.81749
 20
1.50504
 30
0.0
 40
0.0104154
 41
0.0104154
  0
VERTEX
  8
0
 10
1.81749
 20
1.44254
 30
0.0
 40
0.0104154
 41
0.0104154
  0
VERTEX
  8
0
 10
1.87999
 20
1.44254
 30
0.0
 40
0.0104154
 41
0.0104154
  0
VERTEX
  8
0
 10
1.87999
 20
1.38005
 30
0.0
 40
0.0104154
 41
0.0104154
  0
VERTEX
  8
0
 10
1.94249
 20
1.38005
 30
0.0
 40
0.0104154
 41
0.0104154
  0
VERTEX
  8
0
 10
1.94249
 20
1.44254
 30
0.0
 40
0.0104154
 41
0.0104154
  0
VERTEX
  8
0
 10
2.00493
 20
1.44254
 30
0.0
 40
0.0104154
 41
0.0104154
  0
VERTEX
  8
0
 10
2.00493
 20
1.50504
 30
0.0
 40
0.0104154
 41
0.0104154
  0
VERTEX
  8
0
 10
1.87999
 20
1.50504
 30
0.0
 40
0.0104154
 41
0.0104154
  0
VERTEX
  8
0
 10
1.87999
 20
1.63004
 30
0.0
 40
0.0104154
 41
0.0104154
  0
VERTEX
  8
0
 10
1.75499
 20
1.63004
 30
0.0
 40
0.0104154
 41
0.0104154
  0
SEQEND
 8
0
  0
POLYLINE
  8
0
 62
     0
 66
     1
 10
0
 20
0
 30
0.0
 70
     1
 40
0.749906
 41
0.749906
  0
VERTEX
  8
0
 10
1.94249
 20
1.63004
 30
0.0
 40
0.0104154
 41
0.0104154
  0
VERTEX
  8
0
 10
1.94249
 20
1.56754
 30
0.0
 40
0.0104154
 41
0.0104154
  0
VERTEX
  8
0
 10
2.00493
 20
1.56754
 30
0.0
 40
0.0104154
 41
0.0104154
  0
VERTEX
  8
0
 10
2.00493
 20
1.63004
 30
0.0
 40
0.0104154
 41
0.0104154
  0
VERTEX
  8
0
 10
1.94249
 20
1.63004
 30
0.0
 40
0.0104154
 41
0.0104154
  0
SEQEND
 8
0
  0
POLYLINE
  8
0
 62
     0
 66
     1
 10
0
 20
0
 30
0.0
 70
     1
 40
0.749906
 41
0.749906
  0
VERTEX
  8
0
 10
2.12993
 20
1.63004
 30
0.0
 40
0.0104154
 41
0.0104154
  0
VERTEX
  8
0
 10
2.12993
 20
1.50504
 30
0.0
 40
0.0104154
 41
0.0104154
  0
VERTEX
  8
0
 10
2.19243
 20
1.50504
 30
0.0
 40
0.0104154
 41
0.0104154
  0
VERTEX
  8
0
 10
2.19243
 20
1.63004
 30
0.0
 40
0.0104154
 41
0.0104154
  0
VERTEX
  8
0
 10
2.12993
 20
1.63004
 30
0.0
 40
0.0104154
 41
0.0104154
  0
SEQEND
 8
0
  0
POLYLINE
  8
0
 62
     0
 66
     1
 10
0
 20
0
 30
0.0
 70
     1
 40
0.749906
 41
0.749906
  0
VERTEX
  8
0
 10
2.62989
 20
1.63004
 30
0.0
 40
0.0104154
 41
0.0104154
  0
VERTEX
  8
0
 10
2.62989
 20
1.56754
 30
0.0
 40
0.0104154
 41
0.0104154
  0
VERTEX
  8
0
 10
2.69239
 20
1.56754
 30
0.0
 40
0.0104154
 41
0.0104154
  0
VERTEX
  8
0
 10
2.69239
 20
1.63004
 30
0.0
 40
0.0104154
 41
0.0104154
  0
VERTEX
  8
0
 10
2.62989
 20
1.63004
 30
0.0
 40
0.0104154
 41
0.0104154
  0
SEQEND
 8
0
  0
POLYLINE
  8
0
 62
     0
 66
     1
 10
0
 20
0
 30
0.0
 70
     1
 40
0.749906
 41
0.749906
  0
VERTEX
  8
0
 10
2.00493
 20
1.56754
 30
0.0
 40
0.0104154
 41
0.0104154
  0
VERTEX
  8
0
 10
2.00493
 20
1.50504
 30
0.0
 40
0.0104154
 41
0.0104154
  0
VERTEX
  8
0
 10
2.06743
 20
1.50504
 30
0.0
 40
0.0104154
 41
0.0104154
  0
VERTEX
  8
0
 10
2.06743
 20
1.56754
 30
0.0
 40
0.0104154
 41
0.0104154
  0
VERTEX
  8
0
 10
2.00493
 20
1.56754
 30
0.0
 40
0.0104154
 41
0.0104154
  0
SEQEND
 8
0
  0
POLYLINE
  8
0
 62
     0
 66
     1
 10
0
 20
0
 30
0.0
 70
     1
 40
0.749906
 41
0.749906
  0
VERTEX
  8
0
 10
2.56739
 20
1.56754
 30
0.0
 40
0.0104154
 41
0.0104154
  0
VERTEX
  8
0
 10
2.56739
 20
1.50504
 30
0.0
 40
0.0104154
 41
0.0104154
  0
VERTEX
  8
0
 10
2.62989
 20
1.50504
 30
0.0
 40
0.0104154
 41
0.0104154
  0
VERTEX
  8
0
 10
2.62989
 20
1.56754
 30
0.0
 40
0.0104154
 41
0.0104154
  0
VERTEX
  8
0
 10
2.56739
 20
1.56754
 30
0.0
 40
0.0104154
 41
0.0104154
  0
SEQEND
 8
0
  0
POLYLINE
  8
0
 62
     0
 66
     1
 10
0
 20
0
 30
0.0
 70
     1
 40
0.749906
 41
0.749906
  0
VERTEX
  8
0
 10
0.317654
 20
1.50504
 30
0.0
 40
0.0104154
 41
0.0104154
  0
VERTEX
  8
0
 10
0.317654
 20
1.31755
 30
0.0
 40
0.0104154
 41
0.0104154
  0
VERTEX
  8
0
 10
0.505154
 20
1.31755
 30
0.0
 40
0.0104154
 41
0.0104154
  0
VERTEX
  8
0
 10
0.505154
 20
1.50504
 30
0.0
 40
0.0104154
 41
0.0104154
  0
VERTEX
  8
0
 10
0.317654
 20
1.50504
 30
0.0
 40
0.0104154
 41
0.0104154
  0
SEQEND
 8
0
  0
POLYLINE
  8
0
 62
     0
 66
     1
 10
0
 20
0
 30
0.0
 70
     1
 40
0.749906
 41
0.749906
  0
VERTEX
  8
0
 10
1.31755
 20
1.50504
 30
0.0
 40
0.0104154
 41
0.0104154
  0
VERTEX
  8
0
 10
1.31755
 20
1.31755
 30
0.0
 40
0.0104154
 41
0.0104154
  0
VERTEX
  8
0
 10
1.50504
 20
1.31755
 30
0.0
 40
0.0104154
 41
0.0104154
  0
VERTEX
  8
0
 10
1.50504
 20
1.50504
 30
0.0
 40
0.0104154
 41
0.0104154
  0
VERTEX
  8
0
 10
1.31755
 20
1.50504
 30
0.0
 40
0.0104154
 41
0.0104154
  0
SEQEND
 8
0
  0
POLYLINE
  8
0
 62
     0
 66
     1
 10
0
 20
0
 30
0.0
 70
     1
 40
0.749906
 41
0.749906
  0
VERTEX
  8
0
 10
2.19243
 20
1.50504
 30
0.0
 40
0.0104154
 41
0.0104154
  0
VERTEX
  8
0
 10
2.19243
 20
1.31755
 30
0.0
 40
0.0104154
 41
0.0104154
  0
VERTEX
  8
0
 10
2.25493
 20
1.31755
 30
0.0
 40
0.0104154
 41
0.0104154
  0
VERTEX
  8
0
 10
2.25493
 20
1.50504
 30
0.0
 40
0.0104154
 41
0.0104154
  0
VERTEX
  8
0
 10
2.19243
 20
1.50504
 30
0.0
 40
0.0104154
 41
0.0104154
  0
SEQEND
 8
0
  0
POLYLINE
  8
0
 62
     0
 66
     1
 10
0
 20
0
 30
0.0
 70
     1
 40
0.749906
 41
0.749906
  0
VERTEX
  8
0
 10
2.31743
 20
1.50504
 30
0.0
 40
0.0104154
 41
0.0104154
  0
VERTEX
  8
0
 10
2.31743
 20
1.31755
 30
0.0
 40
0.0104154
 41
0.0104154
  0
VERTEX
  8
0
 10
2.50489
 20
1.31755
 30
0.0
 40
0.0104154
 41
0.0104154
  0
VERTEX
  8
0
 10
2.50489
 20
1.50504
 30
0.0
 40
0.0104154
 41
0.0104154
  0
VERTEX
  8
0
 10
2.31743
 20
1.50504
 30
0.0
 40
0.0104154
 41
0.0104154
  0
SEQEND
 8
0
  0
POLYLINE
  8
0
 62
     0
 66
     1
 10
0
 20
0
 30
0.0
 70
     1
 40
0.749906
 41
0.749906
  0
VERTEX
  8
0
 10
1.75499
 20
1.44254
 30
0.0
 40
0.0104154
 41
0.0104154
  0
VERTEX
  8
0
 10
1.75499
 20
1.38005
 30
0.0
 40
0.0104154
 41
0.0104154
  0
VERTEX
  8
0
 10
1.81749
 20
1.38005
 30
0.0
 40
0.0104154
 41
0.0104154
  0
VERTEX
  8
0
 10
1.81749
 20
1.44254
 30
0.0
 40
0.0104154
 41
0.0104154
  0
VERTEX
  8
0
 10
1.75499
 20
1.44254
 30
0.0
 40
0.0104154
 41
0.0104154
  0
SEQEND
 8
0
  0
POLYLINE
  8
0
 62
     0
 66
     1
 10
0
 20
0
 30
0.0
 70
     1
 40
0.749906
 41
0.749906
  0
VERTEX
  8
0
 10
2.00493
 20
1.44254
 30
0.0
 40
0.0104154
 41
0.0104154
  0
VERTEX
  8
0
 10
2.00493
 20
1.38005
 30
0.0
 40
0.0104154
 41
0.0104154
  0
VERTEX
  8
0
 10
2.12993
 20
1.38005
 30
0.0
 40
0.0104154
 41
0.0104154
  0
VERTEX
  8
0
 10
2.12993
 20
1.44254
 30
0.0
 40
0.0104154
 41
0.0104154
  0
VERTEX
  8
0
 10
2.00493
 20
1.44254
 30
0.0
 40
0.0104154
 41
0.0104154
  0
SEQEND
 8
0
  0
POLYLINE
  8
0
 62
     0
 66
     1
 10
0
 20
0
 30
0.0
 70
     1
 40
0.749906
 41
0.749906
  0
VERTEX
  8
0
 10
0.442654
 20
1.44254
 30
0.0
 40
0.0104154
 41
0.0104154
  0
VERTEX
  8
0
 10
0.442654
 20
1.38005
 30
0.0
 40
0.0104154
 41
0.0104154
  0
VERTEX
  8
0
 10
0.380154
 20
1.38005
 30
0.0
 40
0.0104154
 41
0.0104154
  0
VERTEX
  8
0
 10
0.380154
 20
1.44254
 30
0.0
 40
0.0104154
 41
0.0104154
  0
VERTEX
  8
0
 10
0.442654
 20
1.44254
 30
0.0
 40
0.0104154
 41
0.0104154
  0
SEQEND
 8
0
  0
POLYLINE
  8
0
 62
     0
 66
     1
 10
0
 20
0
 30
0.0
 70
     1
 40
0.749906
 41
0.749906
  0
VERTEX
  8
0
 10
1.44254
 20
1.44254
 30
0.0
 40
0.0104154
 41
0.0104154
  0
VERTEX
  8
0
 10
1.44254
 20
1.38005
 30
0.0
 40
0.0104154
 41
0.0104154
  0
VERTEX
  8
0
 10
1.38005
 20
1.38005
 30
0.0
 40
0.0104154
 41
0.0104154
  0
VERTEX
  8
0
 10
1.38005
 20
1.44254
 30
0.0
 40
0.0104154
 41
0.0104154
  0
VERTEX
  8
0
 10
1.44254
 20
1.44254
 30
0.0
 40
0.0104154
 41
0.0104154
  0
SEQEND
 8
0
  0
POLYLINE
  8
0
 62
     0
 66
     1
 10
0
 20
0
 30
0.0
 70
     1
 40
0.749906
 41
0.749906
  0
VERTEX
  8
0
 10
2.44239
 20
1.44254
 30
0.0
 40
0.0104154
 41
0.0104154
  0
VERTEX
  8
0
 10
2.44239
 20
1.38005
 30
0.0
 40
0.0104154
 41
0.0104154
  0
VERTEX
  8
0
 10
2.37989
 20
1.38005
 30
0.0
 40
0.0104154
 41
0.0104154
  0
VERTEX
  8
0
 10
2.37989
 20
1.44254
 30
0.0
 40
0.0104154
 41
0.0104154
  0
VERTEX
  8
0
 10
2.44239
 20
1.44254
 30
0.0
 40
0.0104154
 41
0.0104154
  0
SEQEND
 8
0
  0
POLYLINE
  8
0
 62
     0
 66
     1
 10
0
 20
0
 30
0.0
 70
     1
 40
0.749906
 41
0.749906
  0
VERTEX
  8
0
 10
2.81733
 20
1.44254
 30
0.0
 40
0.0104154
 41
0.0104154
  0
VERTEX
  8
0
 10
2.81733
 20
1.38005
 30
0.0
 40
0.0104154
 41
0.0104154
  0
VERTEX
  8
0
 10
2.75489
 20
1.38005
 30
0.0
 40
0.0104154
 41
0.0104154
  0
VERTEX
  8
0
 10
2.75489
 20
1.44254
 30
0.0
 40
0.0104154
 41
0.0104154
  0
VERTEX
  8
0
 10
2.81733
 20
1.44254
 30
0.0
 40
0.0104154
 41
0.0104154
  0
SEQEND
 8
0
  0
POLYLINE
  8
0
 62
     0
 66
     1
 10
0
 20
0
 30
0.0
 70
     1
 40
0.749906
 41
0.749906
  0
VERTEX
  8
0
 10
0.567654
 20
1.38005
 30
0.0
 40
0.0104154
 41
0.0104154
  0
VERTEX
  8
0
 10
0.567654
 20
1.31755
 30
0.0
 40
0.0104154
 41
0.0104154
  0
VERTEX
  8
0
 10
0.630154
 20
1.31755
 30
0.0
 40
0.0104154
 41
0.0104154
  0
VERTEX
  8
0
 10
0.630154
 20
1.38005
 30
0.0
 40
0.0104154
 41
0.0104154
  0
VERTEX
  8
0
 10
0.567654
 20
1.38005
 30
0.0
 40
0.0104154
 41
0.0104154
  0
SEQEND
 8
0
  0
POLYLINE
  8
0
 62
     0
 66
     1
 10
0
 20
0
 30
0.0
 70
     1
 40
0.749906
 41
0.749906
  0
VERTEX
  8
0
 10
1.62999
 20
1.38005
 30
0.0
 40
0.0104154
 41
0.0104154
  0
VERTEX
  8
0
 10
1.62999
 20
1.31755
 30
0.0
 40
0.0104154
 41
0.0104154
  0
VERTEX
  8
0
 10
1.56749
 20
1.31755
 30
0.0
 40
0.0104154
 41
0.0104154
  0
VERTEX
  8
0
 10
1.56749
 20
1.0676
 30
0.0
 40
0.0104154
 41
0.0104154
  0
VERTEX
  8
0
 10
1.62999
 20
1.0676
 30
0.0
 40
0.0104154
 41
0.0104154
  0
VERTEX
  8
0
 10
1.62999
 20
1.1301
 30
0.0
 40
0.0104154
 41
0.0104154
  0
VERTEX
  8
0
 10
1.69249
 20
1.1301
 30
0.0
 40
0.0104154
 41
0.0104154
  0
VERTEX
  8
0
 10
1.69249
 20
1.1926
 30
0.0
 40
0.0104154
 41
0.0104154
  0
VERTEX
  8
0
 10
1.62999
 20
1.1926
 30
0.0
 40
0.0104154
 41
0.0104154
  0
VERTEX
  8
0
 10
1.62999
 20
1.2551
 30
0.0
 40
0.0104154
 41
0.0104154
  0
VERTEX
  8
0
 10
1.69249
 20
1.2551
 30
0.0
 40
0.0104154
 41
0.0104154
  0
VERTEX
  8
0
 10
1.69249
 20
1.31755
 30
0.0
 40
0.0104154
 41
0.0104154
  0
VERTEX
  8
0
 10
1.75499
 20
1.31755
 30
0.0
 40
0.0104154
 41
0.0104154
  0
VERTEX
  8
0
 10
1.75499
 20
1.38005
 30
0.0
 40
0.0104154
 41
0.0104154
  0
VERTEX
  8
0
 10
1.62999
 20
1.38005
 30
0.0
 40
0.0104154
 41
0.0104154
  0
SEQEND
 8
0
  0
POLYLINE
  8
0
 62
     0
 66
     1
 10
0
 20
0
 30
0.0
 70
     1
 40
0.749906
 41
0.749906
  0
VERTEX
  8
0
 10
0.0677083
 20
1.38005
 30
0.0
 40
0.0104154
 41
0.0104154
  0
VERTEX
  8
0
 10
0.0677083
 20
1.31755
 30
0.0
 40
0.0104154
 41
0.0104154
  0
VERTEX
  8
0
 10
0.00520833
 20
1.31755
 30
0.0
 40
0.0104154
 41
0.0104154
  0
VERTEX
  8
0
 10
0.00520833
 20
1.38005
 30
0.0
 40
0.0104154
 41
0.0104154
  0
VERTEX
  8
0
 10
0.0677083
 20
1.38005
 30
0.0
 40
0.0104154
 41
0.0104154
  0
SEQEND
 8
0
  0
POLYLINE
  8
0
 62
     0
 66
     1
 10
0
 20
0
 30
0.0
 70
     1
 40
0.749906
 41
0.749906
  0
VERTEX
  8
0
 10
0.6926
 20
1.31755
 30
0.0
 40
0.0104154
 41
0.0104154
  0
VERTEX
  8
0
 10
0.6926
 20
1.1926
 30
0.0
 40
0.0104154
 41
0.0104154
  0
VERTEX
  8
0
 10
0.7551
 20
1.1926
 30
0.0
 40
0.0104154
 41
0.0104154
  0
VERTEX
  8
0
 10
0.7551
 20
1.31755
 30
0.0
 40
0.0104154
 41
0.0104154
  0
VERTEX
  8
0
 10
0.6926
 20
1.31755
 30
0.0
 40
0.0104154
 41
0.0104154
  0
SEQEND
 8
0
  0
POLYLINE
  8
0
 62
     0
 66
     1
 10
0
 20
0
 30
0.0
 70
     1
 40
0.749906
 41
0.749906
  0
VERTEX
  8
0
 10
1.75499
 20
1.31755
 30
0.0
 40
0.0104154
 41
0.0104154
  0
VERTEX
  8
0
 10
1.75499
 20
1.2551
 30
0.0
 40
0.0104154
 41
0.0104154
  0
VERTEX
  8
0
 10
1.69249
 20
1.2551
 30
0.0
 40
0.0104154
 41
0.0104154
  0
VERTEX
  8
0
 10
1.69249
 20
1.1926
 30
0.0
 40
0.0104154
 41
0.0104154
  0
VERTEX
  8
0
 10
1.81749
 20
1.1926
 30
0.0
 40
0.0104154
 41
0.0104154
  0
VERTEX
  8
0
 10
1.81749
 20
1.31755
 30
0.0
 40
0.0104154
 41
0.0104154
  0
VERTEX
  8
0
 10
1.75499
 20
1.31755
 30
0.0
 40
0.0104154
 41
0.0104154
  0
SEQEND
 8
0
  0
POLYLINE
  8
0
 62
     0
 66
     1
 10
0
 20
0
 30
0.0
 70
     1
 40
0.749906
 41
0.749906
  0
VERTEX
  8
0
 10
2.00493
 20
1.31755
 30
0.0
 40
0.0104154
 41
0.0104154
  0
VERTEX
  8
0
 10
2.00493
 20
1.2551
 30
0.0
 40
0.0104154
 41
0.0104154
  0
VERTEX
  8
0
 10
1.94249
 20
1.2551
 30
0.0
 40
0.0104154
 41
0.0104154
  0
VERTEX
  8
0
 10
1.94249
 20
1.1926
 30
0.0
 40
0.0104154
 41
0.0104154
  0
VERTEX
  8
0
 10
2.00493
 20
1.1926
 30
0.0
 40
0.0104154
 41
0.0104154
  0
VERTEX
  8
0
 10
2.00493
 20
1.1301
 30
0.0
 40
0.0104154
 41
0.0104154
  0
VERTEX
  8
0
 10
1.94249
 20
1.1301
 30
0.0
 40
0.0104154
 41
0.0104154
  0
VERTEX
  8
0
 10
1.94249
 20
1.0051
 30
0.0
 40
0.0104154
 41
0.0104154
  0
VERTEX
  8
0
 10
2.00493
 20
1.0051
 30
0.0
 40
0.0104154
 41
0.0104154
  0
VERTEX
  8
0
 10
2.00493
 20
1.0676
 30
0.0
 40
0.0104154
 41
0.0104154
  0
VERTEX
  8
0
 10
2.06743
 20
1.0676
 30
0.0
 40
0.0104154
 41
0.0104154
  0
VERTEX
  8
0
 10
2.06743
 20
1.1926
 30
0.0
 40
0.0104154
 41
0.0104154
  0
VERTEX
  8
0
 10
2.25493
 20
1.1926
 30
0.0
 40
0.0104154
 41
0.0104154
  0
VERTEX
  8
0
 10
2.25493
 20
1.2551
 30
0.0
 40
0.0104154
 41
0.0104154
  0
VERTEX
  8
0
 10
2.19243
 20
1.2551
 30
0.0
 40
0.0104154
 41
0.0104154
  0
VERTEX
  8
0
 10
2.19243
 20
1.31755
 30
0.0
 40
0.0104154
 41
0.0104154
  0
VERTEX
  8
0
 10
2.00493
 20
1.31755
 30
0.0
 40
0.0104154
 41
0.0104154
  0
SEQEND
 8
0
  0
POLYLINE
  8
0
 62
     0
 66
     1
 10
0
 20
0
 30
0.0
 70
     1
 40
0.749906
 41
0.749906
  0
VERTEX
  8
0
 10
2.56739
 20
1.31755
 30
0.0
 40
0.0104154
 41
0.0104154
  0
VERTEX
  8
0
 10
2.56739
 20
1.1301
 30
0.0
 40
0.0104154
 41
0.0104154
  0
VERTEX
  8
0
 10
2.62989
 20
1.1301
 30
0.0
 40
0.0104154
 41
0.0104154
  0
VERTEX
  8
0
 10
2.62989
 20
1.1926
 30
0.0
 40
0.0104154
 41
0.0104154
  0
VERTEX
  8
0
 10
2.69239
 20
1.1926
 30
0.0
 40
0.0104154
 41
0.0104154
  0
VERTEX
  8
0
 10
2.69239
 20
1.2551
 30
0.0
 40
0.0104154
 41
0.0104154
  0
VERTEX
  8
0
 10
2.62989
 20
1.2551
 30
0.0
 40
0.0104154
 41
0.0104154
  0
VERTEX
  8
0
 10
2.62989
 20
1.31755
 30
0.0
 40
0.0104154
 41
0.0104154
  0
VERTEX
  8
0
 10
2.56739
 20
1.31755
 30
0.0
 40
0.0104154
 41
0.0104154
  0
SEQEND
 8
0
  0
POLYLINE
  8
0
 62
     0
 66
     1
 10
0
 20
0
 30
0.0
 70
     1
 40
0.749906
 41
0.749906
  0
VERTEX
  8
0
 10
0.192708
 20
1.2551
 30
0.0
 40
0.0104154
 41
0.0104154
  0
VERTEX
  8
0
 10
0.192708
 20
1.1926
 30
0.0
 40
0.0104154
 41
0.0104154
  0
VERTEX
  8
0
 10
0.317654
 20
1.1926
 30
0.0
 40
0.0104154
 41
0.0104154
  0
VERTEX
  8
0
 10
0.317654
 20
1.2551
 30
0.0
 40
0.0104154
 41
0.0104154
  0
VERTEX
  8
0
 10
0.192708
 20
1.2551
 30
0.0
 40
0.0104154
 41
0.0104154
  0
SEQEND
 8
0
  0
POLYLINE
  8
0
 62
     0
 66
     1
 10
0
 20
0
 30
0.0
 70
     1
 40
0.749906
 41
0.749906
  0
VERTEX
  8
0
 10
0.380154
 20
1.2551
 30
0.0
 40
0.0104154
 41
0.0104154
  0
VERTEX
  8
0
 10
0.380154
 20
1.1926
 30
0.0
 40
0.0104154
 41
0.0104154
  0
VERTEX
  8
0
 10
0.442654
 20
1.1926
 30
0.0
 40
0.0104154
 41
0.0104154
  0
VERTEX
  8
0
 10
0.442654
 20
1.2551
 30
0.0
 40
0.0104154
 41
0.0104154
  0
VERTEX
  8
0
 10
0.380154
 20
1.2551
 30
0.0
 40
0.0104154
 41
0.0104154
  0
SEQEND
 8
0
  0
POLYLINE
  8
0
 62
     0
 66
     1
 10
0
 20
0
 30
0.0
 70
     1
 40
0.749906
 41
0.749906
  0
VERTEX
  8
0
 10
0.567654
 20
1.2551
 30
0.0
 40
0.0104154
 41
0.0104154
  0
VERTEX
  8
0
 10
0.567654
 20
1.1301
 30
0.0
 40
0.0104154
 41
0.0104154
  0
VERTEX
  8
0
 10
0.630154
 20
1.1301
 30
0.0
 40
0.0104154
 41
0.0104154
  0
VERTEX
  8
0
 10
0.630154
 20
1.2551
 30
0.0
 40
0.0104154
 41
0.0104154
  0
VERTEX
  8
0
 10
0.567654
 20
1.2551
 30
0.0
 40
0.0104154
 41
0.0104154
  0
SEQEND
 8
0
  0
POLYLINE
  8
0
 62
     0
 66
     1
 10
0
 20
0
 30
0.0
 70
     1
 40
0.749906
 41
0.749906
  0
VERTEX
  8
0
 10
1.31755
 20
1.2551
 30
0.0
 40
0.0104154
 41
0.0104154
  0
VERTEX
  8
0
 10
1.31755
 20
1.1926
 30
0.0
 40
0.0104154
 41
0.0104154
  0
VERTEX
  8
0
 10
1.44254
 20
1.1926
 30
0.0
 40
0.0104154
 41
0.0104154
  0
VERTEX
  8
0
 10
1.44254
 20
1.1301
 30
0.0
 40
0.0104154
 41
0.0104154
  0
VERTEX
  8
0
 10
1.50504
 20
1.1301
 30
0.0
 40
0.0104154
 41
0.0104154
  0
VERTEX
  8
0
 10
1.50504
 20
1.2551
 30
0.0
 40
0.0104154
 41
0.0104154
  0
VERTEX
  8
0
 10
1.31755
 20
1.2551
 30
0.0
 40
0.0104154
 41
0.0104154
  0
SEQEND
 8
0
  0
POLYLINE
  8
0
 62
     0
 66
     1
 10
0
 20
0
 30
0.0
 70
     1
 40
0.749906
 41
0.749906
  0
VERTEX
  8
0
 10
2.37989
 20
1.2551
 30
0.0
 40
0.0104154
 41
0.0104154
  0
VERTEX
  8
0
 10
2.37989
 20
1.1926
 30
0.0
 40
0.0104154
 41
0.0104154
  0
VERTEX
  8
0
 10
2.50489
 20
1.1926
 30
0.0
 40
0.0104154
 41
0.0104154
  0
VERTEX
  8
0
 10
2.50489
 20
1.2551
 30
0.0
 40
0.0104154
 41
0.0104154
  0
VERTEX
  8
0
 10
2.37989
 20
1.2551
 30
0.0
 40
0.0104154
 41
0.0104154
  0
SEQEND
 8
0
  0
POLYLINE
  8
0
 62
     0
 66
     1
 10
0
 20
0
 30
0.0
 70
     1
 40
0.749906
 41
0.749906
  0
VERTEX
  8
0
 10
0.442654
 20
1.1926
 30
0.0
 40
0.0104154
 41
0.0104154
  0
VERTEX
  8
0
 10
0.442654
 20
1.1301
 30
0.0
 40
0.0104154
 41
0.0104154
  0
VERTEX
  8
0
 10
0.505154
 20
1.1301
 30
0.0
 40
0.0104154
 41
0.0104154
  0
VERTEX
  8
0
 10
0.505154
 20
1.1926
 30
0.0
 40
0.0104154
 41
0.0104154
  0
VERTEX
  8
0
 10
0.442654
 20
1.1926
 30
0.0
 40
0.0104154
 41
0.0104154
  0
SEQEND
 8
0
  0
POLYLINE
  8
0
 62
     0
 66
     1
 10
0
 20
0
 30
0.0
 70
     1
 40
0.749906
 41
0.749906
  0
VERTEX
  8
0
 10
2.25493
 20
1.1926
 30
0.0
 40
0.0104154
 41
0.0104154
  0
VERTEX
  8
0
 10
2.25493
 20
1.1301
 30
0.0
 40
0.0104154
 41
0.0104154
  0
VERTEX
  8
0
 10
2.31743
 20
1.1301
 30
0.0
 40
0.0104154
 41
0.0104154
  0
VERTEX
  8
0
 10
2.31743
 20
1.0676
 30
0.0
 40
0.0104154
 41
0.0104154
  0
VERTEX
  8
0
 10
2.37989
 20
1.0676
 30
0.0
 40
0.0104154
 41
0.0104154
  0
VERTEX
  8
0
 10
2.37989
 20
1.1926
 30
0.0
 40
0.0104154
 41
0.0104154
  0
VERTEX
  8
0
 10
2.25493
 20
1.1926
 30
0.0
 40
0.0104154
 41
0.0104154
  0
SEQEND
 8
0
  0
POLYLINE
  8
0
 62
     0
 66
     1
 10
0
 20
0
 30
0.0
 70
     1
 40
0.749906
 41
0.749906
  0
VERTEX
  8
0
 10
0.317654
 20
1.1301
 30
0.0
 40
0.0104154
 41
0.0104154
  0
VERTEX
  8
0
 10
0.317654
 20
1.0676
 30
0.0
 40
0.0104154
 41
0.0104154
  0
VERTEX
  8
0
 10
0.442654
 20
1.0676
 30
0.0
 40
0.0104154
 41
0.0104154
  0
VERTEX
  8
0
 10
0.442654
 20
1.1301
 30
0.0
 40
0.0104154
 41
0.0104154
  0
VERTEX
  8
0
 10
0.317654
 20
1.1301
 30
0.0
 40
0.0104154
 41
0.0104154
  0
SEQEND
 8
0
  0
POLYLINE
  8
0
 62
     0
 66
     1
 10
0
 20
0
 30
0.0
 70
     1
 40
0.749906
 41
0.749906
  0
VERTEX
  8
0
 10
0.6926
 20
1.1301
 30
0.0
 40
0.0104154
 41
0.0104154
  0
VERTEX
  8
0
 10
0.6926
 20
1.0676
 30
0.0
 40
0.0104154
 41
0.0104154
  0
VERTEX
  8
0
 10
0.7551
 20
1.0676
 30
0.0
 40
0.0104154
 41
0.0104154
  0
VERTEX
  8
0
 10
0.7551
 20
1.1301
 30
0.0
 40
0.0104154
 41
0.0104154
  0
VERTEX
  8
0
 10
0.6926
 20
1.1301
 30
0.0
 40
0.0104154
 41
0.0104154
  0
SEQEND
 8
0
  0
POLYLINE
  8
0
 62
     0
 66
     1
 10
0
 20
0
 30
0.0
 70
     1
 40
0.749906
 41
0.749906
  0
VERTEX
  8
0
 10
1.13005
 20
1.1301
 30
0.0
 40
0.0104154
 41
0.0104154
  0
VERTEX
  8
0
 10
1.13005
 20
1.0676
 30
0.0
 40
0.0104154
 41
0.0104154
  0
VERTEX
  8
0
 10
1.19255
 20
1.0676
 30
0.0
 40
0.0104154
 41
0.0104154
  0
VERTEX
  8
0
 10
1.19255
 20
1.1301
 30
0.0
 40
0.0104154
 41
0.0104154
  0
VERTEX
  8
0
 10
1.13005
 20
1.1301
 30
0.0
 40
0.0104154
 41
0.0104154
  0
SEQEND
 8
0
  0
POLYLINE
  8
0
 62
     0
 66
     1
 10
0
 20
0
 30
0.0
 70
     1
 40
0.749906
 41
0.749906
  0
VERTEX
  8
0
 10
1.38005
 20
1.1301
 30
0.0
 40
0.0104154
 41
0.0104154
  0
VERTEX
  8
0
 10
1.38005
 20
1.0676
 30
0.0
 40
0.0104154
 41
0.0104154
  0
VERTEX
  8
0
 10
1.19255
 20
1.0676
 30
0.0
 40
0.0104154
 41
0.0104154
  0
VERTEX
  8
0
 10
1.19255
 20
0.9426
 30
0.0
 40
0.0104154
 41
0.0104154
  0
VERTEX
  8
0
 10
1.25505
 20
0.9426
 30
0.0
 40
0.0104154
 41
0.0104154
  0
VERTEX
  8
0
 10
1.25505
 20
0.8801
 30
0.0
 40
0.0104154
 41
0.0104154
  0
VERTEX
  8
0
 10
1.31755
 20
0.8801
 30
0.0
 40
0.0104154
 41
0.0104154
  0
VERTEX
  8
0
 10
1.31755
 20
0.9426
 30
0.0
 40
0.0104154
 41
0.0104154
  0
VERTEX
  8
0
 10
1.38005
 20
0.9426
 30
0.0
 40
0.0104154
 41
0.0104154
  0
VERTEX
  8
0
 10
1.38005
 20
1.0051
 30
0.0
 40
0.0104154
 41
0.0104154
  0
VERTEX
  8
0
 10
1.56749
 20
1.0051
 30
0.0
 40
0.0104154
 41
0.0104154
  0
VERTEX
  8
0
 10
1.56749
 20
1.0676
 30
0.0
 40
0.0104154
 41
0.0104154
  0
VERTEX
  8
0
 10
1.44254
 20
1.0676
 30
0.0
 40
0.0104154
 41
0.0104154
  0
VERTEX
  8
0
 10
1.44254
 20
1.1301
 30
0.0
 40
0.0104154
 41
0.0104154
  0
VERTEX
  8
0
 10
1.38005
 20
1.1301
 30
0.0
 40
0.0104154
 41
0.0104154
  0
SEQEND
 8
0
  0
POLYLINE
  8
0
 62
     0
 66
     1
 10
0
 20
0
 30
0.0
 70
     1
 40
0.749906
 41
0.749906
  0
VERTEX
  8
0
 10
1.81749
 20
1.1301
 30
0.0
 40
0.0104154
 41
0.0104154
  0
VERTEX
  8
0
 10
1.81749
 20
1.0051
 30
0.0
 40
0.0104154
 41
0.0104154
  0
VERTEX
  8
0
 10
1.87999
 20
1.0051
 30
0.0
 40
0.0104154
 41
0.0104154
  0
VERTEX
  8
0
 10
1.87999
 20
1.1301
 30
0.0
 40
0.0104154
 41
0.0104154
  0
VERTEX
  8
0
 10
1.81749
 20
1.1301
 30
0.0
 40
0.0104154
 41
0.0104154
  0
SEQEND
 8
0
  0
POLYLINE
  8
0
 62
     0
 66
     1
 10
0
 20
0
 30
0.0
 70
     1
 40
0.749906
 41
0.749906
  0
VERTEX
  8
0
 10
2.44239
 20
1.1301
 30
0.0
 40
0.0104154
 41
0.0104154
  0
VERTEX
  8
0
 10
2.44239
 20
1.0051
 30
0.0
 40
0.0104154
 41
0.0104154
  0
VERTEX
  8
0
 10
2.56739
 20
1.0051
 30
0.0
 40
0.0104154
 41
0.0104154
  0
VERTEX
  8
0
 10
2.56739
 20
0.9426
 30
0.0
 40
0.0104154
 41
0.0104154
  0
VERTEX
  8
0
 10
2.50489
 20
0.9426
 30
0.0
 40
0.0104154
 41
0.0104154
  0
VERTEX
  8
0
 10
2.50489
 20
0.817654
 30
0.0
 40
0.0104154
 41
0.0104154
  0
VERTEX
  8
0
 10
2.56739
 20
0.817654
 30
0.0
 40
0.0104154
 41
0.0104154
  0
VERTEX
  8
0
 10
2.56739
 20
0.8801
 30
0.0
 40
0.0104154
 41
0.0104154
  0
VERTEX
  8
0
 10
2.62989
 20
0.8801
 30
0.0
 40
0.0104154
 41
0.0104154
  0
VERTEX
  8
0
 10
2.62989
 20
0.817654
 30
0.0
 40
0.0104154
 41
0.0104154
  0
VERTEX
  8
0
 10
2.75489
 20
0.817654
 30
0.0
 40
0.0104154
 41
0.0104154
  0
VERTEX
  8
0
 10
2.75489
 20
1.0051
 30
0.0
 40
0.0104154
 41
0.0104154
  0
VERTEX
  8
0
 10
2.62989
 20
1.0051
 30
0.0
 40
0.0104154
 41
0.0104154
  0
VERTEX
  8
0
 10
2.62989
 20
1.0676
 30
0.0
 40
0.0104154
 41
0.0104154
  0
VERTEX
  8
0
 10
2.50489
 20
1.0676
 30
0.0
 40
0.0104154
 41
0.0104154
  0
VERTEX
  8
0
 10
2.50489
 20
1.1301
 30
0.0
 40
0.0104154
 41
0.0104154
  0
VERTEX
  8
0
 10
2.44239
 20
1.1301
 30
0.0
 40
0.0104154
 41
0.0104154
  0
SEQEND
 8
0
  0
POLYLINE
  8
0
 62
     0
 66
     1
 10
0
 20
0
 30
0.0
 70
     1
 40
0.749906
 41
0.749906
  0
VERTEX
  8
0
 10
0.630154
 20
1.0676
 30
0.0
 40
0.0104154
 41
0.0104154
  0
VERTEX
  8
0
 10
0.630154
 20
1.0051
 30
0.0
 40
0.0104154
 41
0.0104154
  0
VERTEX
  8
0
 10
0.6926
 20
1.0051
 30
0.0
 40
0.0104154
 41
0.0104154
  0
VERTEX
  8
0
 10
0.6926
 20
1.0676
 30
0.0
 40
0.0104154
 41
0.0104154
  0
VERTEX
  8
0
 10
0.630154
 20
1.0676
 30
0.0
 40
0.0104154
 41
0.0104154
  0
SEQEND
 8
0
  0
POLYLINE
  8
0
 62
     0
 66
     1
 10
0
 20
0
 30
0.0
 70
     1
 40
0.749906
 41
0.749906
  0
VERTEX
  8
0
 10
0.7551
 20
1.0676
 30
0.0
 40
0.0104154
 41
0.0104154
  0
VERTEX
  8
0
 10
0.7551
 20
1.0051
 30
0.0
 40
0.0104154
 41
0.0104154
  0
VERTEX
  8
0
 10
0.8176
 20
1.0051
 30
0.0
 40
0.0104154
 41
0.0104154
  0
VERTEX
  8
0
 10
0.8176
 20
1.0676
 30
0.0
 40
0.0104154
 41
0.0104154
  0
VERTEX
  8
0
 10
0.7551
 20
1.0676
 30
0.0
 40
0.0104154
 41
0.0104154
  0
SEQEND
 8
0
  0
POLYLINE
  8
0
 62
     0
 66
     1
 10
0
 20
0
 30
0.0
 70
     1
 40
0.749906
 41
0.749906
  0
VERTEX
  8
0
 10
0.8801
 20
1.0676
 30
0.0
 40
0.0104154
 41
0.0104154
  0
VERTEX
  8
0
 10
0.8801
 20
0.9426
 30
0.0
 40
0.0104154
 41
0.0104154
  0
VERTEX
  8
0
 10
0.9426
 20
0.9426
 30
0.0
 40
0.0104154
 41
0.0104154
  0
VERTEX
  8
0
 10
0.9426
 20
0.817654
 30
0.0
 40
0.0104154
 41
0.0104154
  0
VERTEX
  8
0
 10
0.8801
 20
0.817654
 30
0.0
 40
0.0104154
 41
0.0104154
  0
VERTEX
  8
0
 10
0.8801
 20
0.755154
 30
0.0
 40
0.0104154
 41
0.0104154
  0
VERTEX
  8
0
 10
0.9426
 20
0.755154
 30
0.0
 40
0.0104154
 41
0.0104154
  0
VERTEX
  8
0
 10
0.9426
 20
0.692654
 30
0.0
 40
0.0104154
 41
0.0104154
  0
VERTEX
  8
0
 10
0.8176
 20
0.692654
 30
0.0
 40
0.0104154
 41
0.0104154
  0
VERTEX
  8
0
 10
0.8176
 20
0.755154
 30
0.0
 40
0.0104154
 41
0.0104154
  0
VERTEX
  8
0
 10
0.7551
 20
0.755154
 30
0.0
 40
0.0104154
 41
0.0104154
  0
VERTEX
  8
0
 10
0.7551
 20
0.630154
 30
0.0
 40
0.0104154
 41
0.0104154
  0
VERTEX
  8
0
 10
0.6926
 20
0.630154
 30
0.0
 40
0.0104154
 41
0.0104154
  0
VERTEX
  8
0
 10
0.6926
 20
0.567654
 30
0.0
 40
0.0104154
 41
0.0104154
  0
VERTEX
  8
0
 10
0.630154
 20
0.567654
 30
0.0
 40
0.0104154
 41
0.0104154
  0
VERTEX
  8
0
 10
0.630154
 20
0.505154
 30
0.0
 40
0.0104154
 41
0.0104154
  0
VERTEX
  8
0
 10
0.6926
 20
0.505154
 30
0.0
 40
0.0104154
 41
0.0104154
  0
VERTEX
  8
0
 10
0.6926
 20
0.442654
 30
0.0
 40
0.0104154
 41
0.0104154
  0
VERTEX
  8
0
 10
0.7551
 20
0.442654
 30
0.0
 40
0.0104154
 41
0.0104154
  0
VERTEX
  8
0
 10
0.7551
 20
0.567654
 30
0.0
 40
0.0104154
 41
0.0104154
  0
VERTEX
  8
0
 10
0.8176
 20
0.567654
 30
0.0
 40
0.0104154
 41
0.0104154
  0
VERTEX
  8
0
 10
0.8176
 20
0.630154
 30
0.0
 40
0.0104154
 41
0.0104154
  0
VERTEX
  8
0
 10
0.8801
 20
0.630154
 30
0.0
 40
0.0104154
 41
0.0104154
  0
VERTEX
  8
0
 10
0.8801
 20
0.567654
 30
0.0
 40
0.0104154
 41
0.0104154
  0
VERTEX
  8
0
 10
1.0051
 20
0.567654
 30
0.0
 40
0.0104154
 41
0.0104154
  0
VERTEX
  8
0
 10
1.0051
 20
0.8801
 30
0.0
 40
0.0104154
 41
0.0104154
  0
VERTEX
  8
0
 10
1.0676
 20
0.8801
 30
0.0
 40
0.0104154
 41
0.0104154
  0
VERTEX
  8
0
 10
1.0676
 20
0.9426
 30
0.0
 40
0.0104154
 41
0.0104154
  0
VERTEX
  8
0
 10
1.13005
 20
0.9426
 30
0.0
 40
0.0104154
 41
0.0104154
  0
VERTEX
  8
0
 10
1.13005
 20
1.0051
 30
0.0
 40
0.0104154
 41
0.0104154
  0
VERTEX
  8
0
 10
0.9426
 20
1.0051
 30
0.0
 40
0.0104154
 41
0.0104154
  0
VERTEX
  8
0
 10
0.9426
 20
1.0676
 30
0.0
 40
0.0104154
 41
0.0104154
  0
VERTEX
  8
0
 10
0.8801
 20
1.0676
 30
0.0
 40
0.0104154
 41
0.0104154
  0
SEQEND
 8
0
  0
POLYLINE
  8
0
 62
     0
 66
     1
 10
0
 20
0
 30
0.0
 70
     1
 40
0.749906
 41
0.749906
  0
VERTEX
  8
0
 10
1.62999
 20
1.0676
 30
0.0
 40
0.0104154
 41
0.0104154
  0
VERTEX
  8
0
 10
1.62999
 20
1.0051
 30
0.0
 40
0.0104154
 41
0.0104154
  0
VERTEX
  8
0
 10
1.69249
 20
1.0051
 30
0.0
 40
0.0104154
 41
0.0104154
  0
VERTEX
  8
0
 10
1.69249
 20
1.0676
 30
0.0
 40
0.0104154
 41
0.0104154
  0
VERTEX
  8
0
 10
1.62999
 20
1.0676
 30
0.0
 40
0.0104154
 41
0.0104154
  0
SEQEND
 8
0
  0
POLYLINE
  8
0
 62
     0
 66
     1
 10
0
 20
0
 30
0.0
 70
     1
 40
0.749906
 41
0.749906
  0
VERTEX
  8
0
 10
0.505154
 20
1.0051
 30
0.0
 40
0.0104154
 41
0.0104154
  0
VERTEX
  8
0
 10
0.505154
 20
0.8801
 30
0.0
 40
0.0104154
 41
0.0104154
  0
VERTEX
  8
0
 10
0.567654
 20
0.8801
 30
0.0
 40
0.0104154
 41
0.0104154
  0
VERTEX
  8
0
 10
0.567654
 20
0.9426
 30
0.0
 40
0.0104154
 41
0.0104154
  0
VERTEX
  8
0
 10
0.630154
 20
0.9426
 30
0.0
 40
0.0104154
 41
0.0104154
  0
VERTEX
  8
0
 10
0.630154
 20
1.0051
 30
0.0
 40
0.0104154
 41
0.0104154
  0
VERTEX
  8
0
 10
0.505154
 20
1.0051
 30
0.0
 40
0.0104154
 41
0.0104154
  0
SEQEND
 8
0
  0
POLYLINE
  8
0
 62
     0
 66
     1
 10
0
 20
0
 30
0.0
 70
     1
 40
0.749906
 41
0.749906
  0
VERTEX
  8
0
 10
1.56749
 20
1.0051
 30
0.0
 40
0.0104154
 41
0.0104154
  0
VERTEX
  8
0
 10
1.56749
 20
0.9426
 30
0.0
 40
0.0104154
 41
0.0104154
  0
VERTEX
  8
0
 10
1.44254
 20
0.9426
 30
0.0
 40
0.0104154
 41
0.0104154
  0
VERTEX
  8
0
 10
1.44254
 20
0.8801
 30
0.0
 40
0.0104154
 41
0.0104154
  0
VERTEX
  8
0
 10
1.69249
 20
0.8801
 30
0.0
 40
0.0104154
 41
0.0104154
  0
VERTEX
  8
0
 10
1.69249
 20
0.9426
 30
0.0
 40
0.0104154
 41
0.0104154
  0
VERTEX
  8
0
 10
1.62999
 20
0.9426
 30
0.0
 40
0.0104154
 41
0.0104154
  0
VERTEX
  8
0
 10
1.62999
 20
1.0051
 30
0.0
 40
0.0104154
 41
0.0104154
  0
VERTEX
  8
0
 10
1.56749
 20
1.0051
 30
0.0
 40
0.0104154
 41
0.0104154
  0
SEQEND
 8
0
  0
POLYLINE
  8
0
 62
     0
 66
     1
 10
0
 20
0
 30
0.0
 70
     1
 40
0.749906
 41
0.749906
  0
VERTEX
  8
0
 10
1.69249
 20
1.0051
 30
0.0
 40
0.0104154
 41
0.0104154
  0
VERTEX
  8
0
 10
1.69249
 20
0.9426
 30
0.0
 40
0.0104154
 41
0.0104154
  0
VERTEX
  8
0
 10
1.81749
 20
0.9426
 30
0.0
 40
0.0104154
 41
0.0104154
  0
VERTEX
  8
0
 10
1.81749
 20
1.0051
 30
0.0
 40
0.0104154
 41
0.0104154
  0
VERTEX
  8
0
 10
1.69249
 20
1.0051
 30
0.0
 40
0.0104154
 41
0.0104154
  0
SEQEND
 8
0
  0
POLYLINE
  8
0
 62
     0
 66
     1
 10
0
 20
0
 30
0.0
 70
     1
 40
0.749906
 41
0.749906
  0
VERTEX
  8
0
 10
2.00493
 20
1.0051
 30
0.0
 40
0.0104154
 41
0.0104154
  0
VERTEX
  8
0
 10
2.00493
 20
0.8801
 30
0.0
 40
0.0104154
 41
0.0104154
  0
VERTEX
  8
0
 10
2.06743
 20
0.8801
 30
0.0
 40
0.0104154
 41
0.0104154
  0
VERTEX
  8
0
 10
2.06743
 20
1.0051
 30
0.0
 40
0.0104154
 41
0.0104154
  0
VERTEX
  8
0
 10
2.00493
 20
1.0051
 30
0.0
 40
0.0104154
 41
0.0104154
  0
SEQEND
 8
0
  0
POLYLINE
  8
0
 62
     0
 66
     1
 10
0
 20
0
 30
0.0
 70
     1
 40
0.749906
 41
0.749906
  0
VERTEX
  8
0
 10
2.19243
 20
1.0051
 30
0.0
 40
0.0104154
 41
0.0104154
  0
VERTEX
  8
0
 10
2.19243
 20
0.9426
 30
0.0
 40
0.0104154
 41
0.0104154
  0
VERTEX
  8
0
 10
2.25493
 20
0.9426
 30
0.0
 40
0.0104154
 41
0.0104154
  0
VERTEX
  8
0
 10
2.25493
 20
0.8801
 30
0.0
 40
0.0104154
 41
0.0104154
  0
VERTEX
  8
0
 10
2.12993
 20
0.8801
 30
0.0
 40
0.0104154
 41
0.0104154
  0
VERTEX
  8
0
 10
2.12993
 20
0.755154
 30
0.0
 40
0.0104154
 41
0.0104154
  0
VERTEX
  8
0
 10
2.00493
 20
0.755154
 30
0.0
 40
0.0104154
 41
0.0104154
  0
VERTEX
  8
0
 10
2.00493
 20
0.817654
 30
0.0
 40
0.0104154
 41
0.0104154
  0
VERTEX
  8
0
 10
1.94249
 20
0.817654
 30
0.0
 40
0.0104154
 41
0.0104154
  0
VERTEX
  8
0
 10
1.94249
 20
0.692654
 30
0.0
 40
0.0104154
 41
0.0104154
  0
VERTEX
  8
0
 10
2.06743
 20
0.692654
 30
0.0
 40
0.0104154
 41
0.0104154
  0
VERTEX
  8
0
 10
2.06743
 20
0.567654
 30
0.0
 40
0.0104154
 41
0.0104154
  0
VERTEX
  8
0
 10
2.12993
 20
0.567654
 30
0.0
 40
0.0104154
 41
0.0104154
  0
VERTEX
  8
0
 10
2.12993
 20
0.630154
 30
0.0
 40
0.0104154
 41
0.0104154
  0
VERTEX
  8
0
 10
2.19243
 20
0.630154
 30
0.0
 40
0.0104154
 41
0.0104154
  0
VERTEX
  8
0
 10
2.19243
 20
0.817654
 30
0.0
 40
0.0104154
 41
0.0104154
  0
VERTEX
  8
0
 10
2.31743
 20
0.817654
 30
0.0
 40
0.0104154
 41
0.0104154
  0
VERTEX
  8
0
 10
2.31743
 20
0.692654
 30
0.0
 40
0.0104154
 41
0.0104154
  0
VERTEX
  8
0
 10
2.37989
 20
0.692654
 30
0.0
 40
0.0104154
 41
0.0104154
  0
VERTEX
  8
0
 10
2.37989
 20
0.567654
 30
0.0
 40
0.0104154
 41
0.0104154
  0
VERTEX
  8
0
 10
2.44239
 20
0.567654
 30
0.0
 40
0.0104154
 41
0.0104154
  0
VERTEX
  8
0
 10
2.44239
 20
0.817654
 30
0.0
 40
0.0104154
 41
0.0104154
  0
VERTEX
  8
0
 10
2.37989
 20
0.817654
 30
0.0
 40
0.0104154
 41
0.0104154
  0
VERTEX
  8
0
 10
2.37989
 20
0.8801
 30
0.0
 40
0.0104154
 41
0.0104154
  0
VERTEX
  8
0
 10
2.31743
 20
0.8801
 30
0.0
 40
0.0104154
 41
0.0104154
  0
VERTEX
  8
0
 10
2.31743
 20
0.9426
 30
0.0
 40
0.0104154
 41
0.0104154
  0
VERTEX
  8
0
 10
2.37989
 20
0.9426
 30
0.0
 40
0.0104154
 41
0.0104154
  0
VERTEX
  8
0
 10
2.37989
 20
1.0051
 30
0.0
 40
0.0104154
 41
0.0104154
  0
VERTEX
  8
0
 10
2.19243
 20
1.0051
 30
0.0
 40
0.0104154
 41
0.0104154
  0
SEQEND
 8
0
  0
POLYLINE
  8
0
 62
     0
 66
     1
 10
0
 20
0
 30
0.0
 70
     1
 40
0.749906
 41
0.749906
  0
VERTEX
  8
0
 10
0.630154
 20
0.9426
 30
0.0
 40
0.0104154
 41
0.0104154
  0
VERTEX
  8
0
 10
0.630154
 20
0.8801
 30
0.0
 40
0.0104154
 41
0.0104154
  0
VERTEX
  8
0
 10
0.7551
 20
0.8801
 30
0.0
 40
0.0104154
 41
0.0104154
  0
VERTEX
  8
0
 10
0.7551
 20
0.9426
 30
0.0
 40
0.0104154
 41
0.0104154
  0
VERTEX
  8
0
 10
0.630154
 20
0.9426
 30
0.0
 40
0.0104154
 41
0.0104154
  0
SEQEND
 8
0
  0
POLYLINE
  8
0
 62
     0
 66
     1
 10
0
 20
0
 30
0.0
 70
     1
 40
0.749906
 41
0.749906
  0
VERTEX
  8
0
 10
1.81749
 20
0.9426
 30
0.0
 40
0.0104154
 41
0.0104154
  0
VERTEX
  8
0
 10
1.81749
 20
0.8801
 30
0.0
 40
0.0104154
 41
0.0104154
  0
VERTEX
  8
0
 10
1.87999
 20
0.8801
 30
0.0
 40
0.0104154
 41
0.0104154
  0
VERTEX
  8
0
 10
1.87999
 20
0.9426
 30
0.0
 40
0.0104154
 41
0.0104154
  0
VERTEX
  8
0
 10
1.81749
 20
0.9426
 30
0.0
 40
0.0104154
 41
0.0104154
  0
SEQEND
 8
0
  0
POLYLINE
  8
0
 62
     0
 66
     1
 10
0
 20
0
 30
0.0
 70
     1
 40
0.749906
 41
0.749906
  0
VERTEX
  8
0
 10
2.37989
 20
0.9426
 30
0.0
 40
0.0104154
 41
0.0104154
  0
VERTEX
  8
0
 10
2.37989
 20
0.8801
 30
0.0
 40
0.0104154
 41
0.0104154
  0
VERTEX
  8
0
 10
2.44239
 20
0.8801
 30
0.0
 40
0.0104154
 41
0.0104154
  0
VERTEX
  8
0
 10
2.44239
 20
0.9426
 30
0.0
 40
0.0104154
 41
0.0104154
  0
VERTEX
  8
0
 10
2.37989
 20
0.9426
 30
0.0
 40
0.0104154
 41
0.0104154
  0
SEQEND
 8
0
  0
POLYLINE
  8
0
 62
     0
 66
     1
 10
0
 20
0
 30
0.0
 70
     1
 40
0.749906
 41
0.749906
  0
VERTEX
  8
0
 10
0.7551
 20
0.8801
 30
0.0
 40
0.0104154
 41
0.0104154
  0
VERTEX
  8
0
 10
0.7551
 20
0.817654
 30
0.0
 40
0.0104154
 41
0.0104154
  0
VERTEX
  8
0
 10
0.8801
 20
0.817654
 30
0.0
 40
0.0104154
 41
0.0104154
  0
VERTEX
  8
0
 10
0.8801
 20
0.8801
 30
0.0
 40
0.0104154
 41
0.0104154
  0
VERTEX
  8
0
 10
0.7551
 20
0.8801
 30
0.0
 40
0.0104154
 41
0.0104154
  0
SEQEND
 8
0
  0
POLYLINE
  8
0
 62
     0
 66
     1
 10
0
 20
0
 30
0.0
 70
     1
 40
0.749906
 41
0.749906
  0
VERTEX
  8
0
 10
1.13005
 20
0.8801
 30
0.0
 40
0.0104154
 41
0.0104154
  0
VERTEX
  8
0
 10
1.13005
 20
0.817654
 30
0.0
 40
0.0104154
 41
0.0104154
  0
VERTEX
  8
0
 10
1.19255
 20
0.817654
 30
0.0
 40
0.0104154
 41
0.0104154
  0
VERTEX
  8
0
 10
1.19255
 20
0.755154
 30
0.0
 40
0.0104154
 41
0.0104154
  0
VERTEX
  8
0
 10
1.31755
 20
0.755154
 30
0.0
 40
0.0104154
 41
0.0104154
  0
VERTEX
  8
0
 10
1.31755
 20
0.692654
 30
0.0
 40
0.0104154
 41
0.0104154
  0
VERTEX
  8
0
 10
1.44254
 20
0.692654
 30
0.0
 40
0.0104154
 41
0.0104154
  0
VERTEX
  8
0
 10
1.44254
 20
0.630154
 30
0.0
 40
0.0104154
 41
0.0104154
  0
VERTEX
  8
0
 10
1.38005
 20
0.630154
 30
0.0
 40
0.0104154
 41
0.0104154
  0
VERTEX
  8
0
 10
1.38005
 20
0.567654
 30
0.0
 40
0.0104154
 41
0.0104154
  0
VERTEX
  8
0
 10
1.56749
 20
0.567654
 30
0.0
 40
0.0104154
 41
0.0104154
  0
VERTEX
  8
0
 10
1.56749
 20
0.505154
 30
0.0
 40
0.0104154
 41
0.0104154
  0
VERTEX
  8
0
 10
1.62999
 20
0.505154
 30
0.0
 40
0.0104154
 41
0.0104154
  0
VERTEX
  8
0
 10
1.62999
 20
0.442654
 30
0.0
 40
0.0104154
 41
0.0104154
  0
VERTEX
  8
0
 10
1.75499
 20
0.442654
 30
0.0
 40
0.0104154
 41
0.0104154
  0
VERTEX
  8
0
 10
1.75499
 20
0.505154
 30
0.0
 40
0.0104154
 41
0.0104154
  0
VERTEX
  8
0
 10
1.69249
 20
0.505154
 30
0.0
 40
0.0104154
 41
0.0104154
  0
VERTEX
  8
0
 10
1.69249
 20
0.567654
 30
0.0
 40
0.0104154
 41
0.0104154
  0
VERTEX
  8
0
 10
1.62999
 20
0.567654
 30
0.0
 40
0.0104154
 41
0.0104154
  0
VERTEX
  8
0
 10
1.62999
 20
0.630154
 30
0.0
 40
0.0104154
 41
0.0104154
  0
VERTEX
  8
0
 10
1.69249
 20
0.630154
 30
0.0
 40
0.0104154
 41
0.0104154
  0
VERTEX
  8
0
 10
1.69249
 20
0.567654
 30
0.0
 40
0.0104154
 41
0.0104154
  0
VERTEX
  8
0
 10
1.81749
 20
0.567654
 30
0.0
 40
0.0104154
 41
0.0104154
  0
VERTEX
  8
0
 10
1.81749
 20
0.630154
 30
0.0
 40
0.0104154
 41
0.0104154
  0
VERTEX
  8
0
 10
1.75499
 20
0.630154
 30
0.0
 40
0.0104154
 41
0.0104154
  0
VERTEX
  8
0
 10
1.75499
 20
0.755154
 30
0.0
 40
0.0104154
 41
0.0104154
  0
VERTEX
  8
0
 10
1.69249
 20
0.755154
 30
0.0
 40
0.0104154
 41
0.0104154
  0
VERTEX
  8
0
 10
1.69249
 20
0.817654
 30
0.0
 40
0.0104154
 41
0.0104154
  0
VERTEX
  8
0
 10
1.56749
 20
0.817654
 30
0.0
 40
0.0104154
 41
0.0104154
  0
VERTEX
  8
0
 10
1.56749
 20
0.755154
 30
0.0
 40
0.0104154
 41
0.0104154
  0
VERTEX
  8
0
 10
1.62999
 20
0.755154
 30
0.0
 40
0.0104154
 41
0.0104154
  0
VERTEX
  8
0
 10
1.62999
 20
0.692654
 30
0.0
 40
0.0104154
 41
0.0104154
  0
VERTEX
  8
0
 10
1.56749
 20
0.692654
 30
0.0
 40
0.0104154
 41
0.0104154
  0
VERTEX
  8
0
 10
1.56749
 20
0.630154
 30
0.0
 40
0.0104154
 41
0.0104154
  0
VERTEX
  8
0
 10
1.50504
 20
0.630154
 30
0.0
 40
0.0104154
 41
0.0104154
  0
VERTEX
  8
0
 10
1.50504
 20
0.692654
 30
0.0
 40
0.0104154
 41
0.0104154
  0
VERTEX
  8
0
 10
1.56749
 20
0.692654
 30
0.0
 40
0.0104154
 41
0.0104154
  0
VERTEX
  8
0
 10
1.56749
 20
0.755154
 30
0.0
 40
0.0104154
 41
0.0104154
  0
VERTEX
  8
0
 10
1.38005
 20
0.755154
 30
0.0
 40
0.0104154
 41
0.0104154
  0
VERTEX
  8
0
 10
1.38005
 20
0.817654
 30
0.0
 40
0.0104154
 41
0.0104154
  0
VERTEX
  8
0
 10
1.25505
 20
0.817654
 30
0.0
 40
0.0104154
 41
0.0104154
  0
VERTEX
  8
0
 10
1.25505
 20
0.8801
 30
0.0
 40
0.0104154
 41
0.0104154
  0
VERTEX
  8
0
 10
1.13005
 20
0.8801
 30
0.0
 40
0.0104154
 41
0.0104154
  0
SEQEND
 8
0
  0
POLYLINE
  8
0
 62
     0
 66
     1
 10
0
 20
0
 30
0.0
 70
     1
 40
0.749906
 41
0.749906
  0
VERTEX
  8
0
 10
1.69249
 20
0.8801
 30
0.0
 40
0.0104154
 41
0.0104154
  0
VERTEX
  8
0
 10
1.69249
 20
0.817654
 30
0.0
 40
0.0104154
 41
0.0104154
  0
VERTEX
  8
0
 10
1.75499
 20
0.817654
 30
0.0
 40
0.0104154
 41
0.0104154
  0
VERTEX
  8
0
 10
1.75499
 20
0.8801
 30
0.0
 40
0.0104154
 41
0.0104154
  0
VERTEX
  8
0
 10
1.69249
 20
0.8801
 30
0.0
 40
0.0104154
 41
0.0104154
  0
SEQEND
 8
0
  0
POLYLINE
  8
0
 62
     0
 66
     1
 10
0
 20
0
 30
0.0
 70
     1
 40
0.749906
 41
0.749906
  0
VERTEX
  8
0
 10
0.505154
 20
0.817654
 30
0.0
 40
0.0104154
 41
0.0104154
  0
VERTEX
  8
0
 10
0.505154
 20
0.567654
 30
0.0
 40
0.0104154
 41
0.0104154
  0
VERTEX
  8
0
 10
0.630154
 20
0.567654
 30
0.0
 40
0.0104154
 41
0.0104154
  0
VERTEX
  8
0
 10
0.630154
 20
0.692654
 30
0.0
 40
0.0104154
 41
0.0104154
  0
VERTEX
  8
0
 10
0.6926
 20
0.692654
 30
0.0
 40
0.0104154
 41
0.0104154
  0
VERTEX
  8
0
 10
0.6926
 20
0.755154
 30
0.0
 40
0.0104154
 41
0.0104154
  0
VERTEX
  8
0
 10
0.630154
 20
0.755154
 30
0.0
 40
0.0104154
 41
0.0104154
  0
VERTEX
  8
0
 10
0.630154
 20
0.817654
 30
0.0
 40
0.0104154
 41
0.0104154
  0
VERTEX
  8
0
 10
0.505154
 20
0.817654
 30
0.0
 40
0.0104154
 41
0.0104154
  0
SEQEND
 8
0
  0
POLYLINE
  8
0
 62
     0
 66
     1
 10
0
 20
0
 30
0.0
 70
     1
 40
0.749906
 41
0.749906
  0
VERTEX
  8
0
 10
0.6926
 20
0.817654
 30
0.0
 40
0.0104154
 41
0.0104154
  0
VERTEX
  8
0
 10
0.6926
 20
0.755154
 30
0.0
 40
0.0104154
 41
0.0104154
  0
VERTEX
  8
0
 10
0.7551
 20
0.755154
 30
0.0
 40
0.0104154
 41
0.0104154
  0
VERTEX
  8
0
 10
0.7551
 20
0.817654
 30
0.0
 40
0.0104154
 41
0.0104154
  0
VERTEX
  8
0
 10
0.6926
 20
0.817654
 30
0.0
 40
0.0104154
 41
0.0104154
  0
SEQEND
 8
0
  0
POLYLINE
  8
0
 62
     0
 66
     1
 10
0
 20
0
 30
0.0
 70
     1
 40
0.749906
 41
0.749906
  0
VERTEX
  8
0
 10
1.0676
 20
0.817654
 30
0.0
 40
0.0104154
 41
0.0104154
  0
VERTEX
  8
0
 10
1.0676
 20
0.692654
 30
0.0
 40
0.0104154
 41
0.0104154
  0
VERTEX
  8
0
 10
1.13005
 20
0.692654
 30
0.0
 40
0.0104154
 41
0.0104154
  0
VERTEX
  8
0
 10
1.13005
 20
0.817654
 30
0.0
 40
0.0104154
 41
0.0104154
  0
VERTEX
  8
0
 10
1.0676
 20
0.817654
 30
0.0
 40
0.0104154
 41
0.0104154
  0
SEQEND
 8
0
  0
POLYLINE
  8
0
 62
     0
 66
     1
 10
0
 20
0
 30
0.0
 70
     1
 40
0.749906
 41
0.749906
  0
VERTEX
  8
0
 10
1.75499
 20
0.817654
 30
0.0
 40
0.0104154
 41
0.0104154
  0
VERTEX
  8
0
 10
1.75499
 20
0.755154
 30
0.0
 40
0.0104154
 41
0.0104154
  0
VERTEX
  8
0
 10
1.87999
 20
0.755154
 30
0.0
 40
0.0104154
 41
0.0104154
  0
VERTEX
  8
0
 10
1.87999
 20
0.817654
 30
0.0
 40
0.0104154
 41
0.0104154
  0
VERTEX
  8
0
 10
1.75499
 20
0.817654
 30
0.0
 40
0.0104154
 41
0.0104154
  0
SEQEND
 8
0
  0
POLYLINE
  8
0
 62
     0
 66
     1
 10
0
 20
0
 30
0.0
 70
     1
 40
0.749906
 41
0.749906
  0
VERTEX
  8
0
 10
2.56739
 20
0.755154
 30
0.0
 40
0.0104154
 41
0.0104154
  0
VERTEX
  8
0
 10
2.56739
 20
0.692654
 30
0.0
 40
0.0104154
 41
0.0104154
  0
VERTEX
  8
0
 10
2.62989
 20
0.692654
 30
0.0
 40
0.0104154
 41
0.0104154
  0
VERTEX
  8
0
 10
2.62989
 20
0.755154
 30
0.0
 40
0.0104154
 41
0.0104154
  0
VERTEX
  8
0
 10
2.56739
 20
0.755154
 30
0.0
 40
0.0104154
 41
0.0104154
  0
SEQEND
 8
0
  0
POLYLINE
  8
0
 62
     0
 66
     1
 10
0
 20
0
 30
0.0
 70
     1
 40
0.749906
 41
0.749906
  0
VERTEX
  8
0
 10
1.13005
 20
0.692654
 30
0.0
 40
0.0104154
 41
0.0104154
  0
VERTEX
  8
0
 10
1.13005
 20
0.630154
 30
0.0
 40
0.0104154
 41
0.0104154
  0
VERTEX
  8
0
 10
1.0676
 20
0.630154
 30
0.0
 40
0.0104154
 41
0.0104154
  0
VERTEX
  8
0
 10
1.0676
 20
0.567654
 30
0.0
 40
0.0104154
 41
0.0104154
  0
VERTEX
  8
0
 10
1.19255
 20
0.567654
 30
0.0
 40
0.0104154
 41
0.0104154
  0
VERTEX
  8
0
 10
1.19255
 20
0.630154
 30
0.0
 40
0.0104154
 41
0.0104154
  0
VERTEX
  8
0
 10
1.25505
 20
0.630154
 30
0.0
 40
0.0104154
 41
0.0104154
  0
VERTEX
  8
0
 10
1.25505
 20
0.567654
 30
0.0
 40
0.0104154
 41
0.0104154
  0
VERTEX
  8
0
 10
1.31755
 20
0.567654
 30
0.0
 40
0.0104154
 41
0.0104154
  0
VERTEX
  8
0
 10
1.31755
 20
0.692654
 30
0.0
 40
0.0104154
 41
0.0104154
  0
VERTEX
  8
0
 10
1.13005
 20
0.692654
 30
0.0
 40
0.0104154
 41
0.0104154
  0
SEQEND
 8
0
  0
POLYLINE
  8
0
 62
     0
 66
     1
 10
0
 20
0
 30
0.0
 70
     1
 40
0.749906
 41
0.749906
  0
VERTEX
  8
0
 10
1.87999
 20
0.692654
 30
0.0
 40
0.0104154
 41
0.0104154
  0
VERTEX
  8
0
 10
1.87999
 20
0.567654
 30
0.0
 40
0.0104154
 41
0.0104154
  0
VERTEX
  8
0
 10
1.94249
 20
0.567654
 30
0.0
 40
0.0104154
 41
0.0104154
  0
VERTEX
  8
0
 10
1.94249
 20
0.692654
 30
0.0
 40
0.0104154
 41
0.0104154
  0
VERTEX
  8
0
 10
1.87999
 20
0.692654
 30
0.0
 40
0.0104154
 41
0.0104154
  0
SEQEND
 8
0
  0
POLYLINE
  8
0
 62
     0
 66
     1
 10
0
 20
0
 30
0.0
 70
     1
 40
0.749906
 41
0.749906
  0
VERTEX
  8
0
 10
2.25493
 20
0.692654
 30
0.0
 40
0.0104154
 41
0.0104154
  0
VERTEX
  8
0
 10
2.25493
 20
0.567654
 30
0.0
 40
0.0104154
 41
0.0104154
  0
VERTEX
  8
0
 10
2.31743
 20
0.567654
 30
0.0
 40
0.0104154
 41
0.0104154
  0
VERTEX
  8
0
 10
2.31743
 20
0.692654
 30
0.0
 40
0.0104154
 41
0.0104154
  0
VERTEX
  8
0
 10
2.25493
 20
0.692654
 30
0.0
 40
0.0104154
 41
0.0104154
  0
SEQEND
 8
0
  0
POLYLINE
  8
0
 62
     0
 66
     1
 10
0
 20
0
 30
0.0
 70
     1
 40
0.749906
 41
0.749906
  0
VERTEX
  8
0
 10
0.317654
 20
0.692654
 30
0.0
 40
0.0104154
 41
0.0104154
  0
VERTEX
  8
0
 10
0.317654
 20
0.505154
 30
0.0
 40
0.0104154
 41
0.0104154
  0
VERTEX
  8
0
 10
0.192708
 20
0.505154
 30
0.0
 40
0.0104154
 41
0.0104154
  0
VERTEX
  8
0
 10
0.192708
 20
0.567654
 30
0.0
 40
0.0104154
 41
0.0104154
  0
VERTEX
  8
0
 10
0.0677083
 20
0.567654
 30
0.0
 40
0.0104154
 41
0.0104154
  0
VERTEX
  8
0
 10
0.0677083
 20
0.505154
 30
0.0
 40
0.0104154
 41
0.0104154
  0
VERTEX
  8
0
 10
0.00520833
 20
0.505154
 30
0.0
 40
0.0104154
 41
0.0104154
  0
VERTEX
  8
0
 10
0.00520833
 20
0.567654
 30
0.0
 40
0.0104154
 41
0.0104154
  0
VERTEX
  8
0
 10
0.0677083
 20
0.567654
 30
0.0
 40
0.0104154
 41
0.0104154
  0
VERTEX
  8
0
 10
0.0677083
 20
0.630154
 30
0.0
 40
0.0104154
 41
0.0104154
  0
VERTEX
  8
0
 10
0.255154
 20
0.630154
 30
0.0
 40
0.0104154
 41
0.0104154
  0
VERTEX
  8
0
 10
0.255154
 20
0.692654
 30
0.0
 40
0.0104154
 41
0.0104154
  0
VERTEX
  8
0
 10
0.317654
 20
0.692654
 30
0.0
 40
0.0104154
 41
0.0104154
  0
SEQEND
 8
0
  0
POLYLINE
  8
0
 62
     0
 66
     1
 10
0
 20
0
 30
0.0
 70
     1
 40
0.749906
 41
0.749906
  0
VERTEX
  8
0
 10
1.19255
 20
0.567654
 30
0.0
 40
0.0104154
 41
0.0104154
  0
VERTEX
  8
0
 10
1.19255
 20
0.505154
 30
0.0
 40
0.0104154
 41
0.0104154
  0
VERTEX
  8
0
 10
1.25505
 20
0.505154
 30
0.0
 40
0.0104154
 41
0.0104154
  0
VERTEX
  8
0
 10
1.25505
 20
0.567654
 30
0.0
 40
0.0104154
 41
0.0104154
  0
VERTEX
  8
0
 10
1.19255
 20
0.567654
 30
0.0
 40
0.0104154
 41
0.0104154
  0
SEQEND
 8
0
  0
POLYLINE
  8
0
 62
     0
 66
     1
 10
0
 20
0
 30
0.0
 70
     1
 40
0.749906
 41
0.749906
  0
VERTEX
  8
0
 10
1.81749
 20
0.567654
 30
0.0
 40
0.0104154
 41
0.0104154
  0
VERTEX
  8
0
 10
1.81749
 20
0.505154
 30
0.0
 40
0.0104154
 41
0.0104154
  0
VERTEX
  8
0
 10
1.87999
 20
0.505154
 30
0.0
 40
0.0104154
 41
0.0104154
  0
VERTEX
  8
0
 10
1.87999
 20
0.567654
 30
0.0
 40
0.0104154
 41
0.0104154
  0
VERTEX
  8
0
 10
1.81749
 20
0.567654
 30
0.0
 40
0.0104154
 41
0.0104154
  0
SEQEND
 8
0
  0
POLYLINE
  8
0
 62
     0
 66
     1
 10
0
 20
0
 30
0.0
 70
     1
 40
0.749906
 41
0.749906
  0
VERTEX
  8
0
 10
1.94249
 20
0.567654
 30
0.0
 40
0.0104154
 41
0.0104154
  0
VERTEX
  8
0
 10
1.94249
 20
0.505154
 30
0.0
 40
0.0104154
 41
0.0104154
  0
VERTEX
  8
0
 10
2.00493
 20
0.505154
 30
0.0
 40
0.0104154
 41
0.0104154
  0
VERTEX
  8
0
 10
2.00493
 20
0.567654
 30
0.0
 40
0.0104154
 41
0.0104154
  0
VERTEX
  8
0
 10
1.94249
 20
0.567654
 30
0.0
 40
0.0104154
 41
0.0104154
  0
SEQEND
 8
0
  0
POLYLINE
  8
0
 62
     0
 66
     1
 10
0
 20
0
 30
0.0
 70
     1
 40
0.749906
 41
0.749906
  0
VERTEX
  8
0
 10
1.0051
 20
0.505154
 30
0.0
 40
0.0104154
 41
0.0104154
  0
VERTEX
  8
0
 10
1.0051
 20
0.442654
 30
0.0
 40
0.0104154
 41
0.0104154
  0
VERTEX
  8
0
 10
0.9426
 20
0.442654
 30
0.0
 40
0.0104154
 41
0.0104154
  0
VERTEX
  8
0
 10
0.9426
 20
0.380154
 30
0.0
 40
0.0104154
 41
0.0104154
  0
VERTEX
  8
0
 10
0.8801
 20
0.380154
 30
0.0
 40
0.0104154
 41
0.0104154
  0
VERTEX
  8
0
 10
0.8801
 20
0.442654
 30
0.0
 40
0.0104154
 41
0.0104154
  0
VERTEX
  8
0
 10
0.8176
 20
0.442654
 30
0.0
 40
0.0104154
 41
0.0104154
  0
VERTEX
  8
0
 10
0.8176
 20
0.317654
 30
0.0
 40
0.0104154
 41
0.0104154
  0
VERTEX
  8
0
 10
0.8801
 20
0.317654
 30
0.0
 40
0.0104154
 41
0.0104154
  0
VERTEX
  8
0
 10
0.8801
 20
0.255154
 30
0.0
 40
0.0104154
 41
0.0104154
  0
VERTEX
  8
0
 10
0.8176
 20
0.255154
 30
0.0
 40
0.0104154
 41
0.0104154
  0
VERTEX
  8
0
 10
0.8176
 20
0.192654
 30
0.0
 40
0.0104154
 41
0.0104154
  0
VERTEX
  8
0
 10
0.9426
 20
0.192654
 30
0.0
 40
0.0104154
 41
0.0104154
  0
VERTEX
  8
0
 10
0.9426
 20
0.255154
 30
0.0
 40
0.0104154
 41
0.0104154
  0
VERTEX
  8
0
 10
1.0051
 20
0.255154
 30
0.0
 40
0.0104154
 41
0.0104154
  0
VERTEX
  8
0
 10
1.0051
 20
0.380154
 30
0.0
 40
0.0104154
 41
0.0104154
  0
VERTEX
  8
0
 10
1.13005
 20
0.380154
 30
0.0
 40
0.0104154
 41
0.0104154
  0
VERTEX
  8
0
 10
1.13005
 20
0.317654
 30
0.0
 40
0.0104154
 41
0.0104154
  0
VERTEX
  8
0
 10
1.19255
 20
0.317654
 30
0.0
 40
0.0104154
 41
0.0104154
  0
VERTEX
  8
0
 10
1.19255
 20
0.255154
 30
0.0
 40
0.0104154
 41
0.0104154
  0
VERTEX
  8
0
 10
1.25505
 20
0.255154
 30
0.0
 40
0.0104154
 41
0.0104154
  0
VERTEX
  8
0
 10
1.25505
 20
0.442654
 30
0.0
 40
0.0104154
 41
0.0104154
  0
VERTEX
  8
0
 10
1.13005
 20
0.442654
 30
0.0
 40
0.0104154
 41
0.0104154
  0
VERTEX
  8
0
 10
1.13005
 20
0.505154
 30
0.0
 40
0.0104154
 41
0.0104154
  0
VERTEX
  8
0
 10
1.0051
 20
0.505154
 30
0.0
 40
0.0104154
 41
0.0104154
  0
SEQEND
 8
0
  0
POLYLINE
  8
0
 62
     0
 66
     1
 10
0
 20
0
 30
0.0
 70
     1
 40
0.749906
 41
0.749906
  0
VERTEX
  8
0
 10
1.31755
 20
0.505154
 30
0.0
 40
0.0104154
 41
0.0104154
  0
VERTEX
  8
0
 10
1.31755
 20
0.317654
 30
0.0
 40
0.0104154
 41
0.0104154
  0
VERTEX
  8
0
 10
1.50504
 20
0.317654
 30
0.0
 40
0.0104154
 41
0.0104154
  0
VERTEX
  8
0
 10
1.50504
 20
0.505154
 30
0.0
 40
0.0104154
 41
0.0104154
  0
VERTEX
  8
0
 10
1.31755
 20
0.505154
 30
0.0
 40
0.0104154
 41
0.0104154
  0
SEQEND
 8
0
  0
POLYLINE
  8
0
 62
     0
 66
     1
 10
0
 20
0
 30
0.0
 70
     1
 40
0.749906
 41
0.749906
  0
VERTEX
  8
0
 10
1.87999
 20
0.505154
 30
0.0
 40
0.0104154
 41
0.0104154
  0
VERTEX
  8
0
 10
1.87999
 20
0.442654
 30
0.0
 40
0.0104154
 41
0.0104154
  0
VERTEX
  8
0
 10
1.94249
 20
0.442654
 30
0.0
 40
0.0104154
 41
0.0104154
  0
VERTEX
  8
0
 10
1.94249
 20
0.505154
 30
0.0
 40
0.0104154
 41
0.0104154
  0
VERTEX
  8
0
 10
1.87999
 20
0.505154
 30
0.0
 40
0.0104154
 41
0.0104154
  0
SEQEND
 8
0
  0
POLYLINE
  8
0
 62
     0
 66
     1
 10
0
 20
0
 30
0.0
 70
     1
 40
0.749906
 41
0.749906
  0
VERTEX
  8
0
 10
2.12993
 20
0.505154
 30
0.0
 40
0.0104154
 41
0.0104154
  0
VERTEX
  8
0
 10
2.12993
 20
0.442654
 30
0.0
 40
0.0104154
 41
0.0104154
  0
VERTEX
  8
0
 10
2.25493
 20
0.442654
 30
0.0
 40
0.0104154
 41
0.0104154
  0
VERTEX
  8
0
 10
2.25493
 20
0.505154
 30
0.0
 40
0.0104154
 41
0.0104154
  0
VERTEX
  8
0
 10
2.12993
 20
0.505154
 30
0.0
 40
0.0104154
 41
0.0104154
  0
SEQEND
 8
0
  0
POLYLINE
  8
0
 62
     0
 66
     1
 10
0
 20
0
 30
0.0
 70
     1
 40
0.749906
 41
0.749906
  0
VERTEX
  8
0
 10
2.31743
 20
0.505154
 30
0.0
 40
0.0104154
 41
0.0104154
  0
VERTEX
  8
0
 10
2.31743
 20
0.317654
 30
0.0
 40
0.0104154
 41
0.0104154
  0
VERTEX
  8
0
 10
2.50489
 20
0.317654
 30
0.0
 40
0.0104154
 41
0.0104154
  0
VERTEX
  8
0
 10
2.50489
 20
0.505154
 30
0.0
 40
0.0104154
 41
0.0104154
  0
VERTEX
  8
0
 10
2.31743
 20
0.505154
 30
0.0
 40
0.0104154
 41
0.0104154
  0
SEQEND
 8
0
  0
POLYLINE
  8
0
 62
     0
 66
     1
 10
0
 20
0
 30
0.0
 70
     1
 40
0.749906
 41
0.749906
  0
VERTEX
  8
0
 10
1.56749
 20
0.442654
 30
0.0
 40
0.0104154
 41
0.0104154
  0
VERTEX
  8
0
 10
1.56749
 20
0.380154
 30
0.0
 40
0.0104154
 41
0.0104154
  0
VERTEX
  8
0
 10
1.62999
 20
0.380154
 30
0.0
 40
0.0104154
 41
0.0104154
  0
VERTEX
  8
0
 10
1.62999
 20
0.442654
 30
0.0
 40
0.0104154
 41
0.0104154
  0
VERTEX
  8
0
 10
1.56749
 20
0.442654
 30
0.0
 40
0.0104154
 41
0.0104154
  0
SEQEND
 8
0
  0
POLYLINE
  8
0
 62
     0
 66
     1
 10
0
 20
0
 30
0.0
 70
     1
 40
0.749906
 41
0.749906
  0
VERTEX
  8
0
 10
1.75499
 20
0.442654
 30
0.0
 40
0.0104154
 41
0.0104154
  0
VERTEX
  8
0
 10
1.75499
 20
0.380154
 30
0.0
 40
0.0104154
 41
0.0104154
  0
VERTEX
  8
0
 10
1.81749
 20
0.380154
 30
0.0
 40
0.0104154
 41
0.0104154
  0
VERTEX
  8
0
 10
1.81749
 20
0.442654
 30
0.0
 40
0.0104154
 41
0.0104154
  0
VERTEX
  8
0
 10
1.75499
 20
0.442654
 30
0.0
 40
0.0104154
 41
0.0104154
  0
SEQEND
 8
0
  0
POLYLINE
  8
0
 62
     0
 66
     1
 10
0
 20
0
 30
0.0
 70
     1
 40
0.749906
 41
0.749906
  0
VERTEX
  8
0
 10
2.06743
 20
0.442654
 30
0.0
 40
0.0104154
 41
0.0104154
  0
VERTEX
  8
0
 10
2.06743
 20
0.380154
 30
0.0
 40
0.0104154
 41
0.0104154
  0
VERTEX
  8
0
 10
2.12993
 20
0.380154
 30
0.0
 40
0.0104154
 41
0.0104154
  0
VERTEX
  8
0
 10
2.12993
 20
0.442654
 30
0.0
 40
0.0104154
 41
0.0104154
  0
VERTEX
  8
0
 10
2.06743
 20
0.442654
 30
0.0
 40
0.0104154
 41
0.0104154
  0
SEQEND
 8
0
  0
POLYLINE
  8
0
 62
     0
 66
     1
 10
0
 20
0
 30
0.0
 70
     1
 40
0.749906
 41
0.749906
  0
VERTEX
  8
0
 10
0.442654
 20
0.442654
 30
0.0
 40
0.0104154
 41
0.0104154
  0
VERTEX
  8
0
 10
0.442654
 20
0.00520833
 30
0.0
 40
0.0104154
 41
0.0104154
  0
VERTEX
  8
0
 10
0.00520833
 20
0.00520833
 30
0.0
 40
0.0104154
 41
0.0104154
  0
VERTEX
  8
0
 10
0.00520833
 20
0.442654
 30
0.0
 40
0.0104154
 41
0.0104154
  0
VERTEX
  8
0
 10
0.442654
 20
0.442654
 30
0.0
 40
0.0104154
 41
0.0104154
  0
SEQEND
 8
0
  0
POLYLINE
  8
0
 62
     0
 66
     1
 10
0
 20
0
 30
0.0
 70
     1
 40
0.749906
 41
0.749906
  0
VERTEX
  8
0
 10
1.44254
 20
0.442654
 30
0.0
 40
0.0104154
 41
0.0104154
  0
VERTEX
  8
0
 10
1.44254
 20
0.380154
 30
0.0
 40
0.0104154
 41
0.0104154
  0
VERTEX
  8
0
 10
1.38005
 20
0.380154
 30
0.0
 40
0.0104154
 41
0.0104154
  0
VERTEX
  8
0
 10
1.38005
 20
0.442654
 30
0.0
 40
0.0104154
 41
0.0104154
  0
VERTEX
  8
0
 10
1.44254
 20
0.442654
 30
0.0
 40
0.0104154
 41
0.0104154
  0
SEQEND
 8
0
  0
POLYLINE
  8
0
 62
     0
 66
     1
 10
0
 20
0
 30
0.0
 70
     1
 40
0.749906
 41
0.749906
  0
VERTEX
  8
0
 10
2.44239
 20
0.442654
 30
0.0
 40
0.0104154
 41
0.0104154
  0
VERTEX
  8
0
 10
2.44239
 20
0.380154
 30
0.0
 40
0.0104154
 41
0.0104154
  0
VERTEX
  8
0
 10
2.37989
 20
0.380154
 30
0.0
 40
0.0104154
 41
0.0104154
  0
VERTEX
  8
0
 10
2.37989
 20
0.442654
 30
0.0
 40
0.0104154
 41
0.0104154
  0
VERTEX
  8
0
 10
2.44239
 20
0.442654
 30
0.0
 40
0.0104154
 41
0.0104154
  0
SEQEND
 8
0
  0
POLYLINE
  8
0
 62
     0
 66
     1
 10
0
 20
0
 30
0.0
 70
     1
 40
0.749906
 41
0.749906
  0
VERTEX
  8
0
 10
0.0677083
 20
0.380154
 30
0.0
 40
0.0104154
 41
0.0104154
  0
VERTEX
  8
0
 10
0.0677083
 20
0.067654
 30
0.0
 40
0.0104154
 41
0.0104154
  0
VERTEX
  8
0
 10
0.380154
 20
0.067654
 30
0.0
 40
0.0104154
 41
0.0104154
  0
VERTEX
  8
0
 10
0.380154
 20
0.380154
 30
0.0
 40
0.0104154
 41
0.0104154
  0
VERTEX
  8
0
 10
0.0677083
 20
0.380154
 30
0.0
 40
0.0104154
 41
0.0104154
  0
SEQEND
 8
0
  0
POLYLINE
  8
0
 62
     0
 66
     1
 10
0
 20
0
 30
0.0
 70
     1
 40
0.749906
 41
0.749906
  0
VERTEX
  8
0
 10
1.62999
 20
0.380154
 30
0.0
 40
0.0104154
 41
0.0104154
  0
VERTEX
  8
0
 10
1.62999
 20
0.317654
 30
0.0
 40
0.0104154
 41
0.0104154
  0
VERTEX
  8
0
 10
1.56749
 20
0.317654
 30
0.0
 40
0.0104154
 41
0.0104154
  0
VERTEX
  8
0
 10
1.56749
 20
0.192654
 30
0.0
 40
0.0104154
 41
0.0104154
  0
VERTEX
  8
0
 10
1.62999
 20
0.192654
 30
0.0
 40
0.0104154
 41
0.0104154
  0
VERTEX
  8
0
 10
1.62999
 20
0.255154
 30
0.0
 40
0.0104154
 41
0.0104154
  0
VERTEX
  8
0
 10
1.69249
 20
0.255154
 30
0.0
 40
0.0104154
 41
0.0104154
  0
VERTEX
  8
0
 10
1.69249
 20
0.380154
 30
0.0
 40
0.0104154
 41
0.0104154
  0
VERTEX
  8
0
 10
1.62999
 20
0.380154
 30
0.0
 40
0.0104154
 41
0.0104154
  0
SEQEND
 8
0
  0
POLYLINE
  8
0
 62
     0
 66
     1
 10
0
 20
0
 30
0.0
 70
     1
 40
0.749906
 41
0.749906
  0
VERTEX
  8
0
 10
1.81749
 20
0.380154
 30
0.0
 40
0.0104154
 41
0.0104154
  0
VERTEX
  8
0
 10
1.81749
 20
0.317654
 30
0.0
 40
0.0104154
 41
0.0104154
  0
VERTEX
  8
0
 10
1.87999
 20
0.317654
 30
0.0
 40
0.0104154
 41
0.0104154
  0
VERTEX
  8
0
 10
1.87999
 20
0.380154
 30
0.0
 40
0.0104154
 41
0.0104154
  0
VERTEX
  8
0
 10
1.81749
 20
0.380154
 30
0.0
 40
0.0104154
 41
0.0104154
  0
SEQEND
 8
0
  0
POLYLINE
  8
0
 62
     0
 66
     1
 10
0
 20
0
 30
0.0
 70
     1
 40
0.749906
 41
0.749906
  0
VERTEX
  8
0
 10
1.0676
 20
0.317654
 30
0.0
 40
0.0104154
 41
0.0104154
  0
VERTEX
  8
0
 10
1.0676
 20
0.255154
 30
0.0
 40
0.0104154
 41
0.0104154
  0
VERTEX
  8
0
 10
1.13005
 20
0.255154
 30
0.0
 40
0.0104154
 41
0.0104154
  0
VERTEX
  8
0
 10
1.13005
 20
0.317654
 30
0.0
 40
0.0104154
 41
0.0104154
  0
VERTEX
  8
0
 10
1.0676
 20
0.317654
 30
0.0
 40
0.0104154
 41
0.0104154
  0
SEQEND
 8
0
  0
POLYLINE
  8
0
 62
     0
 66
     1
 10
0
 20
0
 30
0.0
 70
     1
 40
0.749906
 41
0.749906
  0
VERTEX
  8
0
 10
2.06743
 20
0.317654
 30
0.0
 40
0.0104154
 41
0.0104154
  0
VERTEX
  8
0
 10
2.06743
 20
0.255154
 30
0.0
 40
0.0104154
 41
0.0104154
  0
VERTEX
  8
0
 10
2.12993
 20
0.255154
 30
0.0
 40
0.0104154
 41
0.0104154
  0
VERTEX
  8
0
 10
2.12993
 20
0.317654
 30
0.0
 40
0.0104154
 41
0.0104154
  0
VERTEX
  8
0
 10
2.06743
 20
0.317654
 30
0.0
 40
0.0104154
 41
0.0104154
  0
SEQEND
 8
0
  0
POLYLINE
  8
0
 62
     0
 66
     1
 10
0
 20
0
 30
0.0
 70
     1
 40
0.749906
 41
0.749906
  0
VERTEX
  8
0
 10
0.317654
 20
0.317654
 30
0.0
 40
0.0104154
 41
0.0104154
  0
VERTEX
  8
0
 10
0.317654
 20
0.130154
 30
0.0
 40
0.0104154
 41
0.0104154
  0
VERTEX
  8
0
 10
0.130208
 20
0.130154
 30
0.0
 40
0.0104154
 41
0.0104154
  0
VERTEX
  8
0
 10
0.130208
 20
0.317654
 30
0.0
 40
0.0104154
 41
0.0104154
  0
VERTEX
  8
0
 10
0.317654
 20
0.317654
 30
0.0
 40
0.0104154
 41
0.0104154
  0
SEQEND
 8
0
  0
POLYLINE
  8
0
 62
     0
 66
     1
 10
0
 20
0
 30
0.0
 70
     1
 40
0.749906
 41
0.749906
  0
VERTEX
  8
0
 10
1.69249
 20
0.255154
 30
0.0
 40
0.0104154
 41
0.0104154
  0
VERTEX
  8
0
 10
1.69249
 20
0.192654
 30
0.0
 40
0.0104154
 41
0.0104154
  0
VERTEX
  8
0
 10
1.75499
 20
0.192654
 30
0.0
 40
0.0104154
 41
0.0104154
  0
VERTEX
  8
0
 10
1.75499
 20
0.255154
 30
0.0
 40
0.0104154
 41
0.0104154
  0
VERTEX
  8
0
 10
1.69249
 20
0.255154
 30
0.0
 40
0.0104154
 41
0.0104154
  0
SEQEND
 8
0
  0
POLYLINE
  8
0
 62
     0
 66
     1
 10
0
 20
0
 30
0.0
 70
     1
 40
0.749906
 41
0.749906
  0
VERTEX
  8
0
 10
0.9426
 20
0.192654
 30
0.0
 40
0.0104154
 41
0.0104154
  0
VERTEX
  8
0
 10
0.9426
 20
0.067654
 30
0.0
 40
0.0104154
 41
0.0104154
  0
VERTEX
  8
0
 10
1.0676
 20
0.067654
 30
0.0
 40
0.0104154
 41
0.0104154
  0
VERTEX
  8
0
 10
1.0676
 20
0.130154
 30
0.0
 40
0.0104154
 41
0.0104154
  0
VERTEX
  8
0
 10
1.0051
 20
0.130154
 30
0.0
 40
0.0104154
 41
0.0104154
  0
VERTEX
  8
0
 10
1.0051
 20
0.192654
 30
0.0
 40
0.0104154
 41
0.0104154
  0
VERTEX
  8
0
 10
0.9426
 20
0.192654
 30
0.0
 40
0.0104154
 41
0.0104154
  0
SEQEND
 8
0
  0
POLYLINE
  8
0
 62
     0
 66
     1
 10
0
 20
0
 30
0.0
 70
     1
 40
0.749906
 41
0.749906
  0
VERTEX
  8
0
 10
2.81733
 20
0.192654
 30
0.0
 40
0.0104154
 41
0.0104154
  0
VERTEX
  8
0
 10
2.81733
 20
0.130154
 30
0.0
 40
0.0104154
 41
0.0104154
  0
VERTEX
  8
0
 10
2.75489
 20
0.130154
 30
0.0
 40
0.0104154
 41
0.0104154
  0
VERTEX
  8
0
 10
2.75489
 20
0.00520833
 30
0.0
 40
0.0104154
 41
0.0104154
  0
VERTEX
  8
0
 10
2.62989
 20
0.00520833
 30
0.0
 40
0.0104154
 41
0.0104154
  0
VERTEX
  8
0
 10
2.62989
 20
0.067654
 30
0.0
 40
0.0104154
 41
0.0104154
  0
VERTEX
  8
0
 10
2.56739
 20
0.067654
 30
0.0
 40
0.0104154
 41
0.0104154
  0
VERTEX
  8
0
 10
2.56739
 20
0.00520833
 30
0.0
 40
0.0104154
 41
0.0104154
  0
VERTEX
  8
0
 10
2.25493
 20
0.00520833
 30
0.0
 40
0.0104154
 41
0.0104154
  0
VERTEX
  8
0
 10
2.25493
 20
0.067654
 30
0.0
 40
0.0104154
 41
0.0104154
  0
VERTEX
  8
0
 10
2.31743
 20
0.067654
 30
0.0
 40
0.0104154
 41
0.0104154
  0
VERTEX
  8
0
 10
2.31743
 20
0.130154
 30
0.0
 40
0.0104154
 41
0.0104154
  0
VERTEX
  8
0
 10
2.44239
 20
0.130154
 30
0.0
 40
0.0104154
 41
0.0104154
  0
VERTEX
  8
0
 10
2.44239
 20
0.192654
 30
0.0
 40
0.0104154
 41
0.0104154
  0
VERTEX
  8
0
 10
2.81733
 20
0.192654
 30
0.0
 40
0.0104154
 41
0.0104154
  0
SEQEND
 8
0
  0
POLYLINE
  8
0
 62
     0
 66
     1
 10
0
 20
0
 30
0.0
 70
     1
 40
0.749906
 41
0.749906
  0
VERTEX
  8
0
 10
0.8176
 20
0.130154
 30
0.0
 40
0.0104154
 41
0.0104154
  0
VERTEX
  8
0
 10
0.8176
 20
0.067654
 30
0.0
 40
0.0104154
 41
0.0104154
  0
VERTEX
  8
0
 10
0.8801
 20
0.067654
 30
0.0
 40
0.0104154
 41
0.0104154
  0
VERTEX
  8
0
 10
0.8801
 20
0.130154
 30
0.0
 40
0.0104154
 41
0.0104154
  0
VERTEX
  8
0
 10
0.8176
 20
0.130154
 30
0.0
 40
0.0104154
 41
0.0104154
  0
SEQEND
 8
0
  0
POLYLINE
  8
0
 62
     0
 66
     1
 10
0
 20
0
 30
0.0
 70
     1
 40
0.749906
 41
0.749906
  0
VERTEX
  8
0
 10
2.50489
 20
0.130154
 30
0.0
 40
0.0104154
 41
0.0104154
  0
VERTEX
  8
0
 10
2.50489
 20
0.067654
 30
0.0
 40
0.0104154
 41
0.0104154
  0
VERTEX
  8
0
 10
2.56739
 20
0.067654
 30
0.0
 40
0.0104154
 41
0.0104154
  0
VERTEX
  8
0
 10
2.56739
 20
0.130154
 30
0.0
 40
0.0104154
 41
0.0104154
  0
VERTEX
  8
0
 10
2.50489
 20
0.130154
 30
0.0
 40
0.0104154
 41
0.0104154
  0
SEQEND
 8
0
  0
POLYLINE
  8
0
 62
     0
 66
     1
 10
0
 20
0
 30
0.0
 70
     1
 40
0.749906
 41
0.749906
  0
VERTEX
  8
0
 10
2.62989
 20
0.130154
 30
0.0
 40
0.0104154
 41
0.0104154
  0
VERTEX
  8
0
 10
2.62989
 20
0.067654
 30
0.0
 40
0.0104154
 41
0.0104154
  0
VERTEX
  8
0
 10
2.69239
 20
0.067654
 30
0.0
 40
0.0104154
 41
0.0104154
  0
VERTEX
  8
0
 10
2.69239
 20
0.130154
 30
0.0
 40
0.0104154
 41
0.0104154
  0
VERTEX
  8
0
 10
2.62989
 20
0.130154
 30
0.0
 40
0.0104154
 41
0.0104154
  0
SEQEND
 8
0
  0
POLYLINE
  8
0
 62
     0
 66
     1
 10
0
 20
0
 30
0.0
 70
     1
 40
0.749906
 41
0.749906
  0
VERTEX
  8
0
 10
0.567654
 20
0.130154
 30
0.0
 40
0.0104154
 41
0.0104154
  0
VERTEX
  8
0
 10
0.567654
 20
0.067654
 30
0.0
 40
0.0104154
 41
0.0104154
  0
VERTEX
  8
0
 10
0.630154
 20
0.067654
 30
0.0
 40
0.0104154
 41
0.0104154
  0
VERTEX
  8
0
 10
0.630154
 20
0.130154
 30
0.0
 40
0.0104154
 41
0.0104154
  0
VERTEX
  8
0
 10
0.6926
 20
0.130154
 30
0.0
 40
0.0104154
 41
0.0104154
  0
VERTEX
  8
0
 10
0.6926
 20
0.067654
 30
0.0
 40
0.0104154
 41
0.0104154
  0
VERTEX
  8
0
 10
0.630154
 20
0.067654
 30
0.0
 40
0.0104154
 41
0.0104154
  0
VERTEX
  8
0
 10
0.630154
 20
0.00520833
 30
0.0
 40
0.0104154
 41
0.0104154
  0
VERTEX
  8
0
 10
0.505154
 20
0.00520833
 30
0.0
 40
0.0104154
 41
0.0104154
  0
VERTEX
  8
0
 10
0.505154
 20
0.130154
 30
0.0
 40
0.0104154
 41
0.0104154
  0
VERTEX
  8
0
 10
0.567654
 20
0.130154
 30
0.0
 40
0.0104154
 41
0.0104154
  0
SEQEND
 8
0
  0
POLYLINE
  8
0
 62
     0
 66
     1
 10
0
 20
0
 30
0.0
 70
     1
 40
0.749906
 41
0.749906
  0
VERTEX
  8
0
 10
2.06743
 20
0.067654
 30
0.0
 40
0.0104154
 41
0.0104154
  0
VERTEX
  8
0
 10
2.06743
 20
0.00520833
 30
0.0
 40
0.0104154
 41
0.0104154
  0
VERTEX
  8
0
 10
2.00493
 20
0.00520833
 30
0.0
 40
0.0104154
 41
0.0104154
  0
VERTEX
  8
0
 10
2.00493
 20
0.067654
 30
0.0
 40
0.0104154
 41
0.0104154
  0
VERTEX
  8
0
 10
2.06743
 20
0.067654
 30
0.0
 40
0.0104154
 41
0.0104154
  0
SEQEND
 8
0
  0
ENDSEC
  0
EOF
