  0
SECTION
  2
HEADER
  9
$ACADVER
  1
AC1014
  9
$ACADMAINTVER
 70
           0
  9
$DWGCODEPAGE
  3
ANSI_1252
  9
$INSBASE
 10
0.0
 20
0.0
 30
0.0
  9
$EXTMIN
 10
-120.68364968912
 20
-40.592511490333
 30
0.0
  9
$EXTMAX
 10
42.64448186737
 20
104.320019920819
 30
0.0
  9
$LIMMIN
 10
-120.68364968912
 20
-40.592511490333
  9
$LIMMAX
 10
42.64448186737
 20
104.320019920819
  9
$ORTHOMODE
 70
           0
  9
$REGENMODE
 70
           1
  9
$FILLMODE
 70
           1
  9
$QTEXTMODE
 70
           0
  9
$MIRRTEXT
 70
           1
  9
$DRAGMODE
 70
           2
  9
$LTSCALE
 40
1.0
  9
$OSMODE
 70
           0
  9
$ATTMODE
 70
           1
  9
$TEXTSIZE
 40
0.2
  9
$TRACEWID
 40
0.05
  9
$TEXTSTYLE
  7
STANDARD
  9
$CLAYER
  8
0
  9
$CELTYPE
  6
CONTINUOUS
  9
$CECOLOR
 62
         256
  9
$CELTSCALE
 40
1.0
  9
$DELOBJ
 70
           1
  9
$DISPSILH
 70
           0
  9
$DIMSCALE
 40
1.0
  9
$DIMASZ
 40
0.18
  9
$DIMEXO
 40
0.0625
  9
$DIMDLI
 40
0.38
  9
$DIMRND
 40
0.0
  9
$DIMDLE
 40
0.0
  9
$DIMEXE
 40
0.18
  9
$DIMTP
 40
0.0
  9
$DIMTM
 40
0.0
  9
$DIMTXT
 40
0.18
  9
$DIMCEN
 40
0.09
  9
$DIMTSZ
 40
0.0
  9
$DIMTOL
 70
           0
  9
$DIMLIM
 70
           0
  9
$DIMTIH
 70
           1
  9
$DIMTOH
 70
           1
  9
$DIMSE1
 70
           0
  9
$DIMSE2
 70
           0
  9
$DIMTAD
 70
           0
  9
$DIMZIN
 70
           0
  9
$DIMBLK
  1

  9
$DIMASO
 70
           1
  9
$DIMSHO
 70
           1
  9
$DIMPOST
  1

  9
$DIMAPOST
  1

  9
$DIMALT
 70
           0
  9
$DIMALTD
 70
           2
  9
$DIMALTF
 40
25.4
  9
$DIMLFAC
 40
1.0
  9
$DIMTOFL
 70
           0
  9
$DIMTVP
 40
0.0
  9
$DIMTIX
 70
           0
  9
$DIMSOXD
 70
           0
  9
$DIMSAH
 70
           0
  9
$DIMBLK1
  1

  9
$DIMBLK2
  1

  9
$DIMSTYLE
  2
STANDARD
  9
$DIMCLRD
 70
           0
  9
$DIMCLRE
 70
           0
  9
$DIMCLRT
 70
           0
  9
$DIMTFAC
 40
1.0
  9
$DIMGAP
 40
0.09
  9
$DIMJUST
 70
           0
  9
$DIMSD1
 70
           0
  9
$DIMSD2
 70
           0
  9
$DIMTOLJ
 70
           1
  9
$DIMTZIN
 70
           0
  9
$DIMALTZ
 70
           0
  9
$DIMALTTZ
 70
           0
  9
$DIMFIT
 70
           3
  9
$DIMUPT
 70
           0
  9
$DIMUNIT
 70
           4
  9
$DIMDEC
 70
           4
  9
$DIMTDEC
 70
           4
  9
$DIMALTU
 70
           2
  9
$DIMALTTD
 70
           2
  9
$DIMTXSTY
  7
STANDARD
  9
$DIMAUNIT
 70
           0
  9
$LUNITS
 70
           4
  9
$LUPREC
 70
           5
  9
$SKETCHINC
 40
0.1
  9
$FILLETRAD
 40
0.0
  9
$AUNITS
 70
           0
  9
$AUPREC
 70
           0
  9
$MENU
  1
acad
  9
$ELEVATION
 40
0.0
  9
$PELEVATION
 40
0.0
  9
$THICKNESS
 40
0.0
  9
$LIMCHECK
 70
           0
  9
$BLIPMODE
 70
           1
  9
$CHAMFERA
 40
0.0
  9
$CHAMFERB
 40
0.0
  9
$CHAMFERC
 40
0.0
  9
$CHAMFERD
 40
0.0
  9
$SKPOLY
 70
           0
  9
$TDCREATE
 40
0.000000000
  9
$TDUPDATE
 40
0.000000000
  9
$TDINDWG
 40
0.0000000000
  9
$TDUSRTIMER
 40
0.0000000000
  9
$USRTIMER
 70
           1
  9
$ANGBASE
 50
0.0
  9
$ANGDIR
 70
           0
  9
$PDMODE
 70
           0
  9
$PDSIZE
 40
0.0
  9
$PLINEWID
 40
0.0
  9
$COORDS
 70
           0
  9
$SPLFRAME
 70
           0
  9
$SPLINETYPE
 70
           6
  9
$SPLINESEGS
 70
           8
  9
$ATTDIA
 70
           0
  9
$ATTREQ
 70
           1
  9
$HANDLING
 70
           1
  9
$HANDSEED
  5
5A
  9
$SURFTAB1
 70
           6
  9
$SURFTAB2
 70
           6
  9
$SURFTYPE
 70
           6
  9
$SURFU
 70
           6
  9
$SURFV
 70
           6
  9
$UCSNAME
  2

  9
$UCSORG
 10
0.0
 20
0.0
 30
0.0
  9
$UCSXDIR
 10
1.0
 20
0.0
 30
0.0
  9
$UCSYDIR
 10
0.0
 20
1.0
 30
0.0
  9
$PUCSNAME
  2

  9
$PUCSORG
 10
0.0
 20
0.0
 30
0.0
  9
$PUCSXDIR
 10
1.0
 20
0.0
 30
0.0
  9
$PUCSYDIR
 10
0.0
 20
1.0
 30
0.0
  9
$USERI1
 70
           0
  9
$USERI2
 70
           0
  9
$USERI3
 70
           0
  9
$USERI4
 70
           0
  9
$USERI5
 70
           0
  9
$USERR1
 40
0.0
  9
$USERR2
 40
0.0
  9
$USERR3
 40
0.0
  9
$USERR4
 40
0.0
  9
$USERR5
 40
0.0
  9
$WORLDVIEW
 70
           1
  9
$SHADEDGE
 70
           3
  9
$SHADEDIF
 70
          70
  9
$TILEMODE
 70
           1
  9
$MAXACTVP
 70
          16
  9
$PINSBASE
 10
0.0
 20
0.0
 30
0.0
  9
$PLIMCHECK
 70
           0
  9
$PEXTMIN
 10
1.000000000000E+20
 20
1.000000000000E+20
 30
1.000000000000E+20
  9
$PEXTMAX
 10
-1.000000000000E+20
 20
-1.000000000000E+20
 30
-1.000000000000E+20
  9
$PLIMMIN
 10
0.0
 20
0.0
  9
$PLIMMAX
 10
12.0
 20
9.0
  9
$UNITMODE
 70
           0
  9
$VISRETAIN
 70
           1
  9
$PLINEGEN
 70
           1
  9
$PSLTSCALE
 70
           0
  9
$TREEDEPTH
 70
        3020
  9
$PICKSTYLE
 70
           1
  9
$CMLSTYLE
  2
STANDARD
  9
$CMLJUST
 70
           0
  9
$CMLSCALE
 40
1.0
  9
$PROXYGRAPHICS
 70
           0
  9
$MEASUREMENT
 70
           0
  0
ENDSEC
  0
SECTION
  2
CLASSES
  0
CLASS
  1
LWPOLYLINE
  2
AcDbPolyline
  3
"AutoCAD"
 90
        0
280
           0
281
           1
  0
CLASS
  1
IMAGE
  2
AcDbRasterImage
  3
ISM
 90
      127
280
           0
281
           1
  0
CLASS
  1
OLE2FRAME
  2
AcDbOle2Frame
  3
""
 90
        0
280
           0
281
           1
  0
CLASS
  1
HATCH
  2
AcDbHatch
  3
"ACAD_SEDONA"
 90
        0
280
           0
281
           1
  0
CLASS
  1
DICTIONARYVAR
  2
AcDbDictionaryVar
  3
"AutoCAD"
 90
        0
280
           0
281
           0
  0
CLASS
  1
RASTERVARIABLES
  2
AcDbRasterVariables
  3
ISM
 90
        0
280
           0
281
           0
  0
CLASS
  1
IMAGEDEF
  2
AcDbRasterImageDef
  3
ISM
 90
        0
280
           0
281
           0
  0
CLASS
  1
IMAGEDEF_REACTOR
  2
AcDbRasterImageDefReactor
  3
ISM
 90
        1
280
           0
281
           0
  0
CLASS
  1
IDBUFFER
  2
AcDbIdBuffer
  3
"Acad"
 90
        0
280
           0
281
           0
  0
CLASS
  1
SPATIAL_FILTER
  2
AcDbSpatialFilter
  3
"Acad"
 90
        0
280
           0
281
           0
  0
CLASS
  1
XRECORD
  2
AcDbXrecord
  3
"<Built In>"
 90
        0
280
           0
281
           0
  0
CLASS
  1
SORTENTSTABLE
  2
AcDbSortentsTable
  3
"AutoCAD"
 90
        0
280
           0
281
           0
  0
CLASS
  1
LAYER_INDEX
  2
AcDbLayerIndex
  3
"Acad"
 90
        0
280
           0
281
           0
  0
CLASS
  1
SPATIAL_INDEX
  2
AcDbSpatialIndex
  3
"Acad"
 90
        0
280
           0
281
           0
  0
CLASS
  1
OBJECT_PTR
  2
CAseDLPNTableRecord
  3
"ASE-LPNTableRecord"
 90
        1
280
           0
281
           0
  0
CLASS
  1
LAYOUT
  2
AcDbLayout
  3
"AutoCAD 2000"
 90
        0
280
           0
281
           0
  0
CLASS
  1
PLOTSETTINGS
  2
AcDbPlotSettings
  3
"AutoCAD 2000"
 90
        0
280
           0
281
           0
  0
CLASS
  1
ACDBDICTIONARYWDFLT
  2
AcDbDictionaryWithDefault
  3
"AutoCAD 2000"
 90
        0
280
           0
281
           0
  0
CLASS
  1
ACDBPLACEHOLDER
  2
AcDbPlaceHolder
  3
"AutoCAD 2000"
 90
        0
280
           0
281
           0
  0
ENDSEC
  0
SECTION
  2
TABLES
  0
TABLE
  2
VPORT
  5
7
100
AcDbSymbolTable
 70
           1
  0
VPORT
  5
15
100
AcDbSymbolTableRecord
100
AcDbViewportTableRecord
  2
*ACTIVE
 70
           0
 10
0.0
 20
0.0
 11
1.0
 21
1.0
 12
6.591288
 22
4.579184
 13
0.0
 23
0.0
 14
1.0
 24
1.0
 15
0.0
 25
0.0
 16
0.0
 26
0.0
 36
1.0
 17
0.0
 27
0.0
 37
0.0
 40
9.158369
 41
0.688564
 42
50.0
 43
0.0
 44
0.0
 50
0.0
 51
0.0
 71
           0
 72
         100
 73
           1
 74
           1
 75
           0
 76
           0
 77
           0
 78
           0
  0
ENDTAB
  0
TABLE
  2
LTYPE
  5
4
100
AcDbSymbolTable
 70
           3
  0
LTYPE
  5
11
100
AcDbSymbolTableRecord
100
AcDbLinetypeTableRecord
  2
BYBLOCK
 70
          64
  3

 72
          65
 73
           0
 40
0.0
  0
LTYPE
  5
12
100
AcDbSymbolTableRecord
100
AcDbLinetypeTableRecord
  2
BYLAYER
 70
          64
  3

 72
          65
 73
           0
 40
0.0
  0
LTYPE
  5
13
100
AcDbSymbolTableRecord
100
AcDbLinetypeTableRecord
  2
CONTINUOUS
 70
          64
  3
Solid line
 72
          65
 73
           0
 40
0.0
  0
ENDTAB
  0
TABLE
  2
LAYER
  5
2
100
AcDbSymbolTable
 70
           3
  0
LAYER
  5
14
100
AcDbSymbolTableRecord
100
AcDbLayerTableRecord
  2
0
 70
           0
 62
           7
  6
CONTINUOUS
  0
LAYER
  5
1D
100
AcDbSymbolTableRecord
100
AcDbLayerTableRecord
  2
CUT
 70
           0
 62
           7
  6
CONTINUOUS
  0
LAYER
  5
1E
100
AcDbSymbolTableRecord
100
AcDbLayerTableRecord
  2
LAYER_1
 70
           0
 62
           5
  6
CONTINUOUS
  0
ENDTAB
  0
TABLE
  2
STYLE
  5
3
100
AcDbSymbolTable
 70
           1
  0
STYLE
  5
17
100
AcDbSymbolTableRecord
100
AcDbTextStyleTableRecord
  2
STANDARD
 70
           0
 40
0.0
 41
1.0
 50
0.0
 71
           0
 42
0.0
  3
txt
  4

  0
ENDTAB
  0
TABLE
  2
VIEW
  5
5
100
AcDbSymbolTable
 70
           0
  0
ENDTAB
  0
TABLE
  2
UCS
  5
6
100
AcDbSymbolTable
 70
           0
  0
ENDTAB
  0
TABLE
  2
APPID
  5
8
100
AcDbSymbolTable
 70
           1
  0
APPID
  5
16
100
AcDbSymbolTableRecord
100
AcDbRegAppTableRecord
  2
ACAD
 70
           0
  0
ENDTAB
  0
TABLE
  2
DIMSTYLE
  5
9
100
AcDbSymbolTable
 70
           1
  0
DIMSTYLE
105
18
100
AcDbSymbolTableRecord
100
AcDbDimStyleTableRecord
  2
STANDARD
 70
           0
  3

  4

  5

  6

  7

 40
1.0
 41
0.18
 42
0.0625
 43
0.38
 44
0.18
 45
0.0
 46
0.0
 47
0.0
 48
0.0
 71
           0
 72
           0
 73
           1
 74
           1
 75
           0
 76
           0
 77
           0
 78
           0
140
0.18
141
0.09
142
0.0
143
25.4
144
1.0
145
0.0
146
1.0
147
0.09
170
           0
171
           2
172
           0
173
           0
174
           0
175
           0
176
           0
177
           0
178
           0
270
           2
271
           4
272
           4
273
           2
274
           2
275
           0
280
           0
281
           0
282
           0
283
           1
284
           0
285
           0
286
           0
287
           3
288
           0
340
17
  0
ENDTAB
  0
TABLE
  2
BLOCK_RECORD
  5
1
100
AcDbSymbolTable
 70
           1
  0
BLOCK_RECORD
  5
A
100
AcDbSymbolTableRecord
100
AcDbBlockTableRecord
  2
*MODEL_SPACE
  0
BLOCK_RECORD
  5
B
100
AcDbSymbolTableRecord
100
AcDbBlockTableRecord
  2
*PAPER_SPACE
  0
BLOCK_RECORD
  5
1F
100
AcDbSymbolTableRecord
100
AcDbBlockTableRecord
  2
AI9-BLK1
1001
ACAD
1000
DATACAD SYMBOL: AI9-BLK1
  0
ENDTAB
  0
ENDSEC
  0
SECTION
  2
BLOCKS
  0
BLOCK
  5
D
100
AcDbEntity
  8
0
100
AcDbBlockBegin
  2
*MODEL_SPACE
 70
           0
 10
0.0
 20
0.0
 30
0.0
  3
*MODEL_SPACE
  1

  0
ENDBLK
  5
E
100
AcDbEntity
  8
0
100
AcDbBlockEnd
  0
BLOCK
  5
F
100
AcDbEntity
 67
           1
  8
0
100
AcDbBlockBegin
  2
*PAPER_SPACE
 70
           0
 10
0.0
 20
0.0
 30
0.0
  3
*PAPER_SPACE
  1

  0
ENDBLK
  5
10
100
AcDbEntity
 67
           1
  8
0
100
AcDbBlockEnd
  0
BLOCK
  5
20
100
AcDbEntity
  8
0
100
AcDbBlockBegin
  2
AI9-BLK1
 70
           0
 10
0.0
 20
0.0
 30
0.0
  3
AI9-BLK1
  1

  0
LWPOLYLINE
  5
22
102
{ACAD_REACTORS
330
23
102
}
100
AcDbEntity
  8
LAYER_1
  6
CONTINUOUS
 62
           7
100
AcDbPolyline
 90
      101
 70
           0
 10
-10.782029215495
 20
-11.950347222222
 10
-10.863038568793
 20
-11.443011436632
 10
-11.082921099175
 20
-10.065957161458
 10
-11.40695851237
 20
-8.036614019097
 10
-11.800432514106
 20
-5.572411631944
 10
-12.228624810113
 20
-2.890779622396
 10
-12.65681710612
 20
-0.209147612847
 10
-13.050291107856
 20
2.255054774306
 10
-13.37432852105
 20
4.284397916667
 10
-13.594211051432
 20
5.66145219184
 10
-13.675220404731
 20
6.168787977431
 10
-13.752255495877
 20
5.985200217014
 10
-13.961350743273
 20
5.486890581597
 10
-14.269491107856
 20
4.752539539931
 10
-14.643661550564
 20
3.860827560764
 10
-15.050847032335
 20
2.890435112847
 10
-15.458032514106
 20
1.920042664931
 10
-15.832202956814
 20
1.028330685764
 10
-16.140343321398
 20
0.293979644097
 10
-16.349438568793
 20
-0.204329991319
 10
-16.426473659939
 20
-0.387917751736
 10
-16.505495882161
 20
-0.201358940972
 10
-16.71998477105
 20
0.305014973958
 10
-17.036073659939
 20
1.051250217014
 10
-17.419895882161
 20
1.957393012153
 10
-17.83758477105
 20
2.943489583333
 10
-18.255273659939
 20
3.929586154514
 10
-18.639095882161
 20
4.835728949653
 10
-18.95518477105
 20
5.581964192708
 10
-19.169673659939
 20
6.088338107639
 10
-19.248695882161
 20
6.274896918403
 10
-19.327718104384
 20
5.764590082465
 10
-19.542206993273
 20
4.379471527778
 10
-19.858295882161
 20
2.338244184028
 10
-20.242118104384
 20
-0.140389019097
 10
-20.659806993273
 20
-2.83772515191
 10
-21.077495882161
 20
-5.535061284722
 10
-21.461318104384
 20
-8.013694487847
 10
-21.777406993273
 20
-10.054921831597
 10
-21.991895882161
 20
-11.440040386285
 10
-22.070918104384
 20
-11.950347222222
 10
-22.121310205078
 20
-11.950347222222
 10
-22.258088764106
 20
-11.950347222222
 10
-22.459657166884
 20
-11.950347222222
 10
-22.704418798828
 20
-11.950347222222
 10
-22.970777045356
 20
-11.950347222222
 10
-23.237135291884
 20
-11.950347222222
 10
-23.481896923828
 20
-11.950347222222
 10
-23.683465326606
 20
-11.950347222222
 10
-23.820243885634
 20
-11.950347222222
 10
-23.870635986328
 20
-11.950347222222
 10
-23.761980430773
 20
-11.281127777778
 10
-23.46705820855
 20
-9.464675
 10
-23.032435986328
 20
-6.787797222222
 10
-22.504680430773
 20
-3.537302777778
 10
-21.93035820855
 20
0.0
 10
-21.356035986328
 20
3.537302777778
 10
-20.828280430773
 20
6.787797222222
 10
-20.39365820855
 20
9.464675
 10
-20.098735986328
 20
11.281127777778
 10
-19.990080430773
 20
11.950347222222
 10
-19.890299441189
 20
11.722348046875
 10
-19.619465326606
 20
11.103493142361
 10
-19.220341368273
 20
10.191496440972
 10
-18.735690847439
 20
9.084071875
 10
-18.208277045356
 20
7.878933376736
 10
-17.680863243273
 20
6.673794878472
 10
-17.196212722439
 20
5.5663703125
 10
-16.797088764106
 20
4.654373611111
 10
-16.526254649523
 20
4.035518706597
 10
-16.426473659939
 20
3.80751953125
 10
-16.328699093967
 20
4.035518706597
 10
-16.063310986328
 20
4.654373611111
 10
-15.672212722439
 20
5.5663703125
 10
-15.197307687717
 20
6.673794878472
 10
-14.680499267578
 20
7.878933376736
 10
-14.163690847439
 20
9.084071875
 10
-13.688785812717
 20
10.191496440972
 10
-13.297687548828
 20
11.103493142361
 10
-13.032299441189
 20
11.722348046875
 10
-12.934524875217
 20
11.950347222222
 10
-12.824866107856
 20
11.281127777778
 10
-12.527220882161
 20
9.464675
 10
-12.088585812717
 20
6.787797222222
 10
-11.555957514106
 20
3.537302777778
 10
-10.976332600911
 20
0.0
 10
-10.396707687717
 20
-3.537302777778
 10
-9.864079389106
 20
-6.787797222222
 10
-9.425444319661
 20
-9.464675
 10
-9.127799093967
 20
-11.281127777778
 10
-9.018140326606
 20
-11.950347222222
 10
-9.067529215495
 20
-11.950347222222
 10
-9.20158477105
 20
-11.950347222222
 10
-9.399140326606
 20
-11.950347222222
 10
-9.639029215495
 20
-11.950347222222
 10
-9.90008477105
 20
-11.950347222222
 10
-10.161140326606
 20
-11.950347222222
 10
-10.401029215495
 20
-11.950347222222
 10
-10.59858477105
 20
-11.950347222222
 10
-10.732640326606
 20
-11.950347222222
 10
-10.782029215495
 20
-11.950347222222
  0
HATCH
  5
23
100
AcDbEntity
  8
LAYER_1
  6
CONTINUOUS
 62
           7
100
AcDbHatch
 10
0.0
 20
0.0
 30
0.0
210
0.0
220
0.0
230
1.0
  2
SOLID
 70
           1
 71
           1
 91
        1
 92
        2
 72
           0
 73
           1
 93
      100
 10
-10.782029999999999
 20
-11.950348
 10
-10.863038999999999
 20
-11.443012
 10
-11.082922
 20
-10.065958
 10
-11.406958999999999
 20
-8.0366149999999994
 10
-11.800433
 20
-5.5724119999999999
 10
-12.228624999999999
 20
-2.8907799999999999
 10
-12.656817999999999
 20
-0.209148
 10
-13.050291999999999
 20
2.2550539999999999
 10
-13.374328999999999
 20
4.2843970000000002
 10
-13.594211999999999
 20
5.6614519999999997
 10
-13.675220999999999
 20
6.168787
 10
-13.752255999999999
 20
5.9851999999999999
 10
-13.961350999999999
 20
5.4868899999999998
 10
-14.269492
 20
4.7525389999999996
 10
-14.643661999999999
 20
3.860827
 10
-15.050847999999998
 20
2.8904350000000001
 10
-15.458032999999999
 20
1.9200419999999998
 10
-15.832203
 20
1.02833
 10
-16.140343999999999
 20
0.293979
 10
-16.349439
 20
-0.20433
 10
-16.426473999999999
 20
-0.387918
 10
-16.505496000000001
 20
-0.201359
 10
-16.719984999999998
 20
0.305014
 10
-17.036073999999999
 20
1.05125
 10
-17.419895999999998
 20
1.9573929999999999
 10
-17.837585000000001
 20
2.943489
 10
-18.255274
 20
3.929586
 10
-18.639095999999999
 20
4.8357279999999996
 10
-18.955185
 20
5.5819640000000001
 10
-19.169674000000001
 20
6.0883379999999994
 10
-19.248695999999999
 20
6.274896
 10
-19.327718999999998
 20
5.7645900000000001
 10
-19.542206999999998
 20
4.3794709999999997
 10
-19.858295999999999
 20
2.338244
 10
-20.242118999999999
 20
-0.14039
 10
-20.659807000000001
 20
-2.837726
 10
-21.077496
 20
-5.5350619999999999
 10
-21.461319
 20
-8.0136950000000002
 10
-21.777407
 20
-10.054921999999999
 10
-21.991896000000001
 20
-11.440040999999999
 10
-22.070919
 20
-11.950348
 10
-22.121310999999999
 20
-11.950348
 10
-22.258088999999998
 20
-11.950348
 10
-22.459657999999997
 20
-11.950348
 10
-22.704418999999998
 20
-11.950348
 10
-22.970777999999999
 20
-11.950348
 10
-23.237136
 20
-11.950348
 10
-23.481897
 20
-11.950348
 10
-23.683465999999999
 20
-11.950348
 10
-23.820243999999999
 20
-11.950348
 10
-23.870635999999998
 20
-11.950348
 10
-23.761980999999999
 20
-11.281127999999999
 10
-23.467058999999999
 20
-9.464675999999999
 10
-23.032436000000001
 20
-6.7877979999999996
 10
-22.504680999999998
 20
-3.5373029999999996
 10
-21.930358999999999
 20
-0.000001
 10
-21.356036
 20
3.5373019999999999
 10
-20.828281
 20
6.7877969999999994
 10
-20.393659
 20
9.4646739999999987
 10
-20.098735999999999
 20
11.281127
 10
-19.990081
 20
11.950346999999999
 10
-19.8903
 20
11.722348
 10
-19.619465999999999
 20
11.103493
 10
-19.220341999999999
 20
10.191495999999999
 10
-18.735690999999999
 20
9.0840709999999998
 10
-18.208278
 20
7.878933
 10
-17.680864
 20
6.673794
 10
-17.196213
 20
5.56637
 10
-16.797089
 20
4.6543729999999996
 10
-16.526254999999999
 20
4.0355179999999997
 10
-16.426473999999999
 20
3.8075189999999997
 10
-16.328699999999998
 20
4.0355179999999997
 10
-16.063310999999999
 20
4.6543729999999996
 10
-15.672212999999999
 20
5.56637
 10
-15.197308
 20
6.673794
 10
-14.680499999999999
 20
7.878933
 10
-14.163691
 20
9.0840709999999998
 10
-13.688785999999999
 20
10.191495999999999
 10
-13.297687999999999
 20
11.103493
 10
-13.032299999999999
 20
11.722348
 10
-12.934524999999999
 20
11.950346999999999
 10
-12.824866999999999
 20
11.281127
 10
-12.527220999999999
 20
9.4646749999999997
 10
-12.088585999999999
 20
6.7877969999999994
 10
-11.555957999999999
 20
3.5373019999999999
 10
-10.976333
 20
0.0
 10
-10.396708
 20
-3.5373029999999996
 10
-9.8640799999999995
 20
-6.7877979999999996
 10
-9.4254449999999999
 20
-9.4646749999999997
 10
-9.1277999999999988
 20
-11.281127999999999
 10
-9.018141
 20
-11.950348
 10
-9.0675299999999996
 20
-11.950348
 10
-9.2015849999999997
 20
-11.950348
 10
-9.3991410000000002
 20
-11.950348
 10
-9.63903
 20
-11.950348
 10
-9.9000849999999989
 20
-11.950348
 10
-10.161140999999999
 20
-11.950348
 10
-10.401029999999999
 20
-11.950348
 10
-10.598585
 20
-11.950348
 10
-10.732640999999999
 20
-11.950348
 97
        1
330
22
 75
           0
 76
           2
 98
        0
  0
LWPOLYLINE
  5
24
100
AcDbEntity
  8
LAYER_1
  6
CONTINUOUS
 62
           7
100
AcDbPolyline
 90
       51
 70
           0
 10
7.065460205078
 20
0.087160915799
 10
7.036191362847
 20
0.90112742513
 10
6.948387592231
 20
1.69145093316
 10
6.802053027344
 20
2.458135574002
 10
6.5971918023
 20
3.201185481771
 10
6.333808051215
 20
3.920604790582
 10
6.011905908203
 20
4.616397634549
 10
5.631489507378
 20
5.288568147786
 10
5.192562982856
 20
5.93712046441
 10
4.69513046875
 20
6.562058718533
 10
4.139196099175
 20
7.163387044271
 10
3.54213211263
 20
7.7232488227
 10
2.921309369575
 20
8.224195334201
 10
2.276729937066
 20
8.666222444661
 10
1.608395882161
 20
9.049326019965
 10
0.916309271918
 20
9.373501925998
 10
0.200472173394
 20
9.638746028646
 10
-0.539113346354
 20
9.845054193793
 10
-1.302445220269
 20
9.992422287326
 10
-2.089521381293
 20
10.08084617513
 10
-2.90033976237
 20
10.11032172309
 10
-2.90033976237
 20
9.546053667535
 10
-2.90033976237
 20
8.014468945312
 10
-2.90033976237
 20
5.75739672309
 10
-2.90033976237
 20
3.016666167535
 10
-2.90033976237
 20
0.034106445312
 10
-2.90033976237
 20
-2.94845327691
 10
-2.90033976237
 20
-5.689183832465
 10
-2.90033976237
 20
-7.946256054688
 10
-2.90033976237
 20
-9.47784077691
 10
-2.90033976237
 20
-10.042108832465
 10
-2.069841617839
 20
-10.012818630642
 10
-1.266302034505
 20
-9.924948025174
 10
-0.489714811198
 20
-9.778497016059
 10
0.259926253255
 20
-9.573465603299
 10
0.982627360026
 20
-9.309853786892
 10
1.678394710286
 20
-8.98766156684
 10
2.347234505208
 20
-8.606888943142
 10
2.989152945964
 20
-8.167535915799
 10
3.604156233724
 20
-7.669602484809
 10
4.192250569661
 20
-7.113088650174
 10
4.738160400391
 20
-6.513850119358
 10
5.226606038411
 20
-5.887748111979
 10
5.657587483724
 20
-5.234790896267
 10
6.031104736328
 20
-4.554986740451
 10
6.347157796224
 20
-3.84834391276
 10
6.605746663411
 20
-3.114870681424
 10
6.806871337891
 20
-2.35457531467
 10
6.950531819661
 20
-1.567466080729
 10
7.036728108724
 20
-0.75355124783
 10
7.065460205078
 20
0.087160915799
  0
LWPOLYLINE
  5
25
100
AcDbEntity
  8
LAYER_1
  6
CONTINUOUS
 62
           7
100
AcDbPolyline
 90
       71
 70
           0
 10
-4.620131429036
 20
11.741918945312
 10
-4.576549593099
 20
11.741918945312
 10
-4.458256038411
 20
11.741918945312
 10
-4.283928694661
 20
11.741918945312
 10
-4.072245491536
 20
11.741918945312
 10
-3.841884358724
 20
11.741918945312
 10
-3.611523225911
 20
11.741918945312
 10
-3.399840022786
 20
11.741918945312
 10
-3.225512679036
 20
11.741918945312
 10
-3.107219124349
 20
11.741918945312
 10
-3.063637288411
 20
11.741918945312
 10
-2.081851220703
 20
11.708371294488
 10
-1.131199169922
 20
11.60773109809
 10
-0.211674934896
 20
11.440002490234
 10
0.676727685547
 20
11.205189605035
 10
1.534014892578
 20
10.903296576606
 10
2.36019288737
 20
10.534327539062
 10
3.155267871094
 20
10.098286626519
 10
3.919246044922
 20
9.59517797309
 10
4.652133610026
 20
9.025005712891
 10
5.353936767578
 20
8.387773980035
 10
6.00588663737
 20
7.700600075955
 10
6.589210205078
 20
6.981006445312
 10
7.103907470703
 20
6.228984819878
 10
7.549978434245
 20
5.444526931424
 10
7.927423095703
 20
4.627624511719
 10
8.236241455078
 20
3.778269292535
 10
8.47643351237
 20
2.896453005642
 10
8.647999267578
 20
1.982167382812
 10
8.750938720703
 20
1.035404155816
 10
8.785251871745
 20
0.056155056424
 10
8.750235921224
 20
-0.917676974826
 10
8.645188069661
 20
-1.861826063368
 10
8.470108317057
 20
-2.776292209201
 10
8.224996663411
 20
-3.661075412326
 10
7.909853108724
 20
-4.516175672743
 10
7.524677652995
 20
-5.341592990451
 10
7.069470296224
 20
-6.137327365451
 10
6.544231038411
 20
-6.903378797743
 10
5.948959879557
 20
-7.639747287326
 10
5.283656819661
 20
-8.346432834201
 10
4.568480490451
 20
-9.003861783854
 10
3.823588145616
 20
-9.592052582465
 10
3.048977718099
 20
-10.111013498264
 10
2.244647140842
 20
-10.560752799479
 10
1.410594346788
 20
-10.94127875434
 10
0.54681726888
 20
-11.252599631076
 10
-0.346686159939
 20
-11.494723697917
 10
-1.269918006727
 20
-11.66765922309
 10
-2.222880338542
 20
-11.771414474826
 10
-3.205575222439
 20
-11.805997721354
 10
-3.245182796224
 20
-11.805997721354
 10
-3.352689067925
 20
-11.805997721354
 10
-3.511119363064
 20
-11.805997721354
 10
-3.703499007161
 20
-11.805997721354
 10
-3.912853325738
 20
-11.805997721354
 10
-4.122207644314
 20
-11.805997721354
 10
-4.314587288411
 20
-11.805997721354
 10
-4.47301758355
 20
-11.805997721354
 10
-4.580523855252
 20
-11.805997721354
 10
-4.620131429036
 20
-11.805997721354
 10
-4.620131429036
 20
-11.146656054688
 10
-4.620131429036
 20
-9.357014388021
 10
-4.620131429036
 20
-6.719647721354
 10
-4.620131429036
 20
-3.517131054688
 10
-4.620131429036
 20
-0.032039388021
 10
-4.620131429036
 20
3.453052278646
 10
-4.620131429036
 20
6.655568945312
 10
-4.620131429036
 20
9.292935611979
 10
-4.620131429036
 20
11.082577278646
 10
-4.620131429036
 20
11.741918945312
  0
LWPOLYLINE
  5
27
102
{ACAD_REACTORS
330
28
102
}
100
AcDbEntity
  8
LAYER_1
  6
CONTINUOUS
 62
           7
100
AcDbPolyline
 90
      101
 70
           0
 10
12.176603868273
 20
-0.216351996528
 10
12.210194238281
 20
0.774615250651
 10
12.310968104384
 20
1.732133376736
 10
12.478929600694
 20
2.656198247613
 10
12.714082861328
 20
3.546805729167
 10
13.016432020399
 20
4.403951687283
 10
13.385981212023
 20
5.227631987847
 10
13.822734570312
 20
6.017842496745
 10
14.326696229384
 20
6.774579079861
 10
14.897870323351
 20
7.497837603082
 10
15.536260986328
 20
8.187613932292
 10
16.224405029297
 20
8.827015386285
 10
16.944836507161
 20
9.399146527778
 10
17.697555419922
 20
9.903999088542
 10
18.482561767578
 20
10.341564800347
 10
19.29985555013
 20
10.711835394965
 10
20.149436767578
 20
11.014802604167
 10
21.031305419922
 20
11.250458159722
 10
21.945461507161
 20
11.418793793403
 10
22.891905029297
 20
11.519801236979
 10
23.870635986328
 20
11.553472222222
 10
23.870635986328
 20
11.506552777778
 10
23.870635986328
 20
11.3792
 10
23.870635986328
 20
11.191522222222
 10
23.870635986328
 20
10.963627777778
 10
23.870635986328
 20
10.715625
 10
23.870635986328
 20
10.467622222222
 10
23.870635986328
 20
10.239727777778
 10
23.870635986328
 20
10.05205
 10
23.870635986328
 20
9.924697222222
 10
23.870635986328
 20
9.877777777778
 10
23.05038562283
 20
9.848838975694
 10
22.254853130425
 20
9.762022569444
 10
21.484034375
 20
9.617328559028
 10
20.737925222439
 20
9.414756944444
 10
20.016521538628
 20
9.154307725694
 10
19.319819189453
 20
8.835980902778
 10
18.647814040799
 20
8.459776475694
 10
18.00050195855
 20
8.025694444444
 10
17.377878808594
 20
7.533734809028
 10
16.779940456814
 20
6.983897569444
 10
16.223632638889
 20
6.390984233941
 10
15.725901090495
 20
5.769801822917
 10
15.286741677517
 20
5.120358604601
 10
14.906150265842
 20
4.442662847222
 10
14.584122721354
 20
3.73672281901
 10
14.320654909939
 20
3.002546788194
 10
14.115742697483
 20
2.240143023003
 10
13.96938194987
 20
1.449519791667
 10
13.881568532986
 20
0.630685362413
 10
13.852298312717
 20
-0.216351996528
 10
13.881217133247
 20
-1.056693467882
 10
13.967976350911
 20
-1.869501736111
 10
14.112580099826
 20
-2.654776801215
 10
14.315032514106
 20
-3.412518663194
 10
14.575337727865
 20
-4.142727322049
 10
14.893499875217
 20
-4.845402777778
 10
15.269523090278
 20
-5.520545030382
 10
15.703411507161
 20
-6.168154079861
 10
16.195169259983
 20
-6.788229926215
 10
16.744800482856
 20
-7.380772569444
 10
17.336597607422
 20
-7.930609809028
 10
17.95525820855
 20
-8.422569444444
 10
18.600774018012
 20
-8.856651475694
 10
19.273136767578
 20
-9.232855902778
 10
19.972338189019
 20
-9.551182725694
 10
20.698370014106
 20
-9.811631944444
 10
21.451223974609
 20
-10.014203559028
 10
22.2308918023
 20
-10.158897569444
 10
23.03736522895
 20
-10.245713975694
 10
23.870635986328
 20
-10.274652777778
 10
23.870635986328
 20
-10.321572222222
 10
23.870635986328
 20
-10.448925
 10
23.870635986328
 20
-10.636602777778
 10
23.870635986328
 20
-10.864497222222
 10
23.870635986328
 20
-11.1125
 10
23.870635986328
 20
-11.360502777778
 10
23.870635986328
 20
-11.588397222222
 10
23.870635986328
 20
-11.776075
 10
23.870635986328
 20
-11.903427777778
 10
23.870635986328
 20
-11.950347222222
 10
22.911584792752
 20
-11.916529475911
 10
21.981604692925
 20
-11.815073480903
 10
21.080703955078
 20
-11.645975103082
 10
20.208890847439
 20
-11.409230208333
 10
19.366173638238
 20
-11.104834662543
 10
18.552560595703
 20
-10.732784331597
 10
17.768059988064
 20
-10.29307508138
 10
17.01268008355
 20
-9.785702777778
 10
16.286429150391
 20
-9.210663286675
 10
15.589315456814
 20
-8.567952473958
 10
14.940900254991
 20
-7.87554960395
 10
14.360739284939
 20
-7.151433940972
 10
13.848832546658
 20
-6.395601350911
 10
13.405180040148
 20
-5.608047699653
 10
13.029781765408
 20
-4.788768853082
 10
12.722637722439
 20
-3.937760677083
 10
12.483747911241
 20
-3.055019037543
 10
12.313112331814
 20
-2.140539800347
 10
12.210730984158
 20
-1.19431883138
 10
12.176603868273
 20
-0.216351996528
  0
HATCH
  5
28
100
AcDbEntity
  8
LAYER_1
  6
CONTINUOUS
 62
           7
100
AcDbHatch
 10
0.0
 20
0.0
 30
0.0
210
0.0
220
0.0
230
1.0
  2
SOLID
 70
           1
 71
           1
 91
        1
 92
        2
 72
           0
 73
           1
 93
      100
 10
12.176603
 20
-0.216352
 10
12.210194
 20
0.7746149999999999
 10
12.310967999999999
 20
1.7321329999999999
 10
12.478928999999999
 20
2.6561979999999998
 10
12.714081999999999
 20
3.546805
 10
13.016432
 20
4.4039510000000002
 10
13.385980999999999
 20
5.2276309999999997
 10
13.822733999999999
 20
6.0178419999999999
 10
14.326696
 20
6.7745790000000001
 10
14.897869999999999
 20
7.4978369999999996
 10
15.536259999999999
 20
8.1876129999999989
 10
16.224405000000001
 20
8.8270149999999994
 10
16.944835999999999
 20
9.399146
 10
17.697554999999998
 20
9.9039989999999989
 10
18.482561
 20
10.341564
 10
19.299855000000001
 20
10.711834999999999
 10
20.149435999999998
 20
11.014802
 10
21.031305
 20
11.250458
 10
21.945460999999998
 20
11.418792999999999
 10
22.891904999999998
 20
11.519800999999999
 10
23.870635
 20
11.553471999999999
 10
23.870635
 20
11.506551999999999
 10
23.870635
 20
11.379199
 10
23.870635
 20
11.191521999999999
 10
23.870635
 20
10.963626999999999
 10
23.870635
 20
10.715624
 10
23.870635
 20
10.467621999999999
 10
23.870635
 20
10.239727
 10
23.870635
 20
10.052049
 10
23.870635
 20
9.9246970000000001
 10
23.870635
 20
9.877777
 10
23.050384999999999
 20
9.8488379999999989
 10
22.254853000000001
 20
9.762022
 10
21.484033999999998
 20
9.6173279999999988
 10
20.737925000000001
 20
9.4147559999999988
 10
20.016520999999997
 20
9.1543069999999993
 10
19.319818999999999
 20
8.8359799999999993
 10
18.647814
 20
8.4597759999999997
 10
18.000501
 20
8.0256939999999997
 10
17.377877999999999
 20
7.5337339999999999
 10
16.77994
 20
6.9838969999999998
 10
16.223631999999998
 20
6.3909839999999996
 10
15.725900999999999
 20
5.7698010000000002
 10
15.286740999999999
 20
5.1203579999999995
 10
14.906149999999998
 20
4.4426619999999994
 10
14.584121999999999
 20
3.7367219999999999
 10
14.320653999999999
 20
3.0025459999999997
 10
14.115741999999999
 20
2.2401429999999998
 10
13.969380999999998
 20
1.449519
 10
13.881568
 20
0.6306849999999999
 10
13.852297999999999
 20
-0.216352
 10
13.881216999999999
 20
-1.056694
 10
13.967976
 20
-1.869502
 10
14.112579999999999
 20
-2.6547769999999997
 10
14.315031999999999
 20
-3.4125189999999996
 10
14.575336999999999
 20
-4.142728
 10
14.893498999999998
 20
-4.8454030000000001
 10
15.269523
 20
-5.5205459999999995
 10
15.703410999999999
 20
-6.1681549999999996
 10
16.195169
 20
-6.7882299999999995
 10
16.744799999999998
 20
-7.3807729999999996
 10
17.336596999999998
 20
-7.9306099999999997
 10
17.955258000000001
 20
-8.4225700000000003
 10
18.600773999999998
 20
-8.8566520000000004
 10
19.273135999999997
 20
-9.232856
 10
19.972338000000001
 20
-9.551183
 10
20.698370000000001
 20
-9.8116319999999995
 10
21.451222999999999
 20
-10.014203999999999
 10
22.230891
 20
-10.158897999999999
 10
23.037364999999998
 20
-10.245714
 10
23.870635
 20
-10.274652999999999
 10
23.870635
 20
-10.321572999999999
 10
23.870635
 20
-10.448924999999999
 10
23.870635
 20
-10.636602999999999
 10
23.870635
 20
-10.864497999999999
 10
23.870635
 20
-11.112499999999999
 10
23.870635
 20
-11.360503
 10
23.870635
 20
-11.588398
 10
23.870635
 20
-11.776074999999999
 10
23.870635
 20
-11.903428
 10
23.870635
 20
-11.950348
 10
22.911583999999998
 20
-11.91653
 10
21.981603999999997
 20
-11.815073999999999
 10
21.080703
 20
-11.645975999999999
 10
20.20889
 20
-11.409231
 10
19.366173
 20
-11.104835
 10
18.55256
 20
-10.732785
 10
17.768059000000001
 20
-10.293075999999999
 10
17.01268
 20
-9.7857029999999998
 10
16.286428999999998
 20
-9.2106639999999995
 10
15.589314999999999
 20
-8.5679529999999993
 10
14.940899999999999
 20
-7.8755499999999996
 10
14.360738999999999
 20
-7.1514340000000001
 10
13.848832
 20
-6.3956019999999993
 10
13.40518
 20
-5.6080480000000001
 10
13.029781
 20
-4.7887689999999994
 10
12.722636999999999
 20
-3.9377609999999996
 10
12.483746999999999
 20
-3.0550199999999998
 10
12.313112
 20
-2.1405400000000001
 10
12.21073
 20
-1.1943189999999999
 97
        1
330
27
 75
           0
 76
           2
 98
        0
  0
ENDBLK
  5
29
100
AcDbEntity
  8
0
100
AcDbBlockEnd
  0
ENDSEC
  0
SECTION
  2
ENTITIES
  0
LINE
  5
2A
100
AcDbEntity
  8
0
  6
CONTINUOUS
 62
         214
 48
12.0
100
AcDbLine
 10
-23.598431742572
 20
-5.886485846682
 30
0.0
 11
-19.990079879761
 21
11.950347900391
 31
0.0
  0
LINE
  5
2B
100
AcDbEntity
  8
0
  6
CONTINUOUS
 62
         214
 48
12.0
100
AcDbLine
 10
-19.990079879761
 20
11.950347900391
 30
0.0
 11
-16.426473667237
 21
3.807519796863
 31
0.0
  0
LINE
  5
2C
100
AcDbEntity
  8
0
  6
CONTINUOUS
 62
         214
 48
12.0
100
AcDbLine
 10
-16.426473667237
 20
3.807519796863
 30
0.0
 11
-12.934524536133
 21
11.950347900391
 31
0.0
  0
LINE
  5
2D
100
AcDbEntity
  8
0
  6
CONTINUOUS
 62
         214
 48
12.0
100
AcDbLine
 10
-12.934524536133
 20
11.950347900391
 30
0.0
 11
-9.018140792847
 21
-11.950346946716
 31
0.0
  0
LINE
  5
2E
100
AcDbEntity
  8
0
  6
CONTINUOUS
 62
         214
 48
12.0
100
AcDbLine
 10
-9.018140792847
 20
-11.950346946716
 30
0.0
 11
-8.488915432498
 21
-11.932976881533
 31
0.0
  0
LINE
  5
2F
100
AcDbEntity
  8
0
  6
CONTINUOUS
 62
         214
 48
12.0
100
AcDbLine
 10
-4.620131492615
 20
-7.935129667648
 30
0.0
 11
-4.620131492615
 21
11.741919517517
 31
0.0
  0
LINE
  5
30
100
AcDbEntity
  8
0
  6
CONTINUOUS
 62
         214
 48
12.0
100
AcDbLine
 10
-22.070918010336
 20
-7.563016320006
 30
0.0
 11
-19.248695373535
 21
6.274897575378
 31
0.0
  0
LINE
  5
31
100
AcDbEntity
  8
0
  6
CONTINUOUS
 62
         214
 48
12.0
100
AcDbLine
 10
-19.248695373535
 20
6.274897575378
 30
0.0
 11
-16.426473163028
 21
-0.387918323469
 31
0.0
  0
LINE
  5
32
100
AcDbEntity
  8
0
  6
CONTINUOUS
 62
         214
 48
12.0
100
AcDbLine
 10
-16.426473163028
 20
-0.387918323469
 30
0.0
 11
-13.675220498888
 21
6.168788491859
 31
0.0
  0
LINE
  5
33
100
AcDbEntity
  8
0
  6
CONTINUOUS
 62
         214
 48
12.0
100
AcDbLine
 10
-13.675220498888
 20
6.168788491859
 30
0.0
 11
-10.782029870653
 21
-11.950346946716
 31
0.0
  0
LINE
  5
34
100
AcDbEntity
  8
0
  6
CONTINUOUS
 62
         214
 48
12.0
100
AcDbLine
 10
-2.900339841843
 20
10.110321998596
 30
0.0
 11
-2.900339841843
 21
-10.042108535767
 31
0.0
  0
ARC
  5
35
100
AcDbEntity
  8
0
  6
CONTINUOUS
 62
         214
 48
12.0
100
AcDbCircle
 10
-3.011225507097
 20
0.034106731415
 30
0.0
 40
10.076825380115
100
AcDbArc
 50
296.524064663039
 51
449.369502932397
  0
ARC
  5
36
100
AcDbEntity
  8
0
  6
CONTINUOUS
 62
         214
 48
12.0
100
AcDbCircle
 10
-3.003428727247
 20
-0.008425271103
 30
0.0
 40
11.788857236904
100
AcDbArc
 50
310.429913996363
 51
443.416234428485
  0
ARC
  5
37
100
AcDbEntity
  8
0
  6
CONTINUOUS
 62
          51
 48
12.0
100
AcDbCircle
 10
-76.109017570171
 20
-0.198437213898
 30
0.0
 40
10.076418851146
100
AcDbArc
 50
90.364214338303
 51
269.635785661697
  0
ARC
  5
38
100
AcDbEntity
  8
0
  6
CONTINUOUS
 62
          51
 48
12.0
100
AcDbCircle
 10
-76.115062781861
 20
-0.198437213898
 30
0.0
 40
11.752052894764
100
AcDbArc
 50
90.282810153919
 51
269.717189846081
  0
LINE
  5
39
100
AcDbEntity
  8
0
  6
CONTINUOUS
 62
         214
 48
12.0
100
AcDbLine
 10
-43.691649249253
 20
-3.366963465131
 30
0.0
 11
-37.332577774673
 21
-3.366963465131
 31
0.0
  0
LINE
  5
3A
100
AcDbEntity
  8
0
  6
CONTINUOUS
 62
         214
 48
12.0
100
AcDbLine
 10
-43.691649249253
 20
-5.179463465131
 30
0.0
 11
-36.07974923979
 21
-5.179463465131
 31
0.0
  0
LINE
  5
3B
100
AcDbEntity
  8
0
  6
CONTINUOUS
 62
         214
 48
12.0
100
AcDbLine
 10
-37.332577774673
 20
-3.366963465131
 30
0.0
 11
-34.404659973427
 21
4.383868729504
 31
0.0
  0
LINE
  5
3C
100
AcDbEntity
  8
0
  6
CONTINUOUS
 62
         214
 48
12.0
100
AcDbLine
 10
-36.07974923979
 20
-5.179463465131
 30
0.0
 11
-34.455786298163
 21
-0.880482036929
 31
0.0
  0
LINE
  5
3D
100
AcDbEntity
  8
0
  6
CONTINUOUS
 62
         214
 48
12.0
100
AcDbLine
 10
-34.404659973427
 20
4.383868729504
 30
0.0
 11
-29.829788408981
 21
-8.477025398762
 31
0.0
  0
LINE
  5
3E
100
AcDbEntity
  8
0
  6
CONTINUOUS
 62
         214
 48
12.0
100
AcDbLine
 10
-34.455786298163
 20
-0.880482036929
 30
0.0
 11
-29.594396348446
 21
-14.546837600967
 31
0.0
  0
LINE
  5
3F
100
AcDbEntity
  8
0
  6
CONTINUOUS
 62
         214
 48
12.0
100
AcDbLine
 10
-29.829788408981
 20
-8.477025398762
 30
0.0
 11
-27.862593636269
 21
-1.206333251582
 31
0.0
  0
LINE
  5
40
100
AcDbEntity
  8
0
  6
CONTINUOUS
 62
         214
 48
12.0
100
AcDbLine
 10
-29.594396348446
 20
-14.546837600967
 30
0.0
 11
-26.976269540713
 21
-4.870320417531
 31
0.0
  0
LINE
  5
41
100
AcDbEntity
  8
0
  6
CONTINUOUS
 62
         214
 48
12.0
100
AcDbLine
 10
-27.862593636269
 20
-1.206333251582
 30
0.0
 11
-23.598431742572
 21
-5.886485846682
 31
0.0
  0
LINE
  5
42
100
AcDbEntity
  8
0
  6
CONTINUOUS
 62
         214
 48
12.0
100
AcDbLine
 10
-26.976269540713
 20
-4.870320417531
 30
0.0
 11
-22.427117135332
 21
-9.863265799603
 31
0.0
  0
LINE
  5
43
100
AcDbEntity
  8
0
  6
CONTINUOUS
 62
         214
 48
12.0
100
AcDbLine
 10
-22.427117135333
 20
-9.863265799603
 30
0.0
 11
-22.070918010336
 21
-7.563016320006
 31
0.0
  0
ARC
  5
44
100
AcDbEntity
  8
0
  6
CONTINUOUS
 62
         214
 48
12.0
100
AcDbCircle
 10
-8.620131492615
 20
-7.935129667648
 30
0.0
 40
4.0
100
AcDbArc
 50
271.879868870655
 51
360.0
  0
ARC
  5
45
100
AcDbEntity
  8
0
  6
CONTINUOUS
 62
         214
 48
12.0
100
AcDbCircle
 10
-8.620131492615
 20
-7.935129667648
 30
0.0
 40
6.095521017841
100
AcDbArc
 50
252.065222376032
 51
339.77789943142
  0
LINE
  5
46
100
AcDbEntity
  8
0
  6
CONTINUOUS
 62
         214
 48
12.0
100
AcDbLine
 10
-10.782029870653
 20
-11.950346946716
 30
0.0
 11
-10.497150659952
 21
-13.734455104661
 31
0.0
  0
LINE
  5
47
100
AcDbEntity
  8
0
  6
CONTINUOUS
 62
         214
 48
12.0
100
AcDbLine
 10
1.488819213334
 20
-8.982101299429
 30
0.0
 11
2.396161908412
 21
-10.794601299429
 31
0.0
  0
LINE
  5
48
100
AcDbEntity
  8
0
  6
CONTINUOUS
 62
         214
 48
12.0
100
AcDbLine
 10
32.531190051048
 20
-1.120101830071
 30
0.0
 11
26.172118576468
 21
-1.120101830071
 31
0.0
  0
LINE
  5
49
100
AcDbEntity
  8
0
  6
CONTINUOUS
 62
         214
 48
12.0
100
AcDbLine
 10
32.531190051048
 20
-2.932601830071
 30
0.0
 11
24.919290041586
 21
-2.932601830071
 31
0.0
  0
LINE
  5
4A
100
AcDbEntity
  8
0
  6
CONTINUOUS
 62
         214
 48
12.0
100
AcDbLine
 10
26.172118576468
 20
-1.120101830071
 30
0.0
 11
23.244200775223
 21
6.630730364564
 31
0.0
  0
LINE
  5
4B
100
AcDbEntity
  8
0
  6
CONTINUOUS
 62
         214
 48
12.0
100
AcDbLine
 10
24.919290041586
 20
-2.932601830071
 30
0.0
 11
23.295327099959
 21
1.36637959813
 31
0.0
  0
LINE
  5
4C
100
AcDbEntity
  8
0
  6
CONTINUOUS
 62
         214
 48
12.0
100
AcDbLine
 10
23.295327099959
 20
1.36637959813
 30
0.0
 11
18.433937150242
 21
-12.299975965907
 31
0.0
  0
LINE
  5
4D
100
AcDbEntity
  8
0
  6
CONTINUOUS
 62
         214
 48
12.0
100
AcDbLine
 10
23.244200775223
 20
6.630730364564
 30
0.0
 11
18.669329210777
 21
-6.230163763702
 31
0.0
  0
LINE
  5
4E
100
AcDbEntity
  8
0
  6
CONTINUOUS
 62
         214
 48
12.0
100
AcDbLine
 10
18.433937150242
 20
-12.299975965907
 30
0.0
 11
15.815810342509
 21
-2.623458782472
 31
0.0
  0
LINE
  5
4F
100
AcDbEntity
  8
0
  6
CONTINUOUS
 62
         214
 48
12.0
100
AcDbLine
 10
15.815810342509
 20
-2.623458782472
 30
0.0
 11
11.056781025757
 21
-10.794601299429
 31
0.0
  0
LINE
  5
50
100
AcDbEntity
  8
0
  6
CONTINUOUS
 62
         214
 48
12.0
100
AcDbLine
 10
10.033583502954
 20
-8.982101299429
 30
0.0
 11
16.690251951312
 21
1.820858238895
 31
0.0
  0
LINE
  5
51
100
AcDbEntity
  8
0
  6
CONTINUOUS
 62
         214
 48
12.0
100
AcDbLine
 10
16.690251951312
 20
1.820858238895
 30
0.0
 11
18.669329210777
 21
-6.230163763702
 31
0.0
  0
LINE
  5
52
100
AcDbEntity
  8
0
  6
CONTINUOUS
 62
         214
 48
12.0
100
AcDbLine
 10
4.641850436443
 20
-8.982101299429
 30
0.0
 11
10.033583502954
 21
-8.982101299429
 31
0.0
  0
LINE
  5
53
100
AcDbEntity
  8
0
  6
CONTINUOUS
 62
         214
 48
12.0
100
AcDbLine
 10
2.396161908412
 20
-10.794601299429
 30
0.0
 11
11.056781025757
 21
-10.794601299429
 31
0.0
  0
LINE
  5
54
100
AcDbEntity
  8
0
  6
CONTINUOUS
 62
         214
 48
12.0
100
AcDbLine
 10
-43.691649249253
 20
-3.366963465131
 30
0.0
 11
-43.691649249253
 21
-5.179463465131
 31
0.0
  0
LINE
  5
55
100
AcDbEntity
  8
0
  6
CONTINUOUS
 62
         214
 48
12.0
100
AcDbLine
 10
-4.620131492615
 20
11.741919517517
 30
0.0
 11
-1.651769290902
 21
11.702687900591
 31
0.0
  0
LINE
  5
56
100
AcDbEntity
  8
0
  6
CONTINUOUS
 62
         214
 48
12.0
100
AcDbLine
 10
32.531190051048
 20
-1.120101830071
 30
0.0
 11
30.466931572829
 21
3.23708091073
 31
0.0
  0
LINE
  5
57
100
AcDbEntity
  8
0
  6
CONTINUOUS
 62
         214
 48
12.0
100
AcDbLine
 10
30.466931572829
 20
3.23708091073
 30
0.0
 11
41.900498006396
 21
-2.026351830071
 31
0.0
  0
LINE
  5
58
100
AcDbEntity
  8
0
  6
CONTINUOUS
 62
         214
 48
12.0
100
AcDbLine
 10
30.466931572829
 20
-7.289784570872
 30
0.0
 11
41.900498006396
 21
-2.026351830071
 31
0.0
  0
LINE
  5
59
100
AcDbEntity
  8
0
  6
CONTINUOUS
 62
         214
 48
12.0
100
AcDbLine
 10
32.531190051048
 20
-2.932601830071
 30
0.0
 11
30.466931572829
 21
-7.289784570872
 31
0.0
  0
ENDSEC
  0
SECTION
  2
OBJECTS
  0
DICTIONARY
  5
19
100
AcDbDictionary
  3
ACAD_GROUP
350
1A
  3
ACAD_MLINESTYLE
350
1B
  0
DICTIONARY
  5
1A
102
{ACAD_REACTORS
330
19
102
}
100
AcDbDictionary
  0
DICTIONARY
  5
1B
102
{ACAD_REACTORS
330
19
102
}
100
AcDbDictionary
  3
STANDARD
350
1C
  0
MLINESTYLE
  5
1C
102
{ACAD_REACTORS
330
1B
102
}
100
AcDbMlineStyle
  2
STANDARD
 70
           0
  3

 62
           0
 51
90.0
 52
90.0
 71
           2
 49
0.5
 62
         256
  6
BYLAYER
 49
-0.5
 62
         256
  6
BYLAYER
  0
ENDSEC
  0
EOF
