<?xml version="1.0" encoding="iso-8859-1"?>
<!-- Generator: Adobe Illustrator 9.0, SVG Export Plug-In  -->
<!DOCTYPE svg PUBLIC "-//W3C//DTD SVG 20000303 Stylable//EN"   "http://www.w3.org/TR/2000/03/WD-SVG-20000303/DTD/svg-20000303-stylable.dtd" [
	<!ENTITY st0 "fill-rule:nonzero;clip-rule:nonzero;fill:#FFFFFF;stroke:#000000;stroke-miterlimit:4;">
	<!ENTITY st1 "stroke:none;">
]>
<svg  width="287.639pt" height="76.202pt" viewBox="0 0 287.639 76.202" xml:space="preserve">
	<g id="Layer_x0020_1" style="&st0;">
		<g style="&st1;">
			<path d="M3.515,6.497l6.656,15.846l-3.515,1.477L0,7.973l3.515-1.477z"/>
			<path d="M17.178,20.229l2.486-7.169c-0.362,0.188-0.731,0.322-1.108,0.405c-1.25,0.274-2.44-0.006-3.568-0.841c-1.128-0.834-1.853-1.982-2.173-3.445c-0.361-1.647-0.127-3.146,0.703-4.499c0.831-1.353,2.035-2.202,3.616-2.548c1.588-0.348,3.032-0.08,4.332,0.805
				c1.3,0.885,2.134,2.167,2.501,3.846c0.437,1.992,0.177,4.351-0.779,7.077l-1.896,5.468l-4.114,0.902z M18.88,10.387c0.539-0.118,0.936-0.454,1.19-1.008c0.254-0.553,0.301-1.197,0.14-1.93c-0.175-0.797-0.482-1.389-0.92-1.773
				c-0.439-0.385-0.948-0.514-1.527-0.387c-0.556,0.122-0.963,0.463-1.225,1.022c-0.261,0.56-0.311,1.21-0.148,1.951c0.166,0.757,0.479,1.332,0.941,1.725s0.978,0.526,1.55,0.4z"/>
			<path d="M30.056,17.878l3.586-6.688c-0.387,0.128-0.773,0.203-1.159,0.225c-1.278,0.074-2.409-0.391-3.391-1.393c-0.982-1.002-1.516-2.25-1.602-3.745c-0.097-1.684,0.371-3.127,1.404-4.332C29.928,0.742,31.252,0.093,32.867,0c1.624-0.093,3.006,0.4,4.15,1.479
				c1.144,1.079,1.765,2.477,1.864,4.192c0.117,2.036-0.512,4.325-1.886,6.866l-2.735,5.1l-4.204,0.242z M33.29,8.427c0.551-0.031,0.996-0.301,1.334-0.807c0.338-0.506,0.486-1.135,0.443-1.883C35.02,4.921,34.81,4.289,34.437,3.84s-0.855-0.657-1.447-0.623
				c-0.568,0.033-1.025,0.305-1.371,0.816c-0.346,0.511-0.498,1.146-0.454,1.903c0.044,0.774,0.263,1.391,0.657,1.852c0.394,0.46,0.883,0.673,1.467,0.64z"/>
			<path d="M52.143,0.481L47.656,6.68c0.385-0.074,0.77-0.096,1.155-0.066c1.286,0.101,2.347,0.684,3.183,1.748c0.836,1.063,1.19,2.408,1.063,4.031c-0.132,1.681-0.782,3.037-1.95,4.066c-1.168,1.03-2.567,1.481-4.196,1.354c-1.678-0.132-3.001-0.803-3.969-2.012
				c-0.968-1.209-1.38-2.715-1.239-4.518c0.154-1.958,1.111-4.137,2.874-6.538l3.327-4.597l4.239,0.333z M47.225,14.608c0.591,0.046,1.082-0.145,1.471-0.576c0.389-0.43,0.615-1.042,0.677-1.835c0.061-0.776-0.071-1.414-0.396-1.913s-0.783-0.772-1.374-0.819
				c-0.591-0.046-1.078,0.153-1.46,0.596c-0.382,0.444-0.605,1.074-0.669,1.892c-0.063,0.793,0.062,1.421,0.373,1.886c0.311,0.465,0.77,0.721,1.378,0.769z"/>
			<path d="M62.208,12.093l-0.572,3.294l-6.466-1.123l0.572-3.294l6.465,1.123z"/>
			<path d="M74.691,19.263l-0.877,3.388l-10.982-2.842l0.12-0.466c1.325-0.973,2.879-2.237,4.664-3.793c1.783-1.555,2.949-2.687,3.495-3.395s0.917-1.436,1.11-2.184c0.169-0.652,0.098-1.269-0.212-1.851c-0.31-0.582-0.77-0.952-1.38-1.109
				c-1.212-0.313-2.72,0.028-4.524,1.024l0.903-3.488c1.896-0.622,3.582-0.742,5.057-0.36c1.634,0.423,2.812,1.178,3.533,2.265s0.892,2.367,0.511,3.839c-0.521,2.014-2.782,4.542-6.782,7.584l5.364,1.388z"/>
			<path d="M86.97,8.735c1.72,0.608,2.8,1.824,3.241,3.647c0.441,1.823,0.211,4.007-0.688,6.551c-0.936,2.646-2.134,4.544-3.595,5.694c-1.462,1.15-3.064,1.417-4.808,0.801c-1.767-0.625-2.88-1.847-3.339-3.667c-0.459-1.821-0.228-4.034,0.694-6.641
				c0.933-2.638,2.155-4.512,3.668-5.623c1.513-1.11,3.121-1.364,4.827-0.761z M82.147,22.377c0.658,0.232,1.275,0.007,1.852-0.678c0.576-0.684,1.25-2.115,2.02-4.293c0.641-1.813,0.947-3.146,0.919-4.001c-0.028-0.854-0.383-1.402-1.064-1.643
				c-0.666-0.235-1.284-0.04-1.853,0.585c-0.569,0.626-1.239,2.028-2.009,4.206c-0.646,1.828-0.956,3.195-0.928,4.102s0.382,1.48,1.063,1.722z"/>
			<path d="M102.347,15.169l-6.895,15.744l-3.492-1.529l6.895-15.744l3.493,1.529z"/>
			<path d="M117.309,22.207l-6.532,3.987c0.384,0.08,0.748,0.208,1.091,0.385c1.147,0.589,1.901,1.536,2.262,2.84c0.36,1.304,0.168,2.681-0.576,4.129c-0.771,1.5-1.894,2.499-3.369,2.999c-1.476,0.5-2.94,0.375-4.394-0.371c-1.498-0.77-2.458-1.899-2.885-3.388
				c-0.426-1.489-0.226-3.037,0.601-4.646c0.898-1.747,2.622-3.387,5.175-4.921l4.844-2.957l3.782,1.943z M107.319,33.341c0.527,0.271,1.054,0.283,1.579,0.036c0.525-0.247,0.97-0.724,1.333-1.431c0.355-0.692,0.48-1.332,0.374-1.917
				c-0.107-0.586-0.424-1.015-0.952-1.286c-0.528-0.271-1.054-0.276-1.578-0.014c-0.523,0.262-0.973,0.757-1.347,1.486c-0.363,0.708-0.492,1.335-0.384,1.884c0.107,0.548,0.432,0.962,0.975,1.241z"/>
		</g>
		<g style="&st1;">
			<path d="M149.928,60.142l-0.566,3.708c-2.004-1.381-4.04-2.229-6.106-2.545c-1.995-0.305-3.608-0.034-4.84,0.811c-1.232,0.846-1.968,2.051-2.207,3.614c-0.229,1.499,0.125,2.795,1.061,3.889c0.936,1.093,2.284,1.774,4.042,2.043
				c0.932,0.142,1.899,0.08,2.902-0.188l0.307-2.01l-2.441-0.373l0.477-3.119l6.673,1.019l-1.065,6.972c-0.775,0.573-1.882,0.969-3.319,1.187s-2.828,0.224-4.172,0.019c-2.955-0.451-5.257-1.641-6.905-3.57c-1.648-1.929-2.279-4.158-1.893-6.688
				c0.395-2.587,1.667-4.551,3.816-5.892s4.734-1.78,7.756-1.319c2.495,0.381,4.655,1.195,6.479,2.443z"/>
			<path d="M166.138,73.045l-0.002,3.156l-12.656-0.009l0.012-17.188l12.469,0.009l-0.003,3.156l-8.188-0.006l-0.002,3.594l7.813,0.005l-0.003,3.156l-7.813-0.005l-0.003,4.125l8.375,0.006z"/>
			<path d="M184.339,57.235l0.331,3.14l-6.185,0.651l1.469,13.954l-4.258,0.448l-1.469-13.954l-6.185,0.65l-0.331-3.139l16.627-1.751z"/>
			<path d="M197.617,54.635l3.426,16.842l-4.195,0.854l-3.426-16.842l4.195-0.854z"/>
			<path d="M218.064,49.55l4.365,16.624l-3.489,0.916l-11.972-8.24l2.796,10.649l-4.141,1.088l-4.365-16.624l3.795-0.996l11.538,7.833l-2.668-10.162l4.141-1.088z"/>
			<path d="M238.278,57.73l0.977,3.001l-12.45,4.055l-5.321-16.343l4.07-1.326l4.345,13.342l8.38-2.729z"/>
			<path d="M240.165,42.079l5.854,16.161l-4.025,1.458l-5.854-16.161l4.025-1.458z"/>
			<path d="M259.857,34.319l6.44,15.935l-3.345,1.353l-12.922-6.655l4.126,10.208l-3.969,1.604l-6.44-15.935l3.637-1.47l12.439,6.305l-3.937-9.741l3.97-1.604z"/>
			<path d="M280.521,40.375l1.303,2.875l-11.526,5.226l-7.098-15.654l11.356-5.148l1.304,2.875l-7.457,3.381l1.483,3.273l7.115-3.226l1.304,2.875l-7.115,3.226l1.703,3.757l7.628-3.458z"/>
			<path d="M281.912,26.851c0.5,1.037,1.064,2.657,1.692,4.861s0.949,3.492,0.964,3.863c0.015,0.372-0.123,0.628-0.413,0.768c-0.313,0.151-0.586,0.125-0.821-0.076c-0.235-0.201-1.005-1.174-2.311-2.919c-1.305-1.744-2.285-3.294-2.939-4.649
				c-0.79-1.637-0.542-2.766,0.745-3.387c1.265-0.611,2.293-0.097,3.083,1.54z M283.581,40.229c-0.26-0.538-0.289-1.095-0.087-1.67s0.577-0.995,1.126-1.26c0.541-0.261,1.1-0.292,1.676-0.092c0.575,0.2,0.994,0.568,1.254,1.107c0.264,0.546,0.293,1.105,0.089,1.676
				c-0.204,0.571-0.575,0.988-1.116,1.249c-0.549,0.265-1.11,0.299-1.685,0.104s-0.993-0.567-1.257-1.113z"/>
		</g>
	</g>
</svg>
