<?xml version="1.0" encoding="iso-8859-1"?>
<!-- Generator: Adobe Illustrator 9.0, SVG Export Plug-In  -->
<!DOCTYPE svg PUBLIC "-//W3C//DTD SVG 20000303 Stylable//EN"   "http://www.w3.org/TR/2000/03/WD-SVG-20000303/DTD/svg-20000303-stylable.dtd" [
	<!ENTITY st0 "fill-rule:nonzero;clip-rule:nonzero;fill:#FB0F0C;stroke:#000000;stroke-miterlimit:4;">
	<!ENTITY st1 "stroke:none;">
]>
<svg  width="260.604pt" height="202.808pt" viewBox="0 0 260.604 202.808" xml:space="preserve">
	<g id="Layer_x0020_1" style="&st0;">
		<g style="&st1;">
			<path d="M212.942,151.386c-3.584,9.578-9.327,14.367-17.238,14.367c-7.112,0-12.533-3.643-16.275-10.918c-13.589,3.141-27.465,5.252-41.015,5.686c2.281,5.598,4.953,10.74,8.035,15.404c11.847,17.922,28.459,26.883,49.819,26.883
				c21.069,0,37.275-9.004,48.611-27.033c8.243-13.111,13.477-29.988,15.725-50.594c-12.481,6.045-28.258,13.025-45.68,19.189c-0.586,2.689-1.244,5.043-1.982,7.016z"/>
			<g>
				<path d="M154.438,95.137c0.003,0.814-0.068,1.55-0.202,2.219l-0.388,9.936c6.127-0.266,12.278-0.977,18.409-2.063c-0.003-0.594-0.01-1.174-0.01-1.775c0-26.423,1.853-44.098,5.578-53.018c3.722-8.92,9.584-13.38,17.598-13.38c8.191,0,14.052,4.554,17.589,13.662
					c3.173,8.169,4.917,21.544,5.244,40.076c14.929-6.524,28.938-14.273,41.235-21.928c-2.717-16.512-7.749-30.46-15.104-41.833C232.728,9.014,216.5,0,195.704,0c-20.609,0-36.938,8.896-48.971,26.681c-9.528,14.08-15.27,32.655-17.255,55.693
					c15.233,6.485,24.896,11.432,24.896,11.432c0.041,0.464,0.062,0.908,0.063,1.331z"/>
				<path d="M66.671,159.743c3.675-4.66,7.15-9.199,10.447-13.633c-2.216-1.414-4.38-2.932-6.476-4.586l7.399-30.932l5.872-26.737c0.005,0.004,0.01,0.008,0.015,0.013c-0.073-0.534-0.039-0.976,0.124-1.31c1.554-3.193,13.455,2.39,27.043,8.483c0,0,0,0,0,0
					c2.208-4.905,4.008-9.567,5.411-13.99c2.444-7.706,3.678-14.686,3.678-20.927c0-17.433-5.58-31.149-16.722-41.141C92.313,4.999,77.047,0,57.674,0C40.178,0,21.783,6.275,2.504,18.826v33.498v7.768c3.072-2.921,6.097-5.569,9.079-7.969
					c13.715-11.035,26.486-16.568,38.305-16.568c7.231,0,13.412,2.778,18.537,8.333c4.973,5.391,7.53,11.807,7.678,19.231c0.004,0.228,0.014,0.453,0.014,0.682c0,8.857-2.027,17.988-6.064,27.401c-1.6,3.732-4.103,8.495-7.479,14.255
					c-5.148,8.783-12.348,19.908-21.627,33.412C25.579,161.229,11.933,179.704,0,194.296v5.506h130.199v-39.227c-4.255-0.09-8.465-0.354-12.608-0.832H66.671z"/>
			</g>
		</g>
	</g>
</svg>
