<?xml version="1.0" encoding="iso-8859-1"?>
<!-- Generator: Adobe Illustrator 9.0, SVG Export Plug-In  -->
<!DOCTYPE svg PUBLIC "-//W3C//DTD SVG 20000303 Stylable//EN"   "http://www.w3.org/TR/2000/03/WD-SVG-20000303/DTD/svg-20000303-stylable.dtd" [
	<!ENTITY st0 "fill-rule:nonzero;clip-rule:nonzero;fill:#30338D;stroke:#000000;stroke-miterlimit:4;">
	<!ENTITY st1 "fill:#303333;">
	<!ENTITY st2 "stroke:none;">
]>
<svg  width="363.102pt" height="126.917pt" viewBox="0 0 363.102 126.917" xml:space="preserve">
	<g id="Layer_x0020_1" style="&st0;">
		<g style="&st2;">
			<path d="M179.057,64.809c12.883,4.813,23.924,6.86,25.521-1.111l0.139-3.549c0,0-9.663-4.947-24.896-11.432c-3.97-1.69-8.317-3.484-12.972-5.323c-1.402,4.423-3.203,9.084-5.411,13.99c5.791,2.597,11.886,5.283,17.619,7.425z"/>
			<path d="M126.459,30.143c0-0.229-0.01-0.455-0.014-0.682c-21.057-6.126-43.747-10.778-64.52-10.996c-2.982,2.4-6.007,5.048-9.079,7.969v-7.768C30.684,19.942,11.486,27.128,0,44.185l22.929,8.624L7.487,102.119c0,0,27.095-67.176,105.428-30.32
				c3.377-5.76,5.88-10.523,7.479-14.255c4.038-9.413,6.064-18.544,6.064-27.401z"/>
			<path style="&st1;" d="M179.057,64.81c-5.733-2.142-11.828-4.829-17.619-7.426c-13.588-6.093-25.489-11.676-27.043-8.483c-0.162,0.333-0.197,0.775-0.124,1.31c20.971,18.314,45.25,24.492,69.919,23.423l0.388-9.936c-1.598,7.973-12.639,5.924-25.521,1.112z"/>
			<path d="M363.102,61.604l-18.236-14.839L357.922,0c0,0-19.385,17.343-48.088,35.209c-12.298,7.655-26.307,15.404-41.235,21.928c-14.694,6.422-30.278,11.652-45.999,14.435c-6.131,1.086-12.282,1.797-18.409,2.063c-24.669,1.068-48.949-5.109-69.919-23.423
				c-0.005-0.004-0.01-0.008-0.015-0.013l-5.872,26.737l-7.399,30.932c2.096,1.654,4.26,3.172,6.476,4.586c12.083,7.711,25.863,11.951,40.472,13.633c4.143,0.479,8.353,0.742,12.608,0.832c2.722,0.057,5.462,0.033,8.215-0.055c13.55-0.434,27.426-2.545,41.015-5.686
				c12.22-2.824,24.201-6.469,35.496-10.465c17.422-6.164,33.198-13.145,45.68-19.189c17.692-8.568,28.765-15.246,28.459-15.002l23.696-14.917z"/>
		</g>
	</g>
</svg>
