<?xml version="1.0" encoding="iso-8859-1"?>
<!-- Generator: Adobe Illustrator 9.0, SVG Export Plug-In  -->
<!DOCTYPE svg PUBLIC "-//W3C//DTD SVG 20000303 Stylable//EN"   "http://www.w3.org/TR/2000/03/WD-SVG-20000303/DTD/svg-20000303-stylable.dtd" [
	<!ENTITY st0 "fill:#1D4EA0;stroke:none;">
	<!ENTITY st1 "fill-rule:nonzero;clip-rule:nonzero;stroke:#000000;stroke-miterlimit:4;">
]>
<svg  width="568.41pt" height="326.968pt" viewBox="0 0 568.41 326.968" xml:space="preserve">
	<g id="Layer_x0020_1" style="&st1;">
		<path style="&st0;" d="M84.309,47.07C29.941,77.93,0,119.273,0,163.484s29.941,85.553,84.309,116.414c53.476,30.354,124.467,47.07,199.896,47.07c75.43,0,146.42-16.717,199.896-47.07c54.367-30.86,84.309-72.203,84.309-116.414S538.469,77.93,484.102,47.07
			C430.626,16.716,359.636,0,284.206,0c-75.43,0-146.421,16.716-199.896,47.07z M10,163.484C10,78.853,133.008,10,284.206,10C435.402,10,558.41,78.853,558.41,163.484S435.402,316.968,284.206,316.968C133.008,316.968,10,248.115,10,163.484z"/>
	</g>
</svg>
