<?xml version="1.0" encoding="iso-8859-1"?>
<!-- Generator: Adobe Illustrator 9.0, SVG Export Plug-In  -->
<!DOCTYPE svg PUBLIC "-//W3C//DTD SVG 20000303 Stylable//EN"   "http://www.w3.org/TR/2000/03/WD-SVG-20000303/DTD/svg-20000303-stylable.dtd" [
	<!ENTITY st0 "fill-rule:nonzero;clip-rule:nonzero;fill:#1D4EA0;stroke:#000000;stroke-miterlimit:4;">
	<!ENTITY st1 "stroke:none;">
]>
<svg  width="348.546pt" height="294.108pt" viewBox="0 0 348.546 294.108" xml:space="preserve">
	<g id="Layer_x0020_1" style="&st0;">
		<g style="&st1;">
			<path d="M19.222,31.641l2.663,5.096L9.643,43.134l3.271,6.259l12.242-6.397l2.663,5.096L15.577,54.49l5.992,11.466l-6.979,3.647L0,41.685l19.222-10.044z"/>
			<path d="M43.18,21.524c5.041-1.832,9.677-1.79,13.907,0.127c4.229,1.917,7.081,4.9,8.552,8.947c1.492,4.105,1.203,8.241-0.864,12.405c-2.068,4.165-5.581,7.147-10.538,8.949c-5.014,1.822-9.641,1.806-13.88-0.051s-7.11-4.852-8.612-8.986
				c-1.476-4.062-1.204-8.185,0.818-12.365s5.561-7.189,10.617-9.026z M51.996,45.784c2.787-1.013,4.729-2.66,5.828-4.942s1.157-4.776,0.174-7.48c-0.987-2.718-2.634-4.595-4.939-5.633c-2.305-1.037-4.851-1.05-7.637-0.038c-2.801,1.018-4.755,2.666-5.863,4.943
				c-1.109,2.278-1.168,4.776-0.181,7.494c0.983,2.704,2.631,4.578,4.946,5.619c2.314,1.042,4.872,1.054,7.673,0.036z"/>
			<path d="M68.405,13.754l13.651-3.256c2.96-0.706,5.572-0.42,7.834,0.856c2.263,1.277,3.685,3.137,4.268,5.579c0.806,3.379-0.35,6.298-3.468,8.757c1.713,0.319,3.629,1.848,5.748,4.586c2.118,2.739,4.147,5.313,6.086,7.723l-8.322,1.985
				c-0.747-0.888-2.088-2.6-4.022-5.138c-1.934-2.536-3.436-4.106-4.506-4.711c-1.07-0.604-2.104-0.787-3.102-0.549l-2.171,0.518l2.973,12.463l-7.66,1.827l-7.308-30.64z M77.399,17.521l1.667,6.991l3.997-0.954c1.274-0.304,2.211-0.849,2.813-1.634
				c0.601-0.786,0.767-1.744,0.498-2.873c-0.552-2.316-2.27-3.13-5.152-2.443l-3.823,0.912z"/>
			<path d="M101.01,6.318l13.763-1.922c5.318-0.742,9.725,0.126,13.222,2.605c3.498,2.479,5.568,6.026,6.213,10.642c0.675,4.839-0.362,8.857-3.112,12.057c-2.75,3.2-7.03,5.205-12.838,6.016l-12.892,1.8L101.01,6.318z M109.604,10.924l2.766,19.808l5.068-0.708
				c3.29-0.459,5.678-1.717,7.167-3.772c1.488-2.056,2.025-4.569,1.611-7.538c-0.429-3.074-1.649-5.373-3.66-6.894c-2.011-1.522-4.668-2.052-7.973-1.591l-4.979,0.695z"/>
			<path d="M161.147,2.308l0.338,6.126c-4.281-1.641-7.659-2.394-10.138-2.256c-1.413,0.078-2.523,0.379-3.33,0.902s-1.189,1.178-1.146,1.964c0.034,0.605,0.369,1.164,1.005,1.676s2.143,1.131,4.519,1.86s4.282,1.422,5.72,2.082c1.437,0.66,2.701,1.631,3.789,2.913
				c1.088,1.283,1.688,2.947,1.802,4.992c0.161,2.917-0.82,5.303-2.943,7.155c-2.124,1.853-4.997,2.878-8.622,3.078c-3.911,0.216-7.757-0.579-11.538-2.386l-0.371-6.721c2.186,1.274,4.11,2.185,5.772,2.73c1.663,0.546,3.405,0.769,5.229,0.668
				c3.089-0.171,4.58-1.232,4.472-3.186c-0.037-0.665-0.382-1.276-1.035-1.833c-0.654-0.557-2.18-1.191-4.576-1.905c-2.397-0.712-4.304-1.393-5.719-2.038c-1.415-0.646-2.659-1.61-3.732-2.893c-1.074-1.282-1.667-2.968-1.783-5.059
				c-0.15-2.705,0.818-4.948,2.902-6.73s4.951-2.773,8.6-2.975c3.362-0.186,6.957,0.426,10.785,1.834z"/>
			<path d="M177.014,0.266l0.059,31.5l-7.875,0.015l-0.058-31.5l7.875-0.015z"/>
			<path d="M218.157,2.223L204.92,16.568l12.608,17.178L207.375,33.1l-7.866-10.887l-9.023,9.812l-10.007-0.637l14.362-15.47L183.227,0l10.156,0.646l6.869,9.629l7.896-8.689l10.008,0.637z"/>
			<path d="M219.863,30.854c0.14-1.085,0.651-1.966,1.536-2.646c0.884-0.679,1.87-0.949,2.961-0.809c1.105,0.142,2,0.654,2.684,1.535c0.684,0.881,0.956,1.864,0.816,2.949c-0.142,1.1-0.654,1.985-1.537,2.657c-0.884,0.671-1.878,0.936-2.983,0.794
				c-1.091-0.14-1.978-0.647-2.661-1.52c-0.686-0.874-0.957-1.86-0.815-2.96z"/>
			<path d="M263.496,32.153l-1.33,6.783c-4.274,1.302-8.531,1.537-12.77,0.706c-5.495-1.078-9.573-3.455-12.234-7.131c-2.66-3.675-3.554-7.738-2.682-12.187c0.873-4.448,3.329-7.888,7.37-10.319c4.042-2.431,8.83-3.104,14.367-2.017
				c4.414,0.866,7.971,2.509,10.67,4.927l-1.354,6.9c-3.329-2.86-6.667-4.62-10.014-5.277c-3.289-0.645-6.15-0.289-8.584,1.068c-2.435,1.358-3.918,3.403-4.454,6.137c-0.54,2.75,0.044,5.221,1.752,7.413s4.171,3.604,7.388,4.235c1.594,0.313,3.169,0.402,4.729,0.268
				c1.559-0.134,3.939-0.636,7.146-1.505z"/>
			<path d="M292.483,17.438c5.11,1.63,8.754,4.496,10.932,8.598c2.177,4.102,2.611,8.205,1.303,12.308c-1.327,4.162-4.083,7.259-8.264,9.292c-4.182,2.033-8.785,2.248-13.81,0.646c-5.082-1.621-8.734-4.461-10.956-8.522s-2.664-8.185-1.327-12.375
				c1.313-4.118,4.048-7.214,8.202-9.288c4.155-2.074,8.795-2.293,13.92-0.658z M284.639,42.029c2.824,0.901,5.368,0.784,7.633-0.352c2.264-1.135,3.834-3.074,4.708-5.814c0.879-2.755,0.723-5.248-0.469-7.478c-1.191-2.229-3.198-3.795-6.022-4.696
				c-2.84-0.906-5.394-0.795-7.662,0.331c-2.27,1.126-3.843,3.067-4.722,5.822c-0.875,2.741-0.715,5.231,0.481,7.471c1.195,2.239,3.213,3.811,6.053,4.717z"/>
			<path d="M328.171,44.722l14.192-5.982l6.183,3.056l-13.958,28.239l-7.06-3.49l8.725-17.652l-12.013,5.081l-1.008-0.498l-3.228-12.614l-8.726,17.652l-7.06-3.49l13.958-28.239l6.164,3.047l3.829,14.89z"/>
		</g>
		<g style="&st1;">
			<path d="M42.692,266.471l-1.388,3.306c-2.31,0.212-4.499-0.116-6.567-0.984c-2.682-1.126-4.505-2.764-5.471-4.916c-0.966-2.151-0.992-4.314-0.079-6.49c0.913-2.174,2.525-3.669,4.838-4.482c2.313-0.814,4.82-0.654,7.523,0.48c2.155,0.904,3.792,2.113,4.912,3.627
				l-1.413,3.365c-1.394-1.805-2.908-3.051-4.542-3.736c-1.606-0.674-3.1-0.792-4.482-0.355c-1.382,0.438-2.354,1.325-2.916,2.664c-0.565,1.347-0.529,2.668,0.108,3.966c0.637,1.297,1.74,2.275,3.31,2.934c0.778,0.327,1.57,0.538,2.376,0.634
				c0.807,0.097,2.07,0.093,3.791-0.011z"/>
			<path d="M56.878,273.557l-0.99,2.832l-11.387-3.979l5.402-15.459l11.24,3.929l-0.99,2.832l-7.375-2.578l-1.134,3.245l7.021,2.454l-0.99,2.832l-7.021-2.454l-1.299,3.718l7.522,2.629z"/>
			<path d="M72.276,278.164l-0.848,2.877l-11.96-3.525l4.63-15.707l3.927,1.158l-3.782,12.829l8.033,2.368z"/>
			<path d="M86.604,281.712l-0.715,2.914l-11.715-2.875l3.902-15.903l11.563,2.838l-0.715,2.913l-7.587-1.861l-0.819,3.338l7.223,1.772l-0.715,2.914l-7.223-1.772l-0.938,3.824l7.739,1.898z"/>
			<path d="M92.681,269.364l6.925,1.364c1.651,0.325,2.87,0.979,3.657,1.961c0.787,0.981,1.074,2.016,0.86,3.103c-0.274,1.394-1.217,2.316-2.827,2.771c1.046,0.509,1.791,1.19,2.235,2.043c0.443,0.854,0.568,1.771,0.375,2.754c-0.275,1.397-0.978,2.439-2.106,3.127
				c-1.129,0.688-2.623,0.848-4.481,0.481l-7.803-1.538l3.166-16.065z M94.861,279.476l-0.749,3.802l2.235,0.44c1.057,0.208,1.846,0.21,2.368,0.006c0.522-0.205,0.855-0.672,0.999-1.401c0.11-0.561-0.023-1.048-0.399-1.461c-0.377-0.413-0.934-0.692-1.671-0.838
				l-2.783-0.548z M96.117,273.098l-0.677,3.434l2.062,0.406c0.634,0.125,1.161,0.059,1.581-0.201s0.679-0.638,0.777-1.136c0.096-0.489-0.001-0.93-0.293-1.322c-0.292-0.392-0.754-0.649-1.389-0.774l-2.062-0.406z"/>
			<path d="M108.934,272.477l7.224,1.088c1.567,0.235,2.772,0.881,3.616,1.935s1.168,2.225,0.975,3.513c-0.269,1.781-1.393,2.961-3.372,3.537c0.76,0.502,1.383,1.619,1.872,3.351c0.488,1.731,0.965,3.367,1.431,4.905l-4.395-0.662
				c-0.187-0.573-0.5-1.659-0.939-3.258c-0.439-1.599-0.859-2.647-1.26-3.146s-0.867-0.788-1.396-0.868l-1.154-0.174l-0.991,6.582l-4.048-0.609l2.439-16.192z M112.536,276.053l-0.554,3.677l2.123,0.32c0.677,0.102,1.237,0.022,1.682-0.238
				c0.444-0.26,0.711-0.687,0.801-1.28c0.184-1.218-0.49-1.942-2.021-2.173l-2.03-0.306z"/>
			<path d="M134.292,275.801l5.527,17.04l-4.361-0.454l-1-3.341l-7.295-0.761l-1.54,3.076l-4.297-0.448l8.233-15.605l4.733,0.493z M133.564,286.062l-1.979-6.607l-3.046,6.084l5.025,0.523z"/>
			<path d="M155.143,277.38l-0.197,2.994l-5.924-0.391l-0.879,13.346l-4.085-0.269l0.879-13.347l-5.925-0.39l0.197-2.994l15.934,1.05z"/>
			<path d="M161.696,277.554l-0.568,16.364l-4.091-0.142l0.568-16.365l4.091,0.143z"/>
			<path d="M181.874,277.733l-0.009,16.375l-3.462-0.002l-9.001-10.496l-0.006,10.491l-4.094-0.003l0.009-16.375l3.756,0.002l8.708,10.016l0.005-10.011l4.094,0.003z"/>
			<path d="M200.965,278.013l0.17,3.57c-2.127-0.899-4.184-1.303-6.17-1.208c-1.916,0.092-3.368,0.648-4.358,1.67c-0.989,1.021-1.448,2.285-1.376,3.79c0.068,1.443,0.642,2.587,1.719,3.431c1.078,0.845,2.461,1.227,4.15,1.146c0.895-0.043,1.784-0.281,2.668-0.715
				l-0.091-1.911l-2.342,0.111l-0.143-2.996l6.43-0.307l0.319,6.692c-0.616,0.68-1.576,1.256-2.879,1.729c-1.303,0.473-2.602,0.74-3.896,0.802c-2.848,0.136-5.223-0.541-7.127-2.031c-1.904-1.489-2.914-3.451-3.03-5.886c-0.119-2.489,0.698-4.562,2.452-6.219
				c1.754-1.656,4.085-2.555,6.994-2.693c2.401-0.114,4.571,0.228,6.509,1.023z"/>
			<path d="M222.811,287.91l0.352,3.325l-10.784,1.141l-0.048-0.455c0.861-1.309,1.832-2.952,2.91-4.932c1.078-1.979,1.744-3.374,1.997-4.187c0.252-0.813,0.34-1.583,0.263-2.313c-0.067-0.637-0.337-1.162-0.81-1.575c-0.473-0.414-1.008-0.589-1.606-0.525
				c-1.19,0.126-2.426,0.938-3.707,2.435l-0.361-3.415c1.483-1.206,2.949-1.887,4.396-2.04c1.602-0.169,2.906,0.11,3.915,0.837s1.589,1.809,1.741,3.247c0.208,1.966-0.964,4.972-3.515,9.014l5.258-0.556z"/>
			<path d="M228.905,273.715c1.715-0.241,3.157,0.313,4.328,1.659c1.17,1.347,1.935,3.293,2.292,5.838c0.373,2.646,0.195,4.776-0.531,6.39s-1.959,2.542-3.696,2.786c-1.762,0.248-3.235-0.296-4.42-1.633s-1.96-3.31-2.326-5.916c-0.371-2.639-0.163-4.759,0.623-6.361
				c0.787-1.603,2.03-2.523,3.73-2.763z M230.824,287.363c0.644-0.091,1.055-0.552,1.234-1.383c0.181-0.831,0.117-2.336-0.189-4.516c-0.255-1.813-0.579-3.076-0.972-3.787c-0.394-0.711-0.923-1.02-1.589-0.926c-0.65,0.092-1.075,0.526-1.274,1.305
				s-0.146,2.257,0.161,4.437c0.257,1.83,0.593,3.122,1.008,3.878c0.415,0.755,0.955,1.086,1.621,0.992z"/>
			<path d="M247.095,287.58l-1.422-7.506l-7.982-7.379l4.861-0.921l4.466,4.401l2.563-5.733l4.843-0.918l-4.726,9.805l1.419,7.488l-4.022,0.763z"/>
			<path d="M270.783,279.362l0.693,2.919l-11.736,2.787l-3.784-15.932l11.583-2.751l0.693,2.918l-7.601,1.806l0.795,3.345l7.235-1.719l0.693,2.919l-7.235,1.719l0.91,3.831l7.753-1.842z"/>
			<path d="M279.682,262.954l11.574,13.672l-4.207,1.233l-2.192-2.712l-7.039,2.062l-0.259,3.431l-4.146,1.214l1.702-17.562l4.567-1.338z M282.898,272.725l-4.336-5.365l-0.513,6.785l4.849-1.42z"/>
			<path d="M288.18,260.333l6.881-2.457c1.492-0.532,2.859-0.534,4.101-0.005c1.242,0.53,2.082,1.408,2.52,2.635c0.605,1.697,0.173,3.268-1.299,4.712c0.906,0.083,1.984,0.772,3.233,2.067c1.248,1.295,2.441,2.511,3.579,3.646l-4.186,1.494
				c-0.436-0.417-1.226-1.226-2.368-2.427s-2.009-1.928-2.598-2.178s-1.137-0.285-1.642-0.104l-1.099,0.393l2.238,6.269l-3.855,1.376l-5.506-15.421z M293.044,261.781l1.251,3.502l2.021-0.722c0.645-0.229,1.101-0.564,1.369-1.004s0.302-0.941,0.101-1.507
				c-0.414-1.16-1.351-1.48-2.809-0.96l-1.934,0.69z"/>
			<path d="M313.794,251.509l1.234,2.93c-2.381-0.035-4.169,0.198-5.361,0.701c-0.68,0.286-1.172,0.628-1.477,1.025c-0.306,0.398-0.378,0.785-0.219,1.161c0.122,0.29,0.385,0.503,0.79,0.64c0.404,0.137,1.253,0.175,2.546,0.114c1.292-0.06,2.349-0.055,3.169,0.017
				c0.82,0.07,1.61,0.324,2.368,0.762c0.758,0.437,1.345,1.146,1.759,2.129c0.591,1.4,0.528,2.74-0.186,4.02c-0.715,1.279-1.941,2.285-3.681,3.019c-1.877,0.792-3.899,1.074-6.069,0.848l-1.366-3.24c1.296,0.244,2.399,0.355,3.311,0.334
				c0.91-0.022,1.803-0.218,2.679-0.587c1.483-0.626,2.027-1.406,1.632-2.343c-0.134-0.319-0.412-0.557-0.833-0.713c-0.42-0.156-1.281-0.198-2.581-0.128c-1.3,0.071-2.354,0.073-3.161,0.006c-0.808-0.068-1.586-0.321-2.337-0.761s-1.338-1.16-1.761-2.163
				c-0.548-1.299-0.467-2.566,0.243-3.805s1.94-2.227,3.693-2.966c1.616-0.682,3.485-1.014,5.607-0.999z"/>
		</g>
	</g>
</svg>
