<?xml version="1.0" encoding="iso-8859-1"?>
<!-- Generator: Adobe Illustrator 9.0, SVG Export Plug-In  -->
<!DOCTYPE svg PUBLIC "-//W3C//DTD SVG 20000303 Stylable//EN"   "http://www.w3.org/TR/2000/03/WD-SVG-20000303/DTD/svg-20000303-stylable.dtd" [
	<!ENTITY st0 "fill-rule:nonzero;clip-rule:nonzero;fill:#1D3682;stroke:#000000;stroke-miterlimit:4;">
	<!ENTITY st1 "stroke:none;">
]>
<svg  width="435.798pt" height="158.705pt" viewBox="0 0 435.798 158.705" xml:space="preserve">
	<g id="Layer_x0020_1" style="&st0;">
		<g style="&st1;">
			<path d="M53.572,0.76V12.69H15.425v9.575h36.248v11.626H15.425v17.553H0V0.76h53.572z"/>
			<path d="M121.582,3.496c3.875,2.964,5.016,8.055,5.016,22.569c0,14.589-1.141,19.681-5.016,22.644c-3.875,2.965-8.663,3.496-29.636,3.496c-21.353,0-26.064-0.531-29.939-3.496c-3.952-3.039-5.016-8.054-5.016-22.948c0-14.134,1.14-19.301,5.016-22.265
				C65.881,0.532,70.593,0,91.793,0c21.201,0,25.913,0.532,29.788,3.496z M73.632,16.338c-0.912,1.748-1.216,4.635-1.216,11.094c0,6.307,0.456,8.359,2.28,9.803c2.051,1.596,4.482,1.824,17.249,1.824c12.386,0,14.894-0.304,16.945-1.824
				c1.748-1.368,2.28-3.571,2.28-9.727c0-7.523-0.457-10.411-1.824-12.083c-1.748-2.052-3.42-2.28-17.554-2.28c-15.198,0-16.642,0.228-18.161,3.192z"/>
			<path d="M132.676,0.76h37.312c17.477,0,17.477,0,20.744,1.976c3.875,2.356,5.016,5.699,5.016,14.514c0,7.522-0.76,10.41-3.495,12.462c-1.445,1.14-2.888,1.672-5.929,2.127c7.828,0.912,9.195,3.192,8.893,14.895v4.711h-15.199v-2.66
				c0-5.699-0.304-7.522-1.52-8.814c-1.064-1.216-2.203-1.368-8.587-1.368h-21.809v12.842h-15.426V0.76z M169.835,25.913c7.75-0.152,7.75-0.152,8.814-0.912c1.216-0.76,1.672-2.28,1.672-5.471c0-3.42-0.608-4.864-2.204-5.547c-1.063-0.456-1.292-0.456-8.282-0.532
				h-21.733v12.462h21.733z"/>
			<path d="M201.066,0.76h36.552c12.918,0,14.664,0.077,18.996,0.988c5.016,0.988,8.359,3.876,9.879,8.587c1.141,3.571,1.445,6.763,1.445,15.046c0,13.222-1.141,18.389-4.865,21.808c-3.875,3.496-8.357,4.256-25.455,4.256h-36.552V0.76z M237.771,38.527
				c13.982,0,14.969-0.76,14.969-12.235c0-6.23-0.533-9.042-2.051-10.714c-1.598-1.824-3.648-2.127-13.07-2.127h-21.354v25.076h21.506z"/>
			<path d="M287.163,34.651c0,3.04,0.303,4.027,1.518,4.788c1.445,0.912,3.117,1.064,13.982,1.064c16.566,0,16.566,0,16.566-4.483c0-3.04-1.139-3.799-6.078-3.875l-12.158-0.456l-8.207-0.38l-4.105-0.152c-12.537-0.38-16.031-3.571-16.031-14.742
				c0-9.65,2.734-13.982,9.727-15.501C285.339,0.304,292.329,0,304.487,0c14.742,0,20.063,0.684,23.633,3.116c3.039,2.052,4.256,5.243,4.256,11.246c0,0.304,0,1.368-0.076,2.356h-14.893c-0.152-2.813-0.381-3.496-1.521-4.18c-1.291-0.76-3.191-0.912-14.135-0.912
				c-13.07,0-14.133,0.304-14.133,4.027c0,1.9,0.684,2.888,2.279,3.268c1.369,0.38,5.547,0.608,16.264,0.912c16.717,0.532,19.984,0.912,23.252,2.964c3.494,2.279,4.785,5.699,4.785,12.766c0,8.815-2.127,13.146-7.369,15.122c-3.039,1.14-9.422,1.52-24.545,1.52
				c-15.73,0-21.885-0.684-25.457-2.963c-3.494-2.204-4.635-5.168-4.635-12.159v-2.432h14.971z"/>
			<path d="M355.78,0.76v50.685h-16.186V0.76h16.186z"/>
			<path d="M381.921,0.76l15.578,17.782L413.228,0.76h21.354l-24.316,25.077l25.533,25.608H414.14l-16.641-18.237l-16.49,18.237h-22.189l25.912-25.608L360.796,0.76h21.125z"/>
		</g>
		<g style="&st1;">
			<path d="M0,64.797h19.644c5.416,0,6.189,0.042,7.781,0.257c5.416,0.816,6.963,3.138,6.963,10.488c0,6.362-1.161,8.855-4.6,10.103c-1.935,0.645-3.869,0.816-10.059,0.816H8.726v7.005H0V64.797z M19.644,79.282c4.04-0.043,4.213-0.043,4.943-0.472
				c0.816-0.519,1.074-1.292,1.074-3.269c0-2.063-0.387-2.924-1.504-3.31c-0.602-0.215-0.688-0.215-4.514-0.258H8.726v7.308h10.918z"/>
			<path d="M68.992,64.797v6.747H45.865v4.17h21.967v6.32H45.865v4.556h23.298v6.876H37.268V64.797h31.724z"/>
			<path d="M71.914,64.797h21.105c9.887,0,9.887,0,11.735,1.117c2.192,1.332,2.837,3.223,2.837,8.21c0,4.255-0.429,5.889-1.977,7.05c-0.816,0.644-1.634,0.944-3.354,1.203c4.428,0.516,5.201,1.805,5.029,8.425v2.664h-8.597v-1.503c0-3.224-0.173-4.255-0.86-4.986
				c-0.602-0.688-1.246-0.774-4.857-0.774H80.64v7.264h-8.727V64.797z M92.933,79.024c4.385-0.086,4.385-0.086,4.987-0.516c0.687-0.43,0.945-1.29,0.945-3.096c0-1.934-0.345-2.751-1.246-3.137c-0.603-0.259-0.731-0.259-4.687-0.302H80.64v7.05h12.293z"/>
			<path d="M140.904,64.797v6.747h-21.577v5.417h20.505v6.576h-20.505v9.929h-8.726V64.797h30.303z"/>
			<path d="M179.376,66.344c2.191,1.676,2.836,4.557,2.836,12.768c0,8.252-0.645,11.131-2.836,12.809c-2.193,1.677-4.9,1.978-16.766,1.978c-12.078,0-14.743-0.301-16.936-1.978c-2.235-1.721-2.838-4.557-2.838-12.981c0-7.996,0.645-10.919,2.838-12.595
				c2.192-1.677,4.857-1.978,16.85-1.978c11.994,0,14.658,0.301,16.852,1.978z M152.251,73.608c-0.515,0.988-0.688,2.621-0.688,6.275c0,3.567,0.258,4.729,1.29,5.545c1.161,0.903,2.536,1.032,9.757,1.032c7.008,0,8.426-0.172,9.586-1.032
				c0.989-0.773,1.29-2.02,1.29-5.502c0-4.256-0.259-5.89-1.032-6.834c-0.988-1.161-1.934-1.29-9.93-1.29c-8.596,0-9.413,0.129-10.273,1.806z"/>
			<path d="M185.652,64.797h21.105c9.887,0,9.887,0,11.735,1.117c2.192,1.332,2.838,3.223,2.838,8.21c0,4.255-0.432,5.889-1.979,7.05c-0.817,0.644-1.633,0.944-3.353,1.203c4.427,0.516,5.201,1.805,5.031,8.425v2.664h-8.598v-1.503c0-3.224-0.173-4.255-0.861-4.986
				c-0.601-0.688-1.245-0.774-4.856-0.774h-12.337v7.264h-8.726V64.797z M206.671,79.024c4.384-0.086,4.384-0.086,4.986-0.516c0.688-0.43,0.945-1.29,0.945-3.096c0-1.934-0.344-2.751-1.246-3.137c-0.602-0.259-0.73-0.259-4.686-0.302h-12.294v7.05h12.294z"/>
			<path d="M240.157,64.797l8.512,18.612l8.553-18.612h15.732v28.669h-8.598l0.217-21.448h-1.463l-10.789,21.448h-7.264l-10.789-21.448h-1.549l0.217,21.448h-8.6V64.797h15.82z"/>
			<path d="M305.579,88.61h-18.955l-2.451,4.855H274.2l15.174-28.669h13.584l15.002,28.669h-9.93l-2.451-4.855z M296.983,71.458h-1.721l-5.543,10.876h12.809l-5.545-10.876z"/>
			<path d="M334.552,64.797l15,21.363h0.904l-0.215-21.363h8.898v28.669h-15.174l-15.088-21.405h-0.947l0.217,21.405h-8.898V64.797h15.303z"/>
			<path d="M399.157,82.42c0.045,1.633,0.088,2.278,0.088,2.708c0,4.643-1.205,6.748-4.385,7.78c-2.322,0.731-5.461,0.989-11.82,0.989c-11.219,0-14.83-0.345-17.152-1.677c-1.891-1.074-2.752-2.665-3.094-5.589c-0.129-1.289-0.215-3.653-0.215-7.307
				c0-6.405,0.172-8.77,0.816-10.359c1.547-3.869,4.686-4.6,19.686-4.6c7.652,0,10.318,0.301,12.295,1.333c2.449,1.246,3.311,3.351,3.311,7.951v1.418h-8.727c-0.086-1.89-0.172-2.276-0.689-2.707c-0.643-0.559-3.18-0.817-8.682-0.817c-5.459,0-7.049,0.172-7.91,0.86
				c-1.031,0.859-1.375,2.535-1.375,6.878c0,7.35,0.131,7.436,9.328,7.436c9.586,0,9.715-0.042,9.758-4.298h8.768z"/>
			<path d="M433.978,64.797v6.747h-23.127v4.17h21.965v6.32h-21.965v4.556h23.299v6.876h-31.895V64.797h31.723z"/>
		</g>
		<g style="&st1;">
			<path d="M54.479,106.391v12.133H15.687v9.735h36.86v11.823h-36.86v17.85H0v-51.541h54.479z"/>
			<path d="M123.636,109.173c3.943,3.013,5.102,8.19,5.102,22.95c0,14.836-1.158,20.014-5.102,23.028c-3.939,3.013-8.809,3.554-30.136,3.554c-21.714,0-26.506-0.541-30.445-3.554c-4.019-3.092-5.102-8.192-5.102-23.337c0-14.373,1.161-19.629,5.102-22.642
				c3.939-3.015,8.731-3.555,30.291-3.555c21.559,0,26.351,0.54,30.29,3.555z M74.878,122.231c-0.928,1.778-1.237,4.714-1.237,11.282c0,6.414,0.464,8.5,2.318,9.969c2.086,1.622,4.56,1.854,17.541,1.854c12.596,0,15.146-0.309,17.232-1.854
				c1.777-1.391,2.318-3.633,2.318-9.891c0-7.651-0.464-10.588-1.854-12.287c-1.778-2.086-3.478-2.318-17.851-2.318c-15.455,0-16.923,0.232-18.468,3.245z"/>
			<path d="M134.919,106.391h37.942c17.772,0,17.772,0,21.095,2.01c3.941,2.395,5.101,5.795,5.101,14.76c0,7.648-0.772,10.586-3.554,12.672c-1.469,1.158-2.938,1.701-6.027,2.163c7.959,0.928,9.35,3.245,9.04,15.146v4.791h-15.453v-2.703
				c0-5.796-0.309-7.65-1.547-8.964c-1.082-1.237-2.241-1.393-8.731-1.393h-22.178v13.06h-15.688v-51.541z M172.708,131.969c7.882-0.154,7.882-0.154,8.964-0.928c1.235-0.772,1.7-2.318,1.7-5.563c0-3.478-0.617-4.946-2.241-5.642
				c-1.083-0.463-1.314-0.463-8.423-0.541h-22.101v12.674h22.101z"/>
			<path d="M219.999,106.391v23.723c0.156,8.114,0.156,8.191,0.541,10.277c0.85,4.096,3.863,4.945,17.232,4.945c10.818,0,14.063-0.464,15.764-2.316c1.236-1.314,1.623-2.706,1.854-7.574c0.076-1.776,0.154-4.25,0.154-5.332v-23.723h15.688v23.723
				c-0.232,11.669-0.309,12.519-0.773,16.151c-0.85,5.872-4.791,9.968-10.664,11.204c-4.635,0.928-9.813,1.236-21.791,1.236c-19.705,0-25.885-1.081-29.75-5.177c-2.551-2.628-3.398-5.796-3.785-13.368c-0.077-1.701-0.077-1.701-0.154-10.047v-23.723h15.686z"/>
			<path d="M306.7,106.391l15.301,33.459l15.379-33.459h28.279v51.541h-15.453l0.385-38.559h-2.627l-19.396,38.559h-13.059l-19.396-38.559h-2.779l0.385,38.559h-15.455v-51.541H306.7z"/>
			<path d="M386.218,140.855c0,3.09,0.307,4.094,1.545,4.867c1.467,0.928,3.168,1.082,14.217,1.082c16.846,0,16.846,0,16.846-4.559c0-3.092-1.158-3.863-6.182-3.941l-12.363-0.463l-8.346-0.387l-4.172-0.154c-12.752-0.387-16.307-3.632-16.307-14.992
				c0-9.813,2.781-14.217,9.893-15.764c3.014-0.617,10.121-0.927,22.486-0.927c14.99,0,20.398,0.694,24.031,3.167c3.092,2.088,4.326,5.332,4.326,11.438c0,0.309,0,1.391-0.076,2.396H416.97c-0.152-2.859-0.385-3.557-1.545-4.251
				c-1.313-0.772-3.246-0.927-14.373-0.927c-13.289,0-14.373,0.309-14.373,4.096c0,1.932,0.695,2.936,2.318,3.322c1.393,0.387,5.641,0.618,16.537,0.928c17,0.541,20.324,0.926,23.646,3.014c3.553,2.316,4.867,5.795,4.867,12.981c0,8.964-2.164,13.369-7.494,15.377
				c-3.092,1.16-9.584,1.546-24.961,1.546c-15.994,0-22.256-0.695-25.887-3.014c-3.555-2.24-4.713-5.254-4.713-12.363v-2.473h15.225z"/>
		</g>
	</g>
</svg>
