<?xml version="1.0" encoding="iso-8859-1"?>
<!-- Generator: Adobe Illustrator 9.0, SVG Export Plug-In  -->
<!DOCTYPE svg PUBLIC "-//W3C//DTD SVG 20000303 Stylable//EN"   "http://www.w3.org/TR/2000/03/WD-SVG-20000303/DTD/svg-20000303-stylable.dtd" [
	<!ENTITY st0 "fill-rule:nonzero;clip-rule:nonzero;fill:#306799;stroke:#000000;stroke-miterlimit:4;">
	<!ENTITY st1 "stroke:none;">
]>
<svg  width="436.22pt" height="108.789pt" viewBox="0 0 436.22 108.789" xml:space="preserve">
	<g id="Layer_x0020_1" style="&st0;">
		<g style="&st1;">
			<g>
				<path d="M33.691,76.436v7.502H9.702v6.021h22.795v7.314H9.702v11.039H0V76.436h33.691z"/>
				<path d="M76.461,78.156c2.438,1.865,3.154,5.066,3.154,14.193c0,9.176-0.716,12.379-3.154,14.242c-2.436,1.863-5.447,2.197-18.637,2.197c-13.429,0-16.393-0.334-18.829-2.197c-2.485-1.912-3.154-5.066-3.154-14.434c0-8.889,0.716-12.137,3.154-14.002
					c2.436-1.863,5.4-2.199,18.732-2.199c13.333,0,16.297,0.336,18.733,2.199z M46.308,86.232c-0.574,1.1-0.765,2.914-0.765,6.979c0,3.965,0.287,5.256,1.434,6.164c1.29,1.004,2.819,1.146,10.848,1.146c7.789,0,9.367-0.189,10.656-1.146
					c1.099-0.861,1.434-2.246,1.434-6.115c0-4.734-0.287-6.549-1.147-7.6c-1.099-1.291-2.15-1.436-11.04-1.436c-9.557,0-10.464,0.145-11.42,2.008z"/>
				<path d="M83.44,76.436h23.464c10.992,0,10.992,0,13.046,1.244c2.438,1.48,3.153,3.582,3.153,9.127c0,4.73-0.477,6.547-2.197,7.838c-0.909,0.717-1.816,1.051-3.728,1.338c4.922,0.572,5.782,2.006,5.591,9.367v2.963h-9.558v-1.674c0-3.584-0.191-4.732-0.956-5.543
					c-0.669-0.764-1.386-0.861-5.4-0.861H93.141v8.078h-9.7V76.436z M106.808,92.254c4.874-0.096,4.874-0.096,5.544-0.574c0.764-0.477,1.051-1.434,1.051-3.439c0-2.15-0.383-3.059-1.386-3.488c-0.669-0.287-0.813-0.287-5.209-0.336H93.141v7.838h13.667z"/>
				<path d="M126.45,76.436h22.987c8.124,0,9.223,0.049,11.946,0.621c3.156,0.623,5.258,2.438,6.213,5.4c0.717,2.246,0.908,4.254,0.908,9.463c0,8.314-0.716,11.564-3.058,13.717c-2.437,2.195-5.256,2.676-16.009,2.676H126.45V76.436z M149.532,100.188
					c8.793,0,9.415-0.479,9.415-7.695c0-3.918-0.335-5.686-1.291-6.736c-1.003-1.148-2.294-1.34-8.219-1.34h-13.429v15.771h13.524z"/>
				<path d="M180.595,97.75c0,1.912,0.191,2.533,0.955,3.012c0.908,0.572,1.96,0.668,8.795,0.668c10.417,0,10.417,0,10.417-2.82c0-1.91-0.718-2.389-3.823-2.436l-7.646-0.289l-5.161-0.236l-2.581-0.098c-7.885-0.238-10.083-2.244-10.083-9.271
					c0-6.068,1.721-8.793,6.117-9.748c1.863-0.381,6.261-0.574,13.907-0.574c9.271,0,12.616,0.432,14.862,1.961c1.911,1.291,2.677,3.297,2.677,7.074c0,0.189,0,0.857-0.048,1.479h-9.367c-0.096-1.768-0.238-2.197-0.956-2.627c-0.812-0.479-2.007-0.574-8.89-0.574
					c-8.219,0-8.888,0.191-8.888,2.533c0,1.195,0.431,1.814,1.434,2.055c0.86,0.24,3.489,0.383,10.228,0.574c10.514,0.334,12.568,0.572,14.623,1.863c2.199,1.434,3.011,3.584,3.011,8.029c0,5.543-1.339,8.268-4.635,9.508c-1.913,0.717-5.927,0.957-15.437,0.957
					c-9.893,0-13.763-0.43-16.009-1.863c-2.198-1.387-2.916-3.25-2.916-7.646V97.75h9.416z"/>
				<path d="M223.749,76.436v31.877H213.57V76.436h10.179z"/>
				<path d="M240.187,76.436l9.799,11.182l9.893-11.182h13.428l-15.293,15.77l16.057,16.107H260.45l-10.465-11.471l-10.373,11.471h-13.953l16.295-16.107l-15.053-15.77h13.285z"/>
				<path d="M286.687,99.852v8.461h-10.178v-8.461h10.178z"/>
				<path d="M331.657,96.029c0.047,1.816,0.094,2.531,0.094,3.012c0,5.16-1.338,7.504-4.875,8.648c-2.578,0.813-6.068,1.1-13.141,1.1c-12.473,0-16.488-0.383-19.068-1.863c-2.102-1.195-3.059-2.963-3.441-6.213c-0.141-1.434-0.238-4.063-0.238-8.125
					c0-7.119,0.191-9.748,0.908-11.516c1.721-4.301,5.211-5.115,21.887-5.115c8.506,0,11.469,0.336,13.668,1.482c2.725,1.387,3.68,3.729,3.68,8.84v1.578h-9.701c-0.094-2.102-0.191-2.531-0.764-3.01c-0.719-0.623-3.537-0.91-9.652-0.91
					c-6.07,0-7.838,0.193-8.795,0.957c-1.146,0.955-1.527,2.82-1.527,7.646c0,8.172,0.143,8.268,10.369,8.268c10.656,0,10.799-0.047,10.848-4.779h9.75z"/>
				<path d="M375.192,78.156c2.436,1.865,3.152,5.066,3.152,14.193c0,9.176-0.717,12.379-3.152,14.242c-2.439,1.863-5.449,2.197-18.637,2.197c-13.43,0-16.395-0.334-18.83-2.197c-2.484-1.912-3.156-5.066-3.156-14.434c0-8.889,0.719-12.137,3.156-14.002
					c2.436-1.863,5.4-2.199,18.732-2.199c13.334,0,16.295,0.336,18.734,2.199z M345.036,86.232c-0.572,1.1-0.764,2.914-0.764,6.979c0,3.965,0.287,5.256,1.434,6.164c1.291,1.004,2.82,1.146,10.85,1.146c7.787,0,9.365-0.189,10.656-1.146
					c1.098-0.861,1.434-2.246,1.434-6.115c0-4.734-0.289-6.549-1.148-7.6c-1.1-1.291-2.15-1.436-11.039-1.436c-9.557,0-10.465,0.145-11.422,2.008z"/>
				<path d="M399.757,76.436l9.461,20.693l9.51-20.693h17.492v31.877h-9.559l0.24-23.848h-1.627l-11.994,23.848h-8.078l-11.994-23.848h-1.721l0.24,23.848h-9.559V76.436h17.588z"/>
			</g>
			<g>
				<path d="M22.443,0v70.279H0V0h22.443z"/>
				<path d="M69.857,0l36.773,52.367h2.213L108.315,0h21.812v70.279H92.932L55.949,17.807h-2.317l0.527,52.473H32.347V0h37.51z"/>
				<path d="M162.37,0v52.367h49.942v17.913h-72.385V0h22.443z"/>
				<path d="M239.71,0v70.279h-22.445V0h22.445z"/>
				<path d="M287.124,0l36.77,52.367h2.215L325.581,0h21.811v70.279h-37.193l-36.982-52.473h-2.32l0.527,52.473h-21.811V0h37.512z"/>
				<path d="M434.95,0v16.542h-56.684v10.22h53.84v15.489h-53.84v11.168h57.107v16.86h-78.182V0h77.758z"/>
			</g>
		</g>
	</g>
</svg>
