  0
SECTION
  2
HEADER
  9
$ACADVER
  1
AC1009
  9
$EXTMIN
 10
0.0
 20
0.0
 30
0.0
  9
$EXTMAX
 10
1000.0
 20
1000.0
 30
0.0
  9
$FILLMODE
 70
 0
  9
$SPLFRAME
 70
 1
  0
ENDSEC
  0
SECTION
  2
TABLES
  0
TABLE
  2
LAYER
 70
1
  0
LAYER
  2
0
 70
     0
 62
     7
  6
CONTINUOUS
  0
ENDTAB
  0
ENDSEC
  0
SECTION
  2
ENTITIES
  0
POLYLINE
  8
0
 62
     0
 66
     1
 10
0
 20
0
 30
0.0
 70
     1
 40
1
 41
1
  0
VERTEX
  8
0
 10
1.71528
 20
5.45139
 30
0.0
 40
0.0138889
 41
0.0138889
  0
VERTEX
  8
0
 10
4.71528
 20
5.45139
 30
0.0
 40
0.0138889
 41
0.0138889
  0
VERTEX
  8
0
 10
4.79368
 20
5.44319
 30
0.0
 40
0.0138889
 41
0.0138889
  0
VERTEX
  8
0
 10
4.87462
 20
5.4215
 30
0.0
 40
0.0138889
 41
0.0138889
  0
VERTEX
  8
0
 10
4.95503
 20
5.38769
 30
0.0
 40
0.0138889
 41
0.0138889
  0
VERTEX
  8
0
 10
5.03185
 20
5.34337
 30
0.0
 40
0.0138889
 41
0.0138889
  0
VERTEX
  8
0
 10
5.10211
 20
5.28999
 30
0.0
 40
0.0138889
 41
0.0138889
  0
VERTEX
  8
0
 10
5.16276
 20
5.229
 30
0.0
 40
0.0138889
 41
0.0138889
  0
VERTEX
  8
0
 10
5.21072
 20
5.16194
 30
0.0
 40
0.0138889
 41
0.0138889
  0
VERTEX
  8
0
 10
5.24306
 20
5.09028
 30
0.0
 40
0.0138889
 41
0.0138889
  0
VERTEX
  8
0
 10
1.17361
 20
5.09028
 30
0.0
 40
0.0138889
 41
0.0138889
  0
VERTEX
  8
0
 10
1.20714
 20
5.1651
 30
0.0
 40
0.0138889
 41
0.0138889
  0
VERTEX
  8
0
 10
1.2564
 20
5.23361
 30
0.0
 40
0.0138889
 41
0.0138889
  0
VERTEX
  8
0
 10
1.31831
 20
5.29482
 30
0.0
 40
0.0138889
 41
0.0138889
  0
VERTEX
  8
0
 10
1.39003
 20
5.3475
 30
0.0
 40
0.0138889
 41
0.0138889
  0
VERTEX
  8
0
 10
1.46853
 20
5.39057
 30
0.0
 40
0.0138889
 41
0.0138889
  0
VERTEX
  8
0
 10
1.55089
 20
5.42301
 30
0.0
 40
0.0138889
 41
0.0138889
  0
VERTEX
  8
0
 10
1.63411
 20
5.44368
 30
0.0
 40
0.0138889
 41
0.0138889
  0
VERTEX
  8
0
 10
1.71528
 20
5.45139
 30
0.0
 40
0.0138889
 41
0.0138889
  0
SEQEND
 8
0
  0
POLYLINE
  8
0
 62
     0
 66
     1
 10
0
 20
0
 30
0.0
 70
     1
 40
1
 41
1
  0
VERTEX
  8
0
 10
0.701389
 20
2.52289
 30
0.0
 40
0.0138889
 41
0.0138889
  0
VERTEX
  8
0
 10
0.409722
 20
2.52289
 30
0.0
 40
0.0138889
 41
0.0138889
  0
VERTEX
  8
0
 10
0.283094
 20
2.56614
 30
0.0
 40
0.0138889
 41
0.0138889
  0
VERTEX
  8
0
 10
0.175293
 20
2.63818
 30
0.0
 40
0.0138889
 41
0.0138889
  0
VERTEX
  8
0
 10
0.0898981
 20
2.7354
 30
0.0
 40
0.0138889
 41
0.0138889
  0
VERTEX
  8
0
 10
0.0305447
 20
2.85417
 30
0.0
 40
0.0138889
 41
0.0138889
  0
VERTEX
  8
0
 10
0.0165474
 20
2.89942
 30
0.0
 40
0.0138889
 41
0.0138889
  0
VERTEX
  8
0
 10
0.00960286
 20
2.93668
 30
0.0
 40
0.0138889
 41
0.0138889
  0
VERTEX
  8
0
 10
0.00721571
 20
2.97439
 30
0.0
 40
0.0138889
 41
0.0138889
  0
VERTEX
  8
0
 10
0.00694444
 20
3.02083
 30
0.0
 40
0.0138889
 41
0.0138889
  0
VERTEX
  8
0
 10
0.00694444
 20
4.42361
 30
0.0
 40
0.0138889
 41
0.0138889
  0
VERTEX
  8
0
 10
0.0166015
 20
4.5286
 30
0.0
 40
0.0138889
 41
0.0138889
  0
VERTEX
  8
0
 10
0.0443251
 20
4.6244
 30
0.0
 40
0.0138889
 41
0.0138889
  0
VERTEX
  8
0
 10
0.088596
 20
4.70953
 30
0.0
 40
0.0138889
 41
0.0138889
  0
VERTEX
  8
0
 10
0.148003
 20
4.78256
 30
0.0
 40
0.0138889
 41
0.0138889
  0
VERTEX
  8
0
 10
0.221029
 20
4.84196
 30
0.0
 40
0.0138889
 41
0.0138889
  0
VERTEX
  8
0
 10
0.306153
 20
4.88624
 30
0.0
 40
0.0138889
 41
0.0138889
  0
VERTEX
  8
0
 10
0.401964
 20
4.91396
 30
0.0
 40
0.0138889
 41
0.0138889
  0
VERTEX
  8
0
 10
0.506944
 20
4.92361
 30
0.0
 40
0.0138889
 41
0.0138889
  0
VERTEX
  8
0
 10
5.90972
 20
4.92361
 30
0.0
 40
0.0138889
 41
0.0138889
  0
VERTEX
  8
0
 10
6.01551
 20
4.91411
 30
0.0
 40
0.0138889
 41
0.0138889
  0
VERTEX
  8
0
 10
6.11176
 20
4.88672
 30
0.0
 40
0.0138889
 41
0.0138889
  0
VERTEX
  8
0
 10
6.19694
 20
4.84283
 30
0.0
 40
0.0138889
 41
0.0138889
  0
VERTEX
  8
0
 10
6.26975
 20
4.78381
 30
0.0
 40
0.0138889
 41
0.0138889
  0
VERTEX
  8
0
 10
6.32878
 20
4.71099
 30
0.0
 40
0.0138889
 41
0.0138889
  0
VERTEX
  8
0
 10
6.37272
 20
4.62582
 30
0.0
 40
0.0138889
 41
0.0138889
  0
VERTEX
  8
0
 10
6.40012
 20
4.52957
 30
0.0
 40
0.0138889
 41
0.0138889
  0
VERTEX
  8
0
 10
6.40972
 20
4.42361
 30
0.0
 40
0.0138889
 41
0.0138889
  0
VERTEX
  8
0
 10
6.40972
 20
3.02083
 30
0.0
 40
0.0138889
 41
0.0138889
  0
VERTEX
  8
0
 10
6.39963
 20
2.91292
 30
0.0
 40
0.0138889
 41
0.0138889
  0
VERTEX
  8
0
 10
6.37088
 20
2.81569
 30
0.0
 40
0.0138889
 41
0.0138889
  0
VERTEX
  8
0
 10
6.32503
 20
2.73036
 30
0.0
 40
0.0138889
 41
0.0138889
  0
VERTEX
  8
0
 10
6.26372
 20
2.65804
 30
0.0
 40
0.0138889
 41
0.0138889
  0
VERTEX
  8
0
 10
6.18853
 20
2.59983
 30
0.0
 40
0.0138889
 41
0.0138889
  0
VERTEX
  8
0
 10
6.10107
 20
2.55681
 30
0.0
 40
0.0138889
 41
0.0138889
  0
VERTEX
  8
0
 10
6.00299
 20
2.53011
 30
0.0
 40
0.0138889
 41
0.0138889
  0
VERTEX
  8
0
 10
5.89583
 20
2.52083
 30
0.0
 40
0.0138889
 41
0.0138889
  0
VERTEX
  8
0
 10
5.3125
 20
2.52083
 30
0.0
 40
0.0138889
 41
0.0138889
  0
VERTEX
  8
0
 10
5.3125
 20
1.77083
 30
0.0
 40
0.0138889
 41
0.0138889
  0
VERTEX
  8
0
 10
5.30642
 20
1.67176
 30
0.0
 40
0.0138889
 41
0.0138889
  0
VERTEX
  8
0
 10
5.28494
 20
1.60058
 30
0.0
 40
0.0138889
 41
0.0138889
  0
VERTEX
  8
0
 10
5.24251
 20
1.53814
 30
0.0
 40
0.0138889
 41
0.0138889
  0
VERTEX
  8
0
 10
5.17361
 20
1.46528
 30
0.0
 40
0.0138889
 41
0.0138889
  0
VERTEX
  8
0
 10
5.02083
 20
1.3125
 30
0.0
 40
0.0138889
 41
0.0138889
  0
VERTEX
  8
0
 10
4.28472
 20
0.5625
 30
0.0
 40
0.0138889
 41
0.0138889
  0
VERTEX
  8
0
 10
3.90972
 20
0.173611
 30
0.0
 40
0.0138889
 41
0.0138889
  0
VERTEX
  8
0
 10
3.84039
 20
0.101454
 30
0.0
 40
0.0138889
 41
0.0138889
  0
VERTEX
  8
0
 10
3.78256
 20
0.0493707
 30
0.0
 40
0.0138889
 41
0.0138889
  0
VERTEX
  8
0
 10
3.71539
 20
0.0177408
 30
0.0
 40
0.0138889
 41
0.0138889
  0
VERTEX
  8
0
 10
3.61806
 20
0.00694444
 30
0.0
 40
0.0138889
 41
0.0138889
  0
VERTEX
  8
0
 10
1.74306
 20
0.00694444
 30
0.0
 40
0.0138889
 41
0.0138889
  0
VERTEX
  8
0
 10
1.61019
 20
0.0210503
 30
0.0
 40
0.0138889
 41
0.0138889
  0
VERTEX
  8
0
 10
1.48844
 20
0.0608724
 30
0.0
 40
0.0138889
 41
0.0138889
  0
VERTEX
  8
0
 10
1.37972
 20
0.123427
 30
0.0
 40
0.0138889
 41
0.0138889
  0
VERTEX
  8
0
 10
1.28613
 20
0.205838
 30
0.0
 40
0.0138889
 41
0.0138889
  0
VERTEX
  8
0
 10
1.20974
 20
0.305012
 30
0.0
 40
0.0138889
 41
0.0138889
  0
VERTEX
  8
0
 10
1.15256
 20
0.418024
 30
0.0
 40
0.0138889
 41
0.0138889
  0
VERTEX
  8
0
 10
1.1167
 20
0.541883
 30
0.0
 40
0.0138889
 41
0.0138889
  0
VERTEX
  8
0
 10
1.10417
 20
0.673611
 30
0.0
 40
0.0138889
 41
0.0138889
  0
VERTEX
  8
0
 10
1.10417
 20
1.67361
 30
0.0
 40
0.0138889
 41
0.0138889
  0
VERTEX
  8
0
 10
1.10433
 20
1.71815
 30
0.0
 40
0.0138889
 41
0.0138889
  0
VERTEX
  8
0
 10
1.10764
 20
1.75982
 30
0.0
 40
0.0138889
 41
0.0138889
  0
VERTEX
  8
0
 10
1.11838
 20
1.79975
 30
0.0
 40
0.0138889
 41
0.0138889
  0
VERTEX
  8
0
 10
1.14095
 20
1.83886
 30
0.0
 40
0.0138889
 41
0.0138889
  0
VERTEX
  8
0
 10
1.21023
 20
1.89344
 30
0.0
 40
0.0138889
 41
0.0138889
  0
VERTEX
  8
0
 10
1.29405
 20
1.90901
 30
0.0
 40
0.0138889
 41
0.0138889
  0
VERTEX
  8
0
 10
1.37636
 20
1.88633
 30
0.0
 40
0.0138889
 41
0.0138889
  0
VERTEX
  8
0
 10
1.44114
 20
1.82611
 30
0.0
 40
0.0138889
 41
0.0138889
  0
VERTEX
  8
0
 10
1.4636
 20
1.75896
 30
0.0
 40
0.0138889
 41
0.0138889
  0
VERTEX
  8
0
 10
1.46528
 20
1.6875
 30
0.0
 40
0.0138889
 41
0.0138889
  0
VERTEX
  8
0
 10
1.46528
 20
0.756944
 30
0.0
 40
0.0138889
 41
0.0138889
  0
VERTEX
  8
0
 10
1.47
 20
0.678874
 30
0.0
 40
0.0138889
 41
0.0138889
  0
VERTEX
  8
0
 10
1.48432
 20
0.606228
 30
0.0
 40
0.0138889
 41
0.0138889
  0
VERTEX
  8
0
 10
1.50879
 20
0.540528
 30
0.0
 40
0.0138889
 41
0.0138889
  0
VERTEX
  8
0
 10
1.54372
 20
0.483236
 30
0.0
 40
0.0138889
 41
0.0138889
  0
VERTEX
  8
0
 10
1.58974
 20
0.435926
 30
0.0
 40
0.0138889
 41
0.0138889
  0
VERTEX
  8
0
 10
1.64725
 20
0.399957
 30
0.0
 40
0.0138889
 41
0.0138889
  0
VERTEX
  8
0
 10
1.71669
 20
0.376844
 30
0.0
 40
0.0138889
 41
0.0138889
  0
VERTEX
  8
0
 10
1.79861
 20
0.368056
 30
0.0
 40
0.0138889
 41
0.0138889
  0
VERTEX
  8
0
 10
3.42361
 20
0.368056
 30
0.0
 40
0.0138889
 41
0.0138889
  0
VERTEX
  8
0
 10
3.41058
 20
0.464626
 30
0.0
 40
0.0138889
 41
0.0138889
  0
VERTEX
  8
0
 10
3.40701
 20
0.596951
 30
0.0
 40
0.0138889
 41
0.0138889
  0
VERTEX
  8
0
 10
3.40826
 20
0.73291
 30
0.0
 40
0.0138889
 41
0.0138889
  0
VERTEX
  8
0
 10
3.40972
 20
0.840278
 30
0.0
 40
0.0138889
 41
0.0138889
  0
VERTEX
  8
0
 10
3.40821
 20
0.973361
 30
0.0
 40
0.0138889
 41
0.0138889
  0
VERTEX
  8
0
 10
3.40685
 20
1.10455
 30
0.0
 40
0.0138889
 41
0.0138889
  0
VERTEX
  8
0
 10
3.41054
 20
1.23275
 30
0.0
 40
0.0138889
 41
0.0138889
  0
VERTEX
  8
0
 10
3.4241
 20
1.35699
 30
0.0
 40
0.0138889
 41
0.0138889
  0
VERTEX
  8
0
 10
3.45236
 20
1.47635
 30
0.0
 40
0.0138889
 41
0.0138889
  0
VERTEX
  8
0
 10
3.50017
 20
1.58968
 30
0.0
 40
0.0138889
 41
0.0138889
  0
VERTEX
  8
0
 10
3.57238
 20
1.69613
 30
0.0
 40
0.0138889
 41
0.0138889
  0
VERTEX
  8
0
 10
3.67378
 20
1.7946
 30
0.0
 40
0.0138889
 41
0.0138889
  0
VERTEX
  8
0
 10
3.7601
 20
1.85167
 30
0.0
 40
0.0138889
 41
0.0138889
  0
VERTEX
  8
0
 10
3.85417
 20
1.89501
 30
0.0
 40
0.0138889
 41
0.0138889
  0
VERTEX
  8
0
 10
4.07639
 20
1.9375
 30
0.0
 40
0.0138889
 41
0.0138889
  0
VERTEX
  8
0
 10
4.9375
 20
1.9375
 30
0.0
 40
0.0138889
 41
0.0138889
  0
VERTEX
  8
0
 10
4.9375
 20
2.89583
 30
0.0
 40
0.0138889
 41
0.0138889
  0
VERTEX
  8
0
 10
4.92469
 20
3.00831
 30
0.0
 40
0.0138889
 41
0.0138889
  0
VERTEX
  8
0
 10
4.89074
 20
3.10633
 30
0.0
 40
0.0138889
 41
0.0138889
  0
VERTEX
  8
0
 10
4.83811
 20
3.18972
 30
0.0
 40
0.0138889
 41
0.0138889
  0
VERTEX
  8
0
 10
4.76932
 20
3.25836
 30
0.0
 40
0.0138889
 41
0.0138889
  0
VERTEX
  8
0
 10
4.68685
 20
3.31207
 30
0.0
 40
0.0138889
 41
0.0138889
  0
VERTEX
  8
0
 10
4.5931
 20
3.35069
 30
0.0
 40
0.0138889
 41
0.0138889
  0
VERTEX
  8
0
 10
4.49067
 20
3.37403
 30
0.0
 40
0.0138889
 41
0.0138889
  0
VERTEX
  8
0
 10
4.38194
 20
3.38194
 30
0.0
 40
0.0138889
 41
0.0138889
  0
VERTEX
  8
0
 10
1.65972
 20
3.38194
 30
0.0
 40
0.0138889
 41
0.0138889
  0
VERTEX
  8
0
 10
1.56153
 20
3.37565
 30
0.0
 40
0.0138889
 41
0.0138889
  0
VERTEX
  8
0
 10
1.46528
 20
3.35363
 30
0.0
 40
0.0138889
 41
0.0138889
  0
VERTEX
  8
0
 10
1.40033
 20
3.32878
 30
0.0
 40
0.0138889
 41
0.0138889
  0
VERTEX
  8
0
 10
1.34028
 20
3.29363
 30
0.0
 40
0.0138889
 41
0.0138889
  0
VERTEX
  8
0
 10
1.25157
 20
3.21935
 30
0.0
 40
0.0138889
 41
0.0138889
  0
VERTEX
  8
0
 10
1.18929
 20
3.13553
 30
0.0
 40
0.0138889
 41
0.0138889
  0
VERTEX
  8
0
 10
1.14887
 20
3.04378
 30
0.0
 40
0.0138889
 41
0.0138889
  0
VERTEX
  8
0
 10
1.12581
 20
2.94575
 30
0.0
 40
0.0138889
 41
0.0138889
  0
VERTEX
  8
0
 10
1.11567
 20
2.84304
 30
0.0
 40
0.0138889
 41
0.0138889
  0
VERTEX
  8
0
 10
1.11399
 20
2.73725
 30
0.0
 40
0.0138889
 41
0.0138889
  0
VERTEX
  8
0
 10
1.11627
 20
2.62999
 30
0.0
 40
0.0138889
 41
0.0138889
  0
VERTEX
  8
0
 10
1.11806
 20
2.52289
 30
0.0
 40
0.0138889
 41
0.0138889
  0
VERTEX
  8
0
 10
0.701389
 20
2.52289
 30
0.0
 40
0.0138889
 41
0.0138889
  0
SEQEND
 8
0
  0
POLYLINE
  8
0
 62
     0
 66
     1
 10
0
 20
0
 30
0.0
 70
     1
 40
1
 41
1
  0
VERTEX
  8
0
 10
0.4171
 20
4.34028
 30
0.0
 40
0.0138889
 41
0.0138889
  0
VERTEX
  8
0
 10
0.412597
 20
4.28728
 30
0.0
 40
0.0138889
 41
0.0138889
  0
VERTEX
  8
0
 10
0.421442
 20
4.23654
 30
0.0
 40
0.0138889
 41
0.0138889
  0
VERTEX
  8
0
 10
0.442003
 20
4.18983
 30
0.0
 40
0.0138889
 41
0.0138889
  0
VERTEX
  8
0
 10
0.472439
 20
4.14903
 30
0.0
 40
0.0138889
 41
0.0138889
  0
VERTEX
  8
0
 10
0.511176
 20
4.116
 30
0.0
 40
0.0138889
 41
0.0138889
  0
VERTEX
  8
0
 10
0.556369
 20
4.09239
 30
0.0
 40
0.0138889
 41
0.0138889
  0
VERTEX
  8
0
 10
0.6065
 20
4.08018
 30
0.0
 40
0.0138889
 41
0.0138889
  0
VERTEX
  8
0
 10
0.659722
 20
4.08111
 30
0.0
 40
0.0138889
 41
0.0138889
  0
VERTEX
  8
0
 10
0.749132
 20
4.11253
 30
0.0
 40
0.0138889
 41
0.0138889
  0
VERTEX
  8
0
 10
0.810221
 20
4.16932
 30
0.0
 40
0.0138889
 41
0.0138889
  0
VERTEX
  8
0
 10
0.843261
 20
4.24214
 30
0.0
 40
0.0138889
 41
0.0138889
  0
VERTEX
  8
0
 10
0.848796
 20
4.32156
 30
0.0
 40
0.0138889
 41
0.0138889
  0
VERTEX
  8
0
 10
0.827203
 20
4.39806
 30
0.0
 40
0.0138889
 41
0.0138889
  0
VERTEX
  8
0
 10
0.778971
 20
4.46229
 30
0.0
 40
0.0138889
 41
0.0138889
  0
VERTEX
  8
0
 10
0.704482
 20
4.50478
 30
0.0
 40
0.0138889
 41
0.0138889
  0
VERTEX
  8
0
 10
0.604167
 20
4.51611
 30
0.0
 40
0.0138889
 41
0.0138889
  0
VERTEX
  8
0
 10
0.53559
 20
4.49365
 30
0.0
 40
0.0138889
 41
0.0138889
  0
VERTEX
  8
0
 10
0.481446
 20
4.45915
 30
0.0
 40
0.0138889
 41
0.0138889
  0
VERTEX
  8
0
 10
0.441894
 20
4.40924
 30
0.0
 40
0.0138889
 41
0.0138889
  0
VERTEX
  8
0
 10
0.4171
 20
4.34028
 30
0.0
 40
0.0138889
 41
0.0138889
  0
SEQEND
 8
0
  0
POLYLINE
  8
0
 62
     0
 66
     1
 10
0
 20
0
 30
0.0
 70
     1
 40
1
 41
1
  0
VERTEX
  8
0
 10
1.32639
 20
4.07915
 30
0.0
 40
0.0138889
 41
0.0138889
  0
VERTEX
  8
0
 10
1.40929
 20
4.0861
 30
0.0
 40
0.0138889
 41
0.0138889
  0
VERTEX
  8
0
 10
1.47597
 20
4.12011
 30
0.0
 40
0.0138889
 41
0.0138889
  0
VERTEX
  8
0
 10
1.52463
 20
4.17421
 30
0.0
 40
0.0138889
 41
0.0138889
  0
VERTEX
  8
0
 10
1.55354
 20
4.24132
 30
0.0
 40
0.0138889
 41
0.0138889
  0
VERTEX
  8
0
 10
1.56099
 20
4.31435
 30
0.0
 40
0.0138889
 41
0.0138889
  0
VERTEX
  8
0
 10
1.54531
 20
4.38639
 30
0.0
 40
0.0138889
 41
0.0138889
  0
VERTEX
  8
0
 10
1.50467
 20
4.45031
 30
0.0
 40
0.0138889
 41
0.0138889
  0
VERTEX
  8
0
 10
1.4375
 20
4.49903
 30
0.0
 40
0.0138889
 41
0.0138889
  0
VERTEX
  8
0
 10
1.37603
 20
4.51719
 30
0.0
 40
0.0138889
 41
0.0138889
  0
VERTEX
  8
0
 10
1.3125
 20
4.51628
 30
0.0
 40
0.0138889
 41
0.0138889
  0
VERTEX
  8
0
 10
1.22363
 20
4.47949
 30
0.0
 40
0.0138889
 41
0.0138889
  0
VERTEX
  8
0
 10
1.1639
 20
4.42344
 30
0.0
 40
0.0138889
 41
0.0138889
  0
VERTEX
  8
0
 10
1.13167
 20
4.35519
 30
0.0
 40
0.0138889
 41
0.0138889
  0
VERTEX
  8
0
 10
1.12532
 20
4.28185
 30
0.0
 40
0.0138889
 41
0.0138889
  0
VERTEX
  8
0
 10
1.14318
 20
4.2105
 30
0.0
 40
0.0138889
 41
0.0138889
  0
VERTEX
  8
0
 10
1.18376
 20
4.14822
 30
0.0
 40
0.0138889
 41
0.0138889
  0
VERTEX
  8
0
 10
1.24533
 20
4.10206
 30
0.0
 40
0.0138889
 41
0.0138889
  0
VERTEX
  8
0
 10
1.32639
 20
4.07915
 30
0.0
 40
0.0138889
 41
0.0138889
  0
SEQEND
 8
0
  0
POLYLINE
  8
0
 62
     0
 66
     1
 10
0
 20
0
 30
0.0
 70
     1
 40
1
 41
1
  0
VERTEX
  8
0
 10
2.25694
 20
2.70139
 30
0.0
 40
0.0138889
 41
0.0138889
  0
VERTEX
  8
0
 10
3.02083
 20
2.70139
 30
0.0
 40
0.0138889
 41
0.0138889
  0
VERTEX
  8
0
 10
3.05083
 20
2.70161
 30
0.0
 40
0.0138889
 41
0.0138889
  0
VERTEX
  8
0
 10
3.08361
 20
2.70053
 30
0.0
 40
0.0138889
 41
0.0138889
  0
VERTEX
  8
0
 10
3.1154
 20
2.69586
 30
0.0
 40
0.0138889
 41
0.0138889
  0
VERTEX
  8
0
 10
3.14264
 20
2.68511
 30
0.0
 40
0.0138889
 41
0.0138889
  0
VERTEX
  8
0
 10
3.17426
 20
2.65017
 30
0.0
 40
0.0138889
 41
0.0138889
  0
VERTEX
  8
0
 10
3.18479
 20
2.60417
 30
0.0
 40
0.0138889
 41
0.0138889
  0
VERTEX
  8
0
 10
3.17426
 20
2.55821
 30
0.0
 40
0.0138889
 41
0.0138889
  0
VERTEX
  8
0
 10
3.14264
 20
2.52322
 30
0.0
 40
0.0138889
 41
0.0138889
  0
VERTEX
  8
0
 10
3.1154
 20
2.51253
 30
0.0
 40
0.0138889
 41
0.0138889
  0
VERTEX
  8
0
 10
3.08361
 20
2.50786
 30
0.0
 40
0.0138889
 41
0.0138889
  0
VERTEX
  8
0
 10
3.05083
 20
2.50678
 30
0.0
 40
0.0138889
 41
0.0138889
  0
VERTEX
  8
0
 10
3.02083
 20
2.50694
 30
0.0
 40
0.0138889
 41
0.0138889
  0
VERTEX
  8
0
 10
1.96528
 20
2.50694
 30
0.0
 40
0.0138889
 41
0.0138889
  0
VERTEX
  8
0
 10
1.93587
 20
2.50678
 30
0.0
 40
0.0138889
 41
0.0138889
  0
VERTEX
  8
0
 10
1.90354
 20
2.50776
 30
0.0
 40
0.0138889
 41
0.0138889
  0
VERTEX
  8
0
 10
1.87213
 20
2.51243
 30
0.0
 40
0.0138889
 41
0.0138889
  0
VERTEX
  8
0
 10
1.84571
 20
2.52322
 30
0.0
 40
0.0138889
 41
0.0138889
  0
VERTEX
  8
0
 10
1.82286
 20
2.54258
 30
0.0
 40
0.0138889
 41
0.0138889
  0
VERTEX
  8
0
 10
1.80908
 20
2.56424
 30
0.0
 40
0.0138889
 41
0.0138889
  0
VERTEX
  8
0
 10
1.80339
 20
2.58729
 30
0.0
 40
0.0138889
 41
0.0138889
  0
VERTEX
  8
0
 10
1.80507
 20
2.61079
 30
0.0
 40
0.0138889
 41
0.0138889
  0
VERTEX
  8
0
 10
1.81321
 20
2.63385
 30
0.0
 40
0.0138889
 41
0.0138889
  0
VERTEX
  8
0
 10
1.82704
 20
2.65554
 30
0.0
 40
0.0138889
 41
0.0138889
  0
VERTEX
  8
0
 10
1.84581
 20
2.67492
 30
0.0
 40
0.0138889
 41
0.0138889
  0
VERTEX
  8
0
 10
1.8686
 20
2.69114
 30
0.0
 40
0.0138889
 41
0.0138889
  0
VERTEX
  8
0
 10
1.94937
 20
2.70096
 30
0.0
 40
0.0138889
 41
0.0138889
  0
VERTEX
  8
0
 10
2.05735
 20
2.70356
 30
0.0
 40
0.0138889
 41
0.0138889
  0
VERTEX
  8
0
 10
2.16797
 20
2.70253
 30
0.0
 40
0.0138889
 41
0.0138889
  0
VERTEX
  8
0
 10
2.25694
 20
2.70139
 30
0.0
 40
0.0138889
 41
0.0138889
  0
SEQEND
 8
0
  0
POLYLINE
  8
0
 62
     0
 66
     1
 10
0
 20
0
 30
0.0
 70
     1
 40
1
 41
1
  0
VERTEX
  8
0
 10
2.21528
 20
2.21528
 30
0.0
 40
0.0138889
 41
0.0138889
  0
VERTEX
  8
0
 10
2.89583
 20
2.21528
 30
0.0
 40
0.0138889
 41
0.0138889
  0
VERTEX
  8
0
 10
2.93381
 20
2.21658
 30
0.0
 40
0.0138889
 41
0.0138889
  0
VERTEX
  8
0
 10
2.98096
 20
2.21864
 30
0.0
 40
0.0138889
 41
0.0138889
  0
VERTEX
  8
0
 10
3.03233
 20
2.21897
 30
0.0
 40
0.0138889
 41
0.0138889
  0
VERTEX
  8
0
 10
3.08311
 20
2.215
 30
0.0
 40
0.0138889
 41
0.0138889
  0
VERTEX
  8
0
 10
3.12842
 20
2.2041
 30
0.0
 40
0.0138889
 41
0.0138889
  0
VERTEX
  8
0
 10
3.16342
 20
2.18381
 30
0.0
 40
0.0138889
 41
0.0138889
  0
VERTEX
  8
0
 10
3.18321
 20
2.15142
 30
0.0
 40
0.0138889
 41
0.0138889
  0
VERTEX
  8
0
 10
3.18294
 20
2.10444
 30
0.0
 40
0.0138889
 41
0.0138889
  0
VERTEX
  8
0
 10
3.16129
 20
2.06185
 30
0.0
 40
0.0138889
 41
0.0138889
  0
VERTEX
  8
0
 10
3.12517
 20
2.04144
 30
0.0
 40
0.0138889
 41
0.0138889
  0
VERTEX
  8
0
 10
3.08089
 20
2.0351
 30
0.0
 40
0.0138889
 41
0.0138889
  0
VERTEX
  8
0
 10
3.03472
 20
2.03472
 30
0.0
 40
0.0138889
 41
0.0138889
  0
VERTEX
  8
0
 10
1.92361
 20
2.03472
 30
0.0
 40
0.0138889
 41
0.0138889
  0
VERTEX
  8
0
 10
1.87642
 20
2.04053
 30
0.0
 40
0.0138889
 41
0.0138889
  0
VERTEX
  8
0
 10
1.84088
 20
2.05464
 30
0.0
 40
0.0138889
 41
0.0138889
  0
VERTEX
  8
0
 10
1.81668
 20
2.07508
 30
0.0
 40
0.0138889
 41
0.0138889
  0
VERTEX
  8
0
 10
1.8036
 20
2.09999
 30
0.0
 40
0.0138889
 41
0.0138889
  0
VERTEX
  8
0
 10
1.80122
 20
2.12739
 30
0.0
 40
0.0138889
 41
0.0138889
  0
VERTEX
  8
0
 10
1.80931
 20
2.15533
 30
0.0
 40
0.0138889
 41
0.0138889
  0
VERTEX
  8
0
 10
1.82758
 20
2.18186
 30
0.0
 40
0.0138889
 41
0.0138889
  0
VERTEX
  8
0
 10
1.85568
 20
2.20503
 30
0.0
 40
0.0138889
 41
0.0138889
  0
VERTEX
  8
0
 10
1.93138
 20
2.21474
 30
0.0
 40
0.0138889
 41
0.0138889
  0
VERTEX
  8
0
 10
2.0306
 20
2.21733
 30
0.0
 40
0.0138889
 41
0.0138889
  0
VERTEX
  8
0
 10
2.13226
 20
2.21642
 30
0.0
 40
0.0138889
 41
0.0138889
  0
VERTEX
  8
0
 10
2.21528
 20
2.21528
 30
0.0
 40
0.0138889
 41
0.0138889
  0
SEQEND
 8
0
  0
POLYLINE
  8
0
 62
     0
 66
     1
 10
0
 20
0
 30
0.0
 70
     1
 40
1
 41
1
  0
VERTEX
  8
0
 10
2.22917
 20
1.74306
 30
0.0
 40
0.0138889
 41
0.0138889
  0
VERTEX
  8
0
 10
3.02083
 20
1.74306
 30
0.0
 40
0.0138889
 41
0.0138889
  0
VERTEX
  8
0
 10
3.05083
 20
1.74328
 30
0.0
 40
0.0138889
 41
0.0138889
  0
VERTEX
  8
0
 10
3.08361
 20
1.74219
 30
0.0
 40
0.0138889
 41
0.0138889
  0
VERTEX
  8
0
 10
3.1154
 20
1.73753
 30
0.0
 40
0.0138889
 41
0.0138889
  0
VERTEX
  8
0
 10
3.14264
 20
1.72678
 30
0.0
 40
0.0138889
 41
0.0138889
  0
VERTEX
  8
0
 10
3.17426
 20
1.69183
 30
0.0
 40
0.0138889
 41
0.0138889
  0
VERTEX
  8
0
 10
3.18479
 20
1.64583
 30
0.0
 40
0.0138889
 41
0.0138889
  0
VERTEX
  8
0
 10
3.17426
 20
1.59988
 30
0.0
 40
0.0138889
 41
0.0138889
  0
VERTEX
  8
0
 10
3.14264
 20
1.56489
 30
0.0
 40
0.0138889
 41
0.0138889
  0
VERTEX
  8
0
 10
3.1154
 20
1.55419
 30
0.0
 40
0.0138889
 41
0.0138889
  0
VERTEX
  8
0
 10
3.08361
 20
1.54953
 30
0.0
 40
0.0138889
 41
0.0138889
  0
VERTEX
  8
0
 10
3.05083
 20
1.54844
 30
0.0
 40
0.0138889
 41
0.0138889
  0
VERTEX
  8
0
 10
3.02083
 20
1.54861
 30
0.0
 40
0.0138889
 41
0.0138889
  0
VERTEX
  8
0
 10
1.9375
 20
1.54861
 30
0.0
 40
0.0138889
 41
0.0138889
  0
VERTEX
  8
0
 10
1.89367
 20
1.55365
 30
0.0
 40
0.0138889
 41
0.0138889
  0
VERTEX
  8
0
 10
1.85726
 20
1.56619
 30
0.0
 40
0.0138889
 41
0.0138889
  0
VERTEX
  8
0
 10
1.82937
 20
1.5849
 30
0.0
 40
0.0138889
 41
0.0138889
  0
VERTEX
  8
0
 10
1.81114
 20
1.60861
 30
0.0
 40
0.0138889
 41
0.0138889
  0
VERTEX
  8
0
 10
1.80354
 20
1.63613
 30
0.0
 40
0.0138889
 41
0.0138889
  0
VERTEX
  8
0
 10
1.80767
 20
1.66618
 30
0.0
 40
0.0138889
 41
0.0138889
  0
VERTEX
  8
0
 10
1.82471
 20
1.69749
 30
0.0
 40
0.0138889
 41
0.0138889
  0
VERTEX
  8
0
 10
1.85568
 20
1.72889
 30
0.0
 40
0.0138889
 41
0.0138889
  0
VERTEX
  8
0
 10
1.9336
 20
1.74251
 30
0.0
 40
0.0138889
 41
0.0138889
  0
VERTEX
  8
0
 10
2.03683
 20
1.7461
 30
0.0
 40
0.0138889
 41
0.0138889
  0
VERTEX
  8
0
 10
2.14285
 20
1.74468
 30
0.0
 40
0.0138889
 41
0.0138889
  0
VERTEX
  8
0
 10
2.22917
 20
1.74306
 30
0.0
 40
0.0138889
 41
0.0138889
  0
SEQEND
 8
0
  0
POLYLINE
  8
0
 62
     0
 66
     1
 10
0
 20
0
 30
0.0
 70
     1
 40
1
 41
1
  0
VERTEX
  8
0
 10
4.15972
 20
1.57639
 30
0.0
 40
0.0138889
 41
0.0138889
  0
VERTEX
  8
0
 10
4.07378
 20
1.57215
 30
0.0
 40
0.0138889
 41
0.0138889
  0
VERTEX
  8
0
 10
3.99522
 20
1.55593
 30
0.0
 40
0.0138889
 41
0.0138889
  0
VERTEX
  8
0
 10
3.92318
 20
1.52203
 30
0.0
 40
0.0138889
 41
0.0138889
  0
VERTEX
  8
0
 10
3.8571
 20
1.46474
 30
0.0
 40
0.0138889
 41
0.0138889
  0
VERTEX
  8
0
 10
3.8195
 20
1.41325
 30
0.0
 40
0.0138889
 41
0.0138889
  0
VERTEX
  8
0
 10
3.79764
 20
1.36122
 30
0.0
 40
0.0138889
 41
0.0138889
  0
VERTEX
  8
0
 10
3.78743
 20
1.30556
 30
0.0
 40
0.0138889
 41
0.0138889
  0
VERTEX
  8
0
 10
3.78472
 20
1.24306
 30
0.0
 40
0.0138889
 41
0.0138889
  0
VERTEX
  8
0
 10
3.78472
 20
0.590278
 30
0.0
 40
0.0138889
 41
0.0138889
  0
VERTEX
  8
0
 10
3.83996
 20
0.634549
 30
0.0
 40
0.0138889
 41
0.0138889
  0
VERTEX
  8
0
 10
3.90468
 20
0.693468
 30
0.0
 40
0.0138889
 41
0.0138889
  0
VERTEX
  8
0
 10
3.97553
 20
0.762696
 30
0.0
 40
0.0138889
 41
0.0138889
  0
VERTEX
  8
0
 10
4.04937
 20
0.837999
 30
0.0
 40
0.0138889
 41
0.0138889
  0
VERTEX
  8
0
 10
4.12283
 20
0.914931
 30
0.0
 40
0.0138889
 41
0.0138889
  0
VERTEX
  8
0
 10
4.19276
 20
0.989204
 30
0.0
 40
0.0138889
 41
0.0138889
  0
VERTEX
  8
0
 10
4.25592
 20
1.05637
 30
0.0
 40
0.0138889
 41
0.0138889
  0
VERTEX
  8
0
 10
4.30903
 20
1.1122
 30
0.0
 40
0.0138889
 41
0.0138889
  0
VERTEX
  8
0
 10
4.75694
 20
1.57639
 30
0.0
 40
0.0138889
 41
0.0138889
  0
VERTEX
  8
0
 10
4.15972
 20
1.57639
 30
0.0
 40
0.0138889
 41
0.0138889
  0
SEQEND
 8
0
  0
ENDSEC
  0
EOF
