<?xml version="1.0" encoding="UTF-8" standalone="no"?>
<!DOCTYPE svg PUBLIC "-//W3C//DTD SVG 20010904//EN"
              "http://www.w3.org/TR/2001/REC-SVG-20010904/DTD/svg10.dtd">

<svg xmlns="http://www.w3.org/2000/svg"
     width="7.11111in" height="7.11111in"
     viewBox="0 0 512 512">
  <path id="Selection"
        fill="none" stroke="black" stroke-width="1"
        d="M 148.00,73.00
           C 148.00,73.00 257.00,73.00 257.00,73.00
             257.00,73.00 364.00,73.00 364.00,73.00
             378.62,73.18 397.50,84.90 402.00,99.00
             402.00,99.00 109.00,99.00 109.00,99.00
             113.75,84.11 132.81,73.18 148.00,73.00 Z
           M 75.00,283.85
           C 75.00,283.85 54.00,283.85 54.00,283.85
             41.06,281.20 31.04,272.32 26.70,260.00
             24.94,255.01 25.01,253.15 25.00,248.00
             25.00,248.00 25.00,147.00 25.00,147.00
             25.03,126.06 40.06,111.03 61.00,111.00
             61.00,111.00 360.00,111.00 360.00,111.00
             360.00,111.00 450.00,111.00 450.00,111.00
             471.16,111.03 485.97,125.82 486.00,147.00
             486.00,147.00 486.00,248.00 486.00,248.00
             485.97,269.69 470.34,283.97 449.00,284.00
             449.00,284.00 407.00,284.00 407.00,284.00
             407.00,284.00 407.00,338.00 407.00,338.00
             406.98,349.47 405.07,351.89 397.00,360.00
             397.00,360.00 386.00,371.00 386.00,371.00
             386.00,371.00 333.00,425.00 333.00,425.00
             333.00,425.00 306.00,453.00 306.00,453.00
             298.13,460.88 296.46,464.98 285.00,465.00
             285.00,465.00 150.00,465.00 150.00,465.00
             123.57,464.96 104.04,442.86 104.00,417.00
             104.00,417.00 104.00,345.00 104.00,345.00
             104.01,340.56 103.78,336.86 106.65,333.10
             112.09,325.97 123.40,326.46 128.26,334.02
             130.27,337.14 129.99,340.47 130.00,344.00
             130.00,344.00 130.00,411.00 130.00,411.00
             130.02,426.43 137.05,438.79 154.00,439.00
             154.00,439.00 271.00,439.00 271.00,439.00
             269.15,432.48 270.00,412.91 270.00,405.00
             270.00,379.33 266.43,354.37 289.01,336.29
             292.81,333.25 297.46,330.78 302.00,329.06
             307.22,327.09 312.43,326.07 318.00,326.00
             318.00,326.00 380.00,326.00 380.00,326.00
             380.00,326.00 380.00,257.00 380.00,257.00
             379.73,234.03 361.32,222.03 340.00,222.00
             340.00,222.00 144.00,222.00 144.00,222.00
             138.85,222.02 134.96,222.51 130.00,224.04
             126.39,225.15 124.14,226.27 121.00,228.36
             101.16,241.61 105.00,263.41 105.00,283.85
             105.00,283.85 75.00,283.85 75.00,283.85 Z
           M 54.53,153.00
           C 52.28,163.28 61.59,173.22 72.00,171.66
             91.93,168.68 89.71,138.92 68.00,140.34
             60.73,142.04 56.20,145.36 54.53,153.00 Z
           M 120.00,171.80
           C 137.38,173.52 143.57,149.03 128.00,141.57
             124.81,140.04 122.40,140.03 119.00,140.33
             99.05,145.09 102.68,170.09 120.00,171.80 Z
           M 187.00,271.00
           C 187.00,271.00 242.00,271.00 242.00,271.00
             244.63,271.00 248.50,270.78 250.77,272.17
             254.82,274.65 254.82,281.35 250.77,283.83
             248.50,285.22 244.63,285.00 242.00,285.00
             242.00,285.00 166.00,285.00 166.00,285.00
             163.45,285.00 159.57,285.24 157.39,283.83
             152.10,280.39 154.33,274.49 159.04,271.74
             164.71,270.34 180.29,271.00 187.00,271.00 Z
           M 184.00,306.00
           C 184.00,306.00 233.00,306.00 233.00,306.00
             239.11,306.00 255.96,303.40 253.67,313.98
             252.49,319.40 247.33,318.99 243.00,319.00
             243.00,319.00 163.00,319.00 163.00,319.00
             152.80,318.81 151.79,310.75 158.11,306.74
             163.57,305.36 177.61,306.00 184.00,306.00 Z
           M 185.00,340.00
           C 185.00,340.00 242.00,340.00 242.00,340.00
             244.63,340.00 248.50,339.78 250.77,341.17
             254.82,343.65 254.82,350.35 250.77,352.83
             248.50,354.22 244.63,354.00 242.00,354.00
             242.00,354.00 164.00,354.00 164.00,354.00
             154.94,353.83 150.76,346.98 158.11,341.02
             163.66,339.08 178.38,340.00 185.00,340.00 Z
           M 324.00,352.00
           C 315.38,352.01 308.30,353.24 302.21,360.04
             297.72,365.06 297.03,369.58 297.00,376.00
             297.00,376.00 297.00,423.00 297.00,423.00
             306.50,416.20 325.73,394.77 334.75,385.42
             334.75,385.42 367.00,352.00 367.00,352.00
             367.00,352.00 324.00,352.00 324.00,352.00 Z" />
</svg>
