  0
SECTION
  2
HEADER
  9
$ACADVER
  1
AC1009
  9
$EXTMIN
 10
0.0
 20
0.0
 30
0.0
  9
$EXTMAX
 10
1000.0
 20
1000.0
 30
0.0
  9
$FILLMODE
 70
 0
  9
$SPLFRAME
 70
 1
  0
ENDSEC
  0
SECTION
  2
TABLES
  0
TABLE
  2
LAYER
 70
1
  0
LAYER
  2
0
 70
     0
 62
     7
  6
CONTINUOUS
  0
ENDTAB
  0
ENDSEC
  0
SECTION
  2
ENTITIES
  0
POLYLINE
  8
0
 62
     0
 66
     1
 10
0
 20
0
 30
0.0
 70
     1
 40
0.24
 41
0.24
  0
VERTEX
  8
0
 10
1.09543
 20
2.08763
 30
0.0
 40
0.00333333
 41
0.00333333
  0
VERTEX
  8
0
 10
1.13547
 20
2.08529
 30
0.0
 40
0.00333333
 41
0.00333333
  0
VERTEX
  8
0
 10
1.28988
 20
2.06087
 30
0.0
 40
0.00333333
 41
0.00333333
  0
VERTEX
  8
0
 10
1.43881
 20
2.01303
 30
0.0
 40
0.00333333
 41
0.00333333
  0
VERTEX
  8
0
 10
1.60232
 20
1.92904
 30
0.0
 40
0.00333333
 41
0.00333333
  0
VERTEX
  8
0
 10
1.74881
 20
1.81776
 30
0.0
 40
0.00333333
 41
0.00333333
  0
VERTEX
  8
0
 10
1.87972
 20
1.67426
 30
0.0
 40
0.00333333
 41
0.00333333
  0
VERTEX
  8
0
 10
1.97928
 20
1.51183
 30
0.0
 40
0.00333333
 41
0.00333333
  0
VERTEX
  8
0
 10
2.04704
 20
1.33577
 30
0.0
 40
0.00333333
 41
0.00333333
  0
VERTEX
  8
0
 10
2.08236
 20
1.1512
 30
0.0
 40
0.00333333
 41
0.00333333
  0
VERTEX
  8
0
 10
2.08479
 20
0.963379
 30
0.0
 40
0.00333333
 41
0.00333333
  0
VERTEX
  8
0
 10
2.05371
 20
0.777344
 30
0.0
 40
0.00333333
 41
0.00333333
  0
VERTEX
  8
0
 10
1.98872
 20
0.598415
 30
0.0
 40
0.00333333
 41
0.00333333
  0
VERTEX
  8
0
 10
1.88917
 20
0.43164
 30
0.0
 40
0.00333333
 41
0.00333333
  0
VERTEX
  8
0
 10
1.75965
 20
0.285265
 30
0.0
 40
0.00333333
 41
0.00333333
  0
VERTEX
  8
0
 10
1.60547
 20
0.165147
 30
0.0
 40
0.00333333
 41
0.00333333
  0
VERTEX
  8
0
 10
1.49078
 20
0.102593
 30
0.0
 40
0.00333333
 41
0.00333333
  0
VERTEX
  8
0
 10
1.36393
 20
0.0521918
 30
0.0
 40
0.00333333
 41
0.00333333
  0
VERTEX
  8
0
 10
1.23199
 20
0.0182835
 30
0.0
 40
0.00333333
 41
0.00333333
  0
VERTEX
  8
0
 10
1.10211
 20
0.00499132
 30
0.0
 40
0.00333333
 41
0.00333333
  0
VERTEX
  8
0
 10
1.05214
 20
0.00168186
 30
0.0
 40
0.00333333
 41
0.00333333
  0
VERTEX
  8
0
 10
0.972114
 20
0.00499132
 30
0.0
 40
0.00333333
 41
0.00333333
  0
VERTEX
  8
0
 10
0.897786
 20
0.0116645
 30
0.0
 40
0.00333333
 41
0.00333333
  0
VERTEX
  8
0
 10
0.814833
 20
0.0276693
 30
0.0
 40
0.00333333
 41
0.00333333
  0
VERTEX
  8
0
 10
0.732964
 20
0.0496961
 30
0.0
 40
0.00333333
 41
0.00333333
  0
VERTEX
  8
0
 10
0.66211
 20
0.0743272
 30
0.0
 40
0.00333333
 41
0.00333333
  0
VERTEX
  8
0
 10
0.489312
 20
0.16135
 30
0.0
 40
0.00333333
 41
0.00333333
  0
VERTEX
  8
0
 10
0.335449
 20
0.278646
 30
0.0
 40
0.00333333
 41
0.00333333
  0
VERTEX
  8
0
 10
0.220594
 20
0.403971
 30
0.0
 40
0.00333333
 41
0.00333333
  0
VERTEX
  8
0
 10
0.128472
 20
0.544217
 30
0.0
 40
0.00333333
 41
0.00333333
  0
VERTEX
  8
0
 10
0.0601671
 20
0.697483
 30
0.0
 40
0.00333333
 41
0.00333333
  0
VERTEX
  8
0
 10
0.0168728
 20
0.861654
 30
0.0
 40
0.00333333
 41
0.00333333
  0
VERTEX
  8
0
 10
0.00320096
 20
0.983182
 30
0.0
 40
0.00333333
 41
0.00333333
  0
VERTEX
  8
0
 10
0.00211589
 20
1.10498
 30
0.0
 40
0.00333333
 41
0.00333333
  0
VERTEX
  8
0
 10
0.00515408
 20
1.13835
 30
0.0
 40
0.00333333
 41
0.00333333
  0
VERTEX
  8
0
 10
0.0610894
 20
1.39833
 30
0.0
 40
0.00333333
 41
0.00333333
  0
VERTEX
  8
0
 10
0.157769
 20
1.59885
 30
0.0
 40
0.00333333
 41
0.00333333
  0
VERTEX
  8
0
 10
0.293132
 20
1.77203
 30
0.0
 40
0.00333333
 41
0.00333333
  0
VERTEX
  8
0
 10
0.461914
 20
1.91297
 30
0.0
 40
0.00333333
 41
0.00333333
  0
VERTEX
  8
0
 10
0.6588
 20
2.01682
 30
0.0
 40
0.00333333
 41
0.00333333
  0
VERTEX
  8
0
 10
0.768772
 20
2.05333
 30
0.0
 40
0.00333333
 41
0.00333333
  0
VERTEX
  8
0
 10
0.882107
 20
2.07742
 30
0.0
 40
0.00333333
 41
0.00333333
  0
VERTEX
  8
0
 10
0.96544
 20
2.08763
 30
0.0
 40
0.00333333
 41
0.00333333
  0
VERTEX
  8
0
 10
1.09543
 20
2.08763
 30
0.0
 40
0.00333333
 41
0.00333333
  0
SEQEND
 8
0
  0
POLYLINE
  8
0
 62
     0
 66
     1
 10
0
 20
0
 30
0.0
 70
     1
 40
0.24
 41
0.24
  0
VERTEX
  8
0
 10
1.09543
 20
1.95833
 30
0.0
 40
0.00333333
 41
0.00333333
  0
VERTEX
  8
0
 10
1.09543
 20
1.61501
 30
0.0
 40
0.00333333
 41
0.00333333
  0
VERTEX
  8
0
 10
1.36214
 20
1.61501
 30
0.0
 40
0.00333333
 41
0.00333333
  0
VERTEX
  8
0
 10
1.2717
 20
1.78586
 30
0.0
 40
0.00333333
 41
0.00333333
  0
VERTEX
  8
0
 10
1.15782
 20
1.94168
 30
0.0
 40
0.00333333
 41
0.00333333
  0
VERTEX
  8
0
 10
1.0988
 20
2.00168
 30
0.0
 40
0.00333333
 41
0.00333333
  0
VERTEX
  8
0
 10
1.09543
 20
1.95833
 30
0.0
 40
0.00333333
 41
0.00333333
  0
SEQEND
 8
0
  0
POLYLINE
  8
0
 62
     0
 66
     1
 10
0
 20
0
 30
0.0
 70
     1
 40
0.24
 41
0.24
  0
VERTEX
  8
0
 10
0.755425
 20
1.97308
 30
0.0
 40
0.00333333
 41
0.00333333
  0
VERTEX
  8
0
 10
0.550999
 20
1.87961
 30
0.0
 40
0.00333333
 41
0.00333333
  0
VERTEX
  8
0
 10
0.378472
 20
1.73497
 30
0.0
 40
0.00333333
 41
0.00333333
  0
VERTEX
  8
0
 10
0.35319
 20
1.70828
 30
0.0
 40
0.00333333
 41
0.00333333
  0
VERTEX
  8
0
 10
0.324761
 20
1.67714
 30
0.0
 40
0.00333333
 41
0.00333333
  0
VERTEX
  8
0
 10
0.298232
 20
1.64497
 30
0.0
 40
0.00333333
 41
0.00333333
  0
VERTEX
  8
0
 10
0.278808
 20
1.61501
 30
0.0
 40
0.00333333
 41
0.00333333
  0
VERTEX
  8
0
 10
0.585449
 20
1.61501
 30
0.0
 40
0.00333333
 41
0.00333333
  0
VERTEX
  8
0
 10
0.598469
 20
1.61518
 30
0.0
 40
0.00333333
 41
0.00333333
  0
VERTEX
  8
0
 10
0.610732
 20
1.61838
 30
0.0
 40
0.00333333
 41
0.00333333
  0
VERTEX
  8
0
 10
0.620443
 20
1.63217
 30
0.0
 40
0.00333333
 41
0.00333333
  0
VERTEX
  8
0
 10
0.628039
 20
1.64833
 30
0.0
 40
0.00333333
 41
0.00333333
  0
VERTEX
  8
0
 10
0.664387
 20
1.71164
 30
0.0
 40
0.00333333
 41
0.00333333
  0
VERTEX
  8
0
 10
0.733724
 20
1.81207
 30
0.0
 40
0.00333333
 41
0.00333333
  0
VERTEX
  8
0
 10
0.808811
 20
1.90831
 30
0.0
 40
0.00333333
 41
0.00333333
  0
VERTEX
  8
0
 10
0.882107
 20
1.99832
 30
0.0
 40
0.00333333
 41
0.00333333
  0
VERTEX
  8
0
 10
0.818522
 20
1.98915
 30
0.0
 40
0.00333333
 41
0.00333333
  0
VERTEX
  8
0
 10
0.755425
 20
1.97308
 30
0.0
 40
0.00333333
 41
0.00333333
  0
SEQEND
 8
0
  0
POLYLINE
  8
0
 62
     0
 66
     1
 10
0
 20
0
 30
0.0
 70
     1
 40
0.24
 41
0.24
  0
VERTEX
  8
0
 10
0.922092
 20
1.91499
 30
0.0
 40
0.00333333
 41
0.00333333
  0
VERTEX
  8
0
 10
0.862468
 20
1.85021
 30
0.0
 40
0.00333333
 41
0.00333333
  0
VERTEX
  8
0
 10
0.801378
 20
1.77349
 30
0.0
 40
0.00333333
 41
0.00333333
  0
VERTEX
  8
0
 10
0.746474
 20
1.6926
 30
0.0
 40
0.00333333
 41
0.00333333
  0
VERTEX
  8
0
 10
0.705458
 20
1.61501
 30
0.0
 40
0.00333333
 41
0.00333333
  0
VERTEX
  8
0
 10
1.0121
 20
1.61501
 30
0.0
 40
0.00333333
 41
0.00333333
  0
VERTEX
  8
0
 10
1.0121
 20
1.99832
 30
0.0
 40
0.00333333
 41
0.00333333
  0
VERTEX
  8
0
 10
0.991374
 20
1.98367
 30
0.0
 40
0.00333333
 41
0.00333333
  0
VERTEX
  8
0
 10
0.966254
 20
1.96029
 30
0.0
 40
0.00333333
 41
0.00333333
  0
VERTEX
  8
0
 10
0.941569
 20
1.93511
 30
0.0
 40
0.00333333
 41
0.00333333
  0
VERTEX
  8
0
 10
0.922092
 20
1.91499
 30
0.0
 40
0.00333333
 41
0.00333333
  0
SEQEND
 8
0
  0
POLYLINE
  8
0
 62
     0
 66
     1
 10
0
 20
0
 30
0.0
 70
     1
 40
0.24
 41
0.24
  0
VERTEX
  8
0
 10
1.26324
 20
1.95167
 30
0.0
 40
0.00333333
 41
0.00333333
  0
VERTEX
  8
0
 10
1.34304
 20
1.845
 30
0.0
 40
0.00333333
 41
0.00333333
  0
VERTEX
  8
0
 10
1.44775
 20
1.67503
 30
0.0
 40
0.00333333
 41
0.00333333
  0
VERTEX
  8
0
 10
1.45383
 20
1.66238
 30
0.0
 40
0.00333333
 41
0.00333333
  0
VERTEX
  8
0
 10
1.46229
 20
1.64447
 30
0.0
 40
0.00333333
 41
0.00333333
  0
VERTEX
  8
0
 10
1.47086
 20
1.62765
 30
0.0
 40
0.00333333
 41
0.00333333
  0
VERTEX
  8
0
 10
1.4776
 20
1.61828
 30
0.0
 40
0.00333333
 41
0.00333333
  0
VERTEX
  8
0
 10
1.48936
 20
1.61513
 30
0.0
 40
0.00333333
 41
0.00333333
  0
VERTEX
  8
0
 10
1.50211
 20
1.61501
 30
0.0
 40
0.00333333
 41
0.00333333
  0
VERTEX
  8
0
 10
1.81213
 20
1.61501
 30
0.0
 40
0.00333333
 41
0.00333333
  0
VERTEX
  8
0
 10
1.78558
 20
1.65956
 30
0.0
 40
0.00333333
 41
0.00333333
  0
VERTEX
  8
0
 10
1.75499
 20
1.70167
 30
0.0
 40
0.00333333
 41
0.00333333
  0
VERTEX
  8
0
 10
1.66992
 20
1.79422
 30
0.0
 40
0.00333333
 41
0.00333333
  0
VERTEX
  8
0
 10
1.57194
 20
1.86762
 30
0.0
 40
0.00333333
 41
0.00333333
  0
VERTEX
  8
0
 10
1.46306
 20
1.92475
 30
0.0
 40
0.00333333
 41
0.00333333
  0
VERTEX
  8
0
 10
1.34543
 20
1.96826
 30
0.0
 40
0.00333333
 41
0.00333333
  0
VERTEX
  8
0
 10
1.2321
 20
1.99832
 30
0.0
 40
0.00333333
 41
0.00333333
  0
VERTEX
  8
0
 10
1.24414
 20
1.9739
 30
0.0
 40
0.00333333
 41
0.00333333
  0
VERTEX
  8
0
 10
1.26324
 20
1.95167
 30
0.0
 40
0.00333333
 41
0.00333333
  0
SEQEND
 8
0
  0
POLYLINE
  8
0
 62
     0
 66
     1
 10
0
 20
0
 30
0.0
 70
     1
 40
0.24
 41
0.24
  0
VERTEX
  8
0
 10
0.23546
 20
1.51167
 30
0.0
 40
0.00333333
 41
0.00333333
  0
VERTEX
  8
0
 10
0.209907
 20
1.50825
 30
0.0
 40
0.00333333
 41
0.00333333
  0
VERTEX
  8
0
 10
0.19911
 20
1.49625
 30
0.0
 40
0.00333333
 41
0.00333333
  0
VERTEX
  8
0
 10
0.191297
 20
1.48167
 30
0.0
 40
0.00333333
 41
0.00333333
  0
VERTEX
  8
0
 10
0.162869
 20
1.42165
 30
0.0
 40
0.00333333
 41
0.00333333
  0
VERTEX
  8
0
 10
0.119303
 20
1.29921
 30
0.0
 40
0.00333333
 41
0.00333333
  0
VERTEX
  8
0
 10
0.0930447
 20
1.17166
 30
0.0
 40
0.00333333
 41
0.00333333
  0
VERTEX
  8
0
 10
0.0854492
 20
1.09831
 30
0.0
 40
0.00333333
 41
0.00333333
  0
VERTEX
  8
0
 10
0.522136
 20
1.09831
 30
0.0
 40
0.00333333
 41
0.00333333
  0
VERTEX
  8
0
 10
0.525174
 20
1.14166
 30
0.0
 40
0.00333333
 41
0.00333333
  0
VERTEX
  8
0
 10
0.548449
 20
1.32888
 30
0.0
 40
0.00333333
 41
0.00333333
  0
VERTEX
  8
0
 10
0.595432
 20
1.51167
 30
0.0
 40
0.00333333
 41
0.00333333
  0
VERTEX
  8
0
 10
0.23546
 20
1.51167
 30
0.0
 40
0.00333333
 41
0.00333333
  0
SEQEND
 8
0
  0
POLYLINE
  8
0
 62
     0
 66
     1
 10
0
 20
0
 30
0.0
 70
     1
 40
0.24
 41
0.24
  0
VERTEX
  8
0
 10
0.712131
 20
1.51167
 30
0.0
 40
0.00333333
 41
0.00333333
  0
VERTEX
  8
0
 10
0.699164
 20
1.51156
 30
0.0
 40
0.00333333
 41
0.00333333
  0
VERTEX
  8
0
 10
0.687175
 20
1.50825
 30
0.0
 40
0.00333333
 41
0.00333333
  0
VERTEX
  8
0
 10
0.679199
 20
1.4961
 30
0.0
 40
0.00333333
 41
0.00333333
  0
VERTEX
  8
0
 10
0.674371
 20
1.48167
 30
0.0
 40
0.00333333
 41
0.00333333
  0
VERTEX
  8
0
 10
0.654243
 20
1.41499
 30
0.0
 40
0.00333333
 41
0.00333333
  0
VERTEX
  8
0
 10
0.621907
 20
1.25738
 30
0.0
 40
0.00333333
 41
0.00333333
  0
VERTEX
  8
0
 10
0.605469
 20
1.09831
 30
0.0
 40
0.00333333
 41
0.00333333
  0
VERTEX
  8
0
 10
1.0121
 20
1.09831
 30
0.0
 40
0.00333333
 41
0.00333333
  0
VERTEX
  8
0
 10
1.0121
 20
1.51167
 30
0.0
 40
0.00333333
 41
0.00333333
  0
VERTEX
  8
0
 10
0.712131
 20
1.51167
 30
0.0
 40
0.00333333
 41
0.00333333
  0
SEQEND
 8
0
  0
POLYLINE
  8
0
 62
     0
 66
     1
 10
0
 20
0
 30
0.0
 70
     1
 40
0.24
 41
0.24
  0
VERTEX
  8
0
 10
1.45508
 20
1.41499
 30
0.0
 40
0.00333333
 41
0.00333333
  0
VERTEX
  8
0
 10
1.43544
 20
1.48167
 30
0.0
 40
0.00333333
 41
0.00333333
  0
VERTEX
  8
0
 10
1.43061
 20
1.49604
 30
0.0
 40
0.00333333
 41
0.00333333
  0
VERTEX
  8
0
 10
1.42312
 20
1.50836
 30
0.0
 40
0.00333333
 41
0.00333333
  0
VERTEX
  8
0
 10
1.4114
 20
1.51161
 30
0.0
 40
0.00333333
 41
0.00333333
  0
VERTEX
  8
0
 10
1.39876
 20
1.51167
 30
0.0
 40
0.00333333
 41
0.00333333
  0
VERTEX
  8
0
 10
1.09543
 20
1.51167
 30
0.0
 40
0.00333333
 41
0.00333333
  0
VERTEX
  8
0
 10
1.09543
 20
1.09831
 30
0.0
 40
0.00333333
 41
0.00333333
  0
VERTEX
  8
0
 10
1.50211
 20
1.09831
 30
0.0
 40
0.00333333
 41
0.00333333
  0
VERTEX
  8
0
 10
1.4885
 20
1.25803
 30
0.0
 40
0.00333333
 41
0.00333333
  0
VERTEX
  8
0
 10
1.45508
 20
1.41499
 30
0.0
 40
0.00333333
 41
0.00333333
  0
SEQEND
 8
0
  0
POLYLINE
  8
0
 62
     0
 66
     1
 10
0
 20
0
 30
0.0
 70
     1
 40
0.24
 41
0.24
  0
VERTEX
  8
0
 10
1.92594
 20
1.42165
 30
0.0
 40
0.00333333
 41
0.00333333
  0
VERTEX
  8
0
 10
1.89546
 20
1.48497
 30
0.0
 40
0.00333333
 41
0.00333333
  0
VERTEX
  8
0
 10
1.8884
 20
1.49756
 30
0.0
 40
0.00333333
 41
0.00333333
  0
VERTEX
  8
0
 10
1.88004
 20
1.50836
 30
0.0
 40
0.00333333
 41
0.00333333
  0
VERTEX
  8
0
 10
1.86817
 20
1.51156
 30
0.0
 40
0.00333333
 41
0.00333333
  0
VERTEX
  8
0
 10
1.85547
 20
1.51167
 30
0.0
 40
0.00333333
 41
0.00333333
  0
VERTEX
  8
0
 10
1.51546
 20
1.51167
 30
0.0
 40
0.00333333
 41
0.00333333
  0
VERTEX
  8
0
 10
1.54997
 20
1.38498
 30
0.0
 40
0.00333333
 41
0.00333333
  0
VERTEX
  8
0
 10
1.58544
 20
1.09831
 30
0.0
 40
0.00333333
 41
0.00333333
  0
VERTEX
  8
0
 10
2.00211
 20
1.09831
 30
0.0
 40
0.00333333
 41
0.00333333
  0
VERTEX
  8
0
 10
1.99539
 20
1.17806
 30
0.0
 40
0.00333333
 41
0.00333333
  0
VERTEX
  8
0
 10
1.97862
 20
1.26318
 30
0.0
 40
0.00333333
 41
0.00333333
  0
VERTEX
  8
0
 10
1.95454
 20
1.34679
 30
0.0
 40
0.00333333
 41
0.00333333
  0
VERTEX
  8
0
 10
1.92594
 20
1.42165
 30
0.0
 40
0.00333333
 41
0.00333333
  0
SEQEND
 8
0
  0
POLYLINE
  8
0
 62
     0
 66
     1
 10
0
 20
0
 30
0.0
 70
     1
 40
0.24
 41
0.24
  0
VERTEX
  8
0
 10
0.0854492
 20
0.991644
 30
0.0
 40
0.00333333
 41
0.00333333
  0
VERTEX
  8
0
 10
0.0897353
 20
0.94835
 30
0.0
 40
0.00333333
 41
0.00333333
  0
VERTEX
  8
0
 10
0.103624
 20
0.858344
 30
0.0
 40
0.00333333
 41
0.00333333
  0
VERTEX
  8
0
 10
0.127713
 20
0.7653
 30
0.0
 40
0.00333333
 41
0.00333333
  0
VERTEX
  8
0
 10
0.160807
 20
0.675022
 30
0.0
 40
0.00333333
 41
0.00333333
  0
VERTEX
  8
0
 10
0.191297
 20
0.611654
 30
0.0
 40
0.00333333
 41
0.00333333
  0
VERTEX
  8
0
 10
0.198839
 20
0.59706
 30
0.0
 40
0.00333333
 41
0.00333333
  0
VERTEX
  8
0
 10
0.209472
 20
0.585069
 30
0.0
 40
0.00333333
 41
0.00333333
  0
VERTEX
  8
0
 10
0.23546
 20
0.581651
 30
0.0
 40
0.00333333
 41
0.00333333
  0
VERTEX
  8
0
 10
0.592122
 20
0.581651
 30
0.0
 40
0.00333333
 41
0.00333333
  0
VERTEX
  8
0
 10
0.560926
 20
0.70166
 30
0.0
 40
0.00333333
 41
0.00333333
  0
VERTEX
  8
0
 10
0.525174
 20
0.95166
 30
0.0
 40
0.00333333
 41
0.00333333
  0
VERTEX
  8
0
 10
0.522136
 20
0.991644
 30
0.0
 40
0.00333333
 41
0.00333333
  0
VERTEX
  8
0
 10
0.0854492
 20
0.991644
 30
0.0
 40
0.00333333
 41
0.00333333
  0
SEQEND
 8
0
  0
POLYLINE
  8
0
 62
     0
 66
     1
 10
0
 20
0
 30
0.0
 70
     1
 40
0.24
 41
0.24
  0
VERTEX
  8
0
 10
0.605469
 20
0.991644
 30
0.0
 40
0.00333333
 41
0.00333333
  0
VERTEX
  8
0
 10
0.609104
 20
0.938314
 30
0.0
 40
0.00333333
 41
0.00333333
  0
VERTEX
  8
0
 10
0.615994
 20
0.87169
 30
0.0
 40
0.00333333
 41
0.00333333
  0
VERTEX
  8
0
 10
0.631565
 20
0.772624
 30
0.0
 40
0.00333333
 41
0.00333333
  0
VERTEX
  8
0
 10
0.655003
 20
0.675022
 30
0.0
 40
0.00333333
 41
0.00333333
  0
VERTEX
  8
0
 10
0.674371
 20
0.611654
 30
0.0
 40
0.00333333
 41
0.00333333
  0
VERTEX
  8
0
 10
0.679199
 20
0.597276
 30
0.0
 40
0.00333333
 41
0.00333333
  0
VERTEX
  8
0
 10
0.687175
 20
0.585069
 30
0.0
 40
0.00333333
 41
0.00333333
  0
VERTEX
  8
0
 10
0.699164
 20
0.581814
 30
0.0
 40
0.00333333
 41
0.00333333
  0
VERTEX
  8
0
 10
0.712131
 20
0.581651
 30
0.0
 40
0.00333333
 41
0.00333333
  0
VERTEX
  8
0
 10
1.0121
 20
0.581651
 30
0.0
 40
0.00333333
 41
0.00333333
  0
VERTEX
  8
0
 10
1.0121
 20
0.991644
 30
0.0
 40
0.00333333
 41
0.00333333
  0
VERTEX
  8
0
 10
0.605469
 20
0.991644
 30
0.0
 40
0.00333333
 41
0.00333333
  0
SEQEND
 8
0
  0
POLYLINE
  8
0
 62
     0
 66
     1
 10
0
 20
0
 30
0.0
 70
     1
 40
0.24
 41
0.24
  0
VERTEX
  8
0
 10
1.09543
 20
0.991644
 30
0.0
 40
0.00333333
 41
0.00333333
  0
VERTEX
  8
0
 10
1.09543
 20
0.581651
 30
0.0
 40
0.00333333
 41
0.00333333
  0
VERTEX
  8
0
 10
1.39876
 20
0.581651
 30
0.0
 40
0.00333333
 41
0.00333333
  0
VERTEX
  8
0
 10
1.4114
 20
0.58176
 30
0.0
 40
0.00333333
 41
0.00333333
  0
VERTEX
  8
0
 10
1.42312
 20
0.584961
 30
0.0
 40
0.00333333
 41
0.00333333
  0
VERTEX
  8
0
 10
1.43061
 20
0.597331
 30
0.0
 40
0.00333333
 41
0.00333333
  0
VERTEX
  8
0
 10
1.43544
 20
0.611654
 30
0.0
 40
0.00333333
 41
0.00333333
  0
VERTEX
  8
0
 10
1.45449
 20
0.675022
 30
0.0
 40
0.00333333
 41
0.00333333
  0
VERTEX
  8
0
 10
1.48807
 20
0.832086
 30
0.0
 40
0.00333333
 41
0.00333333
  0
VERTEX
  8
0
 10
1.50211
 20
0.991644
 30
0.0
 40
0.00333333
 41
0.00333333
  0
VERTEX
  8
0
 10
1.09543
 20
0.991644
 30
0.0
 40
0.00333333
 41
0.00333333
  0
SEQEND
 8
0
  0
POLYLINE
  8
0
 62
     0
 66
     1
 10
0
 20
0
 30
0.0
 70
     1
 40
0.24
 41
0.24
  0
VERTEX
  8
0
 10
1.58544
 20
0.991644
 30
0.0
 40
0.00333333
 41
0.00333333
  0
VERTEX
  8
0
 10
1.54921
 20
0.705024
 30
0.0
 40
0.00333333
 41
0.00333333
  0
VERTEX
  8
0
 10
1.5274
 20
0.62169
 30
0.0
 40
0.00333333
 41
0.00333333
  0
VERTEX
  8
0
 10
1.51546
 20
0.581651
 30
0.0
 40
0.00333333
 41
0.00333333
  0
VERTEX
  8
0
 10
1.85547
 20
0.581651
 30
0.0
 40
0.00333333
 41
0.00333333
  0
VERTEX
  8
0
 10
1.86833
 20
0.58176
 30
0.0
 40
0.00333333
 41
0.00333333
  0
VERTEX
  8
0
 10
1.88037
 20
0.584961
 30
0.0
 40
0.00333333
 41
0.00333333
  0
VERTEX
  8
0
 10
1.8904
 20
0.597168
 30
0.0
 40
0.00333333
 41
0.00333333
  0
VERTEX
  8
0
 10
1.89794
 20
0.611654
 30
0.0
 40
0.00333333
 41
0.00333333
  0
VERTEX
  8
0
 10
1.92638
 20
0.671658
 30
0.0
 40
0.00333333
 41
0.00333333
  0
VERTEX
  8
0
 10
1.95426
 20
0.745606
 30
0.0
 40
0.00333333
 41
0.00333333
  0
VERTEX
  8
0
 10
1.97831
 20
0.828668
 30
0.0
 40
0.00333333
 41
0.00333333
  0
VERTEX
  8
0
 10
1.99528
 20
0.913249
 30
0.0
 40
0.00333333
 41
0.00333333
  0
VERTEX
  8
0
 10
2.00211
 20
0.991644
 30
0.0
 40
0.00333333
 41
0.00333333
  0
VERTEX
  8
0
 10
1.58544
 20
0.991644
 30
0.0
 40
0.00333333
 41
0.00333333
  0
SEQEND
 8
0
  0
POLYLINE
  8
0
 62
     0
 66
     1
 10
0
 20
0
 30
0.0
 70
     1
 40
0.24
 41
0.24
  0
VERTEX
  8
0
 10
0.81174
 20
0.185004
 30
0.0
 40
0.00333333
 41
0.00333333
  0
VERTEX
  8
0
 10
0.779514
 20
0.228896
 30
0.0
 40
0.00333333
 41
0.00333333
  0
VERTEX
  8
0
 10
0.744303
 20
0.279893
 30
0.0
 40
0.00333333
 41
0.00333333
  0
VERTEX
  8
0
 10
0.710667
 20
0.331814
 30
0.0
 40
0.00333333
 41
0.00333333
  0
VERTEX
  8
0
 10
0.683106
 20
0.37831
 30
0.0
 40
0.00333333
 41
0.00333333
  0
VERTEX
  8
0
 10
0.649631
 20
0.441678
 30
0.0
 40
0.00333333
 41
0.00333333
  0
VERTEX
  8
0
 10
0.642361
 20
0.4579
 30
0.0
 40
0.00333333
 41
0.00333333
  0
VERTEX
  8
0
 10
0.633301
 20
0.471679
 30
0.0
 40
0.00333333
 41
0.00333333
  0
VERTEX
  8
0
 10
0.621474
 20
0.474935
 30
0.0
 40
0.00333333
 41
0.00333333
  0
VERTEX
  8
0
 10
0.608778
 20
0.474989
 30
0.0
 40
0.00333333
 41
0.00333333
  0
VERTEX
  8
0
 10
0.278808
 20
0.474989
 30
0.0
 40
0.00333333
 41
0.00333333
  0
VERTEX
  8
0
 10
0.325792
 20
0.414497
 30
0.0
 40
0.00333333
 41
0.00333333
  0
VERTEX
  8
0
 10
0.378797
 20
0.358344
 30
0.0
 40
0.00333333
 41
0.00333333
  0
VERTEX
  8
0
 10
0.528917
 20
0.23405
 30
0.0
 40
0.00333333
 41
0.00333333
  0
VERTEX
  8
0
 10
0.702094
 20
0.145019
 30
0.0
 40
0.00333333
 41
0.00333333
  0
VERTEX
  8
0
 10
0.740722
 20
0.131131
 30
0.0
 40
0.00333333
 41
0.00333333
  0
VERTEX
  8
0
 10
0.791992
 20
0.115072
 30
0.0
 40
0.00333333
 41
0.00333333
  0
VERTEX
  8
0
 10
0.843317
 20
0.101508
 30
0.0
 40
0.00333333
 41
0.00333333
  0
VERTEX
  8
0
 10
0.882107
 20
0.0949978
 30
0.0
 40
0.00333333
 41
0.00333333
  0
VERTEX
  8
0
 10
0.81174
 20
0.185004
 30
0.0
 40
0.00333333
 41
0.00333333
  0
SEQEND
 8
0
  0
POLYLINE
  8
0
 62
     0
 66
     1
 10
0
 20
0
 30
0.0
 70
     1
 40
0.24
 41
0.24
  0
VERTEX
  8
0
 10
0.728787
 20
0.474989
 30
0.0
 40
0.00333333
 41
0.00333333
  0
VERTEX
  8
0
 10
0.737468
 20
0.452582
 30
0.0
 40
0.00333333
 41
0.00333333
  0
VERTEX
  8
0
 10
0.751247
 20
0.423665
 30
0.0
 40
0.00333333
 41
0.00333333
  0
VERTEX
  8
0
 10
0.766004
 20
0.394586
 30
0.0
 40
0.00333333
 41
0.00333333
  0
VERTEX
  8
0
 10
0.77794
 20
0.371636
 30
0.0
 40
0.00333333
 41
0.00333333
  0
VERTEX
  8
0
 10
0.805881
 20
0.320529
 30
0.0
 40
0.00333333
 41
0.00333333
  0
VERTEX
  8
0
 10
0.834961
 20
0.27436
 30
0.0
 40
0.00333333
 41
0.00333333
  0
VERTEX
  8
0
 10
0.866971
 20
0.230143
 30
0.0
 40
0.00333333
 41
0.00333333
  0
VERTEX
  8
0
 10
0.904025
 20
0.185004
 30
0.0
 40
0.00333333
 41
0.00333333
  0
VERTEX
  8
0
 10
0.92654
 20
0.160969
 30
0.0
 40
0.00333333
 41
0.00333333
  0
VERTEX
  8
0
 10
0.954969
 20
0.134115
 30
0.0
 40
0.00333333
 41
0.00333333
  0
VERTEX
  8
0
 10
0.984918
 20
0.109375
 30
0.0
 40
0.00333333
 41
0.00333333
  0
VERTEX
  8
0
 10
1.0121
 20
0.0916883
 30
0.0
 40
0.00333333
 41
0.00333333
  0
VERTEX
  8
0
 10
1.0121
 20
0.474989
 30
0.0
 40
0.00333333
 41
0.00333333
  0
VERTEX
  8
0
 10
0.728787
 20
0.474989
 30
0.0
 40
0.00333333
 41
0.00333333
  0
SEQEND
 8
0
  0
POLYLINE
  8
0
 62
     0
 66
     1
 10
0
 20
0
 30
0.0
 70
     1
 40
0.24
 41
0.24
  0
VERTEX
  8
0
 10
1.09543
 20
0.474989
 30
0.0
 40
0.00333333
 41
0.00333333
  0
VERTEX
  8
0
 10
1.09543
 20
0.0916883
 30
0.0
 40
0.00333333
 41
0.00333333
  0
VERTEX
  8
0
 10
1.12082
 20
0.105957
 30
0.0
 40
0.00333333
 41
0.00333333
  0
VERTEX
  8
0
 10
1.14811
 20
0.127224
 30
0.0
 40
0.00333333
 41
0.00333333
  0
VERTEX
  8
0
 10
1.17399
 20
0.150717
 30
0.0
 40
0.00333333
 41
0.00333333
  0
VERTEX
  8
0
 10
1.19548
 20
0.171658
 30
0.0
 40
0.00333333
 41
0.00333333
  0
VERTEX
  8
0
 10
1.30344
 20
0.314074
 30
0.0
 40
0.00333333
 41
0.00333333
  0
VERTEX
  8
0
 10
1.38211
 20
0.474989
 30
0.0
 40
0.00333333
 41
0.00333333
  0
VERTEX
  8
0
 10
1.09543
 20
0.474989
 30
0.0
 40
0.00333333
 41
0.00333333
  0
SEQEND
 8
0
  0
POLYLINE
  8
0
 62
     0
 66
     1
 10
0
 20
0
 30
0.0
 70
     1
 40
0.24
 41
0.24
  0
VERTEX
  8
0
 10
1.50211
 20
0.474989
 30
0.0
 40
0.00333333
 41
0.00333333
  0
VERTEX
  8
0
 10
1.48915
 20
0.474881
 30
0.0
 40
0.00333333
 41
0.00333333
  0
VERTEX
  8
0
 10
1.47711
 20
0.471571
 30
0.0
 40
0.00333333
 41
0.00333333
  0
VERTEX
  8
0
 10
1.46821
 20
0.459364
 30
0.0
 40
0.00333333
 41
0.00333333
  0
VERTEX
  8
0
 10
1.46138
 20
0.444988
 30
0.0
 40
0.00333333
 41
0.00333333
  0
VERTEX
  8
0
 10
1.43126
 20
0.381674
 30
0.0
 40
0.00333333
 41
0.00333333
  0
VERTEX
  8
0
 10
1.37196
 20
0.274468
 30
0.0
 40
0.00333333
 41
0.00333333
  0
VERTEX
  8
0
 10
1.30539
 20
0.171658
 30
0.0
 40
0.00333333
 41
0.00333333
  0
VERTEX
  8
0
 10
1.24881
 20
0.0949978
 30
0.0
 40
0.00333333
 41
0.00333333
  0
VERTEX
  8
0
 10
1.27968
 20
0.101074
 30
0.0
 40
0.00333333
 41
0.00333333
  0
VERTEX
  8
0
 10
1.3202
 20
0.112576
 30
0.0
 40
0.00333333
 41
0.00333333
  0
VERTEX
  8
0
 10
1.36089
 20
0.125814
 30
0.0
 40
0.00333333
 41
0.00333333
  0
VERTEX
  8
0
 10
1.39214
 20
0.136936
 30
0.0
 40
0.00333333
 41
0.00333333
  0
VERTEX
  8
0
 10
1.57232
 20
0.229329
 30
0.0
 40
0.00333333
 41
0.00333333
  0
VERTEX
  8
0
 10
1.72304
 20
0.365017
 30
0.0
 40
0.00333333
 41
0.00333333
  0
VERTEX
  8
0
 10
1.74349
 20
0.388889
 30
0.0
 40
0.00333333
 41
0.00333333
  0
VERTEX
  8
0
 10
1.76867
 20
0.419325
 30
0.0
 40
0.00333333
 41
0.00333333
  0
VERTEX
  8
0
 10
1.79249
 20
0.450142
 30
0.0
 40
0.00333333
 41
0.00333333
  0
VERTEX
  8
0
 10
1.80881
 20
0.474989
 30
0.0
 40
0.00333333
 41
0.00333333
  0
VERTEX
  8
0
 10
1.50211
 20
0.474989
 30
0.0
 40
0.00333333
 41
0.00333333
  0
SEQEND
 8
0
  0
POLYLINE
  8
0
 62
     0
 66
     1
 10
0
 20
0
 30
0.0
 70
     1
 40
0.24
 41
0.24
  0
VERTEX
  8
0
 10
0.882107
 20
0.0949978
 30
0.0
 40
0.00333333
 41
0.00333333
  0
VERTEX
  8
0
 10
0.885471
 20
0.0916883
 30
0.0
 40
0.00333333
 41
0.00333333
  0
VERTEX
  8
0
 10
0.885471
 20
0.0949978
 30
0.0
 40
0.00333333
 41
0.00333333
  0
VERTEX
  8
0
 10
0.882107
 20
0.0949978
 30
0.0
 40
0.00333333
 41
0.00333333
  0
SEQEND
 8
0
  0
ENDSEC
  0
EOF
