<?xml version="1.0" encoding="UTF-8" standalone="no"?>
<!DOCTYPE svg PUBLIC "-//W3C//DTD SVG 20010904//EN"
              "http://www.w3.org/TR/2001/REC-SVG-20010904/DTD/svg10.dtd">

<svg xmlns="http://www.w3.org/2000/svg"
     width="3.27667in" height="3.27667in"
     viewBox="0 0 983 983">
  <path id="Selection"
        fill="none" stroke="black" stroke-width="1"
        d="M 507.00,179.21
           C 507.00,179.21 519.00,179.91 519.00,179.91
             550.27,182.20 580.93,189.97 610.00,201.60
             643.91,215.16 675.94,235.70 703.00,260.17
             820.13,366.10 838.71,548.89 745.12,676.00
             721.91,707.52 693.10,734.98 660.00,755.95
             617.54,782.84 559.61,803.41 509.00,804.00
             509.00,804.00 494.00,805.00 494.00,805.00
             494.00,805.00 470.00,804.00 470.00,804.00
             443.30,803.68 401.87,793.15 377.00,783.20
             340.92,768.77 307.51,748.48 279.00,721.91
             228.69,675.04 195.62,614.62 183.42,547.00
             178.69,520.78 178.70,500.36 179.00,474.00
             179.00,474.00 179.91,464.00 179.91,464.00
             181.85,437.46 187.77,411.07 196.69,386.00
             226.94,301.00 292.35,233.91 376.00,200.45
             396.23,192.35 421.43,185.45 443.00,182.27
             443.00,182.27 468.00,179.21 468.00,179.21
             468.00,179.21 507.00,179.21 507.00,179.21 Z
           M 507.00,218.00
           C 507.00,218.00 507.00,241.00 507.00,241.00
             507.00,241.00 507.00,321.00 507.00,321.00
             507.00,321.00 587.00,321.00 587.00,321.00
             572.81,288.06 549.31,249.91 525.71,223.00
             525.71,223.00 508.00,205.00 508.00,205.00
             508.00,205.00 507.00,218.00 507.00,218.00 Z
           M 405.00,213.58
           C 361.46,226.00 322.68,252.13 291.91,285.00
             283.14,294.38 267.71,309.92 262.00,321.00
             262.00,321.00 354.00,321.00 354.00,321.00
             356.22,321.00 359.70,321.22 361.59,319.98
             363.68,318.59 365.54,313.40 366.78,311.00
             366.78,311.00 377.68,292.00 377.68,292.00
             390.76,271.25 405.65,252.11 421.00,233.00
             421.00,233.00 443.00,206.00 443.00,206.00
             432.42,206.23 415.41,210.61 405.00,213.58 Z
           M 455.00,231.00
           C 432.46,253.54 402.63,291.67 390.00,321.00
             390.00,321.00 482.00,321.00 482.00,321.00
             482.00,321.00 482.00,206.00 482.00,206.00
             475.24,209.20 461.09,224.91 455.00,231.00 Z
           M 557.34,220.00
           C 557.34,220.00 581.28,252.00 581.28,252.00
             592.73,268.38 603.19,285.43 612.69,303.00
             614.40,306.16 619.64,318.60 621.64,320.01
             623.41,321.25 626.87,321.00 629.00,321.00
             629.00,321.00 722.00,321.00 722.00,321.00
             717.68,312.15 710.82,302.86 704.87,295.00
             673.69,253.81 630.54,230.11 582.00,215.02
             582.00,215.02 548.00,206.00 548.00,206.00
             548.04,210.51 554.49,216.38 557.34,220.00 Z
           M 249.00,352.00
           C 246.65,352.00 243.37,351.78 241.33,353.02
             238.87,354.51 237.04,358.48 235.76,361.00
             235.76,361.00 227.23,379.00 227.23,379.00
             217.29,400.78 209.32,430.22 206.28,454.00
             206.28,454.00 204.00,476.00 204.00,476.00
             204.00,476.00 335.00,476.00 335.00,476.00
             335.00,476.00 335.91,463.00 335.91,463.00
             338.51,425.03 344.93,388.21 357.00,352.00
             357.00,352.00 249.00,352.00 249.00,352.00 Z
           M 392.00,352.00
           C 389.86,352.00 386.29,351.77 384.51,353.02
             382.51,354.42 381.43,358.71 380.67,361.00
             380.67,361.00 374.63,381.00 374.63,381.00
             365.33,417.15 362.97,439.31 360.00,476.00
             360.00,476.00 482.00,476.00 482.00,476.00
             482.00,476.00 482.00,352.00 482.00,352.00
             482.00,352.00 392.00,352.00 392.00,352.00 Z
           M 614.88,381.00
           C 614.88,381.00 609.00,361.00 609.00,361.00
             608.29,358.85 607.09,354.33 605.30,352.99
             603.63,351.74 600.04,352.00 598.00,352.00
             598.00,352.00 507.00,352.00 507.00,352.00
             507.00,352.00 507.00,476.00 507.00,476.00
             507.00,476.00 629.00,476.00 629.00,476.00
             629.00,444.84 622.83,411.09 614.88,381.00 Z
           M 756.14,379.00
           C 756.14,379.00 747.00,360.00 747.00,360.00
             745.98,358.20 743.94,354.09 742.37,352.99
             740.58,351.75 737.14,352.00 735.00,352.00
             735.00,352.00 633.00,352.00 633.00,352.00
             633.00,352.00 643.35,390.00 643.35,390.00
             649.79,418.09 654.00,447.19 654.00,476.00
             654.00,476.00 779.00,476.00 779.00,476.00
             778.73,446.16 768.11,406.29 756.14,379.00 Z
           M 204.00,508.00
           C 204.00,508.00 205.28,521.00 205.28,521.00
             205.28,521.00 209.45,548.00 209.45,548.00
             213.34,567.44 219.13,584.69 226.60,603.00
             226.60,603.00 235.75,622.00 235.75,622.00
             237.05,624.58 238.66,628.47 241.21,629.98
             243.29,631.20 246.62,631.00 249.00,631.00
             249.00,631.00 356.00,631.00 356.00,631.00
             356.00,631.00 346.65,595.00 346.65,595.00
             340.79,569.48 337.69,546.04 335.91,520.00
             335.91,520.00 335.00,508.00 335.00,508.00
             335.00,508.00 204.00,508.00 204.00,508.00 Z
           M 360.00,508.00
           C 360.00,508.00 361.09,524.00 361.09,524.00
             361.09,524.00 363.16,544.00 363.16,544.00
             365.18,562.79 369.71,584.81 374.86,603.00
             374.86,603.00 380.67,622.00 380.67,622.00
             381.43,624.29 382.51,628.58 384.51,629.98
             386.29,631.23 389.86,631.00 392.00,631.00
             392.00,631.00 482.00,631.00 482.00,631.00
             482.00,631.00 482.00,508.00 482.00,508.00
             482.00,508.00 360.00,508.00 360.00,508.00 Z
           M 507.00,508.00
           C 507.00,508.00 507.00,631.00 507.00,631.00
             507.00,631.00 598.00,631.00 598.00,631.00
             600.04,631.00 603.63,631.26 605.30,630.01
             607.10,628.66 608.28,624.16 609.00,622.00
             609.00,622.00 614.71,603.00 614.71,603.00
             622.53,575.78 629.00,536.24 629.00,508.00
             629.00,508.00 507.00,508.00 507.00,508.00 Z
           M 654.00,508.00
           C 654.00,536.83 649.77,565.95 643.12,594.00
             643.12,594.00 636.58,619.00 636.58,619.00
             636.58,619.00 633.00,631.00 633.00,631.00
             633.00,631.00 735.00,631.00 735.00,631.00
             737.23,631.00 740.57,631.24 742.47,630.01
             744.65,628.59 746.57,624.34 747.75,622.00
             747.75,622.00 756.28,604.00 756.28,604.00
             767.80,577.29 778.74,537.11 779.00,508.00
             779.00,508.00 654.00,508.00 654.00,508.00 Z
           M 421.88,750.00
           C 410.22,734.71 392.50,708.72 383.30,692.00
             383.30,692.00 373.26,673.00 373.26,673.00
             372.17,670.74 370.20,665.31 368.35,663.99
             366.61,662.75 363.10,663.00 361.00,663.00
             361.00,663.00 262.00,663.00 262.00,663.00
             269.17,674.31 282.44,688.44 292.00,698.00
             321.61,727.61 350.17,746.51 389.00,762.00
             400.28,766.50 431.67,776.47 443.00,777.00
             443.00,777.00 421.88,750.00 421.88,750.00 Z
           M 397.00,663.00
           C 398.95,669.84 408.10,686.93 411.74,694.00
             423.00,715.82 433.51,731.39 449.58,750.00
             456.82,758.39 472.29,773.00 482.00,778.00
             482.00,778.00 482.00,663.00 482.00,663.00
             482.00,663.00 397.00,663.00 397.00,663.00 Z
           M 507.00,663.00
           C 507.00,663.00 507.00,778.00 507.00,778.00
             516.39,774.35 529.75,761.25 537.00,754.00
             563.26,727.74 578.49,696.68 593.00,663.00
             593.00,663.00 507.00,663.00 507.00,663.00 Z
           M 629.00,663.00
           C 626.82,663.00 623.32,662.77 621.49,664.02
             619.71,665.25 617.75,669.94 616.78,672.00
             616.78,672.00 607.75,691.00 607.75,691.00
             596.81,712.87 583.86,733.88 569.98,754.00
             569.98,754.00 553.00,777.00 553.00,777.00
             562.16,776.18 586.66,767.95 596.00,764.42
             636.02,749.33 667.06,728.44 695.28,696.00
             701.70,688.62 716.81,670.94 721.00,663.00
             721.00,663.00 629.00,663.00 629.00,663.00 Z
           M 443.00,777.00
           C 443.00,777.00 444.00,778.00 444.00,778.00
             444.00,778.00 444.00,777.00 444.00,777.00
             444.00,777.00 443.00,777.00 443.00,777.00 Z" />
</svg>
