<?xml version="1.0" encoding="UTF-8" standalone="no"?>
<!DOCTYPE svg PUBLIC "-//W3C//DTD SVG 20010904//EN"
              "http://www.w3.org/TR/2001/REC-SVG-20010904/DTD/svg10.dtd">

<svg xmlns="http://www.w3.org/2000/svg"
     width="3.55556in" height="3.55556in"
     viewBox="0 0 256 256">
  <path id="Selection"
        fill="none" stroke="black" stroke-width="1"
        d="M 231.00,15.95
           C 237.01,21.28 250.09,31.57 253.59,38.00
             257.00,44.29 256.08,55.74 256.00,63.00
             255.85,75.52 248.27,96.39 243.14,108.00
             221.32,157.36 179.99,201.66 134.00,229.40
             114.76,241.01 83.71,255.96 61.00,256.00
             61.00,256.00 49.00,256.00 49.00,256.00
             44.81,255.95 41.78,255.64 38.00,253.59
             31.23,249.90 16.81,231.78 10.85,225.00
             5.35,218.75 0.26,213.80 0.02,205.00
             -0.15,199.13 0.31,195.14 3.48,190.01
             6.44,185.23 11.63,181.70 16.00,178.20
             16.00,178.20 37.00,161.58 37.00,161.58
             43.56,156.45 50.26,149.71 59.00,149.10
             67.53,148.50 74.69,152.19 79.65,159.04
             82.54,163.02 86.01,171.86 92.00,170.06
             97.15,168.51 109.53,158.79 114.00,155.08
             129.02,142.59 145.36,126.26 157.55,111.00
             160.79,106.95 165.62,100.44 168.13,96.00
             169.16,94.17 170.85,91.25 170.34,89.09
             169.61,85.96 162.69,82.21 160.01,80.28
             153.74,75.76 149.94,70.91 149.18,63.00
             148.33,54.26 152.45,48.48 157.60,42.00
             157.60,42.00 177.40,17.00 177.40,17.00
             183.98,8.77 186.26,3.73 197.00,0.53
             213.73,-2.20 219.24,5.50 231.00,15.95 Z
           M 187.58,44.00
           C 187.58,44.00 175.00,61.00 175.00,61.00
             184.61,65.69 196.44,73.23 196.96,85.00
             197.56,98.59 186.13,114.77 178.00,125.00
             163.46,143.26 137.88,169.02 119.00,182.57
             111.18,188.19 97.75,196.54 88.00,196.96
             73.59,197.59 67.33,186.27 61.00,175.00
             61.00,175.00 25.00,202.00 25.00,202.00
             27.84,208.06 37.10,217.62 41.85,223.00
             44.40,225.90 47.31,230.04 51.00,231.40
             55.52,233.07 66.24,231.02 71.00,229.87
             87.66,225.85 103.13,218.49 118.00,210.14
             158.01,187.67 194.73,149.02 215.25,108.00
             222.10,94.30 231.64,73.40 231.99,58.00
             232.04,55.43 232.15,52.33 230.98,50.00
             229.33,46.71 224.82,43.30 222.00,40.87
             222.00,40.87 204.00,25.00 204.00,25.00
             204.00,25.00 187.58,44.00 187.58,44.00 Z" />
</svg>
