  0
SECTION
  2
HEADER
  9
$ACADVER
  1
AC1014
  9
$ACADMAINTVER
 70
           0
  9
$DWGCODEPAGE
  3
ANSI_1252
  9
$INSBASE
 10
0.0
 20
0.0
 30
0.0
  9
$EXTMIN
 10
-89.888752068142
 20
-44.426898934658
 30
0.0
  9
$EXTMAX
 10
90.034814435764
 20
43.114829729167
 30
0.0
  9
$LIMMIN
 10
-89.888752068142
 20
-44.426898934658
  9
$LIMMAX
 10
90.034814435764
 20
43.114829729167
  9
$ORTHOMODE
 70
           0
  9
$REGENMODE
 70
           1
  9
$FILLMODE
 70
           1
  9
$QTEXTMODE
 70
           0
  9
$MIRRTEXT
 70
           1
  9
$DRAGMODE
 70
           2
  9
$LTSCALE
 40
1.0
  9
$OSMODE
 70
           0
  9
$ATTMODE
 70
           1
  9
$TEXTSIZE
 40
0.2
  9
$TRACEWID
 40
0.05
  9
$TEXTSTYLE
  7
STANDARD
  9
$CLAYER
  8
0
  9
$CELTYPE
  6
CONTINUOUS
  9
$CECOLOR
 62
         256
  9
$CELTSCALE
 40
1.0
  9
$DELOBJ
 70
           1
  9
$DISPSILH
 70
           0
  9
$DIMSCALE
 40
1.0
  9
$DIMASZ
 40
0.18
  9
$DIMEXO
 40
0.0625
  9
$DIMDLI
 40
0.38
  9
$DIMRND
 40
0.0
  9
$DIMDLE
 40
0.0
  9
$DIMEXE
 40
0.18
  9
$DIMTP
 40
0.0
  9
$DIMTM
 40
0.0
  9
$DIMTXT
 40
0.18
  9
$DIMCEN
 40
0.09
  9
$DIMTSZ
 40
0.0
  9
$DIMTOL
 70
           0
  9
$DIMLIM
 70
           0
  9
$DIMTIH
 70
           1
  9
$DIMTOH
 70
           1
  9
$DIMSE1
 70
           0
  9
$DIMSE2
 70
           0
  9
$DIMTAD
 70
           0
  9
$DIMZIN
 70
           0
  9
$DIMBLK
  1

  9
$DIMASO
 70
           1
  9
$DIMSHO
 70
           1
  9
$DIMPOST
  1

  9
$DIMAPOST
  1

  9
$DIMALT
 70
           0
  9
$DIMALTD
 70
           2
  9
$DIMALTF
 40
25.4
  9
$DIMLFAC
 40
1.0
  9
$DIMTOFL
 70
           0
  9
$DIMTVP
 40
0.0
  9
$DIMTIX
 70
           0
  9
$DIMSOXD
 70
           0
  9
$DIMSAH
 70
           0
  9
$DIMBLK1
  1

  9
$DIMBLK2
  1

  9
$DIMSTYLE
  2
STANDARD
  9
$DIMCLRD
 70
           0
  9
$DIMCLRE
 70
           0
  9
$DIMCLRT
 70
           0
  9
$DIMTFAC
 40
1.0
  9
$DIMGAP
 40
0.09
  9
$DIMJUST
 70
           0
  9
$DIMSD1
 70
           0
  9
$DIMSD2
 70
           0
  9
$DIMTOLJ
 70
           1
  9
$DIMTZIN
 70
           0
  9
$DIMALTZ
 70
           0
  9
$DIMALTTZ
 70
           0
  9
$DIMFIT
 70
           3
  9
$DIMUPT
 70
           0
  9
$DIMUNIT
 70
           4
  9
$DIMDEC
 70
           4
  9
$DIMTDEC
 70
           4
  9
$DIMALTU
 70
           2
  9
$DIMALTTD
 70
           2
  9
$DIMTXSTY
  7
STANDARD
  9
$DIMAUNIT
 70
           0
  9
$LUNITS
 70
           4
  9
$LUPREC
 70
           5
  9
$SKETCHINC
 40
0.1
  9
$FILLETRAD
 40
0.0
  9
$AUNITS
 70
           0
  9
$AUPREC
 70
           0
  9
$MENU
  1
acad
  9
$ELEVATION
 40
0.0
  9
$PELEVATION
 40
0.0
  9
$THICKNESS
 40
0.0
  9
$LIMCHECK
 70
           0
  9
$BLIPMODE
 70
           1
  9
$CHAMFERA
 40
0.0
  9
$CHAMFERB
 40
0.0
  9
$CHAMFERC
 40
0.0
  9
$CHAMFERD
 40
0.0
  9
$SKPOLY
 70
           0
  9
$TDCREATE
 40
0.000000000
  9
$TDUPDATE
 40
0.000000000
  9
$TDINDWG
 40
0.0000000000
  9
$TDUSRTIMER
 40
0.0000000000
  9
$USRTIMER
 70
           1
  9
$ANGBASE
 50
0.0
  9
$ANGDIR
 70
           0
  9
$PDMODE
 70
           0
  9
$PDSIZE
 40
0.0
  9
$PLINEWID
 40
0.0
  9
$COORDS
 70
           0
  9
$SPLFRAME
 70
           0
  9
$SPLINETYPE
 70
           6
  9
$SPLINESEGS
 70
           8
  9
$ATTDIA
 70
           0
  9
$ATTREQ
 70
           1
  9
$HANDLING
 70
           1
  9
$HANDSEED
  5
A4
  9
$SURFTAB1
 70
           6
  9
$SURFTAB2
 70
           6
  9
$SURFTYPE
 70
           6
  9
$SURFU
 70
           6
  9
$SURFV
 70
           6
  9
$UCSNAME
  2

  9
$UCSORG
 10
0.0
 20
0.0
 30
0.0
  9
$UCSXDIR
 10
1.0
 20
0.0
 30
0.0
  9
$UCSYDIR
 10
0.0
 20
1.0
 30
0.0
  9
$PUCSNAME
  2

  9
$PUCSORG
 10
0.0
 20
0.0
 30
0.0
  9
$PUCSXDIR
 10
1.0
 20
0.0
 30
0.0
  9
$PUCSYDIR
 10
0.0
 20
1.0
 30
0.0
  9
$USERI1
 70
           0
  9
$USERI2
 70
           0
  9
$USERI3
 70
           0
  9
$USERI4
 70
           0
  9
$USERI5
 70
           0
  9
$USERR1
 40
0.0
  9
$USERR2
 40
0.0
  9
$USERR3
 40
0.0
  9
$USERR4
 40
0.0
  9
$USERR5
 40
0.0
  9
$WORLDVIEW
 70
           1
  9
$SHADEDGE
 70
           3
  9
$SHADEDIF
 70
          70
  9
$TILEMODE
 70
           1
  9
$MAXACTVP
 70
          16
  9
$PINSBASE
 10
0.0
 20
0.0
 30
0.0
  9
$PLIMCHECK
 70
           0
  9
$PEXTMIN
 10
1.000000000000E+20
 20
1.000000000000E+20
 30
1.000000000000E+20
  9
$PEXTMAX
 10
-1.000000000000E+20
 20
-1.000000000000E+20
 30
-1.000000000000E+20
  9
$PLIMMIN
 10
0.0
 20
0.0
  9
$PLIMMAX
 10
12.0
 20
9.0
  9
$UNITMODE
 70
           0
  9
$VISRETAIN
 70
           1
  9
$PLINEGEN
 70
           1
  9
$PSLTSCALE
 70
           0
  9
$TREEDEPTH
 70
        3020
  9
$PICKSTYLE
 70
           1
  9
$CMLSTYLE
  2
STANDARD
  9
$CMLJUST
 70
           0
  9
$CMLSCALE
 40
1.0
  9
$PROXYGRAPHICS
 70
           0
  9
$MEASUREMENT
 70
           0
  0
ENDSEC
  0
SECTION
  2
CLASSES
  0
CLASS
  1
LWPOLYLINE
  2
AcDbPolyline
  3
"AutoCAD"
 90
        0
280
           0
281
           1
  0
CLASS
  1
IMAGE
  2
AcDbRasterImage
  3
ISM
 90
      127
280
           0
281
           1
  0
CLASS
  1
OLE2FRAME
  2
AcDbOle2Frame
  3
""
 90
        0
280
           0
281
           1
  0
CLASS
  1
HATCH
  2
AcDbHatch
  3
"ACAD_SEDONA"
 90
        0
280
           0
281
           1
  0
CLASS
  1
DICTIONARYVAR
  2
AcDbDictionaryVar
  3
"AutoCAD"
 90
        0
280
           0
281
           0
  0
CLASS
  1
RASTERVARIABLES
  2
AcDbRasterVariables
  3
ISM
 90
        0
280
           0
281
           0
  0
CLASS
  1
IMAGEDEF
  2
AcDbRasterImageDef
  3
ISM
 90
        0
280
           0
281
           0
  0
CLASS
  1
IMAGEDEF_REACTOR
  2
AcDbRasterImageDefReactor
  3
ISM
 90
        1
280
           0
281
           0
  0
CLASS
  1
IDBUFFER
  2
AcDbIdBuffer
  3
"Acad"
 90
        0
280
           0
281
           0
  0
CLASS
  1
SPATIAL_FILTER
  2
AcDbSpatialFilter
  3
"Acad"
 90
        0
280
           0
281
           0
  0
CLASS
  1
XRECORD
  2
AcDbXrecord
  3
"<Built In>"
 90
        0
280
           0
281
           0
  0
CLASS
  1
SORTENTSTABLE
  2
AcDbSortentsTable
  3
"AutoCAD"
 90
        0
280
           0
281
           0
  0
CLASS
  1
LAYER_INDEX
  2
AcDbLayerIndex
  3
"Acad"
 90
        0
280
           0
281
           0
  0
CLASS
  1
SPATIAL_INDEX
  2
AcDbSpatialIndex
  3
"Acad"
 90
        0
280
           0
281
           0
  0
CLASS
  1
OBJECT_PTR
  2
CAseDLPNTableRecord
  3
"ASE-LPNTableRecord"
 90
        1
280
           0
281
           0
  0
CLASS
  1
LAYOUT
  2
AcDbLayout
  3
"AutoCAD 2000"
 90
        0
280
           0
281
           0
  0
CLASS
  1
PLOTSETTINGS
  2
AcDbPlotSettings
  3
"AutoCAD 2000"
 90
        0
280
           0
281
           0
  0
CLASS
  1
ACDBDICTIONARYWDFLT
  2
AcDbDictionaryWithDefault
  3
"AutoCAD 2000"
 90
        0
280
           0
281
           0
  0
CLASS
  1
ACDBPLACEHOLDER
  2
AcDbPlaceHolder
  3
"AutoCAD 2000"
 90
        0
280
           0
281
           0
  0
ENDSEC
  0
SECTION
  2
TABLES
  0
TABLE
  2
VPORT
  5
7
100
AcDbSymbolTable
 70
           1
  0
VPORT
  5
15
100
AcDbSymbolTableRecord
100
AcDbViewportTableRecord
  2
*ACTIVE
 70
           0
 10
0.0
 20
0.0
 11
1.0
 21
1.0
 12
6.591288
 22
4.579184
 13
0.0
 23
0.0
 14
1.0
 24
1.0
 15
0.0
 25
0.0
 16
0.0
 26
0.0
 36
1.0
 17
0.0
 27
0.0
 37
0.0
 40
9.158369
 41
0.688564
 42
50.0
 43
0.0
 44
0.0
 50
0.0
 51
0.0
 71
           0
 72
         100
 73
           1
 74
           1
 75
           0
 76
           0
 77
           0
 78
           0
  0
ENDTAB
  0
TABLE
  2
LTYPE
  5
4
100
AcDbSymbolTable
 70
           3
  0
LTYPE
  5
11
100
AcDbSymbolTableRecord
100
AcDbLinetypeTableRecord
  2
BYBLOCK
 70
          64
  3

 72
          65
 73
           0
 40
0.0
  0
LTYPE
  5
12
100
AcDbSymbolTableRecord
100
AcDbLinetypeTableRecord
  2
BYLAYER
 70
          64
  3

 72
          65
 73
           0
 40
0.0
  0
LTYPE
  5
13
100
AcDbSymbolTableRecord
100
AcDbLinetypeTableRecord
  2
CONTINUOUS
 70
          64
  3
Solid line
 72
          65
 73
           0
 40
0.0
  0
ENDTAB
  0
TABLE
  2
LAYER
  5
2
100
AcDbSymbolTable
 70
           3
  0
LAYER
  5
14
100
AcDbSymbolTableRecord
100
AcDbLayerTableRecord
  2
0
 70
           0
 62
           7
  6
CONTINUOUS
  0
LAYER
  5
1D
100
AcDbSymbolTableRecord
100
AcDbLayerTableRecord
  2
CUT
 70
           0
 62
           7
  6
CONTINUOUS
  0
LAYER
  5
1E
100
AcDbSymbolTableRecord
100
AcDbLayerTableRecord
  2
LAYER_1
 70
           0
 62
           5
  6
CONTINUOUS
  0
ENDTAB
  0
TABLE
  2
STYLE
  5
3
100
AcDbSymbolTable
 70
           1
  0
STYLE
  5
17
100
AcDbSymbolTableRecord
100
AcDbTextStyleTableRecord
  2
STANDARD
 70
           0
 40
0.0
 41
1.0
 50
0.0
 71
           0
 42
0.0
  3
txt
  4

  0
ENDTAB
  0
TABLE
  2
VIEW
  5
5
100
AcDbSymbolTable
 70
           0
  0
ENDTAB
  0
TABLE
  2
UCS
  5
6
100
AcDbSymbolTable
 70
           0
  0
ENDTAB
  0
TABLE
  2
APPID
  5
8
100
AcDbSymbolTable
 70
           1
  0
APPID
  5
16
100
AcDbSymbolTableRecord
100
AcDbRegAppTableRecord
  2
ACAD
 70
           0
  0
ENDTAB
  0
TABLE
  2
DIMSTYLE
  5
9
100
AcDbSymbolTable
 70
           1
  0
DIMSTYLE
105
18
100
AcDbSymbolTableRecord
100
AcDbDimStyleTableRecord
  2
STANDARD
 70
           0
  3

  4

  5

  6

  7

 40
1.0
 41
0.18
 42
0.0625
 43
0.38
 44
0.18
 45
0.0
 46
0.0
 47
0.0
 48
0.0
 71
           0
 72
           0
 73
           1
 74
           1
 75
           0
 76
           0
 77
           0
 78
           0
140
0.18
141
0.09
142
0.0
143
25.4
144
1.0
145
0.0
146
1.0
147
0.09
170
           0
171
           2
172
           0
173
           0
174
           0
175
           0
176
           0
177
           0
178
           0
270
           2
271
           4
272
           4
273
           2
274
           2
275
           0
280
           0
281
           0
282
           0
283
           1
284
           0
285
           0
286
           0
287
           3
288
           0
340
17
  0
ENDTAB
  0
TABLE
  2
BLOCK_RECORD
  5
1
100
AcDbSymbolTable
 70
           0
  0
BLOCK_RECORD
  5
A
100
AcDbSymbolTableRecord
100
AcDbBlockTableRecord
  2
*MODEL_SPACE
  0
BLOCK_RECORD
  5
B
100
AcDbSymbolTableRecord
100
AcDbBlockTableRecord
  2
*PAPER_SPACE
  0
ENDTAB
  0
ENDSEC
  0
SECTION
  2
BLOCKS
  0
BLOCK
  5
D
100
AcDbEntity
  8
0
100
AcDbBlockBegin
  2
*MODEL_SPACE
 70
           0
 10
0.0
 20
0.0
 30
0.0
  3
*MODEL_SPACE
  1

  0
ENDBLK
  5
E
100
AcDbEntity
  8
0
100
AcDbBlockEnd
  0
BLOCK
  5
F
100
AcDbEntity
 67
           1
  8
0
100
AcDbBlockBegin
  2
*PAPER_SPACE
 70
           0
 10
0.0
 20
0.0
 30
0.0
  3
*PAPER_SPACE
  1

  0
ENDBLK
  5
10
100
AcDbEntity
 67
           1
  8
0
100
AcDbBlockEnd
  0
ENDSEC
  0
SECTION
  2
ENTITIES
  0
LINE
  5
1F
100
AcDbEntity
  8
0
  6
CONTINUOUS
 62
          92
 48
12.0
100
AcDbLine
 10
-6.987859446615
 20
9.198404859375
 30
0.0
 11
-15.242692809278
 21
11.385949762541
 31
0.0
  0
LINE
  5
20
100
AcDbEntity
  8
0
  6
CONTINUOUS
 62
          92
 48
12.0
100
AcDbLine
 10
-15.242692809278
 20
11.385949762541
 30
0.0
 11
-8.750157638295
 21
11.635783463065
 31
0.0
  0
LINE
  5
21
100
AcDbEntity
  8
0
  6
CONTINUOUS
 62
          92
 48
12.0
100
AcDbLine
 10
-8.750157638295
 20
11.635783463065
 30
0.0
 11
-18.072772242784
 21
13.759369917525
 31
0.0
  0
LINE
  5
22
100
AcDbEntity
  8
0
  6
CONTINUOUS
 62
          92
 48
12.0
100
AcDbLine
 10
-18.072772242784
 20
13.759369917525
 30
0.0
 11
-12.745563897362
 21
15.008538420148
 31
0.0
  0
LINE
  5
23
100
AcDbEntity
  8
0
  6
CONTINUOUS
 62
          92
 48
12.0
100
AcDbLine
 10
-12.745563897362
 20
15.008538420148
 30
0.0
 11
-21.069326937084
 21
15.758039521722
 31
0.0
  0
LINE
  5
24
100
AcDbEntity
  8
0
  6
CONTINUOUS
 62
          92
 48
12.0
100
AcDbLine
 10
-21.069326937084
 20
15.758039521722
 30
0.0
 11
-17.406871199606
 21
17.506875425394
 31
0.0
  0
LINE
  5
25
100
AcDbEntity
  8
0
  6
CONTINUOUS
 62
          92
 48
12.0
100
AcDbLine
 10
-17.406871199606
 20
17.506875425394
 30
0.0
 11
-26.063584760917
 21
16.132790072508
 31
0.0
  0
LINE
  5
26
100
AcDbEntity
  8
0
  6
CONTINUOUS
 62
          92
 48
12.0
100
AcDbLine
 10
-26.063584760917
 20
16.132790072508
 30
0.0
 11
-21.735227980262
 21
18.631127077755
 31
0.0
  0
LINE
  5
27
100
AcDbEntity
  8
0
  6
CONTINUOUS
 62
          92
 48
12.0
100
AcDbLine
 10
-21.735227980262
 20
18.631127077755
 30
0.0
 11
-30.058991019984
 21
17.132124874607
 31
0.0
  0
LINE
  5
28
100
AcDbEntity
  8
0
  6
CONTINUOUS
 62
          92
 48
12.0
100
AcDbLine
 10
-30.058991019984
 20
17.132124874607
 30
0.0
 11
-27.228911586479
 21
19.630461879853
 31
0.0
  0
LINE
  5
29
100
AcDbEntity
  8
0
  6
CONTINUOUS
 62
          92
 48
12.0
100
AcDbLine
 10
-27.228911586479
 20
19.630461879853
 30
0.0
 11
-33.554971496668
 21
17.257041724869
 31
0.0
  0
LINE
  5
2A
100
AcDbEntity
  8
0
  6
CONTINUOUS
 62
          92
 48
12.0
100
AcDbLine
 10
-33.554971496668
 20
17.257041724869
 30
0.0
 11
-31.557268367134
 21
19.505545029591
 31
0.0
  0
LINE
  5
2B
100
AcDbEntity
  8
0
  6
CONTINUOUS
 62
          92
 48
12.0
100
AcDbLine
 10
-31.557268367134
 20
19.505545029591
 30
0.0
 11
-37.883328277323
 21
17.257041724869
 31
0.0
  0
LINE
  5
2C
100
AcDbEntity
  8
0
  6
CONTINUOUS
 62
          92
 48
12.0
100
AcDbLine
 10
-37.883328277323
 20
17.257041724869
 30
0.0
 11
-35.88562514779
 21
19.630461879853
 31
0.0
  0
LINE
  5
2D
100
AcDbEntity
  8
0
  6
CONTINUOUS
 62
          92
 48
12.0
100
AcDbLine
 10
-35.88562514779
 20
19.630461879853
 30
0.0
 11
-40.546932450034
 21
17.631792275656
 31
0.0
  0
LINE
  5
2E
100
AcDbEntity
  8
0
  6
CONTINUOUS
 62
          92
 48
12.0
100
AcDbLine
 10
-40.546932450034
 20
17.631792275656
 30
0.0
 11
-38.88217984209
 21
19.630461879853
 31
0.0
  0
LINE
  5
2F
100
AcDbEntity
  8
0
  6
CONTINUOUS
 62
          92
 48
12.0
100
AcDbLine
 10
-38.88217984209
 20
19.630461879853
 30
0.0
 11
-43.044061361951
 21
18.131459676705
 31
0.0
  0
LINE
  5
30
100
AcDbEntity
  8
0
  6
CONTINUOUS
 62
          92
 48
12.0
100
AcDbLine
 10
-43.044061361951
 20
18.131459676705
 30
0.0
 11
-41.545784014801
 21
20.255046131165
 31
0.0
  0
LINE
  5
31
100
AcDbEntity
  8
0
  6
CONTINUOUS
 62
          92
 48
12.0
100
AcDbLine
 10
-41.545784014801
 20
20.255046131165
 30
0.0
 11
-47.538893403401
 21
16.882291174082
 31
0.0
  0
LINE
  5
32
100
AcDbEntity
  8
0
  6
CONTINUOUS
 62
          92
 48
12.0
100
AcDbLine
 10
-47.538893403401
 20
16.882291174082
 30
0.0
 11
-44.542338709101
 21
20.130129280902
 31
0.0
  0
LINE
  5
33
100
AcDbEntity
  8
0
  6
CONTINUOUS
 62
          92
 48
12.0
100
AcDbLine
 10
-44.542338709101
 20
20.130129280902
 30
0.0
 11
-50.701923358496
 21
16.75737432382
 31
0.0
  0
LINE
  5
34
100
AcDbEntity
  8
0
  6
CONTINUOUS
 62
          92
 48
12.0
100
AcDbLine
 10
-50.701923358496
 20
16.75737432382
 30
0.0
 11
-49.037170750551
 21
19.630461879853
 31
0.0
  0
LINE
  5
35
100
AcDbEntity
  8
0
  6
CONTINUOUS
 62
          92
 48
12.0
100
AcDbLine
 10
-49.037170750551
 20
19.630461879853
 30
0.0
 11
-54.863804878357
 21
16.382623773033
 31
0.0
  0
LINE
  5
36
100
AcDbEntity
  8
0
  6
CONTINUOUS
 62
          92
 48
12.0
100
AcDbLine
 10
-54.863804878357
 20
16.382623773033
 30
0.0
 11
-53.199052270412
 21
19.380628179328
 31
0.0
  0
LINE
  5
37
100
AcDbEntity
  8
0
  6
CONTINUOUS
 62
          92
 48
12.0
100
AcDbLine
 10
-53.199052270412
 20
19.380628179328
 30
0.0
 11
-58.35978535504
 21
15.882956371984
 31
0.0
  0
LINE
  5
38
100
AcDbEntity
  8
0
  6
CONTINUOUS
 62
          92
 48
12.0
100
AcDbLine
 10
-58.35978535504
 20
15.882956371984
 30
0.0
 11
-56.528557486301
 21
18.756043928017
 31
0.0
  0
LINE
  5
39
100
AcDbEntity
  8
0
  6
CONTINUOUS
 62
          92
 48
12.0
100
AcDbLine
 10
-56.528557486301
 20
18.756043928017
 30
0.0
 11
-62.188716353312
 21
15.13345527041
 31
0.0
  0
LINE
  5
3A
100
AcDbEntity
  8
0
  6
CONTINUOUS
 62
          92
 48
12.0
100
AcDbLine
 10
-62.188716353312
 20
15.13345527041
 30
0.0
 11
-60.357488484574
 21
18.131459676705
 31
0.0
  0
LINE
  5
3B
100
AcDbEntity
  8
0
  6
CONTINUOUS
 62
          92
 48
12.0
100
AcDbLine
 10
-60.357488484574
 20
18.131459676705
 30
0.0
 11
-66.017647351585
 21
14.383954168836
 31
0.0
  0
LINE
  5
3C
100
AcDbEntity
  8
0
  6
CONTINUOUS
 62
          92
 48
12.0
100
AcDbLine
 10
-66.017647351585
 20
14.383954168836
 30
0.0
 11
-64.186419482846
 21
16.882291174082
 31
0.0
  0
LINE
  5
3D
100
AcDbEntity
  8
0
  6
CONTINUOUS
 62
          92
 48
12.0
100
AcDbLine
 10
-64.186419482846
 20
16.882291174082
 30
0.0
 11
-68.514776263501
 21
13.884286767787
 31
0.0
  0
LINE
  5
3E
100
AcDbEntity
  8
0
  6
CONTINUOUS
 62
          92
 48
12.0
100
AcDbLine
 10
-68.514776263501
 20
13.884286767787
 30
0.0
 11
-67.34944943794
 21
16.507540623295
 31
0.0
  0
LINE
  5
3F
100
AcDbEntity
  8
0
  6
CONTINUOUS
 62
          92
 48
12.0
100
AcDbLine
 10
-67.34944943794
 20
16.507540623295
 30
0.0
 11
-72.010756740185
 21
13.634453067262
 31
0.0
  0
LINE
  5
40
100
AcDbEntity
  8
0
  6
CONTINUOUS
 62
          92
 48
12.0
100
AcDbLine
 10
-72.010756740185
 20
13.634453067262
 30
0.0
 11
-70.678954653829
 21
15.508205821197
 31
0.0
  0
LINE
  5
41
100
AcDbEntity
  8
0
  6
CONTINUOUS
 62
          92
 48
12.0
100
AcDbLine
 10
-70.678954653829
 20
15.508205821197
 30
0.0
 11
-74.84083617369
 21
13.134785666213
 31
0.0
  0
LINE
  5
42
100
AcDbEntity
  8
0
  6
CONTINUOUS
 62
          92
 48
12.0
100
AcDbLine
 10
-74.84083617369
 20
13.134785666213
 30
0.0
 11
-72.843133044157
 21
16.382623773033
 31
0.0
  0
LINE
  5
43
100
AcDbEntity
  8
0
  6
CONTINUOUS
 62
          92
 48
12.0
100
AcDbLine
 10
-72.843133044157
 20
16.382623773033
 30
0.0
 11
-78.503291911168
 21
11.88561716359
 31
0.0
  0
LINE
  5
44
100
AcDbEntity
  8
0
  6
CONTINUOUS
 62
          92
 48
12.0
100
AcDbLine
 10
-78.503291911168
 20
11.88561716359
 30
0.0
 11
-76.505588781635
 21
15.258372120672
 31
0.0
  0
LINE
  5
45
100
AcDbEntity
  8
0
  6
CONTINUOUS
 62
          92
 48
12.0
100
AcDbLine
 10
-76.505588781635
 20
15.258372120672
 30
0.0
 11
-81.870346067707
 21
10.762390015625
 31
0.0
  0
LINE
  5
46
100
AcDbEntity
  8
0
  6
CONTINUOUS
 62
          92
 48
12.0
100
AcDbLine
 10
13.557527308161
 20
-12.47316863756
 30
0.0
 11
11.393348917833
 21
-13.847253990445
 31
0.0
  0
LINE
  5
47
100
AcDbEntity
  8
0
  6
CONTINUOUS
 62
          92
 48
12.0
100
AcDbLine
 10
11.393348917833
 20
-13.847253990445
 30
0.0
 11
17.552933567228
 21
-15.596089894117
 31
0.0
  0
LINE
  5
48
100
AcDbEntity
  8
0
  6
CONTINUOUS
 62
          92
 48
12.0
100
AcDbLine
 10
17.552933567228
 20
-15.596089894117
 30
0.0
 11
15.721705698489
 21
-16.720341546478
 31
0.0
  0
LINE
  5
49
100
AcDbEntity
  8
0
  6
CONTINUOUS
 62
          92
 48
12.0
100
AcDbLine
 10
15.721705698489
 20
-16.720341546478
 30
0.0
 11
20.882438783117
 21
-18.219343749626
 31
0.0
  0
LINE
  5
4A
100
AcDbEntity
  8
0
  6
CONTINUOUS
 62
          92
 48
12.0
100
AcDbLine
 10
20.882438783117
 20
-18.219343749626
 30
0.0
 11
18.884735653583
 21
-19.343595401987
 31
0.0
  0
LINE
  5
4B
100
AcDbEntity
  8
0
  6
CONTINUOUS
 62
          92
 48
12.0
100
AcDbLine
 10
18.884735653583
 20
-19.343595401987
 30
0.0
 11
26.043171867744
 21
-21.467181856446
 31
0.0
  0
LINE
  5
4C
100
AcDbEntity
  8
0
  6
CONTINUOUS
 62
          92
 48
12.0
100
AcDbLine
 10
26.043171867744
 20
-21.467181856446
 30
0.0
 11
24.211943999006
 21
-22.841267209331
 31
0.0
  0
LINE
  5
4D
100
AcDbEntity
  8
0
  6
CONTINUOUS
 62
          92
 48
12.0
100
AcDbLine
 10
24.211943999006
 20
-22.841267209331
 30
0.0
 11
30.3715286484
 21
-24.340269412479
 31
0.0
  0
LINE
  5
4E
100
AcDbEntity
  8
0
  6
CONTINUOUS
 62
          92
 48
12.0
100
AcDbLine
 10
30.3715286484
 20
-24.340269412479
 30
0.0
 11
27.874399736483
 21
-25.339604214577
 31
0.0
  0
LINE
  5
4F
100
AcDbEntity
  8
0
  6
CONTINUOUS
 62
          92
 48
12.0
100
AcDbLine
 10
27.874399736483
 20
-25.339604214577
 30
0.0
 11
33.867509125084
 21
-26.713689567463
 31
0.0
  0
LINE
  5
50
100
AcDbEntity
  8
0
  6
CONTINUOUS
 62
          92
 48
12.0
100
AcDbLine
 10
33.867509125084
 20
-26.713689567463
 30
0.0
 11
31.370380213167
 21
-27.962858070086
 31
0.0
  0
LINE
  5
51
100
AcDbEntity
  8
0
  6
CONTINUOUS
 62
          92
 48
12.0
100
AcDbLine
 10
31.370380213167
 20
-27.962858070086
 30
0.0
 11
38.362341166534
 21
-29.087109722446
 31
0.0
  0
LINE
  5
52
100
AcDbEntity
  8
0
  6
CONTINUOUS
 62
          92
 48
12.0
100
AcDbLine
 10
38.362341166534
 20
-29.087109722446
 30
0.0
 11
37.030539080178
 21
-30.33627822507
 31
0.0
  0
LINE
  5
53
100
AcDbEntity
  8
0
  6
CONTINUOUS
 62
          92
 48
12.0
100
AcDbLine
 10
37.030539080178
 20
-30.33627822507
 30
0.0
 11
43.023648468778
 21
-31.46052987743
 31
0.0
  0
LINE
  5
54
100
AcDbEntity
  8
0
  6
CONTINUOUS
 62
          92
 48
12.0
100
AcDbLine
 10
43.023648468778
 20
-31.46052987743
 30
0.0
 11
41.025945339245
 21
-32.709698380053
 31
0.0
  0
LINE
  5
55
100
AcDbEntity
  8
0
  6
CONTINUOUS
 62
          92
 48
12.0
100
AcDbLine
 10
41.025945339245
 20
-32.709698380053
 30
0.0
 11
46.85257946705
 21
-33.459199481627
 31
0.0
  0
LINE
  5
56
100
AcDbEntity
  8
0
  6
CONTINUOUS
 62
          92
 48
12.0
100
AcDbLine
 10
46.85257946705
 20
-33.459199481627
 30
0.0
 11
45.520777380695
 21
-34.583451133988
 31
0.0
  0
LINE
  5
57
100
AcDbEntity
  8
0
  6
CONTINUOUS
 62
          92
 48
12.0
100
AcDbLine
 10
45.520777380695
 20
-34.583451133988
 30
0.0
 11
51.180936247706
 21
-35.457869085824
 31
0.0
  0
LINE
  5
58
100
AcDbEntity
  8
0
  6
CONTINUOUS
 62
          92
 48
12.0
100
AcDbLine
 10
51.180936247706
 20
-35.457869085824
 30
0.0
 11
49.84913416135
 21
-36.831954438709
 31
0.0
  0
LINE
  5
59
100
AcDbEntity
  8
0
  6
CONTINUOUS
 62
          92
 48
12.0
100
AcDbLine
 10
49.84913416135
 20
-36.831954438709
 30
0.0
 11
57.506996157895
 21
-37.706372390546
 31
0.0
  0
LINE
  5
5A
100
AcDbEntity
  8
0
  6
CONTINUOUS
 62
          92
 48
12.0
100
AcDbLine
 10
57.506996157895
 20
-37.706372390546
 30
0.0
 11
55.675768289156
 21
-38.955540893169
 31
0.0
  0
LINE
  5
5B
100
AcDbEntity
  8
0
  6
CONTINUOUS
 62
          92
 48
12.0
100
AcDbLine
 10
55.675768289156
 20
-38.955540893169
 30
0.0
 11
62.334778720934
 21
-39.829958845005
 31
0.0
  0
LINE
  5
5C
100
AcDbEntity
  8
0
  6
CONTINUOUS
 62
          92
 48
12.0
100
AcDbLine
 10
62.334778720934
 20
-39.829958845005
 30
0.0
 11
61.002976634578
 21
-41.578794748677
 31
0.0
  0
LINE
  5
5D
100
AcDbEntity
  8
0
  6
CONTINUOUS
 62
          92
 48
12.0
100
AcDbLine
 10
61.002976634578
 20
-41.578794748677
 30
0.0
 11
67.661987066356
 21
-41.20404419789
 31
0.0
  0
LINE
  5
5E
100
AcDbEntity
  8
0
  6
CONTINUOUS
 62
          92
 48
12.0
100
AcDbLine
 10
67.661987066356
 20
-41.20404419789
 30
0.0
 11
65.298038363075
 21
-43.302647282297
 31
0.0
  0
LINE
  5
5F
100
AcDbEntity
  8
0
  6
CONTINUOUS
 62
          92
 48
12.0
100
AcDbLine
 10
65.298038363075
 20
-43.302647282297
 30
0.0
 11
73.621801402797
 21
-42.053478779674
 31
0.0
  0
LINE
  5
60
100
AcDbEntity
  8
0
  6
CONTINUOUS
 62
          92
 48
12.0
100
AcDbLine
 10
73.621801402797
 20
-42.053478779674
 30
0.0
 11
72.289999316442
 21
-44.052148383871
 31
0.0
  0
LINE
  5
61
100
AcDbEntity
  8
0
  6
CONTINUOUS
 62
          92
 48
12.0
100
AcDbLine
 10
72.289999316442
 20
-44.052148383871
 30
0.0
 11
77.950158183453
 21
-42.178395629936
 31
0.0
  0
LINE
  5
62
100
AcDbEntity
  8
0
  6
CONTINUOUS
 62
          92
 48
12.0
100
AcDbLine
 10
77.950158183453
 20
-42.178395629936
 30
0.0
 11
76.784831357892
 21
-44.426898934658
 31
0.0
  0
LINE
  5
63
100
AcDbEntity
  8
0
  6
CONTINUOUS
 62
          92
 48
12.0
100
AcDbLine
 10
76.784831357892
 20
-44.426898934658
 30
0.0
 11
80.341340998264
 21
-42.777301843642
 31
0.0
  0
LINE
  5
64
100
AcDbEntity
  8
0
  6
CONTINUOUS
 62
          92
 48
12.0
100
AcDbLine
 10
17.686113775863
 20
19.630461879853
 30
0.0
 11
29.505857292269
 21
15.008538420148
 31
0.0
  0
LINE
  5
65
100
AcDbEntity
  8
0
  6
CONTINUOUS
 62
          92
 48
12.0
100
AcDbLine
 10
29.505857292269
 20
15.008538420148
 30
0.0
 11
40.160273983114
 21
8.263028505983
 31
0.0
  0
LINE
  5
66
100
AcDbEntity
  8
0
  6
CONTINUOUS
 62
          92
 48
12.0
100
AcDbLine
 10
40.160273983114
 20
8.263028505983
 30
0.0
 11
47.15223493648
 21
1.517518591819
 31
0.0
  0
LINE
  5
67
100
AcDbEntity
  8
0
  6
CONTINUOUS
 62
          92
 48
12.0
100
AcDbLine
 10
47.15223493648
 20
1.517518591819
 30
0.0
 11
56.141899019381
 21
-9.600081081527
 31
0.0
  0
LINE
  5
68
100
AcDbEntity
  8
0
  6
CONTINUOUS
 62
          92
 48
12.0
100
AcDbLine
 10
56.141899019381
 20
-9.600081081527
 30
0.0
 11
65.298038363075
 21
-20.342930204085
 31
0.0
  0
LINE
  5
69
100
AcDbEntity
  8
0
  6
CONTINUOUS
 62
          92
 48
12.0
100
AcDbLine
 10
65.298038363075
 20
-20.342930204085
 30
0.0
 11
74.287702445975
 21
-31.710363577955
 31
0.0
  0
LINE
  5
6A
100
AcDbEntity
  8
0
  6
CONTINUOUS
 62
          92
 48
12.0
100
AcDbLine
 10
76.285405575509
 20
-30.835945626119
 30
0.0
 11
70.125820926114
 21
-22.091766107757
 31
0.0
  0
LINE
  5
6B
100
AcDbEntity
  8
0
  6
CONTINUOUS
 62
          92
 48
12.0
100
AcDbLine
 10
70.125820926114
 20
-22.091766107757
 30
0.0
 11
66.629840449431
 21
-17.220008947527
 31
0.0
  0
LINE
  5
6C
100
AcDbEntity
  8
0
  6
CONTINUOUS
 62
          92
 48
12.0
100
AcDbLine
 10
66.629840449431
 20
-17.220008947527
 30
0.0
 11
61.635582625597
 21
-11.099083284674
 31
0.0
  0
LINE
  5
6D
100
AcDbEntity
  8
0
  6
CONTINUOUS
 62
          92
 48
12.0
100
AcDbLine
 10
61.635582625597
 20
-11.099083284674
 30
0.0
 11
56.641324801764
 21
-5.477825022871
 31
0.0
  0
LINE
  5
6E
100
AcDbEntity
  8
0
  6
CONTINUOUS
 62
          92
 48
12.0
100
AcDbLine
 10
56.641324801764
 20
-5.477825022871
 30
0.0
 11
51.980017499519
 21
0.143433238933
 31
0.0
  0
LINE
  5
6F
100
AcDbEntity
  8
0
  6
CONTINUOUS
 62
          92
 48
12.0
100
AcDbLine
 10
51.980017499519
 20
0.143433238933
 30
0.0
 11
47.818135979658
 21
4.265689297589
 31
0.0
  0
LINE
  5
70
100
AcDbEntity
  8
0
  6
CONTINUOUS
 62
          92
 48
12.0
100
AcDbLine
 10
47.818135979658
 20
4.265689297589
 30
0.0
 11
42.990353416619
 21
8.762695907032
 31
0.0
  0
LINE
  5
71
100
AcDbEntity
  8
0
  6
CONTINUOUS
 62
          92
 48
12.0
100
AcDbLine
 10
42.990353416619
 20
8.762695907032
 30
0.0
 11
36.497818245636
 21
12.635118265164
 31
0.0
  0
LINE
  5
72
100
AcDbEntity
  8
0
  6
CONTINUOUS
 62
          92
 48
12.0
100
AcDbLine
 10
36.497818245636
 20
12.635118265164
 30
0.0
 11
28.673480988297
 21
17.506875425394
 31
0.0
  0
LINE
  5
73
100
AcDbEntity
  8
0
  6
CONTINUOUS
 62
          92
 48
12.0
100
AcDbLine
 10
28.673480988297
 20
17.506875425394
 30
0.0
 11
16.187836428713
 21
21.62913148405
 31
0.0
  0
LINE
  5
74
100
AcDbEntity
  8
0
  6
CONTINUOUS
 62
          92
 48
12.0
100
AcDbLine
 10
16.187836428713
 20
21.62913148405
 30
0.0
 11
5.866370259457
 21
25.001886441132
 31
0.0
  0
LINE
  5
75
100
AcDbEntity
  8
0
  6
CONTINUOUS
 62
          92
 48
12.0
100
AcDbLine
 10
5.866370259457
 20
25.001886441132
 30
0.0
 11
-2.956818562648
 21
26.126138093493
 31
0.0
  0
LINE
  5
76
100
AcDbEntity
  8
0
  6
CONTINUOUS
 62
          92
 48
12.0
100
AcDbLine
 10
-2.956818562648
 20
26.126138093493
 30
0.0
 11
5.866370259457
 21
23.877634788771
 31
0.0
  0
LINE
  5
77
100
AcDbEntity
  8
0
  6
CONTINUOUS
 62
          92
 48
12.0
100
AcDbLine
 10
5.866370259457
 20
23.877634788771
 30
0.0
 11
12.525380691235
 21
21.504214633788
 31
0.0
  0
LINE
  5
78
100
AcDbEntity
  8
0
  6
CONTINUOUS
 62
          92
 48
12.0
100
AcDbLine
 10
12.525380691235
 20
21.504214633788
 30
0.0
 11
17.686113775863
 21
19.630461879853
 31
0.0
  0
LINE
  5
79
100
AcDbEntity
  8
0
  6
CONTINUOUS
 62
          92
 48
12.0
100
AcDbLine
 10
74.287702445975
 20
-31.710363577955
 30
0.0
 11
80.081041521622
 21
-37.531488800178
 31
0.0
  0
LINE
  5
7A
100
AcDbEntity
  8
0
  6
CONTINUOUS
 62
          92
 48
12.0
100
AcDbLine
 10
80.081041521622
 20
-37.531488800178
 30
0.0
 11
84.908824084661
 21
-42.028495409621
 31
0.0
  0
LINE
  5
7B
100
AcDbEntity
  8
0
  6
CONTINUOUS
 62
          92
 48
12.0
100
AcDbLine
 10
-6.987859446615
 20
9.198404859375
 30
0.0
 11
-11.247286550212
 21
8.263028505983
 31
0.0
  0
LINE
  5
7C
100
AcDbEntity
  8
0
  6
CONTINUOUS
 62
          92
 48
12.0
100
AcDbLine
 10
-11.247286550212
 20
8.263028505983
 30
0.0
 11
-4.754751379228
 21
5.889608350999
 31
0.0
  0
LINE
  5
7D
100
AcDbEntity
  8
0
  6
CONTINUOUS
 62
          92
 48
12.0
100
AcDbLine
 10
-4.754751379228
 20
5.889608350999
 30
0.0
 11
-7.418355551939
 21
5.639774650475
 31
0.0
  0
LINE
  5
7E
100
AcDbEntity
  8
0
  6
CONTINUOUS
 62
          92
 48
12.0
100
AcDbLine
 10
-7.418355551939
 20
5.639774650475
 30
0.0
 11
-0.093444076984
 21
2.391936543655
 31
0.0
  0
LINE
  5
7F
100
AcDbEntity
  8
0
  6
CONTINUOUS
 62
          92
 48
12.0
100
AcDbLine
 10
-0.093444076984
 20
2.391936543655
 30
0.0
 11
-2.257622467312
 21
1.642435442081
 31
0.0
  0
LINE
  5
80
100
AcDbEntity
  8
0
  6
CONTINUOUS
 62
          92
 48
12.0
100
AcDbLine
 10
-2.257622467312
 20
1.642435442081
 30
0.0
 11
4.234912703672
 21
-1.355568964214
 31
0.0
  0
LINE
  5
81
100
AcDbEntity
  8
0
  6
CONTINUOUS
 62
          92
 48
12.0
100
AcDbLine
 10
4.234912703672
 20
-1.355568964214
 30
0.0
 11
1.737783791755
 21
-2.604737466838
 31
0.0
  0
LINE
  5
82
100
AcDbEntity
  8
0
  6
CONTINUOUS
 62
          92
 48
12.0
100
AcDbLine
 10
1.737783791755
 20
-2.604737466838
 30
0.0
 11
9.229170527505
 21
-5.97749242392
 31
0.0
  0
LINE
  5
83
100
AcDbEntity
  8
0
  6
CONTINUOUS
 62
          92
 48
12.0
100
AcDbLine
 10
9.229170527505
 20
-5.97749242392
 30
0.0
 11
6.066140572411
 21
-7.226660926543
 31
0.0
  0
LINE
  5
84
100
AcDbEntity
  8
0
  6
CONTINUOUS
 62
          92
 48
12.0
100
AcDbLine
 10
6.066140572411
 20
-7.226660926543
 30
0.0
 11
11.226873657039
 21
-9.724997931789
 31
0.0
  0
LINE
  5
85
100
AcDbEntity
  8
0
  6
CONTINUOUS
 62
          92
 48
12.0
100
AcDbLine
 10
13.557527308161
 20
-12.47316863756
 30
0.0
 11
7.730893180355
 21
-10.474499033363
 31
0.0
  0
LINE
  5
86
100
AcDbEntity
  8
0
  6
CONTINUOUS
 62
          92
 48
12.0
100
AcDbLine
 10
7.730893180355
 20
-10.474499033363
 30
0.0
 11
11.226873657039
 21
-9.724997931789
 31
0.0
  0
LINE
  5
87
100
AcDbEntity
  8
0
  6
CONTINUOUS
 62
          92
 48
12.0
100
AcDbLine
 10
76.285405575509
 20
-30.835945626119
 30
0.0
 11
86.027035270375
 21
-40.924477023573
 31
0.0
  0
LINE
  5
88
100
AcDbEntity
  8
0
  6
CONTINUOUS
 62
          92
 48
12.0
100
AcDbLine
 10
86.027035270375
 20
-40.924477023573
 30
0.0
 11
84.908824084661
 21
-42.028495409621
 31
0.0
  0
LINE
  5
89
100
AcDbEntity
  8
0
  6
CONTINUOUS
 62
          92
100
AcDbLine
 10
-73.224815555556
 20
21.387841708333
 30
0.0
 11
-71.461000047201
 21
22.343997299154
 31
0.0
  0
LINE
  5
8A
100
AcDbEntity
  8
0
  6
CONTINUOUS
 62
          92
100
AcDbLine
 10
-71.461000047201
 20
22.343997299154
 30
0.0
 11
-66.468178532986
 21
24.86008041276
 31
0.0
  0
LINE
  5
8B
100
AcDbEntity
  8
0
  6
CONTINUOUS
 62
          92
100
AcDbLine
 10
-66.468178532986
 20
24.86008041276
 30
0.0
 11
-58.694288529188
 21
28.407515560872
 31
0.0
  0
LINE
  5
8C
100
AcDbEntity
  8
0
  6
CONTINUOUS
 62
          92
100
AcDbLine
 10
-58.694288529188
 20
28.407515560872
 30
0.0
 11
-48.587267552083
 21
32.457727255208
 31
0.0
  0
LINE
  5
8D
100
AcDbEntity
  8
0
  6
CONTINUOUS
 62
          92
100
AcDbLine
 10
-48.587267552083
 20
32.457727255208
 30
0.0
 11
-36.595053117947
 21
36.482140007487
 31
0.0
  0
LINE
  5
8E
100
AcDbEntity
  8
0
  6
CONTINUOUS
 62
          92
100
AcDbLine
 10
-36.595053117947
 20
36.482140007487
 30
0.0
 11
-23.165582743056
 21
39.952178329427
 31
0.0
  0
LINE
  5
8F
100
AcDbEntity
  8
0
  6
CONTINUOUS
 62
          92
100
AcDbLine
 10
-23.165582743056
 20
39.952178329427
 30
0.0
 11
-8.746793943685
 21
42.339266732747
 31
0.0
  0
LINE
  5
90
100
AcDbEntity
  8
0
  6
CONTINUOUS
 62
          92
100
AcDbLine
 10
-8.746793943685
 20
42.339266732747
 30
0.0
 11
6.213375763889
 21
43.114829729167
 31
0.0
  0
LINE
  5
91
100
AcDbEntity
  8
0
  6
CONTINUOUS
 62
          92
100
AcDbLine
 10
6.213375763889
 20
43.114829729167
 30
0.0
 11
21.26698886339
 21
41.750291830404
 31
0.0
  0
LINE
  5
92
100
AcDbEntity
  8
0
  6
CONTINUOUS
 62
          92
100
AcDbLine
 10
21.26698886339
 20
41.750291830404
 30
0.0
 11
35.966107838542
 21
37.717077548177
 31
0.0
  0
LINE
  5
93
100
AcDbEntity
  8
0
  6
CONTINUOUS
 62
          92
100
AcDbLine
 10
35.966107838542
 20
37.717077548177
 30
0.0
 11
49.122055890842
 21
31.512861242296
 31
0.0
  0
LINE
  5
94
100
AcDbEntity
  8
0
  6
CONTINUOUS
 62
          92
100
AcDbLine
 10
49.122055890842
 20
31.512861242296
 30
0.0
 11
59.986526241319
 21
24.220407485243
 31
0.0
  0
LINE
  5
95
100
AcDbEntity
  8
0
  6
CONTINUOUS
 62
          92
100
AcDbLine
 10
59.986526241319
 20
24.220407485243
 30
0.0
 11
68.773066578776
 21
16.188776107747
 31
0.0
  0
LINE
  5
96
100
AcDbEntity
  8
0
  6
CONTINUOUS
 62
          92
100
AcDbLine
 10
68.773066578776
 20
16.188776107747
 30
0.0
 11
75.695224592014
 21
7.767026940538
 31
0.0
  0
LINE
  5
97
100
AcDbEntity
  8
0
  6
CONTINUOUS
 62
          92
100
AcDbLine
 10
75.695224592014
 20
7.767026940538
 30
0.0
 11
80.966547969835
 21
-0.695780185655
 31
0.0
  0
LINE
  5
98
100
AcDbEntity
  8
0
  6
CONTINUOUS
 62
          92
100
AcDbLine
 10
80.966547969835
 20
-0.695780185655
 30
0.0
 11
84.800584401042
 21
-8.850585440104
 31
0.0
  0
LINE
  5
99
100
AcDbEntity
  8
0
  6
CONTINUOUS
 62
          92
100
AcDbLine
 10
84.800584401042
 20
-8.850585440104
 30
0.0
 11
87.410881574436
 21
-16.348328992079
 31
0.0
  0
LINE
  5
9A
100
AcDbEntity
  8
0
  6
CONTINUOUS
 62
          92
100
AcDbLine
 10
87.410881574436
 20
-16.348328992079
 30
0.0
 11
89.010987178819
 21
-22.839951010851
 31
0.0
  0
LINE
  5
9B
100
AcDbEntity
  8
0
  6
CONTINUOUS
 62
          92
100
AcDbLine
 10
89.010987178819
 20
-22.839951010851
 30
0.0
 11
89.814448902995
 21
-27.97639166569
 31
0.0
  0
LINE
  5
9C
100
AcDbEntity
  8
0
  6
CONTINUOUS
 62
          92
100
AcDbLine
 10
89.814448902995
 20
-27.97639166569
 30
0.0
 11
90.034814435764
 21
-31.408591125868
 31
0.0
  0
LINE
  5
9D
100
AcDbEntity
  8
0
  6
CONTINUOUS
 62
          92
100
AcDbLine
 10
90.034814435764
 20
-31.408591125868
 30
0.0
 11
88.884175970052
 21
-37.060969969727
 31
0.0
  0
LINE
  5
9E
100
AcDbEntity
  8
0
  6
CONTINUOUS
 62
          92
100
AcDbLine
 10
88.884175970052
 20
-37.060969969727
 30
0.0
 11
85.579432296007
 21
-40.83193600434
 31
0.0
  0
LINE
  5
9F
100
AcDbEntity
  8
0
  6
CONTINUOUS
 62
          92
100
AcDbLine
 10
85.579432296007
 20
-40.83193600434
 30
0.0
 11
80.341340998264
 21
-42.777301843642
 31
0.0
  0
LINE
  5
A0
100
AcDbEntity
  8
0
  6
CONTINUOUS
 62
          92
100
AcDbLine
 10
-81.870346067708
 20
10.762390015625
 30
0.0
 11
-88.356924466688
 21
9.10067852474
 31
0.0
  0
LINE
  5
A1
100
AcDbEntity
  8
0
  6
CONTINUOUS
 62
          92
100
AcDbLine
 10
-88.356924466688
 20
9.10067852474
 30
0.0
 11
-89.888752068142
 21
9.632090015625
 31
0.0
  0
LINE
  5
A2
100
AcDbEntity
  8
0
  6
CONTINUOUS
 62
          92
100
AcDbLine
 10
-89.888752068142
 20
9.632090015625
 30
0.0
 11
-85.249994041341
 21
13.385014429687
 31
0.0
  0
LINE
  5
A3
100
AcDbEntity
  8
0
  6
CONTINUOUS
 62
          92
100
AcDbLine
 10
-85.249994041341
 20
13.385014429687
 30
0.0
 11
-73.224815555556
 21
21.387841708333
 31
0.0
  0
ENDSEC
  0
SECTION
  2
OBJECTS
  0
DICTIONARY
  5
19
100
AcDbDictionary
  3
ACAD_GROUP
350
1A
  3
ACAD_MLINESTYLE
350
1B
  0
DICTIONARY
  5
1A
102
{ACAD_REACTORS
330
19
102
}
100
AcDbDictionary
  0
DICTIONARY
  5
1B
102
{ACAD_REACTORS
330
19
102
}
100
AcDbDictionary
  3
STANDARD
350
1C
  0
MLINESTYLE
  5
1C
102
{ACAD_REACTORS
330
1B
102
}
100
AcDbMlineStyle
  2
STANDARD
 70
           0
  3

 62
           0
 51
90.0
 52
90.0
 71
           2
 49
0.5
 62
         256
  6
BYLAYER
 49
-0.5
 62
         256
  6
BYLAYER
  0
ENDSEC
  0
EOF
